<svg xmlns="http://www.w3.org/2000/svg" width="19.267" height="17.964" viewBox="0 0 19.267 17.964">
  <g id="coupon" transform="translate(0.1 -16.846)">
    <path id="Path_41321" data-name="Path 41321" d="M184.787,97.69a.556.556,0,1,0,.384-.641A.556.556,0,0,0,184.787,97.69Z" transform="translate(-177.918 -77.084)" fill="#090b1e" stroke="#090b1e" stroke-width="0.2"/>
    <path id="Path_41322" data-name="Path 41322" d="M18.86,28.381c-3.029-8.817-2.821-8.213-2.833-8.243a2.843,2.843,0,0,0-1.679-1.556c-.108-.037-6.2-1.463-6.381-1.524a1.874,1.874,0,0,0-1.818.4L.924,22.267A2.873,2.873,0,0,0,0,24.377v8.513a1.817,1.817,0,0,0,1.81,1.82H12.988a1.817,1.817,0,0,0,1.81-1.82v-.823l3.116-1.333a1.808,1.808,0,0,0,.947-2.354ZM12.988,33.6H1.81a.7.7,0,0,1-.7-.706V24.377a1.757,1.757,0,0,1,.565-1.291c4.476-4.119,1.709-1.55,5.243-4.808a.706.706,0,0,1,.691-.162c.226.067-.172-.257,5.508,4.97a1.757,1.757,0,0,1,.565,1.291v8.513a.7.7,0,0,1-.7.706Zm4.485-3.885L14.8,30.857v-6.48a2.873,2.873,0,0,0-.924-2.11l-3.891-3.58,4.027.955a1.728,1.728,0,0,1,.988.919c3.023,8.8,2.819,8.209,2.832,8.24A.693.693,0,0,1,17.473,29.712Z" fill="#090b1e" stroke="#090b1e" stroke-width="0.2"/>
    <path id="Path_41323" data-name="Path 41323" d="M151.6,201.168a.557.557,0,0,0-.729.3l-2.71,6.459a.557.557,0,1,0,1.027.431l2.71-6.459A.557.557,0,0,0,151.6,201.168Z" transform="translate(-142.62 -177.321)" fill="#090b1e" stroke="#090b1e" stroke-width="0.2"/>
    <path id="Path_41324" data-name="Path 41324" d="M80.636,194.965a1.764,1.764,0,1,0-1.754,1.948A1.861,1.861,0,0,0,80.636,194.965Zm-1.754.835a.865.865,0,1,1,.641-.835A.768.768,0,0,1,78.882,195.8Z" transform="translate(-74.266 -169.514)" fill="#090b1e" stroke="#090b1e" stroke-width="0.2"/>
    <path id="Path_41325" data-name="Path 41325" d="M230.239,312.011a1.959,1.959,0,1,0,1.754,1.948A1.861,1.861,0,0,0,230.239,312.011Zm0,2.784a.865.865,0,1,1,.641-.835A.768.768,0,0,1,230.239,314.794Z" transform="translate(-220.006 -284.092)" fill="#090b1e" stroke="#090b1e" stroke-width="0.2"/>
  </g>
</svg>
