<svg xmlns="http://www.w3.org/2000/svg" width="19" height="19" viewBox="0 0 19 19">
  <g id="surface1" transform="translate(0 -0.001)">
    <path id="Path_41335" data-name="Path 41335" d="M.557,365.637H10.651a.557.557,0,0,0,.557-.557v-1.187a1.673,1.673,0,0,0-1.113-1.574v-.724A1.6,1.6,0,0,0,8.5,360H2.711a1.6,1.6,0,0,0-1.6,1.6v.724A1.673,1.673,0,0,0,0,363.893v1.188A.557.557,0,0,0,.557,365.637Zm2.155-4.527H8.5a.485.485,0,0,1,.485.485v.629H2.227v-.629A.485.485,0,0,1,2.711,361.109Zm-1.6,2.783a.557.557,0,0,1,.557-.557H9.537a.557.557,0,0,1,.557.557v.631H1.113Zm0,0" transform="translate(0 -346.636)" fill="#090b1e"/>
    <path id="Path_41336" data-name="Path 41336" d="M94.562,11.59a1.669,1.669,0,0,0,2.992-1.2,6.568,6.568,0,0,0,1.381-.394l5.212,6.922a1.67,1.67,0,1,0,2.668-2.009L101.6,7.985a6.578,6.578,0,0,0,.76-1.218,1.67,1.67,0,0,0,1.982-2.543L101.668.666a1.669,1.669,0,0,0-2.992,1.2,6.555,6.555,0,0,0-4.81,3.62,1.67,1.67,0,0,0-1.983,2.544Zm6.267-2.781.743.987-.889.67-.743-.987A6.555,6.555,0,0,0,100.83,8.808Zm4.986,7.548a.557.557,0,0,1-.78-.11l-3.683-4.892.889-.67,3.683,4.892A.557.557,0,0,1,105.816,16.356ZM100,1.226a.557.557,0,0,1,.78.11l2.678,3.558a.557.557,0,0,1-.889.67L99.889,2.005A.557.557,0,0,1,100,1.226ZM99.184,2.92l2.309,3.067a5.453,5.453,0,0,1-4.447,3.348L94.737,6.268A5.448,5.448,0,0,1,99.184,2.92Zm-6.3,3.662a.556.556,0,0,1,.779.11l2.679,3.558h0a.557.557,0,0,1-.889.67L92.773,7.362A.557.557,0,0,1,92.883,6.583Zm0,0" transform="translate(-88.15 0)" fill="#090b1e"/>
  </g>
</svg>
