<?xml version="1.0" encoding="utf-8"?>
<!-- Generator: Adobe Illustrator 23.0.3, SVG Export Plug-In . SVG Version: 6.00 Build 0)  -->
<svg version="1.1" id="Layer_1" xmlns="http://www.w3.org/2000/svg" xmlns:xlink="http://www.w3.org/1999/xlink" x="0px" y="0px"
	 viewBox="0 0 66.7 66.7" style="enable-background:new 0 0 66.7 66.7;" xml:space="preserve">
<style type="text/css">
	.st0{display:none;}
	.st1{display:inline;}
	.st2{font-family:'Raleway-SemiBold';}
	.st3{font-size:12.5607px;}
	.st4{fill:#030104;}
</style>
<image style="display:none;overflow:visible;enable-background:new    ;" width="955" height="370" xlink:href="FA5E583D.jpg"  transform="matrix(0.9987 0 0 0.9987 -795.9607 -45.2237)">
</image>
<g id="surface1" class="st0">
	<path class="st1" d="M30,32.5h3.3v1.6H30V32.5z"/>
	<path class="st1" d="M57.9,30.1l-5.5-0.8c-1-0.6-2.1-1.2-3.1-1.7c-3.6-1.6-7.4-2.5-11.4-2.4h-1c-4.6,0-9.2,1.2-13.2,3.4l-2.8,1.5
		c-3.3,0-6.5,0.9-9.3,2.5c-1.2,0.7-1.9,1.9-1.9,3.2v4.8c0,0.5,0.4,0.8,0.8,0.8h2.7c0.9,2.5,3.7,3.9,6.2,3c1.4-0.5,2.5-1.6,3-3h21.8
		c0.9,2.5,3.7,3.9,6.2,3c1.4-0.5,2.5-1.6,3-3h0.3c0.1,0,0.2,0,0.3-0.1l2.6-1.1c1.2-0.5,2-1.6,1.9-2.9v-6.6
		C58.6,30.5,58.3,30.1,57.9,30.1z M21,40.5c-0.4,1.8-2.1,2.9-3.9,2.5s-2.9-2.1-2.5-3.9c0.4-1.8,2.1-2.9,3.9-2.5
		c1.5,0.3,2.6,1.6,2.6,3.2C21,40.1,21,40.3,21,40.5z M35.7,39.9h-13c0-2.7-2.2-4.9-4.9-4.9s-4.9,2.2-4.9,4.9h-1.6v-4
		c0-0.7,0.4-1.4,1.1-1.8c2.7-1.5,5.7-2.3,8.7-2.3h14.7v8.1H35.7z M35.7,30.1H24.2l0.2-0.1c3.5-1.9,7.4-3,11.3-3.1V30.1z M37.3,26.8
		h0.5c3.3,0,6.5,0.6,9.6,1.8L46,30.1h-8.6v-3.3H37.3z M52,40.5c-0.4,1.8-2.1,2.9-3.9,2.5c-1.8-0.4-2.9-2.1-2.5-3.9
		c0.4-1.8,2.1-2.9,3.9-2.5c1.5,0.3,2.6,1.6,2.6,3.2C52,40.1,52,40.3,52,40.5z M56.9,32.5h-2.4v1.6h2.4v3.3c0,0.6-0.4,1.1-0.9,1.4
		l-2.3,0.9c0-0.1,0-0.1,0-0.2c0-0.1,0-0.2,0-0.2c0-0.1,0-0.2,0-0.2c0-0.1,0-0.2,0-0.2c0-0.1,0-0.2-0.1-0.2c0-0.1,0-0.2-0.1-0.2
		c0-0.1-0.1-0.1-0.1-0.2c0-0.1-0.1-0.2-0.1-0.2c0-0.1-0.1-0.1-0.1-0.2c0-0.1-0.1-0.1-0.1-0.2c0-0.1-0.1-0.1-0.1-0.2
		c0-0.1-0.1-0.1-0.1-0.2c0-0.1-0.1-0.1-0.1-0.2c0-0.1-0.1-0.1-0.1-0.2c-0.1-0.1-0.1-0.1-0.2-0.2c-0.1-0.1-0.1-0.1-0.2-0.2
		c-0.1-0.1-0.1-0.1-0.2-0.2c-0.1-0.1-0.1-0.1-0.2-0.2C51.8,36,51.8,36,51.7,36c-0.1,0-0.1-0.1-0.2-0.1c-0.1,0-0.1-0.1-0.2-0.1
		c-0.1,0-0.1-0.1-0.2-0.1c-0.1,0-0.1-0.1-0.2-0.1c-0.1,0-0.1-0.1-0.2-0.1c-0.1,0-0.2-0.1-0.2-0.1c-0.1,0-0.1-0.1-0.2-0.1
		c-0.1,0-0.2,0-0.3-0.1c-0.1,0-0.1,0-0.2,0c-0.1,0-0.2,0-0.3,0s-0.1,0-0.2,0c-0.2,0-0.3,0-0.5,0c-2.7,0-4.9,2.2-4.9,4.9h-6.5v-8.2h9
		c0.2,0,0.4-0.1,0.6-0.2l2.1-2.1c0.9,0.4,1.8,0.9,2.6,1.4c0.1,0.1,0.2,0.1,0.3,0.1l5,0.7L56.9,32.5L56.9,32.5z"/>
</g>
<g class="st0">
	<g class="st1">
		<g>
			<path d="M46.7,44.7l-5.2-1.9c0-0.2-0.1-0.5-0.2-0.7l-1.7-1.7v-2.9c0.2-0.1,0.3-0.3,0.5-0.4c2.1-2,3.3-4.7,3.3-7.6v-2.3
				c0.6-1.4,0.9-2.8,0.9-4.3v-9.5c0-0.5-0.4-0.9-0.9-0.9H30.2c-4.7,0-8.5,3.8-8.5,8.5v1.9c0,1.5,0.3,2.9,0.9,4.3v2
				c0,3.3,1.5,6.3,3.8,8.3v3l-1.7,1.7c-0.2,0.2-0.3,0.4-0.2,0.7l-5.5,2c-0.4,0.1-0.8,0.3-1.1,0.6c-0.3,0-1.3,1.3-1.3,1.3
				c-0.5,0.7-0.7,1.6-0.7,2.5v6.8c0,0.5,0.4,0.9,0.9,0.9s0.9-0.4,0.9-0.9v-6.8c0-1.2,0.8-2.3,1.9-2.7l5.8-2.1l2.4,3.6
				c0.3,0.5,0.8,0.8,1.3,0.8c0.1,0,0.1,0,0.2,0c0.5,0,1-0.2,1.3-0.5l1.5-1.5v9.3c0,0.5,0.4,0.9,0.9,0.9s0.9-0.4,0.9-0.9v-9.3
				l1.5,1.5c0.3,0.3,0.8,0.5,1.3,0.5c0.1,0,0.1,0,0.2,0c0.6-0.1,1-0.3,1.3-0.8l2.4-3.6l5.8,2.1c1.1,0.4,1.9,1.5,1.9,2.7v6.8
				c0,0.5,0.4,0.9,0.9,0.9s0.9-0.4,0.9-0.9v-6.8c0-1.2-0.5-2.4-1.3-3.3l-0.6-0.5L46.7,44.7z M24.4,29.2V27c0-0.1,0-0.3-0.1-0.4
				c-0.6-1.2-0.9-2.4-0.9-3.7V21c0-3.7,3-6.7,6.7-6.7h12.4v8.6c0,1.3-0.3,2.5-0.9,3.7c-0.1,0.1-0.1,0.3-0.1,0.4v2.5
				c0,2.4-1,4.6-2.7,6.3c-0.2,0.2-0.4,0.4-0.7,0.6l0,0c-1.6,1.2-3.7,1.9-5.8,1.7C27.9,37.8,24.4,33.9,24.4,29.2z M29.4,47
				C29.4,47.1,29.4,47.1,29.4,47C29.3,47.1,29.3,47,29.4,47l-2.9-4.2l0.9-0.9l4.2,2.9L29.4,47z M33,43.6l-4.8-3.3v-1.7
				c1.2,0.7,2.6,1.1,4.1,1.2c0.2,0,0.5,0,0.7,0c1.7,0,3.3-0.4,4.8-1.2v1.6L33,43.6z M36.7,47C36.7,47,36.7,47.1,36.7,47
				C36.6,47.1,36.6,47.1,36.7,47l-2.3-2.2l4.2-2.9l0.9,0.9L36.7,47z"/>
		</g>
	</g>
	<g class="st1">
		<g>
			<path d="M40.3,23.2c-3.4-3.4-10.4-2.7-13.3-2.3c-0.9,0.1-1.6,0.9-1.6,1.8v2c0,0.5,0.4,0.9,0.9,0.9s0.9-0.4,0.9-0.9v-2v-0.1
				c1.1-0.2,3.4-0.4,5.8-0.3c2.8,0.2,4.8,0.9,6,2.1c0.3,0.3,0.9,0.3,1.3,0C40.6,24.1,40.6,23.5,40.3,23.2z"/>
		</g>
	</g>
	<g class="st1">
		<g>
			<path d="M22.6,51.4c-0.5,0-0.9,0.4-0.9,0.9v3.8c0,0.5,0.4,0.9,0.9,0.9s0.9-0.4,0.9-0.9v-3.8C23.5,51.8,23.1,51.4,22.6,51.4z"/>
		</g>
	</g>
	<g class="st1">
		<g>
			<path d="M43.5,51.4c-0.5,0-0.9,0.4-0.9,0.9v3.8c0,0.5,0.4,0.9,0.9,0.9s0.9-0.4,0.9-0.9v-3.8C44.4,51.8,44,51.4,43.5,51.4z"/>
		</g>
	</g>
</g>
<g class="st0">
	<g id="XMLID_700_" class="st1">
		<g id="XMLID_684_">
			<g id="XMLID_685_">
				<path id="XMLID_699_" d="M50.8,26.5c0.2,0,0.4-0.1,0.6-0.2c0.2-0.2,0.2-0.4,0.2-0.6s-0.1-0.4-0.2-0.6c-0.2-0.2-0.4-0.2-0.6-0.2
					s-0.4,0.1-0.6,0.2C50,25.3,50,25.5,50,25.7s0.1,0.4,0.2,0.6C50.4,26.4,50.6,26.5,50.8,26.5z"/>
				<path id="XMLID_698_" d="M28.9,48.9L28.9,48.9c-0.5,0-0.8,0.4-0.8,0.8s0.4,0.8,0.8,0.8l0,0c0.5,0,0.8-0.4,0.8-0.8
					S29.4,48.9,28.9,48.9z"/>
				<path id="XMLID_691_" d="M54.9,45.4V18.1c0-1.4-1.1-2.5-2.5-2.5h-2.8v-0.5c0-1.5-1.3-2.8-2.8-2.8S44,13.6,44,15.1v0.5h-7.4v-0.5
					c0-1.5-1.3-2.8-2.8-2.8S31,13.6,31,15.1v0.5h-7.4v-0.5c0-1.5-1.3-2.8-2.8-2.8S18,13.6,18,15.1v0.5h-2.8c-1.4,0-2.5,1.1-2.5,2.5
					v34c0,1.4,1.1,2.5,2.5,2.5h30.7c0.2,0,0.4-0.1,0.6-0.2l0,0l8.3-8.3l0,0C54.8,45.9,54.9,45.7,54.9,45.4z M45.7,15.1
					c0-0.6,0.5-1.2,1.2-1.2s1.2,0.5,1.2,1.2v4c0,0.6-0.5,1.2-1.2,1.2s-1.2-0.5-1.2-1.2V15.1z M32.7,15.1c0-0.6,0.5-1.2,1.2-1.2
					s1.2,0.5,1.2,1.2v4c0,0.6-0.5,1.2-1.2,1.2s-1.2-0.5-1.2-1.2V15.1L32.7,15.1z M19.6,15.1c0-0.6,0.5-1.2,1.2-1.2s1.2,0.5,1.2,1.2
					v4c0,0.6-0.5,1.2-1.2,1.2s-1.2-0.5-1.2-1.2V15.1z M14.4,52.1v-1.5h11.3c0.5,0,0.8-0.4,0.8-0.8S26.1,49,25.7,49H14.4V26.5h33.2
					c0.5,0,0.8-0.4,0.8-0.8c0-0.5-0.4-0.8-0.8-0.8H14.4v-6.8c0-0.5,0.4-0.8,0.8-0.8H18v1.9c0,1.5,1.3,2.8,2.8,2.8s2.8-1.3,2.8-2.8
					v-1.9H31v1.9c0,1.5,1.3,2.8,2.8,2.8s2.8-1.3,2.8-2.8v-1.9H44v1.9c0,1.5,1.3,2.8,2.8,2.8s2.8-1.3,2.8-2.8v-1.9h2.8
					c0.5,0,0.8,0.4,0.8,0.8v26.5h-5.8c-1.4,0-2.5,1.1-2.5,2.5v5.8H15.2C14.7,52.9,14.4,52.5,14.4,52.1z M46.7,51.7v-4.6
					c0-0.5,0.4-0.8,0.8-0.8h4.6L46.7,51.7z"/>
			</g>
		</g>
	</g>
	<text transform="matrix(1 0 0 1 17.6925 42.3954)" class="st1 st2 st3">YEAR</text>
</g>
<g class="st0">
	<path class="st1" d="M79.2,80.2c6.6-4.8,3.4-15.8-4.5-15.8h-7c-1.7,0-3,1.4-3,3.2v18.1c0,4.3,6,4.2,6,0v-4h1.7l5.1,6.2
		c2.6,3.1,7.1-1.1,4.5-4.3L79.2,80.2z M70.7,70.9h4c2.7,0,2.7,4.4,0,4.4h-4V70.9z"/>
	<path class="st1" d="M-2.4,78.3c8.3-1.6,7.2-14.8-1.2-14.8h-8.5c-4,0-4,6.4,0,6.4h8.5c1.2,0,1.3,1.8,0.2,2.1
		C-16.9,74.7-17,87.4-12,87.4H0.3c4,0,4-6.4,0-6.4h-8.4C-6.7,78.8-5,78.8-2.4,78.3z"/>
	<path class="st1" d="M-10.4-10.9h1.5V3.4c0,4.3,6,4.2,6,0v-17.6c0-1.8-1.3-3.2-3-3.2h-4.5C-14.4-17.4-14.4-10.9-10.4-10.9z"/>
	<path class="st1" d="M36,0.1h-8.3c-4,0-4,6.4,0,6.4H36c5.7,0,9.1-6.9,5.8-11.9c3.3-5,0-11.9-5.8-11.9h-8.3c-4,0-4,6.4,0,6.4H36
		c1.4,0,1.4,2.3,0,2.3h-5c-4,0-4,6.4,0,6.4h5C37.5-2.2,37.5,0.1,36,0.1z"/>
	<path class="st1" d="M41.1,73.5h-1.7v-6.2c0-4.2-6-4.2-6,0v6.2h-3.9v-6.2c0-4.2-6-4.2-6,0v9.4c0,1.8,1.3,3.2,3,3.2h6.9v4.8
		c0,4.2,6,4.2,6,0v-4.8h1.7C45.1,79.9,45.1,73.5,41.1,73.5z"/>
	<path class="st1" d="M75.1,0.1h-6.8c-4,0-4,6.4,0,6.4h6.8c9.4,0,9.4-15.2,0-15.2h-3.5l0.3-2.3h7.3c4,0,4-6.4,0-6.4h-10
		c-1.5,0-2.8,1.2-3,2.8l-1,8.7c-0.2,1.9,1.2,3.6,3,3.6H75C76.5-2.2,76.5,0.1,75.1,0.1z"/>
	<path class="st1" d="M70.6,56.9c0,4.2,6,4.2,6,0V14.7c0-4.2-6-4.2-6,0v17.9H45.3c-1.1-4.4-4.4-8-8.5-9.1v-8.8c0-4.2-6-4.2-6,0v8.8
		c-4.1,1.2-7.4,4.7-8.5,9.1H-3V14.7c0-4.2-6-4.2-6,0V57c0,4.2,6,4.2,6,0V39h25.3c1.1,4.4,4.4,8,8.5,9.1v8.8c0,4.2,6,4.2,6,0v-8.8
		c4.1-1.2,7.4-4.7,8.5-9.1h25.3V56.9z M39.7,35.8c0,3.5-2.6,6.3-5.9,6.3c-3.2,0-5.9-2.8-5.9-6.3s2.6-6.3,5.9-6.3
		S39.7,32.3,39.7,35.8z"/>
</g>
<g class="st0">
	<g class="st1">
		<g>
			<path d="M43.4,33.7h-7.6v-3.9c2.5-1,4.2-3.4,4.2-6.2c0-3.7-3-6.7-6.7-6.7s-6.7,3-6.7,6.7c0,2.8,1.7,5.2,4.2,6.2v3.9h-7.6
				c-1.9,0-3.4,1.5-3.4,3.4v16.8c0,1.9,1.5,3.4,3.4,3.4h20.1c1.9,0,3.4-1.5,3.4-3.4V37C46.7,35.2,45.2,33.7,43.4,33.7z M28.3,23.6
				c0-2.8,2.3-5,5-5s5,2.3,5,5s-2.3,5-5,5S28.3,26.4,28.3,23.6z M34.2,30.2v12.7c0,0.5-0.4,0.8-0.8,0.8s-0.8-0.4-0.8-0.8V30.2
				c0.3,0,0.6,0.1,0.8,0.1C33.6,30.3,33.9,30.3,34.2,30.2z M31,43.7L31,43.7c0.3,1,1.3,1.7,2.4,1.7s2-0.7,2.4-1.7h3.5
				c0.5,0,0.8-0.4,0.8-0.8v-3.4c0-0.5,0.4-0.8,0.8-0.8s0.8,0.4,0.8,0.8v11.7c0,0.5-0.4,0.8-0.8,0.8S40,51.7,40,51.3v-4.2
				c0-0.5-0.4-0.8-0.8-0.8H35c-0.5,0-0.8,0.4-0.8,0.8v4.2c0,0.5-0.4,0.8-0.8,0.8s-0.8-0.4-0.8-0.8v-4.2c0-0.5-0.4-0.8-0.8-0.8h-4.2
				c-0.5,0-0.8,0.4-0.8,0.8v4.2c0,0.5-0.4,0.8-0.8,0.8c-0.5,0-0.8-0.4-0.8-0.8V39.5c0-0.5,0.4-0.8,0.8-0.8c0.5,0,0.8,0.4,0.8,0.8
				v3.4c0,0.5,0.4,0.8,0.8,0.8H31L31,43.7z M45.1,53.8c0,0.9-0.8,1.7-1.7,1.7H23.2c-0.9,0-1.7-0.8-1.7-1.7V37c0-0.9,0.8-1.7,1.7-1.7
				h7.6V42h-2.5v-2.5c0-1.4-1.1-2.5-2.5-2.5s-2.5,1.1-2.5,2.5v11.7c0,1.4,1.1,2.5,2.5,2.5s2.5-1.1,2.5-2.5v-3.4h2.5v3.4
				c0,1.4,1.1,2.5,2.5,2.5s2.5-1.1,2.5-2.5v-3.4h2.5v3.4c0,1.4,1.1,2.5,2.5,2.5s2.5-1.1,2.5-2.5V39.5c0-1.4-1.1-2.5-2.5-2.5
				s-2.5,1.1-2.5,2.5V42h-2.5v-6.7h7.6c0.9,0,1.7,0.8,1.7,1.7C45.1,37,45.1,53.8,45.1,53.8z"/>
		</g>
	</g>
	<g class="st1">
		<g>
			<path d="M33.3,20.2c-1.9,0-3.4,1.5-3.4,3.4c0,0.5,0.4,0.8,0.8,0.8c0.5,0,0.8-0.4,0.8-0.8c0-0.9,0.8-1.7,1.7-1.7
				c0.5,0,0.8-0.4,0.8-0.8C34.2,20.6,33.8,20.2,33.3,20.2z"/>
		</g>
	</g>
</g>
<g class="st0">
	<g class="st1">
		<g>
			<path d="M44.4,24.9c0-0.9-0.5-1.7-1.3-2s-1.8-0.1-2.4,0.5l-4.9-2.5c0-0.1,0-0.2,0-0.3c0-1.2-1-2.1-2.1-2.1c-1.2,0-2.1,1-2.1,2.1
				c0,0.1,0,0.2,0,0.3l-4.9,2.5c-0.6-0.7-1.5-0.9-2.4-0.5c-0.8,0.3-1.4,1.1-1.3,2c0,0.9,0.6,1.7,1.4,2v5.3c-0.9,0.3-1.4,1.1-1.4,2
				s0.5,1.7,1.3,2s1.7,0.1,2.3-0.5l4.9,3.2c-0.2,0.8,0.2,1.7,0.9,2.2s1.6,0.5,2.4,0c0.7-0.5,1.1-1.3,0.9-2.2l4.9-3.2
				c0.6,0.6,1.6,0.8,2.4,0.5s1.3-1.2,1.3-2c0-0.9-0.6-1.7-1.4-2v-5.3C43.8,26.6,44.4,25.8,44.4,24.9z M33.7,19.9
				c0.4,0,0.7,0.3,0.7,0.7s-0.3,0.7-0.7,0.7S33,21,33,20.6S33.3,19.9,33.7,19.9z M27.3,24.8l5-2.6c0.8,0.8,2.1,0.8,2.9,0l5,2.6v0.1
				c0,0.1,0,0.2,0,0.3l-5.1,3c-0.8-0.7-2-0.7-2.8,0l-5.1-3c0-0.1,0-0.2,0-0.3C27.3,24.8,27.3,24.8,27.3,24.8z M34.4,29.9
				c0,0.4-0.3,0.7-0.7,0.7S33,30.3,33,29.9s0.3-0.7,0.7-0.7C34.1,29.2,34.4,29.5,34.4,29.9z M25.1,24.2c0.4,0,0.7,0.3,0.7,0.7
				c0,0.4-0.3,0.7-0.7,0.7c-0.4,0-0.7-0.3-0.7-0.7S24.7,24.2,25.1,24.2z M25.1,34.9c-0.4,0-0.7-0.3-0.7-0.7s0.3-0.7,0.7-0.7
				c0.4,0,0.7,0.3,0.7,0.7C25.8,34.6,25.5,34.9,25.1,34.9z M32.3,37.6l-5-3.2c0-0.1,0-0.1,0-0.2c0-0.9-0.6-1.7-1.4-2v-5.3
				c0.3-0.1,0.5-0.2,0.7-0.4l5.1,3c-0.2,1,0.4,2.1,1.4,2.4v5.3C32.7,37.3,32.5,37.4,32.3,37.6z M33.7,39.9c-0.4,0-0.7-0.3-0.7-0.7
				s0.3-0.7,0.7-0.7s0.7,0.3,0.7,0.7C34.4,39.6,34.1,39.9,33.7,39.9z M41.6,32.2c-0.9,0.3-1.4,1.1-1.4,2c0,0.1,0,0.1,0,0.2l-5,3.2
				c-0.2-0.2-0.4-0.3-0.7-0.4v-5.3c1-0.3,1.6-1.4,1.4-2.4l5.1-3c0.2,0.2,0.4,0.3,0.7,0.4L41.6,32.2L41.6,32.2z M42.3,34.9
				c-0.4,0-0.7-0.3-0.7-0.7s0.3-0.7,0.7-0.7s0.7,0.3,0.7,0.7C43,34.6,42.7,34.9,42.3,34.9z M42.3,25.6c-0.4,0-0.7-0.3-0.7-0.7
				c0-0.4,0.3-0.7,0.7-0.7s0.7,0.3,0.7,0.7C43,25.3,42.7,25.6,42.3,25.6z"/>
			<path d="M51.6,14.2H15.8c-2,0-3.6,1.6-3.6,3.6v30c0,2,1.6,3.6,3.6,3.6h11.4v1.4h-5c-0.2,0-0.4,0.1-0.5,0.2
				c-0.1,0.1-0.2,0.3-0.2,0.5v2.9c0,0.2,0.1,0.4,0.2,0.5s0.3,0.2,0.5,0.2h22.9c0.2,0,0.4-0.1,0.5-0.2c0.1-0.1,0.2-0.3,0.2-0.5v-2.9
				c0-0.2-0.1-0.4-0.2-0.5c-0.1-0.1-0.3-0.2-0.5-0.2h-5v-1.4h11.4c2,0,3.6-1.6,3.6-3.6v-30C55.1,15.8,53.5,14.2,51.6,14.2z
				 M44.4,54.2v1.4H23v-1.4H44.4z M28.7,52.8v-1.4h10v1.4H28.7z M53.7,47.8c0,1.2-1,2.1-2.1,2.1H15.8c-1.2,0-2.1-1-2.1-2.1v-2.1h40
				V47.8L53.7,47.8z M53.7,44.2h-40V17.7c0-1.2,1-2.1,2.1-2.1h35.7c1.2,0,2.1,1,2.1,2.1L53.7,44.2L53.7,44.2z"/>
		</g>
	</g>
</g>
<g class="st0">
	<g class="st1">
		<path class="st4" d="M35.4,41.9c0.9-0.1,1.6-0.7,1.7-1.6c0.1-1.1-0.7-2.1-1.8-2.1l-9.5-7l7.7,9C33.5,41.2,34.3,42,35.4,41.9z"/>
		<path class="st4" d="M50.4,24.8c-5.1-5.1-12.2-7.5-19.6-6.3c-3.5,0.5-6.8,1.9-9.6,4c-6,4.4-9.4,11.1-9.4,18.3c0,3.9,1,7.6,2.8,11
			h4.2l2-1.2c0.6-0.3,0.8-1.1,0.5-1.7l-0.1-0.1c-0.4-0.6-1.2-0.9-1.8-0.5l-2.8,1.6c-1.4-2.7-2.2-5.8-2.2-9.1c0-0.6,0-1.2,0.1-1.7
			l3.5,0.6c0.7,0.1,1.3-0.3,1.5-1l0,0c0.1-0.8-0.4-1.5-1.2-1.6L15,36.3c0.9-3.8,2.8-7.2,5.5-9.8l2.4,2.8c0.5,0.6,1.3,0.6,1.9,0.2
			l0.1-0.1c0.5-0.5,0.6-1.3,0.2-1.8l-2.4-2.9c3-2.3,6.6-3.7,10.6-3.9v3.7c0,0.8,0.6,1.4,1.4,1.4l0,0c0.7,0,1.3-0.6,1.3-1.3v-3.9
			c4,0.3,7.6,1.7,10.6,3.9l-2.4,2.9c-0.5,0.6-0.4,1.4,0.2,1.9l0,0c0.6,0.5,1.4,0.4,1.9-0.2l2.4-2.8c2.7,2.6,4.6,6,5.5,9.8l-3.4,0.6
			c-0.8,0.1-1.3,0.9-1.1,1.6v0.1c0.1,0.7,0.7,1.1,1.4,1l3.5-0.6c0,0.6,0.1,1.1,0.1,1.7c0,3.3-0.8,6.4-2.2,9.1l-2.8-1.6
			c-0.7-0.4-1.5-0.2-1.9,0.5l0,0c-0.4,0.6-0.1,1.4,0.5,1.8l2,1.1h4.2c1.8-3.3,2.8-7.1,2.8-11C57.1,34.7,54.7,29.1,50.4,24.8z"/>
	</g>
</g>
<g class="st0">
	<g class="st1">
		<g>
			<path d="M42.4,20.4H20.9c-2.3,0-4.2,1.9-4.2,4.2V46c0,2.3,1.9,4.2,4.2,4.2h6.6V49h-6.6c-1.7,0-3-1.3-3-3V35.9h3.8
				c0.4,0,0.6-0.3,0.6-0.7c0-0.1,0-0.1,0-0.2c-0.5-1.2,0-2.6,1.2-3.2c1.2-0.5,2.6,0,3.2,1.2c0.3,0.6,0.3,1.3,0,1.9
				c-0.1,0.3,0,0.7,0.3,0.8c0.1,0,0.2,0.1,0.3,0.1h3.8v3.6c-0.2,0-0.4-0.1-0.6,0c-2,0-3.6,1.6-3.6,3.6c0,1.4,0.8,2.7,2.2,3.3
				l0.5-1.1c-1.2-0.5-1.8-1.9-1.2-3.1c0.4-0.9,1.2-1.4,2.2-1.4c0.3,0,0.7,0.1,1,0.2c0.3,0.1,0.7,0,0.8-0.3c0-0.1,0-0.2,0-0.2V36h3
				c0,0.2-0.1,0.4-0.1,0.6c0,1.7,1.2,3.2,2.9,3.5l0.2-1.2c-1.1-0.2-1.9-1.2-1.9-2.3c0-0.3,0.1-0.7,0.2-1c0.1-0.3,0-0.7-0.3-0.8
				c-0.1,0-0.2,0-0.2,0h-3.8v-3c0.2,0,0.4,0.1,0.6,0.1c2,0,3.6-1.6,3.6-3.6S35,24.7,33,24.7c-0.2,0-0.4,0-0.6,0.1v-3h10.2
				c1.7,0,3,1.3,3,3V35h-3.8c-0.3,0-0.6,0.3-0.6,0.6c0,0.1,0,0.2,0,0.2c0.1,0.3,0.2,0.6,0.2,1h1.2c0-0.2,0-0.4-0.1-0.6H46
				c0.3,0,0.6-0.3,0.6-0.6v-11C46.6,22.2,44.8,20.4,42.4,20.4z M32.9,25.7c1.3,0,2.4,1.1,2.4,2.4s-1.1,2.4-2.4,2.4
				c-0.3,0-0.7-0.1-1-0.2s-0.7,0-0.8,0.3c0,0.1,0,0.2,0,0.2v3.8h-3c0-0.2,0-0.4,0-0.5l0,0l0,0c0-2-1.6-3.6-3.6-3.6s-3.6,1.6-3.6,3.6
				l0,0l0,0c0,0.2,0,0.4,0,0.5h-3v-10c0-1.7,1.3-3,3-3h10.2v3.8c0,0.3,0.3,0.6,0.6,0.6c0.1,0,0.2,0,0.2,0
				C32.2,25.8,32.5,25.7,32.9,25.7z"/>
		</g>
	</g>
	<g class="st1">
		<g>
			<path d="M51.3,46.1l-5-3.5l-1.9-5.2c-0.1-0.3-0.5-0.5-0.8-0.4l0,0l-3.9,1.7c-0.3,0.1-0.4,0.5-0.3,0.8c0.1,0.2,0.1,0.3,0.2,0.4
				c0.1,0.1,0.1,0.3,0.2,0.4c0.5,1.2-0.2,2.6-1.4,3.1s-2.6-0.2-3.1-1.4c-0.1-0.3-0.2-0.6-0.1-1c0-0.3-0.2-0.6-0.6-0.6
				c-0.1,0-0.2,0-0.2,0L30.2,42c-0.3,0.1-0.5,0.5-0.3,0.8l1.5,4c-0.2,0-0.4,0.1-0.6,0.2c-1.9,0.7-2.8,2.8-2.1,4.6s2.8,2.8,4.6,2.1
				c0.2-0.1,0.4-0.2,0.6-0.3l1.1,2.9c0.1,0.3,0.5,0.5,0.8,0.4l0,0l5.9-2.2c0.4,0.8,1.1,1.4,1.9,1.7l0.4-1.1c-0.5-0.2-0.9-0.5-1.1-1
				l1.8-0.7c0.6,1.7,2.2,2.8,3.9,2.8V55c-1.6,0-3-1.3-3-3c0-0.2-0.1-0.3-0.2-0.4l-2.1-2.1c-0.3-0.3-0.3-0.8-0.1-1.2
				c0.2-0.2,0.4-0.3,0.6-0.4c0.3,0,0.5,0.1,0.7,0.3l4.2,4.2l0.8-0.8l-1.2-1.2c0.3-0.9,0.3-1.9-0.1-2.8l-1.1-3l3.6,2.5
				c0.5,0.3,0.8,0.9,0.8,1.5v7.7h1.2v-7.7C52.6,47.6,52.1,46.6,51.3,46.1z M47,48c0.2,0.4,0.2,0.9,0.2,1.4l-1.9-1.9
				c-0.8-0.8-2.1-0.8-2.9,0c-0.8,0.8-0.8,2.1,0,2.9l0,0l1.9,1.9l-8.5,3.2l-1.1-3c-0.1-0.2-0.2-0.3-0.4-0.4h-0.1
				c-0.2,0-0.3,0.1-0.4,0.2c-1,0.9-2.5,0.9-3.4-0.1s-0.9-2.5,0.1-3.4c0.2-0.2,0.5-0.4,0.8-0.5c0.2-0.1,0.4-0.1,0.6-0.1
				c0.1,0,0.2,0,0.4,0c0.3,0,0.6-0.2,0.6-0.6c0-0.1,0-0.2,0-0.2l-1.6-4.2L34,42c0.4,1.9,2.3,3.2,4.2,2.8c0.2,0,0.4-0.1,0.6-0.2
				c1.9-0.7,2.8-2.8,2.1-4.6c-0.1-0.1-0.1-0.3-0.2-0.4l2.8-1.2L47,48z"/>
		</g>
	</g>
</g>
<g class="st0">
	<g class="st1">
		<g>
			<path d="M38.4,28.5c-0.3-0.3-0.8-0.3-1.1,0l-1.2,1.2c-1.8-1.2-4.2-0.7-5.4,1.1c-1.2,1.8-0.7,4.2,1.1,5.4c1.8,1.2,4.2,0.7,5.4-1.1
				c0.9-1.3,0.9-3,0-4.3l1.2-1.2C38.7,29.3,38.7,28.8,38.4,28.5z M34,35.2c-1.3,0-2.3-1-2.3-2.3c0-1.3,1-2.3,2.3-2.3
				c1.3,0,2.3,1,2.3,2.3C36.3,34.2,35.3,35.2,34,35.2z"/>
		</g>
	</g>
	<g class="st1">
		<g>
			<path d="M20.6,33.9l-2.3-2.3c-0.3-0.3-0.8-0.3-1.1,0c-0.3,0.3-0.3,0.8,0,1.1l2.3,2.3c0.3,0.3,0.8,0.3,1.1,0
				C20.9,34.7,20.9,34.2,20.6,33.9z"/>
		</g>
	</g>
	<g class="st1">
		<g>
			<path d="M47.9,25.2c-1.5,0-3.1,0.4-4.4,1.1c-3.6-5.3-10.9-6.6-16.1-2.9c-1.1,0.8-2.1,1.8-2.9,2.9c-4.5-2.4-10.2-0.8-12.6,3.7
				s-0.8,10.2,3.7,12.6c3.4,1.9,7.6,1.4,10.5-1.2c4.4,4.1,11.3,4.1,15.7,0c1.7,1.5,3.9,2.3,6.1,2.3c5.1,0,9.3-4.2,9.3-9.3
				S53.1,25.2,47.9,25.2z M20,42.2c-4.3,0-7.7-3.5-7.7-7.7c0-4.3,3.5-7.7,7.7-7.7c1.3,0,2.5,0.3,3.6,0.9c0,0,0,0,0,0
				c-0.2,0.4-0.4,0.7-0.5,1.1c0,0.1,0,0.1-0.1,0.2l0,0.1c-3-1.7-6.8-0.6-8.4,2.4c-1.3,2.4-0.9,5.4,1,7.4c0.3,0.3,0.8,0.3,1.1,0
				c0.3-0.3,0.3-0.8,0-1.1c-1.8-1.8-1.8-4.7,0-6.6c1.6-1.6,4-1.8,5.9-0.6c0,0.2-0.1,0.5-0.1,0.7c0,0.1,0,0.2,0,0.3
				c0,0.4-0.1,0.9-0.1,1.3c0,0.4,0,0.7,0.1,1.1c0,0.1,0,0.2,0,0.4c0,0.2,0.1,0.5,0.1,0.7c0,0.1,0.1,0.3,0.1,0.4
				c0,0.2,0.1,0.4,0.2,0.6c0,0.1,0.1,0.3,0.1,0.4c0.1,0.2,0.1,0.4,0.2,0.6c0.1,0.1,0.1,0.3,0.2,0.4c0.1,0.2,0.2,0.4,0.3,0.5
				c0.1,0.1,0.1,0.3,0.2,0.4c0.1,0.1,0.2,0.3,0.3,0.5c0.1,0.2,0.2,0.3,0.3,0.5c0.1,0.1,0.2,0.2,0.2,0.3c0.1,0.2,0.3,0.4,0.4,0.5
				C23.7,41.6,21.9,42.2,20,42.2z M42.6,38.1c-0.1,0.1-0.1,0.2-0.2,0.3c-0.1,0.2-0.3,0.4-0.4,0.6c-0.1,0.1-0.1,0.1-0.2,0.2
				c-0.2,0.2-0.3,0.4-0.5,0.6c-0.1,0.1-0.1,0.2-0.2,0.2l-0.1,0.1c-3.9,3.9-10.3,3.9-14.2,0L26.8,40c-0.1-0.1-0.1-0.2-0.2-0.2
				c-0.2-0.2-0.3-0.4-0.5-0.6C26.1,39.1,26,39,26,39c-0.1-0.2-0.3-0.4-0.4-0.6c-0.1-0.1-0.1-0.2-0.2-0.3c-0.1-0.2-0.2-0.3-0.3-0.5
				c-0.1-0.1-0.1-0.2-0.2-0.4c-0.1-0.2-0.2-0.3-0.2-0.5c-0.1-0.1-0.1-0.3-0.2-0.4c-0.1-0.2-0.1-0.3-0.2-0.5s-0.1-0.3-0.1-0.5
				c0-0.1-0.1-0.3-0.1-0.4c0-0.2-0.1-0.4-0.1-0.6c0-0.1,0-0.3-0.1-0.4c0-0.3-0.1-0.7-0.1-1c0-0.3,0-0.6,0-0.9c0-0.1,0-0.2,0-0.3
				c0-0.2,0.1-0.4,0.1-0.7c0-0.2,0.1-0.3,0.1-0.5c0-0.2,0.1-0.3,0.1-0.5c0-0.1,0.1-0.3,0.1-0.5c0-0.1,0.1-0.2,0.1-0.3
				c0.1-0.3,0.3-0.7,0.4-1c0,0,0-0.1,0-0.1c0.1-0.2,0.2-0.3,0.3-0.5c2.8-4.8,8.9-6.4,13.7-3.6c1.5,0.9,2.7,2.1,3.6,3.6
				c0.1,0.2,0.2,0.3,0.3,0.5c0,0,0,0.1,0,0.1c0.2,0.3,0.3,0.7,0.4,1c0,0.1,0.1,0.2,0.1,0.3c0.1,0.2,0.1,0.3,0.1,0.5
				c0,0.2,0.1,0.3,0.1,0.5c0,0.2,0.1,0.3,0.1,0.5c0,0.2,0.1,0.4,0.1,0.7c0,0.1,0,0.2,0,0.3c0,0.3,0,0.6,0,0.9c0,0.3,0,0.7-0.1,1
				c0,0.1,0,0.3-0.1,0.4c0,0.2-0.1,0.4-0.1,0.6c0,0.2-0.1,0.3-0.1,0.4c0,0.2-0.1,0.3-0.1,0.5c0,0.2-0.1,0.3-0.2,0.5
				c-0.1,0.1-0.1,0.3-0.2,0.4c-0.1,0.2-0.2,0.3-0.2,0.5c-0.1,0.1-0.1,0.2-0.2,0.4C42.8,37.8,42.7,37.9,42.6,38.1z M51.6,41.3
				c-1.1,0.6-2.4,0.9-3.6,0.9c-1.8,0-3.6-0.7-5-1.9c0.1-0.2,0.3-0.4,0.4-0.5c0.1-0.1,0.2-0.2,0.2-0.3c0.1-0.2,0.2-0.3,0.3-0.5
				s0.2-0.3,0.3-0.5c0.1-0.2,0.2-0.3,0.2-0.4c0.1-0.2,0.2-0.3,0.3-0.5c0.1-0.1,0.1-0.3,0.2-0.4c0.1-0.2,0.1-0.4,0.2-0.6
				c0-0.1,0.1-0.3,0.1-0.4c0.1-0.2,0.1-0.4,0.2-0.6c0-0.1,0.1-0.3,0.1-0.4c0-0.2,0.1-0.5,0.1-0.7c0-0.1,0-0.2,0-0.4
				c0-0.4,0.1-0.7,0.1-1.1c0-0.4,0-0.9-0.1-1.3c0-0.1,0-0.2,0-0.3c0-0.2-0.1-0.5-0.1-0.7c2.1-1.4,5-0.8,6.4,1.3
				c1.2,1.8,1,4.3-0.6,5.8c-0.3,0.3-0.3,0.8,0,1.1c0.3,0.3,0.8,0.3,1.1,0c0,0,0,0,0,0c2.4-2.4,2.4-6.3,0-8.7c-2-2-5-2.4-7.4-1l0-0.1
				c0-0.1,0-0.1-0.1-0.2c-0.1-0.4-0.3-0.8-0.5-1.1c0,0,0,0,0,0c3.8-2,8.5-0.6,10.5,3.2C56.8,34.6,55.3,39.3,51.6,41.3z"/>
		</g>
	</g>
	<g class="st1">
		<g>
			<path d="M34,24.4c-4.7,0-8.5,3.8-8.5,8.5c0,2.3,0.9,4.4,2.5,6c0.3,0.3,0.8,0.3,1.1,0s0.3-0.8,0-1.1c0,0,0,0,0,0
				c-2.7-2.7-2.7-7.1,0-9.9c2.7-2.7,7.1-2.7,9.9,0s2.7,7.1,0,9.9c-0.3,0.3-0.3,0.8,0,1.1c0.3,0.3,0.8,0.3,1.1,0c0,0,0,0,0,0
				c1.6-1.6,2.5-3.8,2.5-6C42.5,28.2,38.7,24.4,34,24.4z"/>
		</g>
	</g>
	<g class="st1">
		<g>
			<path d="M51,33.7h-3.1c-0.4,0-0.8,0.3-0.8,0.8s0.3,0.8,0.8,0.8H51c0.4,0,0.8-0.3,0.8-0.8C51.8,34,51.4,33.7,51,33.7z"/>
		</g>
	</g>
</g>
<g>
	<g>
		<g>
			<path d="M43.1,20.2c-5.8,0-10.9,2.9-14,7.3c-2.2-1.4-4.7-2.2-7.4-2.2c-7.5,0-13.6,6.1-13.6,13.6c0,4.9,2.6,9.4,6.8,11.8
				c0.1,0.1,0.3,0.1,0.4,0.1h12.8c0.1,0,0.3,0,0.4-0.1c0.8-0.5,1.6-1,2.3-1.6c0.5,0.6,1.1,1.1,1.8,1.6c0.1,0.1,0.3,0.2,0.5,0.2h19.9
				c0.2,0,0.4-0.1,0.5-0.2c4.2-3.3,6.6-8.2,6.6-13.5C60.2,27.8,52.5,20.2,43.1,20.2z M27.9,49.2h-5.3v-2.6c0-0.5-0.4-0.9-0.9-0.9
				s-0.9,0.4-0.9,0.9v2.6h-5.3c-0.9-0.6-1.8-1.2-2.5-2l2.1-2.1c0.3-0.3,0.3-0.9,0-1.2c-0.3-0.3-0.9-0.3-1.2,0l-2,2
				c-1.4-2-2.2-4.4-2.2-6.9h2.6c0.5,0,0.9-0.4,0.9-0.9c0-0.5-0.4-0.9-0.9-0.9H10c0.4-2.5,1.5-4.8,3.2-6.6l1.7,1.7
				c0.2,0.2,0.4,0.2,0.6,0.2c0.2,0,0.4-0.1,0.6-0.2c0.3-0.3,0.3-0.9,0-1.2l-1.6-1.6c1.8-1.4,4.1-2.3,6.5-2.5v2.5
				c0,0.5,0.4,0.9,0.9,0.9s0.9-0.4,0.9-0.9V27c2,0.1,3.9,0.8,5.6,1.9c-1.4,2.5-2.2,5.3-2.2,8.3c0,3.9,1.3,7.6,3.7,10.6
				C29.2,48.3,28.6,48.8,27.9,49.2z M54.6,47.5l-2.4-2.4c-0.3-0.3-0.9-0.3-1.2,0c-0.3,0.3-0.3,0.9,0,1.2l2.4,2.4
				c-0.2,0.2-0.4,0.3-0.6,0.5H44v-2.6c0-0.5-0.4-0.9-0.9-0.9s-0.9,0.4-0.9,0.9v2.6h-8.8c-0.2-0.2-0.4-0.3-0.6-0.5l2.4-2.4
				c0.3-0.3,0.3-0.9,0-1.2c-0.3-0.3-0.9-0.3-1.2,0l-2.4,2.4c0,0,0,0,0,0c0,0-0.1-0.1-0.1-0.1c0,0,0,0,0,0c-2.2-2.6-3.5-5.8-3.7-9.2
				h3.4c0.5,0,0.9-0.4,0.9-0.9s-0.4-0.9-0.9-0.9h-3.4c0.2-3.6,1.6-6.9,3.9-9.4l2.4,2.4c0.2,0.2,0.4,0.2,0.6,0.2
				c0.2,0,0.4-0.1,0.6-0.2c0.3-0.3,0.3-0.9,0-1.2l-2.4-2.4c2.5-2.3,5.8-3.7,9.4-3.9v3.4c0,0.5,0.4,0.9,0.9,0.9s0.9-0.4,0.9-0.9v-3.4
				c3.6,0.2,6.9,1.6,9.4,3.9L51,28.2c-0.3,0.3-0.3,0.9,0,1.2c0.2,0.2,0.4,0.2,0.6,0.2s0.4-0.1,0.6-0.2l2.4-2.4
				c2.3,2.5,3.7,5.8,3.9,9.4h-3.4c-0.5,0-0.9,0.4-0.9,0.9s0.4,0.9,0.9,0.9h3.4C58.2,41.6,56.9,44.9,54.6,47.5z"/>
		</g>
	</g>
	<g>
		<g>
			<path d="M47.9,32c-0.2-0.2-0.6-0.3-0.9-0.2c-1,0.3-5.9,2.1-6.9,3.2c-0.6,0.6-1,1.5-1,2.4c0,0.9,0.4,1.8,1,2.4h0
				c0.6,0.6,1.5,1,2.4,1s1.8-0.4,2.4-1c1.1-1.1,2.9-6,3.2-6.9C48.2,32.6,48.1,32.3,47.9,32z M43.7,38.7c-0.3,0.3-0.8,0.5-1.2,0.5
				c-0.5,0-0.9-0.2-1.2-0.5h0c-0.3-0.3-0.5-0.8-0.5-1.2c0-0.5,0.2-0.9,0.5-1.2c0.5-0.5,2.6-1.4,4.6-2.2
				C45.1,36.1,44.1,38.2,43.7,38.7z"/>
		</g>
	</g>
	<g>
		<g>
			<path d="M23.5,36.8c-0.8-0.8-4.2-2-5.2-2.4c-0.3-0.1-0.7,0-0.9,0.2c-0.2,0.2-0.3,0.6-0.2,0.9c0.4,1,1.6,4.4,2.4,5.2
				c0.5,0.5,1.2,0.8,1.9,0.8c0.7,0,1.4-0.3,1.9-0.8c0.5-0.5,0.8-1.2,0.8-1.9C24.3,38,24,37.3,23.5,36.8z M22.3,39.4L22.3,39.4
				c-0.2,0.2-0.5,0.3-0.7,0.3s-0.5-0.1-0.7-0.3c-0.2-0.2-0.8-1.4-1.3-2.8c1.3,0.5,2.5,1.1,2.8,1.3c0.2,0.2,0.3,0.5,0.3,0.7
				C22.6,39,22.5,39.2,22.3,39.4z"/>
		</g>
	</g>
</g>
</svg>
