<svg xmlns="http://www.w3.org/2000/svg" width="36" height="34.105" viewBox="0 0 36 34.105">
  <g id="Group_39536" data-name="Group 39536" transform="translate(-28.663 -2.479)">
    <g id="n" transform="translate(28.663 2.479)">
      <g id="Group_39783" data-name="Group 39783" transform="translate(0)">
        <g id="Path_32099" data-name="Path 32099" transform="translate(-2.25 -3.25)" fill="none">
          <path d="M29.481,5.094h-.462V4.633a1.385,1.385,0,0,0-2.769,0v.461h-12V4.633a1.385,1.385,0,0,0-2.769,0v.461h-.462A8.771,8.771,0,0,0,2.25,13.85V28.6a8.771,8.771,0,0,0,8.769,8.757H29.481A8.771,8.771,0,0,0,38.25,28.6V13.85A8.771,8.771,0,0,0,29.481,5.094Z" stroke="none"/>
          <path d="M 11.01922988891602 7.593524932861328 C 7.562358856201172 7.593524932861328 4.75 10.40029335021973 4.75 13.85028266906738 L 4.75 28.59850311279297 C 4.75 32.04849243164062 7.562358856201172 34.85526275634766 11.01922988891602 34.85526275634766 L 29.48077011108398 34.85526275634766 C 32.93764114379883 34.85526275634766 35.75 32.04849243164062 35.75 28.59850311279297 L 35.75 13.85028266906738 C 35.75 10.40029335021973 32.93764114379883 7.593524932861328 29.48077011108398 7.593524932861328 L 11.01922988891602 7.593524932861328 M 12.86537933349609 3.250003814697266 C 13.62231063842773 3.250003814697266 14.25 3.876804351806641 14.25 4.632644653320312 L 14.25 5.093524932861328 L 26.25 5.093524932861328 L 26.25 4.632644653320312 C 26.25 3.876804351806641 26.87768936157227 3.250003814697266 27.63460922241211 3.250003814697266 C 28.39154052734375 3.250003814697266 29.01922988891602 3.876804351806641 29.01922988891602 4.632644653320312 L 29.01922988891602 5.093524932861328 L 29.48077011108398 5.093524932861328 C 34.31768798828125 5.093524932861328 38.25 9.020242691040039 38.25 13.85028266906738 L 38.25 28.59850311279297 C 38.25 33.42854309082031 34.31768798828125 37.35526275634766 29.48077011108398 37.35526275634766 L 11.01922988891602 37.35526275634766 C 6.182308197021484 37.35526275634766 2.25 33.42854309082031 2.25 28.59850311279297 L 2.25 13.85028266906738 C 2.25 9.020242691040039 6.182308197021484 5.093524932861328 11.01922988891602 5.093524932861328 L 11.48077011108398 5.093524932861328 L 11.48077011108398 4.632644653320312 C 11.48077011108398 3.876804351806641 12.10845947265625 3.250003814697266 12.86537933349609 3.250003814697266 Z" stroke="none" fill="#090b1e"/>
        </g>
        <circle id="Ellipse_469" data-name="Ellipse 469" cx="1" cy="1" r="1" transform="translate(9.714 14.556)" fill="#090b1e" stroke="#090b1e" stroke-width="1.5"/>
        <circle id="Ellipse_474" data-name="Ellipse 474" cx="1" cy="1" r="1" transform="translate(9.714 22.339)" fill="#090b1e" stroke="#090b1e" stroke-width="1.5"/>
        <circle id="Ellipse_470" data-name="Ellipse 470" cx="1" cy="1" r="1" transform="translate(17.486 14.556)" fill="#090b1e" stroke="#090b1e" stroke-width="1.5"/>
        <circle id="Ellipse_473" data-name="Ellipse 473" cx="1" cy="1" r="1" transform="translate(17.486 22.339)" fill="#090b1e" stroke="#090b1e" stroke-width="1.5"/>
        <circle id="Ellipse_471" data-name="Ellipse 471" cx="1" cy="1" r="1" transform="translate(25.257 14.556)" fill="#090b1e" stroke="#090b1e" stroke-width="1.5"/>
        <circle id="Ellipse_472" data-name="Ellipse 472" cx="1" cy="1" r="1" transform="translate(25.257 22.339)" fill="#090b1e" stroke="#090b1e" stroke-width="1.5"/>
      </g>
    </g>
  </g>
</svg>
