<svg xmlns="http://www.w3.org/2000/svg" width="22" height="21.999" viewBox="0 0 22 21.999">
  <g id="credit-card_1_" data-name="credit-card (1)" transform="translate(0 -0.011)">
    <path id="Path_32228" data-name="Path 32228" d="M21.871,9.217a1.936,1.936,0,0,0-.438-2.059L14.852.577a1.936,1.936,0,0,0-2.735,0l-7.4,7.4H1.934A1.936,1.936,0,0,0,0,9.91V20.077A1.936,1.936,0,0,0,1.934,22.01H20.066A1.936,1.936,0,0,0,22,20.077V9.91a1.923,1.923,0,0,0-.129-.692Zm-1.4-1.2a1.933,1.933,0,0,0-.405-.043h-1.4l.879-.879ZM18.638,6.185,16.847,7.976H15.024l2.7-2.7Zm-5.609-4.7a.645.645,0,0,1,.911,0l2.874,2.874L13.2,7.976H6.541Zm7.682,18.589a.645.645,0,0,1-.645.645H1.934a.645.645,0,0,1-.645-.645V9.91a.645.645,0,0,1,.645-.645H20.066a.645.645,0,0,1,.645.645Z" transform="translate(0 0)" fill="#b4b4b4"/>
    <path id="Path_32229" data-name="Path 32229" d="M59,406.585h3v1.289H59Z" transform="translate(-56.465 -389.104)" fill="#b4b4b4"/>
    <path id="Path_32230" data-name="Path 32230" d="M167.032,406.585h3v1.289h-3Z" transform="translate(-159.855 -389.104)" fill="#b4b4b4"/>
    <path id="Path_32231" data-name="Path 32231" d="M275.065,406.585h3v1.289h-3Z" transform="translate(-263.246 -389.104)" fill="#b4b4b4"/>
    <path id="Path_32232" data-name="Path 32232" d="M383.1,406.585h3v1.289h-3Z" transform="translate(-366.636 -389.104)" fill="#b4b4b4"/>
    <path id="Path_32233" data-name="Path 32233" d="M63.277,255.372h-2.2A1.075,1.075,0,0,0,60,256.446v1.719a1.075,1.075,0,0,0,1.074,1.074h2.2a1.075,1.075,0,0,0,1.074-1.074v-1.719A1.075,1.075,0,0,0,63.277,255.372Zm-.215,2.578H61.289v-1.289h1.773Z" transform="translate(-57.422 -244.388)" fill="#b4b4b4"/>
  </g>
</svg>
