<svg xmlns="http://www.w3.org/2000/svg" width="20" height="15.897" viewBox="0 0 20 15.897">
  <g id="credit-card_2_" data-name="credit-card (2)" transform="translate(-0.002 0)">
    <path id="Path_32234" data-name="Path 32234" d="M19.233,265.8H.771a.769.769,0,1,1,0-1.538H19.233a.769.769,0,1,1,0,1.538Z" transform="translate(0 -260.156)" fill="#b4b4b4"/>
    <path id="Path_32235" data-name="Path 32235" d="M267.663,530.055h-2.636a.769.769,0,0,1,0-1.538h2.636a.769.769,0,0,1,0,1.538Z" transform="translate(-260.154 -520.312)" fill="#b4b4b4"/>
    <path id="Path_32236" data-name="Path 32236" d="M16.158,15.9H3.85A3.85,3.85,0,0,1,0,12.051V3.846A3.85,3.85,0,0,1,3.85,0H16.158A3.85,3.85,0,0,1,20,3.846v8.205A3.85,3.85,0,0,1,16.158,15.9h0ZM3.85,1.538A2.311,2.311,0,0,0,1.542,3.846v8.205A2.311,2.311,0,0,0,3.85,14.359H16.158a2.311,2.311,0,0,0,2.308-2.308V3.846a2.311,2.311,0,0,0-2.308-2.308H3.85Z" transform="translate(-0.002)" fill="#b4b4b4"/>
  </g>
</svg>
