<svg xmlns="http://www.w3.org/2000/svg" width="11.794" height="11.782" viewBox="0 0 11.794 11.782">
  <g id="_02_User" data-name="02 User" transform="translate(0.312 0.351)">
    <path id="Path_31414" data-name="Path 31414" d="M.538,11.128A.544.544,0,0,1,.153,10.2L10.2.156a.544.544,0,0,1,.769.769L.922,10.969a.542.542,0,0,1-.384.159Z" transform="translate(0.006 0.003)" fill="#fff" stroke="#fff" stroke-width="0.6"/>
    <path id="Path_31415" data-name="Path 31415" d="M10.584,11.128a.542.542,0,0,1-.384-.159L.156.925A.544.544,0,0,1,.925.156L10.969,10.2a.544.544,0,0,1-.384.928Z" transform="translate(0.003 0.003)" fill="#fff" stroke="#fff" stroke-width="0.6"/>
  </g>
</svg>
