<svg xmlns="http://www.w3.org/2000/svg" width="16.5" height="16.527" viewBox="0 0 16.5 16.527">
  <g id="export" transform="translate(-1.48 -1.449)">
    <path id="Path_32250" data-name="Path 32250" d="M11.835,2.87a.585.585,0,0,1,.585.585v8.869a.585.585,0,1,1-1.169,0V3.455A.585.585,0,0,1,11.835,2.87Z" transform="translate(-2.101 -0.247)" fill="#090b1e" stroke="#090b1e" stroke-width="0.5" fill-rule="evenodd"/>
    <path id="Path_32251" data-name="Path 32251" d="M10.682,1.921a.585.585,0,0,1,.827,0L14.12,4.532a.585.585,0,0,1-.827.827l-2.2-2.2-2.2,2.2a.585.585,0,0,1-.827-.827Z" transform="translate(-1.361)" fill="#090b1e" stroke="#090b1e" stroke-width="0.5" fill-rule="evenodd"/>
    <path id="Path_32252" data-name="Path 32252" d="M6.786,8.69a.585.585,0,0,1-.528.636,3.49,3.49,0,0,0-2.577,1.121A4.922,4.922,0,0,0,2.9,13.576v.1a4.525,4.525,0,0,0,.962,3.332,4.525,4.525,0,0,0,3.332.962.585.585,0,1,1,0,1.169,5.64,5.64,0,0,1-4.159-1.3,5.64,5.64,0,0,1-1.3-4.159v-.1a6.037,6.037,0,0,1,1.038-3.86A4.633,4.633,0,0,1,6.15,8.163a.585.585,0,0,1,.636.528Z" transform="translate(0 -1.414)" fill="#090b1e" stroke="#090b1e" stroke-width="0.5" fill-rule="evenodd"/>
    <path id="Path_32253" data-name="Path 32253" d="M14.936,8.684a.585.585,0,0,1,.633-.532A4.686,4.686,0,0,1,19,9.693a6.013,6.013,0,0,1,1.054,3.881v.1a5.639,5.639,0,0,1-1.3,4.159,5.639,5.639,0,0,1-4.159,1.3H12.845a.585.585,0,0,1,0-1.169h1.746a4.525,4.525,0,0,0,3.332-.962,4.525,4.525,0,0,0,.962-3.332v-.1a4.9,4.9,0,0,0-.793-3.145,3.545,3.545,0,0,0-2.624-1.113.585.585,0,0,1-.532-.633Z" transform="translate(-2.323 -1.412)" fill="#090b1e" stroke="#090b1e" stroke-width="0.5" fill-rule="evenodd"/>
  </g>
</svg>
