<svg xmlns="http://www.w3.org/2000/svg" width="18.941" height="18.941" viewBox="0 0 18.941 18.941">
  <g id="earth-globe_1_" data-name="earth-globe (1)" transform="translate(-0.001)">
    <g id="Group_39646" data-name="Group 39646" transform="translate(0.001)">
      <path id="Path_31422" data-name="Path 31422" d="M16.168,2.774A9.471,9.471,0,0,0,2.775,16.168,9.471,9.471,0,1,0,16.168,2.774Zm-3.008-.047c.136-.133.273-.268.4-.4a8.28,8.28,0,0,1,1.482,1.088l-.007.009a1.657,1.657,0,0,1-.308-.082A2.064,2.064,0,0,0,13.9,3.2a2.177,2.177,0,0,0-.795.261,1.358,1.358,0,0,1-.319.13,1.208,1.208,0,0,1-.225-.242C12.709,3.17,12.938,2.945,13.161,2.727ZM6.873,1.656c.147.449.315.872.479,1.275a2.369,2.369,0,0,1,.257,1.014.7.7,0,0,1-.045.209,1.76,1.76,0,0,1-.276.036A1.965,1.965,0,0,0,6.262,4.5c-.07.049-.133.1-.194.146a1.134,1.134,0,0,1-.276.182,1.128,1.128,0,0,1-.326-.011c-.094-.011-.2-.023-.313-.027a2.147,2.147,0,0,0-1.588.66,1,1,0,0,0-.168.922,1.174,1.174,0,0,0,.354.52,4.065,4.065,0,0,0,2.079.985c.107.017.209.029.308.041.533.065.683.109.82.356a2.252,2.252,0,0,1,.119.279,3.317,3.317,0,0,0,.187.429,1.3,1.3,0,0,0,1.183.739,1.456,1.456,0,0,0,.775-.323,1.192,1.192,0,0,1,.167-.107.61.61,0,0,1,.463.144.972.972,0,0,1,.4.455.3.3,0,0,1-.036.281l-1.131.966a2,2,0,0,0-.849,1.408,2.26,2.26,0,0,0,.068.541c.007.031.015.068.022.1a1.679,1.679,0,0,0-.371.128,1.786,1.786,0,0,0-.786,1.61,1.168,1.168,0,0,1-.066.318.459.459,0,0,1-.039-.1,2.711,2.711,0,0,1-.054-.362,2.975,2.975,0,0,0-.141-.715,3.02,3.02,0,0,0-.484-.807,1.635,1.635,0,0,1-.316-.523,1.684,1.684,0,0,1,0-.461,2.506,2.506,0,0,0-.044-.9,2.482,2.482,0,0,0-.691-1.055,2.265,2.265,0,0,1-.366-.448,1.018,1.018,0,0,1-.054-.555,2.2,2.2,0,0,0-.075-.878,1.39,1.39,0,0,0-.571-.672A9.284,9.284,0,0,1,2.947,6.617a1.87,1.87,0,0,1-.466-.674c-.021-.071-.036-.125-.047-.167A1.128,1.128,0,0,0,2.3,5.434,8.278,8.278,0,0,1,6.873,1.656Zm2.6,16.05A8.236,8.236,0,0,1,1.628,6.961a4.408,4.408,0,0,0,.424.507,10.532,10.532,0,0,0,1.5,1.308c.04.029.1.07.127.1a1.515,1.515,0,0,1,0,.371,2.147,2.147,0,0,0,.192,1.2,3.248,3.248,0,0,0,.566.727,1.526,1.526,0,0,1,.394.53,1.565,1.565,0,0,1,0,.472,2.633,2.633,0,0,0,.03.843,2.607,2.607,0,0,0,.536.987,2.051,2.051,0,0,1,.3.477,2,2,0,0,1,.075.428,3.727,3.727,0,0,0,.086.535,1.387,1.387,0,0,0,1.252,1.112c.034,0,.068,0,.1,0,.658-.06,1.11-.648,1.179-1.534a1.763,1.763,0,0,1,.114-.605c.023-.009.078-.023.119-.033a1.275,1.275,0,0,0,.654-.33,1.255,1.255,0,0,0,.224-1.231,1.453,1.453,0,0,1-.041-.252c0-.146.3-.4.416-.5l1.129-.964A1.5,1.5,0,0,0,11.429,9.5a2.161,2.161,0,0,0-.89-1.1,1.733,1.733,0,0,0-1.623-.256,2.077,2.077,0,0,0-.4.238c-.032.023-.075.053-.11.075a.39.39,0,0,1-.051-.074,2.32,2.32,0,0,1-.116-.274A3.245,3.245,0,0,0,8.04,7.67a2.02,2.02,0,0,0-1.751-.983c-.093-.011-.181-.022-.269-.036A2.884,2.884,0,0,1,4.734,6.1a1.236,1.236,0,0,1,.379-.08c.063,0,.136.01.214.019a2.007,2.007,0,0,0,.8-.027,2.013,2.013,0,0,0,.7-.4c.051-.04.1-.077.144-.109A.986.986,0,0,1,7.39,5.42,1.362,1.362,0,0,0,8.838,4.069,3.328,3.328,0,0,0,8.5,2.464c-.15-.367-.3-.732-.422-1.11a8.242,8.242,0,0,1,4.3.411l-.081.08a8.668,8.668,0,0,0-.754.8,1.172,1.172,0,0,0-.262.544,1.194,1.194,0,0,0,.3.916,1.7,1.7,0,0,0,.9.684,1.221,1.221,0,0,0,.3.036,1.953,1.953,0,0,0,.868-.257A1.3,1.3,0,0,1,14,4.432a1.166,1.166,0,0,1,.346.082,2.359,2.359,0,0,0,.669.144h.046a1.16,1.16,0,0,0,.829-.343,8.236,8.236,0,0,1,1.3,2.278l-.129,0c-.121,0-.258,0-.408.015a2.144,2.144,0,0,1-.957-.2,5.18,5.18,0,0,0-.813-.248,2.1,2.1,0,0,0-2.2,1.169c-.144.255-.832,1.57-.247,2.377a2.358,2.358,0,0,0,.75.62,7.232,7.232,0,0,0,1.016.536c.079.032.157.061.233.089a1.328,1.328,0,0,1,.541.283.789.789,0,0,1,.062.53,3.086,3.086,0,0,1-.2.7,1.947,1.947,0,0,0,.622,2.654A8.214,8.214,0,0,1,9.472,17.706Zm6.484-3.775c-.212-.242-.183-.428.041-1.04a4.107,4.107,0,0,0,.269-1,1.925,1.925,0,0,0-.294-1.385,2.209,2.209,0,0,0-1.111-.713c-.07-.026-.137-.05-.2-.075a6.207,6.207,0,0,1-.843-.45,1.519,1.519,0,0,1-.376-.275,2.07,2.07,0,0,1,.314-1.057c.186-.331.531-.633.882-.563a4.072,4.072,0,0,1,.625.195,3.277,3.277,0,0,0,1.481.274c.11-.008.221-.01.329-.011a3.513,3.513,0,0,0,.463-.026,8.232,8.232,0,0,1-1.288,6.338A.771.771,0,0,1,15.955,13.931Z" transform="translate(-0.001)" fill="#1852d8"/>
    </g>
  </g>
</svg>
