<svg xmlns="http://www.w3.org/2000/svg" width="34.357" height="36" viewBox="0 0 34.357 36">
  <g id="cogwheel" transform="translate(0 0)">
    <path id="Path_41307" data-name="Path 41307" d="M145.148,164.332a7.5,7.5,0,1,1,7.5-7.5,7.509,7.509,0,0,1-7.5,7.5Zm0-12.75a5.25,5.25,0,1,0,5.25,5.25A5.256,5.256,0,0,0,145.148,151.582Zm0,0" transform="translate(-127.97 -138.832)" fill="#090b1e"/>
    <path id="Path_41308" data-name="Path 41308" d="M19.673,36H14.683a2.6,2.6,0,0,1-2.521-2.026l-.631-2.808a13.789,13.789,0,0,1-2.931-1.7l-2.734.864a2.6,2.6,0,0,1-3.036-1.184l-2.487-4.3a2.622,2.622,0,0,1,.481-3.2l2.119-1.948A15.177,15.177,0,0,1,2.847,18a15.508,15.508,0,0,1,.094-1.694L.834,14.367a2.618,2.618,0,0,1-.5-3.2l2.5-4.328A2.6,2.6,0,0,1,5.861,5.67L8.6,6.536a13.8,13.8,0,0,1,2.931-1.7l.633-2.811A2.6,2.6,0,0,1,14.683,0h4.989a2.6,2.6,0,0,1,2.521,2.026l.631,2.808a13.789,13.789,0,0,1,2.931,1.7l2.734-.864a2.6,2.6,0,0,1,3.036,1.184l2.487,4.3a2.622,2.622,0,0,1-.482,3.2l-2.119,1.948a15.225,15.225,0,0,1,0,3.387l2.109,1.938.01.009a2.615,2.615,0,0,1,.489,3.187l-2.5,4.328a2.594,2.594,0,0,1-3.025,1.171l-2.739-.865a13.807,13.807,0,0,1-2.931,1.7l-.633,2.811A2.6,2.6,0,0,1,19.673,36ZM8.829,27.089a1.125,1.125,0,0,1,.715.257,11.554,11.554,0,0,0,3.343,1.94,1.124,1.124,0,0,1,.708.808l.764,3.39a.337.337,0,0,0,.325.267h4.989A.335.335,0,0,0,20,33.486l.765-3.393a1.124,1.124,0,0,1,.708-.808,11.576,11.576,0,0,0,3.343-1.94,1.121,1.121,0,0,1,1.055-.205l3.3,1.043a.337.337,0,0,0,.4-.138l2.5-4.328A.367.367,0,0,0,32,23.283l-2.532-2.328a1.124,1.124,0,0,1-.351-.995,13.028,13.028,0,0,0,0-3.924,1.126,1.126,0,0,1,.351-.995L32,12.708a.366.366,0,0,0,.059-.441l-2.487-4.3a.344.344,0,0,0-.408-.15l-3.3,1.041a1.122,1.122,0,0,1-1.054-.205,11.555,11.555,0,0,0-3.344-1.94,1.123,1.123,0,0,1-.708-.808L20,2.514a.344.344,0,0,0-.328-.264H14.683a.335.335,0,0,0-.324.264l-.765,3.393a1.126,1.126,0,0,1-.708.808,11.544,11.544,0,0,0-3.342,1.94,1.128,1.128,0,0,1-1.054.205l-3.3-1.043a.34.34,0,0,0-.4.138l-2.5,4.326a.368.368,0,0,0,.077.438l2.529,2.324a1.125,1.125,0,0,1,.351.995,13.026,13.026,0,0,0,0,3.924,1.126,1.126,0,0,1-.351.995L2.357,23.291a.367.367,0,0,0-.059.441l2.487,4.3a.345.345,0,0,0,.408.15l3.3-1.041a1.1,1.1,0,0,1,.339-.052Zm0,0" transform="translate(0)" fill="#090b1e"/>
  </g>
</svg>
