<svg xmlns="http://www.w3.org/2000/svg" width="36.5" height="36.5" viewBox="0 0 36.5 36.5">
  <g id="christmas-stars" transform="translate(0.25 -3.209)">
    <g id="Layer_3_17_" transform="translate(0 3.459)">
      <g id="Group_42597" data-name="Group 42597" transform="translate(0 0)">
        <g id="Group_42593" data-name="Group 42593">
          <g id="Group_42592" data-name="Group 42592">
            <g id="Group_42591" data-name="Group 42591">
              <path id="Path_41309" data-name="Path 41309" d="M13.435,30.328a.776.776,0,0,1-.763-.636c-.822-4.464-1.577-7.192-3.21-8.826S5.1,18.479.636,17.657a.776.776,0,0,1,0-1.527c4.464-.822,7.192-1.577,8.826-3.21s2.388-4.362,3.21-8.826a.776.776,0,0,1,1.527,0c.822,4.464,1.577,7.192,3.21,8.826s4.362,2.388,8.826,3.21a.776.776,0,0,1,0,1.527c-4.464.822-7.192,1.577-8.826,3.21s-2.388,4.362-3.21,8.826A.776.776,0,0,1,13.435,30.328ZM4.554,16.894c2.725.678,4.629,1.5,6,2.876s2.2,3.28,2.876,6c.678-2.725,1.5-4.629,2.876-6s3.28-2.2,6-2.876c-2.724-.678-4.629-1.5-6-2.876s-2.2-3.28-2.876-6c-.678,2.725-1.5,4.629-2.876,6S7.279,16.215,4.554,16.894Z" transform="translate(0 -3.459)" fill="#090b1e" stroke="#090b1e" stroke-width="0.5"/>
            </g>
          </g>
        </g>
        <g id="Group_42596" data-name="Group 42596" transform="translate(18.347 18.347)">
          <g id="Group_42595" data-name="Group 42595">
            <g id="Group_42594" data-name="Group 42594">
              <path id="Path_41310" data-name="Path 41310" d="M245.182,250.549a.776.776,0,0,1-.764-.636c-.512-2.783-.977-4.478-1.963-5.464s-2.681-1.451-5.464-1.963a.776.776,0,0,1,0-1.527c2.783-.512,4.478-.977,5.464-1.963s1.451-2.681,1.963-5.464a.776.776,0,0,1,1.527,0c.512,2.783.977,4.478,1.963,5.464s2.681,1.451,5.464,1.963a.776.776,0,0,1,0,1.527c-2.783.512-4.478.977-5.464,1.963s-1.451,2.681-1.963,5.464A.776.776,0,0,1,245.182,250.549Zm-4.6-8.827a6.017,6.017,0,0,1,4.6,4.6,6.017,6.017,0,0,1,4.6-4.6,6.017,6.017,0,0,1-4.6-4.6A6.017,6.017,0,0,1,240.58,241.723Z" transform="translate(-236.356 -232.896)" fill="#090b1e" stroke="#090b1e" stroke-width="0.5"/>
            </g>
          </g>
        </g>
      </g>
    </g>
  </g>
</svg>
