<svg xmlns="http://www.w3.org/2000/svg" width="22" height="22" viewBox="0 0 22 22">
  <g id="_6_Attention" data-name="6 Attention" transform="translate(0 -0.005)">
    <path id="Path_22637" data-name="Path 22637" d="M18.777,3.225a11,11,0,1,0-4.613,18.314,1.074,1.074,0,1,0-.617-2.058A8.847,8.847,0,1,1,18.4,15.857a1.076,1.076,0,1,0,1.8,1.18A11,11,0,0,0,18.777,3.225Z" transform="translate(0)" fill="#ff465f"/>
    <path id="Path_22638" data-name="Path 22638" d="M231,109.879v5.589a.879.879,0,0,0,1.757,0v-5.589a.879.879,0,1,0-1.757,0Z" transform="translate(-220.879 -103.727)" fill="#ff465f"/>
    <path id="Path_22639" data-name="Path 22639" d="M231.879,354.757a.879.879,0,1,1,.879-.879A.879.879,0,0,1,231.879,354.757Z" transform="translate(-220.879 -337.532)" fill="#ff465f"/>
  </g>
</svg>
