<svg xmlns="http://www.w3.org/2000/svg" width="184.943" height="120" viewBox="0 0 184.943 120">
  <g id="Group_40136" data-name="Group 40136" transform="translate(-817.074 -320)">
    <g id="abstract-shape" transform="translate(817.074 324.807)">
      <path id="Path_32375" data-name="Path 32375" d="M200.4,338.3l-15.344,15.344a3.315,3.315,0,0,1-4.688-4.688l1.106-1.106A7.265,7.265,0,1,0,171.2,337.578l-2.05,2.05a11.058,11.058,0,0,1-15.638-15.638l4.715-4.715a1.582,1.582,0,1,0-2.237-2.237l-4.715,4.715a14.221,14.221,0,1,0,20.112,20.112l2.05-2.05a4.1,4.1,0,1,1,5.8,5.8l-1.106,1.106a6.478,6.478,0,1,0,9.161,9.161l15.344-15.344A1.582,1.582,0,0,0,200.4,338.3Z" transform="translate(-147.116 -264.408)" fill="#dcdcdc"/>
      <path id="Path_32376" data-name="Path 32376" d="M23.871,278.567,5.466,296.972a5.768,5.768,0,0,0,8.157,8.158l18.405-18.405a5.768,5.768,0,1,0-8.157-8.158Zm5.921,5.921L11.387,302.893A2.605,2.605,0,0,1,7.7,299.209L26.108,280.8a2.605,2.605,0,0,1,3.684,3.684Z" transform="translate(144.794 -276.88)" fill="#dcdcdc"/>
      <path id="Path_32378" data-name="Path 32378" d="M38.35,52.5a6.434,6.434,0,1,0-6.434-6.434A6.442,6.442,0,0,0,38.35,52.5Zm0-9.706a3.271,3.271,0,1,1-3.271,3.271A3.275,3.275,0,0,1,38.35,42.793Z" transform="translate(-22.61 -24.662)" fill="#dcdcdc"/>
      <path id="Path_32379" data-name="Path 32379" d="M38.35,52.5a6.434,6.434,0,1,0-6.434-6.434A6.442,6.442,0,0,0,38.35,52.5Zm0-9.706a3.271,3.271,0,1,1-3.271,3.271A3.275,3.275,0,0,1,38.35,42.793Z" transform="translate(140.159 12.538)" fill="#dcdcdc"/>
    </g>
    <g id="cards" transform="translate(855 320)">
      <path id="Path_32367" data-name="Path 32367" d="M61.013,80.1a2.4,2.4,0,0,0,3.4-3.4,9.6,9.6,0,0,1,0-13.56l6.72-6.72a9.6,9.6,0,0,1,13.524,13.56l-5.16,5.16a2.4,2.4,0,0,0,3.4,3.4l5.16-5.16a14.425,14.425,0,0,0-20.4-20.4l-6.72,6.72a14.4,14.4,0,0,0,.084,20.4Z" transform="translate(-3.053 -9.448)" fill="#90b1ff"/>
      <path id="Path_32368" data-name="Path 32368" d="M54.97,71.913a2.4,2.4,0,0,0-3.4-3.4l-4.8,4.8a14.425,14.425,0,0,0,20.4,20.4L73.906,87a14.4,14.4,0,0,0,0-20.4,2.4,2.4,0,1,0-3.4,3.4,9.6,9.6,0,0,1,0,13.56l-6.72,6.72a9.6,9.6,0,1,1-13.572-13.56Z" transform="translate(-5.89 -6.021)" fill="#90b1ff"/>
      <path id="Path_32369" data-name="Path 32369" d="M12,76A12,12,0,0,0,24,88H43.272a2.4,2.4,0,1,0,0-4.8H24A7.2,7.2,0,0,1,16.8,76V28A7.2,7.2,0,0,1,24,20.8h76.8A7.2,7.2,0,0,1,108,28V76a7.2,7.2,0,0,1-7.2,7.2,2.4,2.4,0,1,0,0,4.8,12,12,0,0,0,12-12V28a12,12,0,0,0-12-12H24A12,12,0,0,0,12,28Z" transform="translate(-12 -16)" fill="#dcdcdc"/>
      <path id="Path_32370" data-name="Path 32370" d="M132.8,68a12,12,0,0,0-12-12H116a2.4,2.4,0,0,0,0,4.8h4.8A7.2,7.2,0,0,1,128,68v48a7.2,7.2,0,0,1-7.2,7.2H44a7.2,7.2,0,0,1-7.2-7.2V87.2a2.4,2.4,0,1,0-4.8,0V116a12,12,0,0,0,12,12h76.8a12,12,0,0,0,12-12Z" transform="translate(-8 -8)" fill="#dcdcdc"/>
      <path id="Path_32371" data-name="Path 32371" d="M45.6,36H26.4A2.4,2.4,0,0,0,24,38.4V52.8a2.4,2.4,0,0,0,2.4,2.4H45.6A2.4,2.4,0,0,0,48,52.8V38.4A2.4,2.4,0,0,0,45.6,36ZM43.2,50.4H28.8V40.8H43.2Z" transform="translate(-9.6 -12)" fill="#dcdcdc"/>
      <path id="Path_32372" data-name="Path 32372" d="M46.4,100a2.4,2.4,0,1,0,0,4.8H65.6a2.4,2.4,0,1,0,0-4.8Z" transform="translate(-5.6 0.8)" fill="#dcdcdc"/>
      <path id="Path_32373" data-name="Path 32373" d="M68,102.4a2.4,2.4,0,0,0,2.4,2.4h38.4a2.4,2.4,0,1,0,0-4.8H70.4A2.4,2.4,0,0,0,68,102.4Z" transform="translate(-0.8 0.8)" fill="#dcdcdc"/>
      <path id="Path_32374" data-name="Path 32374" d="M85.6,32.8a2.4,2.4,0,1,0,0-4.8H66.4a2.4,2.4,0,1,0,0,4.8Z" transform="translate(-1.6 -13.6)" fill="#dcdcdc"/>
    </g>
  </g>
</svg>
