<svg xmlns="http://www.w3.org/2000/svg" xmlns:xlink="http://www.w3.org/1999/xlink" width="60" height="60" viewBox="0 0 60 60">
  <defs>
    <filter id="Path_22658" x="0" y="0" width="60" height="60" filterUnits="userSpaceOnUse">
      <feOffset dy="3" input="SourceAlpha"/>
      <feGaussianBlur stdDeviation="3" result="blur"/>
      <feFlood flood-opacity="0.11"/>
      <feComposite operator="in" in2="blur"/>
      <feComposite in="SourceGraphic"/>
    </filter>
  </defs>
  <g id="Group_39498" data-name="Group 39498" transform="translate(9 6)">
    <g transform="matrix(1, 0, 0, 1, -9, -6)" filter="url(#Path_22658)">
      <path id="Path_22658-2" data-name="Path 22658" d="M21,0A21,21,0,1,0,42,21,21,21,0,0,0,21,0Z" transform="translate(9 6)" fill="#fff"/>
    </g>
    <path id="Path_22098" data-name="Path 22098" d="M9.3,23.166a1.3,1.3,0,0,1-.921-2.219l6.877-6.864L8.378,7.22A1.3,1.3,0,0,1,10.22,5.377l7.785,7.785a1.3,1.3,0,0,1,0,1.829L10.22,22.777a1.3,1.3,0,0,1-.921.389Z" transform="translate(7.811 6.92)"/>
  </g>
</svg>
