<svg xmlns="http://www.w3.org/2000/svg" width="14.36" height="14.36" viewBox="0 0 14.36 14.36">
  <path id="coins" d="M13.963,7.429a2.017,2.017,0,0,0,.091-.555V4.264C14.055,2.4,11.248,1,7.527,1S1,2.4,1,4.264V6.875A2.539,2.539,0,0,0,2.4,8.937a1.723,1.723,0,0,0-.091.548V12.1c0,1.86,2.807,3.264,6.527,3.264s6.527-1.4,6.527-3.264V9.485a2.52,2.52,0,0,0-1.4-2.056ZM7.527,10.138a8.909,8.909,0,0,0,5.7-1.632c.522.313.822.653.822.979,0,.8-2.037,1.958-5.222,1.958S3.67,10.314,3.611,9.518a11.586,11.586,0,0,0,3.916.62Zm0-7.833c3.185,0,5.222,1.162,5.222,1.958S10.713,6.222,7.527,6.222,2.305,5.06,2.305,4.264,4.342,2.305,7.527,2.305ZM2.305,6.261A9.745,9.745,0,0,0,7.527,7.527a9.745,9.745,0,0,0,5.222-1.266v.614c0,.8-2.037,1.958-5.222,1.958S2.305,7.671,2.305,6.875Zm6.527,7.794c-3.185,0-5.222-1.162-5.222-1.958v-.614a9.745,9.745,0,0,0,5.222,1.266,9.745,9.745,0,0,0,5.222-1.266V12.1C14.055,12.893,12.018,14.055,8.833,14.055Z" transform="translate(-1 -1)" fill="#090b1e"/>
</svg>
