<svg xmlns="http://www.w3.org/2000/svg" width="21.286" height="16.108" viewBox="0 0 21.286 16.108">
  <g id="Group_38536" data-name="Group 38536" transform="translate(-371.523 -1073.858)">
    <path id="Path_21440" data-name="Path 21440" d="M438.021,1082.036c-.105.133-.2.273-.317.4a20.43,20.43,0,0,1-5.346,4.26,10.86,10.86,0,0,1-3.778,1.281,9.273,9.273,0,0,1-3.772-.306c-.549-.158-1.083-.371-1.619-.572a.222.222,0,0,0-.281.059q-1.19,1.2-2.39,2.4a1.364,1.364,0,0,1-.182.164.432.432,0,0,1-.6-.6,1.455,1.455,0,0,1,.165-.182l4.8-4.807,6.666-6.679,3.145-3.151c.039-.039.076-.079.116-.116a.436.436,0,0,1,.639-.023.431.431,0,0,1-.021.64c-.527.537-1.061,1.067-1.592,1.6l-.921.921c.546.363,1.09.7,1.611,1.077a21.394,21.394,0,0,1,3.5,3.151c.067.075.12.163.18.245Zm-14.284,4.343a.612.612,0,0,0,.057.029,9.834,9.834,0,0,0,3.542.76,8.864,8.864,0,0,0,4.134-1.013,19.432,19.432,0,0,0,5.459-4.171.452.452,0,0,0,.05-.078,20.756,20.756,0,0,0-4.758-3.844.2.2,0,0,0-.279.045c-.421.43-.847.855-1.274,1.279-.125.124-.26.237-.383.349a3.554,3.554,0,0,1-.133,4.493,3.413,3.413,0,0,1-1.892,1.11,3.464,3.464,0,0,1-2.849-.625Zm5.958-5.929-3.63,3.637a2.616,2.616,0,0,0,3.63-3.637Z" transform="translate(-45.362)" fill="#838383" stroke="#838383" stroke-width="0.3"/>
    <path id="Path_21441" data-name="Path 21441" d="M372.681,1112.2a13.451,13.451,0,0,0,1.8,1.911c.554.475,1.142.91,1.721,1.356a.468.468,0,0,1,.222.49.378.378,0,0,1-.345.33.577.577,0,0,1-.344-.081,16.221,16.221,0,0,1-3.932-3.714.444.444,0,0,1,.021-.662,20.008,20.008,0,0,1,5.91-4.648,9.6,9.6,0,0,1,4.849-1.133,9.132,9.132,0,0,1,2.383.469.448.448,0,0,1,.341.579.44.44,0,0,1-.6.256,7.92,7.92,0,0,0-2.756-.437,9.092,9.092,0,0,0-3.725,1.01,19.508,19.508,0,0,0-5.474,4.187A1.028,1.028,0,0,0,372.681,1112.2Z" transform="translate(0 -30.257)" fill="#838383" stroke="#838383" stroke-width="0.3"/>
    <path id="Path_21442" data-name="Path 21442" d="M503.049,1153.826c.2.022.407.036.609.067a.434.434,0,0,1,.385.474.416.416,0,0,1-.487.385,2.742,2.742,0,0,0-1.485.162,2.617,2.617,0,0,0-1.587,2.776.888.888,0,0,1-.007.325.427.427,0,0,1-.441.3.447.447,0,0,1-.4-.4A3.505,3.505,0,0,1,503.049,1153.826Z" transform="translate(-120.912 -75.428)" fill="#838383" stroke="#838383" stroke-width="0.3"/>
  </g>
</svg>
