<svg xmlns="http://www.w3.org/2000/svg" width="70" height="70" viewBox="0 0 70 70">
  <g id="Group_39703" data-name="Group 39703" transform="translate(-83 -3325)">
    <rect id="Rectangle_2095" data-name="Rectangle 2095" width="70" height="70" rx="35" transform="translate(83 3325)" fill="#fff6e9"/>
    <g id="customer-support" transform="translate(100.73 3344.926)">
      <path id="Path_31391" data-name="Path 31391" d="M29.443,10.414H20.561V4.078A3.853,3.853,0,0,0,16.712.23H4.5A3.853,3.853,0,0,0,.649,4.079v8.143A3.853,3.853,0,0,0,4.5,16.07H4.72v2.258a1.809,1.809,0,0,0,1.808,1.814A1.77,1.77,0,0,0,7.8,19.6l2.586-2.572V24.6a4.452,4.452,0,0,0,4.447,4.447H21.3l4.285,4.262A2,2,0,0,0,29.02,31.9V29.044h.422A4.452,4.452,0,0,0,33.889,24.6V14.861a4.451,4.451,0,0,0-4.446-4.447ZM10.394,14.785l-3.722,3.7a.189.189,0,0,1-.226.049.207.207,0,0,1-.136-.207V15.275a.8.8,0,0,0-.8-.8H4.5a2.261,2.261,0,0,1-2.258-2.258V4.078A2.261,2.261,0,0,1,4.5,1.82H16.712A2.263,2.263,0,0,1,18.97,4.078v6.336H14.838a4.447,4.447,0,0,0-4.443,4.371ZM32.3,24.6a2.86,2.86,0,0,1-2.856,2.856H28.226a.8.8,0,0,0-.8.8V31.9a.406.406,0,0,1-.26.394.4.4,0,0,1-.453-.105l-4.528-4.5a.8.8,0,0,0-.561-.232H14.838A2.86,2.86,0,0,1,11.981,24.6V14.861A2.863,2.863,0,0,1,14.838,12H29.443A2.86,2.86,0,0,1,32.3,14.861Z" transform="translate(0 0)" fill="#282828"/>
      <path id="Path_31392" data-name="Path 31392" d="M30.862,34.822A1.173,1.173,0,1,0,32.036,36,1.175,1.175,0,0,0,30.862,34.822Z" transform="translate(-13.645 -16.254)" fill="#282828"/>
      <path id="Path_31393" data-name="Path 31393" d="M40.147,34.822A1.173,1.173,0,1,0,41.321,36,1.175,1.175,0,0,0,40.147,34.822Z" transform="translate(-18.008 -16.254)" fill="#282828"/>
      <path id="Path_31394" data-name="Path 31394" d="M49.433,34.822A1.173,1.173,0,1,0,50.607,36,1.175,1.175,0,0,0,49.433,34.822Z" transform="translate(-22.371 -16.254)" fill="#282828"/>
    </g>
  </g>
</svg>
