<svg xmlns="http://www.w3.org/2000/svg" width="70" height="70" viewBox="0 0 70 70">
  <g id="Group_39704" data-name="Group 39704" transform="translate(-539 -3325)">
    <rect id="Rectangle_2096" data-name="Rectangle 2096" width="70" height="70" rx="35" transform="translate(539 3325)" fill="#f5f5f5"/>
    <g id="protection" transform="translate(556.955 3343.123)">
      <g id="Group_39457" data-name="Group 39457" transform="translate(0 19.886)">
        <path id="Path_31395" data-name="Path 31395" d="M27.7,23.943H3.551A3.556,3.556,0,0,1,0,20.392v-1.42A4.977,4.977,0,0,1,4.971,14h14.7a.71.71,0,0,1,0,1.42H4.971A3.556,3.556,0,0,0,1.42,18.971v1.42a2.133,2.133,0,0,0,2.131,2.131H27.7a2.133,2.133,0,0,0,2.131-2.131v-1.42a3.5,3.5,0,0,0-.933-2.388.711.711,0,0,1,1.044-.964,4.931,4.931,0,0,1,1.31,3.352v1.42A3.556,3.556,0,0,1,27.7,23.943Z" transform="translate(0 -14)" stroke="#282828" stroke-width="0.3"/>
      </g>
      <g id="Group_39458" data-name="Group 39458" transform="translate(0 25.567)">
        <path id="Path_31396" data-name="Path 31396" d="M2.841,26.522A2.844,2.844,0,0,1,0,23.682V18.71a.71.71,0,0,1,1.42,0v4.971a1.42,1.42,0,0,0,2.841,0V21.551a.71.71,0,0,1,1.42,0v2.131A2.844,2.844,0,0,1,2.841,26.522Z" transform="translate(0 -18)" stroke="#282828" stroke-width="0.3"/>
      </g>
      <g id="Group_39459" data-name="Group 39459" transform="translate(25.567 25.567)">
        <path id="Path_31397" data-name="Path 31397" d="M20.841,26.522A2.844,2.844,0,0,1,18,23.682V21.551a.71.71,0,0,1,1.42,0v2.131a1.42,1.42,0,0,0,2.841,0V18.71a.71.71,0,0,1,1.42,0v4.971A2.844,2.844,0,0,1,20.841,26.522Z" transform="translate(-18 -18)" stroke="#282828" stroke-width="0.3"/>
      </g>
      <g id="Group_39460" data-name="Group 39460" transform="translate(2.841 11.363)">
        <path id="Path_31398" data-name="Path 31398" d="M2.71,17.943a.689.689,0,0,1-.273-.055.71.71,0,0,1-.382-.929l2.827-6.775A3.54,3.54,0,0,1,8.15,8h4.815a.71.71,0,0,1,0,1.42H8.15a2.147,2.147,0,0,0-1.957,1.311L3.366,17.507a.715.715,0,0,1-.656.436Z" transform="translate(-2 -8)" stroke="#282828" stroke-width="0.3"/>
      </g>
      <g id="Group_39461" data-name="Group 39461" transform="translate(4.261 24.147)">
        <path id="Path_31399" data-name="Path 31399" d="M7.971,18.42H3.71a.71.71,0,0,1,0-1.42H7.971a.71.71,0,0,1,0,1.42Z" transform="translate(-3 -17)" stroke="#282828" stroke-width="0.3"/>
      </g>
      <g id="Group_39462" data-name="Group 39462" transform="translate(21.306 24.147)">
        <path id="Path_31400" data-name="Path 31400" d="M19.971,18.42H15.71a.71.71,0,0,1,0-1.42h4.261a.71.71,0,0,1,0,1.42Z" transform="translate(-15 -17)" stroke="#282828" stroke-width="0.3"/>
      </g>
      <g id="Group_39463" data-name="Group 39463" transform="translate(17.045 0)">
        <path id="Path_31401" data-name="Path 31401" d="M20.522,19.886a.689.689,0,0,1-.276-.057C19.909,19.688,12,16.269,12,9.284V3.348a.712.712,0,0,1,.483-.673L20.3.037a.711.711,0,0,1,.455,0l7.812,2.638a.712.712,0,0,1,.483.673V9.284c0,6.986-7.909,10.4-8.247,10.547A.713.713,0,0,1,20.522,19.886ZM13.42,3.858V9.284c0,5.376,5.76,8.463,7.1,9.111,1.341-.649,7.1-3.747,7.1-9.111V3.858l-7.1-2.4Z" transform="translate(-12 0)" stroke="#282828" stroke-width="0.3"/>
      </g>
      <g id="Group_39464" data-name="Group 39464" transform="translate(21.306 6.392)">
        <path id="Path_31402" data-name="Path 31402" d="M18.551,10.892h-.04A.712.712,0,0,1,18,10.625L15.155,7.074a.71.71,0,0,1,1.109-.888l2.345,2.932,4.41-4.41a.71.71,0,0,1,1,1l-4.971,4.971A.7.7,0,0,1,18.551,10.892Z" transform="translate(-15 -4.5)" stroke="#282828" stroke-width="0.3"/>
      </g>
    </g>
  </g>
</svg>
