<svg xmlns="http://www.w3.org/2000/svg" width="36.5" height="36.5" viewBox="0 0 36.5 36.5">
  <g id="gearbox" transform="translate(0.25 0.25)">
    <g id="Group_42598" data-name="Group 42598">
      <path id="Path_41311" data-name="Path 41311" d="M31.714,0a4.285,4.285,0,0,0-.857,8.484v8.659h-12V8.484a4.286,4.286,0,1,0-1.714,0v8.659h-12V8.484a4.286,4.286,0,1,0-1.714,0V27.516a4.286,4.286,0,1,0,1.714,0V18.857h12v8.659a4.286,4.286,0,1,0,1.714,0V18.857H31.714A.858.858,0,0,0,32.571,18V8.484A4.285,4.285,0,0,0,31.714,0ZM6.857,31.714a2.571,2.571,0,1,1-2.571-2.571A2.575,2.575,0,0,1,6.857,31.714ZM4.286,6.857A2.571,2.571,0,1,1,6.857,4.286,2.575,2.575,0,0,1,4.286,6.857ZM20.571,31.714A2.571,2.571,0,1,1,18,29.143,2.575,2.575,0,0,1,20.571,31.714ZM18,6.857a2.571,2.571,0,1,1,2.571-2.571A2.575,2.575,0,0,1,18,6.857Zm13.714,0a2.571,2.571,0,1,1,2.571-2.571A2.575,2.575,0,0,1,31.714,6.857Z" fill="#090b1e" stroke="#090b1e" stroke-width="0.5"/>
    </g>
  </g>
</svg>
