<svg xmlns="http://www.w3.org/2000/svg" width="19.764" height="16.414" viewBox="0 0 19.764 16.414">
  <g id="twitter" transform="translate(0.162 0.15)">
    <g id="Group_39454" data-name="Group 39454" transform="translate(0 0)">
      <path id="Path_31386" data-name="Path 31386" d="M19.272,45.755a.4.4,0,0,0-.462.012,2,2,0,0,1-.613.266,2.233,2.233,0,0,0,.7-1.477.4.4,0,0,0-.629-.3,3.869,3.869,0,0,1-2.157.751,4.091,4.091,0,0,0-2.839-1.137,4.184,4.184,0,0,0-4.152,4.207,4.313,4.313,0,0,0,.037.561c-3.908-.067-7.08-3.807-7.113-3.847a.393.393,0,0,0-.339-.141.4.4,0,0,0-.309.2,4.18,4.18,0,0,0,.247,4.608c-.07-.041-.127-.08-.166-.109a.4.4,0,0,0-.634.312A4.037,4.037,0,0,0,2.5,53.176a.4.4,0,0,0-.326.509,3.958,3.958,0,0,0,2.9,2.795,6.682,6.682,0,0,1-4.609.945.4.4,0,0,0-.311.706,10.038,10.038,0,0,0,6.1,1.858,11.792,11.792,0,0,0,2.313-.212c8.683-2.058,8.959-9.992,8.941-11.344,1.629-1.517,1.885-2.1,1.925-2.243A.4.4,0,0,0,19.272,45.755Zm-2.436,2.217a.4.4,0,0,0-.127.319,11.618,11.618,0,0,1-.824,4.568A10.024,10.024,0,0,1,8.391,59a11.375,11.375,0,0,1-6.449-.71,6,6,0,0,0,4.3-1.816.419.419,0,0,0,.065-.44.411.411,0,0,0-.363-.247h0A3.194,3.194,0,0,1,3.167,54.03a2.473,2.473,0,0,0,1.106-.161.394.394,0,0,0-.085-.744,3.307,3.307,0,0,1-2.512-2.761,2.148,2.148,0,0,0,1.121.178A.4.4,0,0,0,3,49.85c-.091-.079-2.063-1.834-1.16-4.1,1.07,1.114,4.12,3.888,7.818,3.676a.4.4,0,0,0,.362-.493,3.5,3.5,0,0,1-.105-.851,3.389,3.389,0,0,1,3.358-3.413,3.309,3.309,0,0,1,2.392,1.018.4.4,0,0,0,.278.121,4.641,4.641,0,0,0,1.653-.29,6.166,6.166,0,0,1-.886.83.4.4,0,0,0,.277.708,8.322,8.322,0,0,0,.925-.133C17.649,47.2,17.3,47.545,16.837,47.971Z" transform="translate(0 -43.874)" fill="#7d7d7d" stroke="#7d7d7d" stroke-width="0.3"/>
    </g>
  </g>
</svg>
