<svg xmlns="http://www.w3.org/2000/svg" width="17.533" height="16.858" viewBox="0 0 17.533 16.858">
  <path id="star" d="M15.958,6.29a.849.849,0,0,0-.731-.584l-4.619-.419L8.782,1.013a.851.851,0,0,0-1.565,0L5.392,5.286.773,5.706A.851.851,0,0,0,.289,7.194l3.491,3.061L2.751,14.789a.85.85,0,0,0,1.265.919L8,13.327l3.982,2.381a.851.851,0,0,0,1.266-.919l-1.029-4.534L15.71,7.194a.851.851,0,0,0,.248-.9ZM8.076,13.281" transform="translate(0.767 0.254)" fill="none" stroke="#000" stroke-width="1.5"/>
</svg>
