<svg xmlns="http://www.w3.org/2000/svg" width="13.5" height="13.5" viewBox="0 0 13.5 13.5">
  <g id="Layer_2" data-name="Layer 2" transform="translate(-0.862 -0.75)">
    <path id="Path_32246" data-name="Path 32246" d="M11.933,8.55H8.01a.437.437,0,1,0,0,.868h3.923a.437.437,0,1,0,0-.868Z" transform="translate(-3.593 -4.275)" fill="#1852d8" stroke="#1852d8" stroke-width="0.5"/>
    <path id="Path_32247" data-name="Path 32247" d="M11.933,13.9H8.01a.437.437,0,1,0,0,.868h3.923a.437.437,0,1,0,0-.868Z" transform="translate(-3.593 -7.305)" fill="#1852d8" stroke="#1852d8" stroke-width="0.5"/>
    <path id="Path_32248" data-name="Path 32248" d="M11.933,19.37H8.01a.437.437,0,1,0,0,.868h3.923a.437.437,0,1,0,0-.868Z" transform="translate(-3.593 -10.402)" fill="#1852d8" stroke="#1852d8" stroke-width="0.5"/>
    <path id="Path_32249" data-name="Path 32249" d="M13.4,1H4.078a1.928,1.928,0,0,0-1.3.5A1.623,1.623,0,0,0,2.24,2.7V13.28a.6.6,0,0,0,.338.534.718.718,0,0,0,.673-.009l1.738-.959a.178.178,0,0,1,.175,0L7.1,13.909a.675.675,0,0,0,.34.091.737.737,0,0,0,.345-.087l1.941-1.067a.178.178,0,0,1,.175,0l1.729.959a.707.707,0,0,0,.671,0,.6.6,0,0,0,.335-.529V5.962h1.483A1.086,1.086,0,0,0,15.24,4.93V2.7a1.623,1.623,0,0,0-.535-1.2A1.928,1.928,0,0,0,13.4,1ZM11.688,12.824l-1.3-.72a1.211,1.211,0,0,0-1.148,0l-1.8.989L5.651,12.1a1.211,1.211,0,0,0-1.162,0l-1.3.724V2.7a.786.786,0,0,1,.256-.588.934.934,0,0,1,.636-.245h7.8a1.453,1.453,0,0,0-.194.707V12.811ZM14.3,4.93a.173.173,0,0,1-.18.165H12.632V2.588a.677.677,0,0,1,.22-.508.805.805,0,0,1,.55-.212.859.859,0,0,1,.893.82Z" transform="translate(-1.128)" fill="#1852d8" stroke="#1852d8" stroke-width="0.5"/>
  </g>
</svg>
