<svg xmlns="http://www.w3.org/2000/svg" width="18" height="13.878" viewBox="0 0 18 13.878">
  <g id="Group_42627" data-name="Group 42627" transform="translate(-1.583 -3.434)">
    <path id="Path_41320" data-name="Path 41320" d="M14.59,9.756l-1.93-1.93a.908.908,0,0,1,1.284-1.284l1.284,1.284L18.45,4.6a.908.908,0,0,1,1.284,1.284l-3.86,3.86a.9.9,0,0,1-1.284.009Zm-5.307-3H2.91a.91.91,0,0,0,0,1.821H9.283a.91.91,0,0,0,0-1.821Zm9.368,5.2a.907.907,0,0,0-1.284,0l-1.711,1.711-1.711-1.711a.908.908,0,1,0-1.284,1.284l1.711,1.711L12.66,16.666a.908.908,0,1,0,1.284,1.284l1.711-1.711,1.711,1.711a.908.908,0,1,0,1.284-1.284l-1.711-1.711,1.711-1.711A.907.907,0,0,0,18.65,11.959ZM9.283,14.044H2.91a.91.91,0,0,0,0,1.821H9.283a.91.91,0,0,0,0-1.821Z" transform="translate(-0.417 -0.904)" fill="#090b1e"/>
  </g>
</svg>
