<svg xmlns="http://www.w3.org/2000/svg" width="16.272" height="19.2" viewBox="0 0 16.272 19.2">
  <g id="location" transform="translate(-39.351 0.1)">
    <g id="Group_42612" data-name="Group 42612" transform="translate(39.451)">
      <g id="Group_42611" data-name="Group 42611" transform="translate(0)">
        <path id="Path_41312" data-name="Path 41312" d="M53.169,2.354A8.036,8.036,0,0,0,39.451,8.036c0,4.342,4.106,7.954,6.311,9.894.307.27.571.5.782.7a1.385,1.385,0,0,0,1.885,0c.211-.2.476-.43.782-.7,2.206-1.94,6.311-5.552,6.311-9.894A7.984,7.984,0,0,0,53.169,2.354ZM48.476,17.095c-.313.276-.584.514-.807.722a.269.269,0,0,1-.365,0c-.223-.208-.494-.446-.807-.722-2.074-1.824-5.934-5.22-5.934-9.059a6.923,6.923,0,0,1,13.846,0C54.41,11.875,50.55,15.27,48.476,17.095Z" transform="translate(-39.451)" fill="#090b1e" stroke="#090b1e" stroke-width="0.2"/>
      </g>
    </g>
    <g id="Group_42614" data-name="Group 42614" transform="translate(43.946 4.191)">
      <g id="Group_42613" data-name="Group 42613">
        <path id="Path_41313" data-name="Path 41313" d="M164.111,112.938a3.541,3.541,0,1,0,3.541,3.541A3.545,3.545,0,0,0,164.111,112.938Zm0,5.97a2.428,2.428,0,1,1,2.428-2.428A2.431,2.431,0,0,1,164.111,118.908Z" transform="translate(-160.57 -112.938)" fill="#090b1e" stroke="#090b1e" stroke-width="0.2"/>
      </g>
    </g>
  </g>
</svg>
