<svg xmlns="http://www.w3.org/2000/svg" width="18" height="18" viewBox="0 0 18 18">
  <path id="coins" d="M17.249,9.059a2.528,2.528,0,0,0,.115-.7V5.091C17.364,2.759,13.845,1,9.182,1S1,2.759,1,5.091V8.364a3.183,3.183,0,0,0,1.751,2.585,2.16,2.16,0,0,0-.115.687v3.273C2.636,17.241,6.155,19,10.818,19S19,17.241,19,14.909V11.636A3.158,3.158,0,0,0,17.249,9.059Zm-8.067,3.4c3.15,0,5.776-.818,7.151-2.045.655.393,1.031.818,1.031,1.227,0,1-2.553,2.455-6.545,2.455s-6.472-1.415-6.545-2.414a14.523,14.523,0,0,0,4.909.777Zm0-9.818c3.993,0,6.545,1.456,6.545,2.455S13.175,7.545,9.182,7.545,2.636,6.089,2.636,5.091,5.189,2.636,9.182,2.636ZM2.636,7.595A12.215,12.215,0,0,0,9.182,9.182a12.215,12.215,0,0,0,6.545-1.587v.769c0,1-2.553,2.455-6.545,2.455S2.636,9.362,2.636,8.364Zm8.182,9.769c-3.993,0-6.545-1.456-6.545-2.455V14.14a12.215,12.215,0,0,0,6.545,1.587,12.215,12.215,0,0,0,6.545-1.587v.769C17.364,15.907,14.811,17.364,10.818,17.364Z" transform="translate(-1 -1)" fill="#090b1e"/>
</svg>
