<svg xmlns="http://www.w3.org/2000/svg" width="13.771" height="19.2" viewBox="0 0 13.771 19.2">
  <path id="Path_41350" data-name="Path 41350" d="M17.536,8.786H9.393V6.553a3.2,3.2,0,0,1,3.2-3.2h.394a3.2,3.2,0,0,1,3.2,3.2.679.679,0,1,0,1.357,0A4.56,4.56,0,0,0,12.983,2h-.394A4.56,4.56,0,0,0,8.036,6.553V8.786A2.036,2.036,0,0,0,6,10.821v6.311A3.875,3.875,0,0,0,9.868,21H15.7a3.875,3.875,0,0,0,3.868-3.868V10.821A2.036,2.036,0,0,0,17.536,8.786Zm.679,8.346A2.511,2.511,0,0,1,15.7,19.643H9.868a2.511,2.511,0,0,1-2.511-2.511V10.821a.679.679,0,0,1,.679-.679h9.5a.679.679,0,0,1,.679.679ZM13.464,14.7v2.226a.679.679,0,0,1-1.357,0V14.7a1.357,1.357,0,1,1,1.357,0Z" transform="translate(-5.9 -1.9)" fill="#171e14" stroke="#171e14" stroke-width="0.2"/>
</svg>
