<svg xmlns="http://www.w3.org/2000/svg" width="12.914" height="12.914" viewBox="0 0 12.914 12.914">
  <g id="edit" transform="translate(-2 -2)">
    <path id="Path_41574" data-name="Path 41574" d="M10.652,7.046,10.034,8.9a.65.65,0,0,0,.817.816L12.7,9.1a.65.65,0,0,0,.252-.156L17.3,4.593a1.519,1.519,0,1,0-2.148-2.148l-4.349,4.35a.646.646,0,0,0-.156.252Z" transform="translate(-2.836 0)" fill="#090b1e"/>
    <path id="Path_41575" data-name="Path 41575" d="M14.268,6.52a.646.646,0,0,0-.646.646v4.52a1.937,1.937,0,0,1-1.937,1.937H5.229a1.937,1.937,0,0,1-1.937-1.937V5.229A1.937,1.937,0,0,1,5.229,3.291h4.52A.646.646,0,0,0,9.748,2H5.229A3.232,3.232,0,0,0,2,5.229v6.457a3.232,3.232,0,0,0,3.229,3.229h6.457a3.232,3.232,0,0,0,3.229-3.229V7.166A.646.646,0,0,0,14.268,6.52Z" fill="#090b1e"/>
  </g>
</svg>
