<svg xmlns="http://www.w3.org/2000/svg" width="18.626" height="18.402" viewBox="0 0 18.626 18.402">
  <path id="_18" data-name="18" d="M18.016,7.829h0L10.672.485a1.657,1.657,0,0,0-2.344,0L.989,7.824l-.007.008a1.657,1.657,0,0,0,1.1,2.824l.051,0h.293v5.4A1.942,1.942,0,0,0,4.367,18H7.24a.527.527,0,0,0,.527-.527V13.237a.886.886,0,0,1,.885-.885h1.695a.886.886,0,0,1,.885.885v4.237A.527.527,0,0,0,11.76,18h2.873a1.942,1.942,0,0,0,1.94-1.94v-5.4h.271a1.658,1.658,0,0,0,1.173-2.828Zm-.747,1.6a.6.6,0,0,1-.426.177h-.8a.527.527,0,0,0-.527.527v5.931a.886.886,0,0,1-.885.885H12.287V13.237a1.942,1.942,0,0,0-1.94-1.94H8.653a1.942,1.942,0,0,0-1.94,1.94v3.709H4.367a.886.886,0,0,1-.885-.885V10.13A.527.527,0,0,0,2.955,9.6h-.81A.6.6,0,0,1,1.73,8.574h0L9.074,1.231a.6.6,0,0,1,.852,0l7.341,7.341,0,0a.6.6,0,0,1,0,.851Zm0,0" transform="translate(-0.187 0.201)" fill="#090b1e" stroke="#090b1e" stroke-width="0.4"/>
</svg>
