<svg xmlns="http://www.w3.org/2000/svg" width="19.1" height="18.276" viewBox="0 0 19.1 18.276">
  <g id="Group_42673" data-name="Group 42673" transform="translate(-19.95 -683.95)">
    <path id="Path_41344" data-name="Path 41344" d="M7.25,8A.75.75,0,0,1,8,7.25h4a.75.75,0,0,1,0,1.5H8A.75.75,0,0,1,7.25,8Z" transform="translate(17.812 681.997)" fill="#090b1e" stroke="#090b1e" stroke-width="0.1"/>
    <path id="Path_41345" data-name="Path 41345" d="M7.25,12A.75.75,0,0,1,8,11.25h8a.75.75,0,0,1,0,1.5H8A.75.75,0,0,1,7.25,12Z" transform="translate(17.5 681.496)" fill="#090b1e" stroke="#090b1e" stroke-width="0.1"/>
    <path id="Path_41346" data-name="Path 41346" d="M8.953,1.25h3.594c1.212,0,2.163,0,2.926.062a5.23,5.23,0,0,1,2,.491A5.081,5.081,0,0,1,19.7,4.024a5.231,5.231,0,0,1,.491,2c.062.764.062,1.714.062,2.926v1.206a10.935,10.935,0,0,1-.205,2.9A5.081,5.081,0,0,1,16.6,16.51a10.935,10.935,0,0,1-2.9.205h-.668a3.756,3.756,0,0,0-2.139.686l-.043.031L8.536,19.08a1.636,1.636,0,0,1-2.47-1.939.31.31,0,0,0-.288-.426H5.246a4,4,0,0,1-4-4V8.953c0-1.212,0-2.163.062-2.926a5.23,5.23,0,0,1,.491-2A5.081,5.081,0,0,1,4.024,1.8a5.23,5.23,0,0,1,2-.491C6.79,1.25,7.741,1.25,8.953,1.25ZM6.134,2.634a3.946,3.946,0,0,0-1.508.351A3.756,3.756,0,0,0,2.985,4.626a3.946,3.946,0,0,0-.351,1.508c-.057.7-.058,1.6-.058,2.848v3.737a2.67,2.67,0,0,0,2.67,2.67h.532A1.636,1.636,0,0,1,7.3,17.633.31.31,0,0,0,7.765,18l2.357-1.684a5.082,5.082,0,0,1,2.894-.928h.547a10.659,10.659,0,0,0,2.661-.152,3.756,3.756,0,0,0,2.547-2.547,10.659,10.659,0,0,0,.152-2.661V8.983c0-1.248,0-2.145-.058-2.848a3.947,3.947,0,0,0-.351-1.508,3.756,3.756,0,0,0-1.641-1.641,3.946,3.946,0,0,0-1.508-.351c-.7-.057-1.6-.058-2.848-.058H8.983c-1.248,0-2.145,0-2.848.058Z" transform="translate(18.75 682.75)" fill="#090b1e" stroke="#090b1e" stroke-width="0.1" fill-rule="evenodd"/>
  </g>
</svg>
