<svg xmlns="http://www.w3.org/2000/svg" width="19" height="15.465" viewBox="0 0 19 15.465">
  <g id="Group_42674" data-name="Group 42674" transform="translate(-20 -773)">
    <path id="Path_41347" data-name="Path 41347" d="M16.052,3.25H5.448a4.2,4.2,0,0,0-4.2,4.2v7.07a4.2,4.2,0,0,0,4.2,4.2h10.6a4.2,4.2,0,0,0,4.2-4.2V7.448A4.2,4.2,0,0,0,16.052,3.25ZM5.448,4.576h10.6a2.878,2.878,0,0,1,2.872,2.872v.221H2.576V7.448A2.878,2.878,0,0,1,5.448,4.576Zm10.6,12.814H5.448a2.878,2.878,0,0,1-2.872-2.872V8.994H18.924v5.523A2.878,2.878,0,0,1,16.052,17.39Z" transform="translate(18.75 769.75)" fill="#090b1e"/>
    <path id="Path_41348" data-name="Path 41348" d="M17.564,16.576H14.913a.663.663,0,0,1,0-1.326h2.651a.663.663,0,1,1,0,1.326Z" transform="translate(17.238 768.355)" fill="#090b1e"/>
  </g>
</svg>
