<svg xmlns="http://www.w3.org/2000/svg" width="18.531" height="17.787" viewBox="0 0 18.531 17.787">
  <path id="_8" data-name="8" d="M15.226,19.262a1.449,1.449,0,0,1-.679-.168l-3.886-2.042a.208.208,0,0,0-.2,0L6.58,19.093a1.458,1.458,0,0,1-2.115-1.537l.742-4.326a.21.21,0,0,0-.062-.187L2,9.978a1.458,1.458,0,0,1,.81-2.487l4.341-.63a.21.21,0,0,0,.158-.115L9.254,2.809a1.457,1.457,0,0,1,2.614,0L13.81,6.744a.212.212,0,0,0,.158.115l4.345.631a1.458,1.458,0,0,1,.81,2.487L15.98,13.041a.211.211,0,0,0-.062.187l.742,4.326a1.459,1.459,0,0,1-1.434,1.705Zm-4.663-3.482a1.45,1.45,0,0,1,.679.168l3.885,2.042a.2.2,0,0,0,.222-.016.2.2,0,0,0,.084-.206l-.742-4.327a1.461,1.461,0,0,1,.419-1.29l3.144-3.064a.211.211,0,0,0-.117-.359L13.792,8.1a1.456,1.456,0,0,1-1.1-.8L10.751,3.362a.211.211,0,0,0-.378,0L8.432,7.3a1.456,1.456,0,0,1-1.1.8l-4.343.633a.21.21,0,0,0-.117.359l3.143,3.064a1.461,1.461,0,0,1,.419,1.29l-.742,4.327A.211.211,0,0,0,6,17.989l3.885-2.042a1.456,1.456,0,0,1,.678-.168Z" transform="translate(-1.298 -1.746)" fill="#090b1e" stroke="#090b1e" stroke-width="0.5"/>
</svg>
