<svg xmlns="http://www.w3.org/2000/svg" width="19" height="16.467" viewBox="0 0 19 16.467">
  <g id="Group_42911" data-name="Group 42911" transform="translate(-20 -244.466)">
    <path id="Path_22651" data-name="Path 22651" d="M17.91,3H3.09A2.094,2.094,0,0,0,1,5.09V17.377a2.094,2.094,0,0,0,2.09,2.09H17.91A2.094,2.094,0,0,0,20,17.377V5.09A2.094,2.094,0,0,0,17.91,3Zm.823,14.377a.823.823,0,0,1-.823.823H3.09a.823.823,0,0,1-.823-.823V8.067H18.733Zm0-10.577H2.267V5.09a.823.823,0,0,1,.823-.823H17.91a.823.823,0,0,1,.823.823Z" transform="translate(19 241.466)" fill="#090b1e"/>
    <circle id="Ellipse_312" data-name="Ellipse 312" cx="0.633" cy="0.633" r="0.633" transform="translate(22.534 246.366)" fill="#090b1e"/>
    <circle id="Ellipse_313" data-name="Ellipse 313" cx="0.633" cy="0.633" r="0.633" transform="translate(24.433 246.366)" fill="#090b1e"/>
    <circle id="Ellipse_314" data-name="Ellipse 314" cx="0.633" cy="0.633" r="0.633" transform="translate(26.334 246.366)" fill="#090b1e"/>
    <path id="Path_41966" data-name="Path 41966" d="M11.182,4.6h-.249a.153.153,0,0,1-.147-.1.19.19,0,0,1,.024-.2l.176-.176a1.486,1.486,0,0,0,0-2.1l-.35-.35a1.484,1.484,0,0,0-2.1,0l-.176.176a.18.18,0,0,1-.191.029.165.165,0,0,1-.105-.151V1.484A1.486,1.486,0,0,0,6.58,0H6.086A1.486,1.486,0,0,0,4.6,1.484v.249a.165.165,0,0,1-.105.151.18.18,0,0,1-.191-.029L4.129,1.68a1.484,1.484,0,0,0-2.1,0l-.35.35a1.486,1.486,0,0,0,0,2.1l.176.176a.19.19,0,0,1,.024.2.153.153,0,0,1-.147.1H1.484A1.486,1.486,0,0,0,0,6.086V6.58A1.486,1.486,0,0,0,1.484,8.065h.249a.165.165,0,0,1,.151.105l0,.008A.495.495,0,1,0,2.8,7.8l0-.008a1.152,1.152,0,0,0-1.066-.717H1.484A.5.5,0,0,1,.99,6.58V6.086a.5.5,0,0,1,.495-.495h.249A1.152,1.152,0,0,0,2.8,4.874l0-.007a1.152,1.152,0,0,0-.247-1.261L2.38,3.429a.5.5,0,0,1,0-.7l.35-.35a.479.479,0,0,1,.7,0l.176.176A1.153,1.153,0,0,0,4.868,2.8l.006,0a1.152,1.152,0,0,0,.717-1.066V1.484A.5.5,0,0,1,6.086.99H6.58a.5.5,0,0,1,.495.495v.249A1.152,1.152,0,0,0,7.792,2.8l.006,0a1.153,1.153,0,0,0,1.262-.246l.176-.176a.479.479,0,0,1,.7,0l.35.35a.5.5,0,0,1,0,.7l-.176.176a1.152,1.152,0,0,0-.247,1.261l0,.007a1.152,1.152,0,0,0,1.066.717h.249a.5.5,0,0,1,.495.495V6.58a.5.5,0,0,1-.495.495h-.249a1.152,1.152,0,0,0-1.066.717l0,.008a.495.495,0,1,0,.914.378l0-.008a.165.165,0,0,1,.151-.105h.249A1.486,1.486,0,0,0,12.666,6.58V6.086A1.486,1.486,0,0,0,11.182,4.6Z" transform="translate(23.167 251.821)" fill="#090b1e"/>
    <g id="Ellipse_552" data-name="Ellipse 552" transform="translate(27.5 255.7)" fill="none" stroke="#090b1e" stroke-width="1">
      <circle cx="2" cy="2" r="2" stroke="none"/>
      <circle cx="2" cy="2" r="1.5" fill="none"/>
    </g>
  </g>
</svg>
