<svg xmlns="http://www.w3.org/2000/svg" width="12.666" height="12.654" viewBox="0 0 12.666 12.654">
  <g id="_02_User" data-name="02 User" transform="translate(0.312 0.354)">
    <path id="Path_31414" data-name="Path 31414" d="M.58,12a.586.586,0,0,1-.414-1L10.994.168A.586.586,0,1,1,11.822,1L.995,11.825A.584.584,0,0,1,.58,12Z" transform="translate(0.006 0.003)" fill="#fff" stroke="#fff" stroke-width="0.6"/>
    <path id="Path_31415" data-name="Path 31415" d="M11.411,12A.584.584,0,0,1,11,11.825L.168,1A.586.586,0,0,1,1,.168L11.825,11a.586.586,0,0,1-.414,1Z" transform="translate(0.003 0.003)" fill="#fff" stroke="#fff" stroke-width="0.6"/>
  </g>
</svg>
