<svg xmlns="http://www.w3.org/2000/svg" width="14.859" height="13.634" viewBox="0 0 14.859 13.634">
  <g id="eye" transform="translate(0.182 -38.35)">
    <path id="Path_41973" data-name="Path 41973" d="M14.209,48.549a.567.567,0,0,1-.763-.246h0c-.87-1.695-3.178-4.124-6.187-4.124A7.425,7.425,0,0,0,1.072,48.3a.567.567,0,0,1-1.009-.518,8.544,8.544,0,0,1,7.2-4.741c3.636,0,6.241,2.874,7.2,4.741A.567.567,0,0,1,14.209,48.549ZM.22,42.458,1.483,43.6a.567.567,0,1,0,.76-.842L.98,41.616a.567.567,0,0,0-.76.842ZM13.034,43.6,14.3,42.458a.567.567,0,1,0-.76-.842l-1.263,1.139a.567.567,0,1,0,.76.842ZM7.259,41.337a.567.567,0,0,0,.567-.567v-1.7a.567.567,0,0,0-1.134,0v1.7a.567.567,0,0,0,.567.567Zm2.786,7.707a2.786,2.786,0,1,1-2.786-2.79A2.791,2.791,0,0,1,10.045,49.044Zm-1.134,0A1.652,1.652,0,1,0,7.259,50.7,1.656,1.656,0,0,0,8.91,49.044Z" transform="translate(0)" stroke="#000" stroke-width="0.3"/>
  </g>
</svg>
