<svg xmlns="http://www.w3.org/2000/svg" width="19" height="19" viewBox="0 0 19 19">
  <g id="Group_42668" data-name="Group 42668" transform="translate(-20 -287)">
    <path id="Path_22660" data-name="Path 22660" d="M96.818,166.411a.742.742,0,0,0-.55.894.344.344,0,0,1-.335.422H86.825a.344.344,0,0,1-.335-.422,5.036,5.036,0,0,1,8.3-2.521.742.742,0,1,0,1.006-1.092,6.474,6.474,0,0,0-1.928-1.228,3.711,3.711,0,1,0-4.968,0,6.5,6.5,0,0,0-3.851,4.494,1.828,1.828,0,0,0,1.779,2.249h9.107a1.828,1.828,0,0,0,1.779-2.249A.742.742,0,0,0,96.818,166.411Zm-5.439-8.927a2.227,2.227,0,1,1-2.227,2.227A2.229,2.229,0,0,1,91.378,157.484Z" transform="translate(-61.842 136.789)" fill="#090b1e"/>
    <path id="Path_22661" data-name="Path 22661" d="M16.773,6.9H16.4a.23.23,0,0,1-.22-.148.285.285,0,0,1,.036-.3l.264-.264a2.229,2.229,0,0,0,0-3.149l-.525-.525a2.227,2.227,0,0,0-3.149,0l-.264.264a.27.27,0,0,1-.286.043A.248.248,0,0,1,12.1,2.6V2.227A2.229,2.229,0,0,0,9.871,0H9.129A2.229,2.229,0,0,0,6.9,2.227V2.6a.248.248,0,0,1-.158.227.27.27,0,0,1-.286-.043L6.194,2.52a2.227,2.227,0,0,0-3.149,0l-.525.525a2.229,2.229,0,0,0,0,3.149l.264.264a.285.285,0,0,1,.036.3A.23.23,0,0,1,2.6,6.9H2.227A2.229,2.229,0,0,0,0,9.129v.742A2.229,2.229,0,0,0,2.227,12.1H2.6a.248.248,0,0,1,.227.158l.005.012A.742.742,0,0,0,4.2,11.7l0-.012a1.728,1.728,0,0,0-1.6-1.076H2.227a.743.743,0,0,1-.742-.742V9.129a.743.743,0,0,1,.742-.742H2.6A1.727,1.727,0,0,0,4.2,7.311l0-.011a1.728,1.728,0,0,0-.37-1.892L3.57,5.144a.743.743,0,0,1,0-1.05l.525-.525a.719.719,0,0,1,1.05,0l.264.264A1.729,1.729,0,0,0,7.3,4.2l.009,0A1.728,1.728,0,0,0,8.387,2.6V2.227a.743.743,0,0,1,.742-.742h.742a.743.743,0,0,1,.742.742V2.6a1.727,1.727,0,0,0,1.076,1.6l.009,0a1.729,1.729,0,0,0,1.893-.369l.264-.264a.719.719,0,0,1,1.05,0l.525.525a.743.743,0,0,1,0,1.05l-.264.264A1.728,1.728,0,0,0,14.8,7.3l0,.011a1.727,1.727,0,0,0,1.6,1.075h.374a.743.743,0,0,1,.742.742v.742a.743.743,0,0,1-.742.742H16.4a1.728,1.728,0,0,0-1.6,1.076l0,.012a.742.742,0,1,0,1.372.567l.005-.012A.248.248,0,0,1,16.4,12.1h.374A2.229,2.229,0,0,0,19,9.871V9.129A2.229,2.229,0,0,0,16.773,6.9Z" transform="translate(20 287)" fill="#090b1e"/>
  </g>
</svg>
