<svg xmlns="http://www.w3.org/2000/svg" width="19" height="16.467" viewBox="0 0 19 16.467">
  <g id="Group_42675" data-name="Group 42675" transform="translate(-20 -991.933)">
    <g id="site_settings" transform="translate(20 991.933)">
      <path id="Path_22651" data-name="Path 22651" d="M17.91,3H3.09A2.094,2.094,0,0,0,1,5.09V17.377a2.094,2.094,0,0,0,2.09,2.09H17.91A2.094,2.094,0,0,0,20,17.377V5.09A2.094,2.094,0,0,0,17.91,3Zm.823,14.377a.823.823,0,0,1-.823.823H3.09a.823.823,0,0,1-.823-.823V8.067H18.733Zm0-10.577H2.267V5.09a.823.823,0,0,1,.823-.823H17.91a.823.823,0,0,1,.823.823Z" transform="translate(-1 -3)" fill="#090b1e"/>
      <circle id="Ellipse_312" data-name="Ellipse 312" cx="0.633" cy="0.633" r="0.633" transform="translate(2.533 1.9)" fill="#090b1e"/>
      <circle id="Ellipse_313" data-name="Ellipse 313" cx="0.633" cy="0.633" r="0.633" transform="translate(4.433 1.9)" fill="#090b1e"/>
      <circle id="Ellipse_314" data-name="Ellipse 314" cx="0.633" cy="0.633" r="0.633" transform="translate(6.333 1.9)" fill="#090b1e"/>
    </g>
    <g id="steering-wheel_1_" data-name="steering-wheel (1)" transform="translate(25.44 998)">
      <path id="XMLID_122_" d="M14.58,14a.58.58,0,1,1-.58.58A.58.58,0,0,1,14.58,14Z" transform="translate(-10.521 -10.521)" fill="#090b1e" stroke="#090b1e" stroke-width="0.3"/>
      <path id="XMLID_124_" d="M2,6.059A4.059,4.059,0,1,0,6.059,2,4.073,4.073,0,0,0,2,6.059ZM9.519,6.4l-1.713.156A1.447,1.447,0,0,0,6.5,7.782L6.236,9.53a1.669,1.669,0,0,1-.353,0L5.614,7.782a1.447,1.447,0,0,0-1.3-1.224L2.6,6.4a2.536,2.536,0,0,1-.009-.555,9.571,9.571,0,0,1,6.937,0A2.576,2.576,0,0,1,9.519,6.4Zm-6.808.592,1.548.141a.868.868,0,0,1,.781.734l.243,1.579A3.487,3.487,0,0,1,2.711,6.995ZM6.835,9.448,7.078,7.87a.868.868,0,0,1,.781-.734L9.407,7A3.487,3.487,0,0,1,6.835,9.448ZM6.059,2.58A3.482,3.482,0,0,1,9.425,5.194a10.09,10.09,0,0,0-6.732,0A3.482,3.482,0,0,1,6.059,2.58Z" transform="translate(-2 -2)" fill="#090b1e" stroke="#090b1e" stroke-width="0.3"/>
    </g>
  </g>
</svg>
