<svg xmlns="http://www.w3.org/2000/svg" width="19" height="16.467" viewBox="0 0 19 16.467">
  <g id="Group_42667" data-name="Group 42667" transform="translate(-20 -244.466)">
    <path id="Path_22651" data-name="Path 22651" d="M17.91,3H3.09A2.094,2.094,0,0,0,1,5.09V17.377a2.094,2.094,0,0,0,2.09,2.09H17.91A2.094,2.094,0,0,0,20,17.377V5.09A2.094,2.094,0,0,0,17.91,3Zm.823,14.377a.823.823,0,0,1-.823.823H3.09a.823.823,0,0,1-.823-.823V8.067H18.733Zm0-10.577H2.267V5.09a.823.823,0,0,1,.823-.823H17.91a.823.823,0,0,1,.823.823Z" transform="translate(19 241.466)" fill="#090b1e"/>
    <circle id="Ellipse_312" data-name="Ellipse 312" cx="0.633" cy="0.633" r="0.633" transform="translate(22.534 246.366)" fill="#090b1e"/>
    <circle id="Ellipse_313" data-name="Ellipse 313" cx="0.633" cy="0.633" r="0.633" transform="translate(24.433 246.366)" fill="#090b1e"/>
    <circle id="Ellipse_314" data-name="Ellipse 314" cx="0.633" cy="0.633" r="0.633" transform="translate(26.334 246.366)" fill="#090b1e"/>
  </g>
</svg>
