<svg xmlns="http://www.w3.org/2000/svg" width="19" height="17.85" viewBox="0 0 19 17.85">
  <g id="booking" transform="translate(0 -15.5)">
    <path id="Path_41328" data-name="Path 41328" d="M15.093,15.5H3.907a3.907,3.907,0,0,0,0,7.814H6.752v3.157l-.139-.117a1.809,1.809,0,0,0-2.395.1,1.562,1.562,0,0,0,.1,2.326l2.432,2.041v1.967a.557.557,0,0,0,.557.557h6.68a.557.557,0,0,0,.557-.557V26.538a1.672,1.672,0,0,0-1.463-1.657l-2.99-.372V23.314h5a3.907,3.907,0,1,0,0-7.814ZM7.865,32.236V31.123h5.566v1.113Zm5.079-6.251a.558.558,0,0,1,.488.552V30.01H7.511L5.035,27.932a.451.451,0,0,1-.03-.686.692.692,0,0,1,.892-.039l1.053.884a.557.557,0,0,0,.914-.426V20.547a.557.557,0,0,1,1.113,0V25a.557.557,0,0,0,.488.552ZM15.093,22.2h-5V20.547a1.67,1.67,0,0,0-3.34,0V22.2H3.907a2.794,2.794,0,1,1,0-5.588H15.093a2.794,2.794,0,0,1,0,5.588Z" fill="#090b1e"/>
    <path id="Path_41329" data-name="Path 41329" d="M304.4,75.663,302.569,77.5l-.72-.72a.557.557,0,0,0-.787.787l1.113,1.113a.557.557,0,0,0,.787,0l2.227-2.227a.557.557,0,1,0-.787-.787Z" transform="translate(-289.733 -57.773)" fill="#090b1e"/>
  </g>
</svg>
