<svg xmlns="http://www.w3.org/2000/svg" width="18" height="18" viewBox="0 0 18 18">
  <g id="Layer_2" data-name="Layer 2" transform="translate(-2 -2)">
    <path id="Path_41326" data-name="Path 41326" d="M18.071,3.286H15.5V2.643a.643.643,0,0,0-1.286,0v.643H7.786V2.643a.643.643,0,0,0-1.286,0v.643H3.929A1.929,1.929,0,0,0,2,5.214V18.071A1.929,1.929,0,0,0,3.929,20H18.071A1.929,1.929,0,0,0,20,18.071V5.214a1.929,1.929,0,0,0-1.929-1.929ZM3.929,4.571H18.071a.643.643,0,0,1,.643.643V7.143H3.286V5.214A.643.643,0,0,1,3.929,4.571ZM18.071,18.714H3.929a.643.643,0,0,1-.643-.643V8.429H18.714v9.643A.643.643,0,0,1,18.071,18.714Z" fill="#090b1e"/>
    <path id="Path_41327" data-name="Path 41327" d="M16.653,15.147,12.6,18.619l-1.508-1.507a.643.643,0,1,0-.909.909l1.929,1.929a.643.643,0,0,0,.872.033l4.5-3.857a.643.643,0,1,0-.836-.976Z" transform="translate(-2.856 -4.635)" fill="#090b1e"/>
  </g>
</svg>
