<svg xmlns="http://www.w3.org/2000/svg" width="19.435" height="17.817" viewBox="0 0 19.435 17.817">
  <g id="image-gallery" transform="translate(0.235 -1.8)">
    <g id="Group_39987" data-name="Group 39987" transform="translate(0 8.097)">
      <path id="Path_32254" data-name="Path 32254" d="M13.817,21.021a1.579,1.579,0,0,1-.4-.052L1.172,17.69a1.6,1.6,0,0,1-1.119-1.94L1.6,9.994a.4.4,0,0,1,.765.2L.818,15.954a.8.8,0,0,0,.562.973L13.617,20.2a.788.788,0,0,0,.963-.557l.618-2.291a.4.4,0,1,1,.765.206l-.617,2.288a1.581,1.581,0,0,1-1.529,1.172Z" transform="translate(0 -9.701)" fill="#090b1e" stroke="#090b1e" stroke-width="0.4"/>
    </g>
    <g id="Group_39988" data-name="Group 39988" transform="translate(3.167 2)">
      <path id="Path_32255" data-name="Path 32255" d="M18.25,14.667H5.583A1.585,1.585,0,0,1,4,13.083v-9.5A1.585,1.585,0,0,1,5.583,2H18.25a1.585,1.585,0,0,1,1.583,1.583v9.5A1.585,1.585,0,0,1,18.25,14.667ZM5.583,2.792a.793.793,0,0,0-.792.792v9.5a.793.793,0,0,0,.792.792H18.25a.793.793,0,0,0,.792-.792v-9.5a.793.793,0,0,0-.792-.792Z" transform="translate(-4 -2)" fill="#090b1e" stroke="#090b1e" stroke-width="0.4"/>
    </g>
    <g id="Group_39989" data-name="Group 39989" transform="translate(5.542 4.375)">
      <path id="Path_32256" data-name="Path 32256" d="M8.583,8.167a1.583,1.583,0,1,1,1.583-1.583A1.585,1.585,0,0,1,8.583,8.167Zm0-2.375a.792.792,0,1,0,.792.792A.793.793,0,0,0,8.583,5.792Z" transform="translate(-7 -5)" fill="#090b1e" stroke="#090b1e" stroke-width="0.4"/>
    </g>
    <g id="Group_39990" data-name="Group 39990" transform="translate(3.222 6.394)">
      <path id="Path_32257" data-name="Path 32257" d="M4.466,14.976a.4.4,0,0,1-.28-.675l3.739-3.739a1.217,1.217,0,0,1,1.679,0l1.113,1.113,3.081-3.7a1.189,1.189,0,0,1,.9-.427h.009a1.187,1.187,0,0,1,.9.414l4.14,4.831a.4.4,0,1,1-.6.515l-4.14-4.831a.392.392,0,0,0-.3-.138.42.42,0,0,0-.3.142l-3.359,4.03a.394.394,0,0,1-.287.142.381.381,0,0,1-.3-.116L9.044,11.121a.407.407,0,0,0-.56,0L4.745,14.86a.394.394,0,0,1-.279.116Z" transform="translate(-4.07 -7.55)" fill="#090b1e" stroke="#090b1e" stroke-width="0.4"/>
    </g>
  </g>
</svg>
