<svg xmlns="http://www.w3.org/2000/svg" width="19" height="19" viewBox="0 0 19 19">
  <g id="checklist_1_" data-name="checklist (1)" transform="translate(-1.25 -1.25)">
    <path id="Path_41330" data-name="Path 41330" d="M16.922,9.446h-4.64a.663.663,0,1,1,0-1.326h4.64a.663.663,0,1,1,0,1.326Z" transform="translate(-1.206 -0.799)" fill="#090b1e"/>
    <path id="Path_41331" data-name="Path 41331" d="M6.945,9.944a.655.655,0,0,1-.468-.194l-.663-.663a.662.662,0,0,1,.937-.937l.194.194,1.52-1.52a.662.662,0,0,1,.937.937L7.414,9.75a.662.662,0,0,1-.468.194Z" transform="translate(-0.508 -0.626)" fill="#090b1e"/>
    <path id="Path_41332" data-name="Path 41332" d="M16.922,16.446h-4.64a.663.663,0,0,1,0-1.326h4.64a.663.663,0,0,1,0,1.326Z" transform="translate(-1.206 -1.613)" fill="#090b1e"/>
    <path id="Path_41333" data-name="Path 41333" d="M6.945,16.944a.655.655,0,0,1-.468-.194l-.663-.663a.662.662,0,0,1,.937-.937l.194.194,1.52-1.52a.662.662,0,0,1,.937.937L7.414,16.75a.662.662,0,0,1-.468.194Z" transform="translate(-0.508 -1.44)" fill="#090b1e"/>
    <path id="Path_41334" data-name="Path 41334" d="M13.4,20.25H8.1C3.3,20.25,1.25,18.2,1.25,13.4V8.1C1.25,3.3,3.3,1.25,8.1,1.25h5.3c4.8,0,6.849,2.05,6.849,6.849v5.3C20.25,18.2,18.2,20.25,13.4,20.25ZM8.1,2.576c-4.074,0-5.523,1.449-5.523,5.523v5.3c0,4.074,1.449,5.523,5.523,5.523h5.3c4.074,0,5.523-1.449,5.523-5.523V8.1c0-4.074-1.449-5.523-5.523-5.523Z" fill="#090b1e"/>
  </g>
</svg>
