<svg xmlns="http://www.w3.org/2000/svg" width="58.88" height="58.88" viewBox="0 0 58.88 58.88">
  <g id="Group_42641" data-name="Group 42641" transform="translate(-99.726 -145.725)">
    <circle id="retro-wave-synth-wave-portrait-young-happy-serious-african-man-studio" cx="29.44" cy="29.44" r="29.44" transform="translate(99.726 145.725)" fill="#1d5663"/>
    <g id="user" transform="translate(114.529 158.514)">
      <g id="Group_12090" data-name="Group 12090" transform="translate(5.854)">
        <g id="Group_12089" data-name="Group 12089">
          <path id="Path_22045" data-name="Path 22045" d="M129.781,0a8.781,8.781,0,1,0,8.781,8.781A8.791,8.791,0,0,0,129.781,0Z" transform="translate(-121)" fill="#fff"/>
        </g>
      </g>
      <g id="Group_12092" data-name="Group 12092" transform="translate(0 19.513)">
        <g id="Group_12091" data-name="Group 12091">
          <path id="Path_22046" data-name="Path 22046" d="M56.56,303.785A12.518,12.518,0,0,0,47.586,300h-3.9a12.518,12.518,0,0,0-8.974,3.785A12.8,12.8,0,0,0,31,312.814a.976.976,0,0,0,.976.976H59.294a.976.976,0,0,0,.976-.976A12.8,12.8,0,0,0,56.56,303.785Z" transform="translate(-31 -300)" fill="#fff"/>
        </g>
      </g>
      <g id="Group_42640" data-name="Group 42640">
        <circle id="Ellipse_541" data-name="Ellipse 541" cx="7" cy="7" r="7" transform="translate(18.635 20.65)" fill="#1d5663"/>
        <g id="settings" transform="translate(14.014 22.607)">
          <g id="Group_42639" data-name="Group 42639" transform="translate(6.71)">
            <path id="Path_41351" data-name="Path 41351" d="M16.362,6.148l-.927-.725a3.65,3.65,0,0,0,.022-.381,3.54,3.54,0,0,0-.022-.381l.928-.725a.455.455,0,0,0,.11-.579l-.964-1.668a.447.447,0,0,0-.558-.2l-1.094.439a3.75,3.75,0,0,0-.657-.381L13.033.387A.446.446,0,0,0,12.588,0H10.655a.445.445,0,0,0-.445.383l-.167,1.165a3.866,3.866,0,0,0-.656.381l-1.1-.44a.456.456,0,0,0-.553.2l-.965,1.67a.452.452,0,0,0,.109.582l.927.725a3.325,3.325,0,0,0,0,.761l-.928.725a.455.455,0,0,0-.109.579L7.735,8.4a.446.446,0,0,0,.558.2l1.094-.439a3.783,3.783,0,0,0,.656.381L10.21,9.7a.446.446,0,0,0,.445.387h1.933a.446.446,0,0,0,.445-.383L13.2,8.539a3.884,3.884,0,0,0,.656-.382l1.1.44a.452.452,0,0,0,.165.031.444.444,0,0,0,.389-.228l.968-1.677A.454.454,0,0,0,16.362,6.148Zm-4.74.576A1.681,1.681,0,1,1,13.3,5.043,1.683,1.683,0,0,1,11.621,6.724Z" transform="translate(-6.71)" fill="#fff"/>
          </g>
        </g>
      </g>
    </g>
  </g>
</svg>
