<svg xmlns="http://www.w3.org/2000/svg" width="16.306" height="22.515" viewBox="0 0 16.306 22.515">
  <g id="docs" transform="translate(-70.6)">
    <path id="Path_22524" data-name="Path 22524" d="M86.906,6.165v14.9a1.453,1.453,0,0,1-1.451,1.451h-13.4A1.453,1.453,0,0,1,70.6,21.064V1.451A1.453,1.453,0,0,1,72.051,0h8.689Z" fill="#518ff5"/>
    <g id="Group_12401" data-name="Group 12401" transform="translate(74.584 11.306)">
      <path id="Path_22525" data-name="Path 22525" d="M161.2,257.1h8.338v.928H161.2Z" transform="translate(-161.2 -257.1)" fill="#fff"/>
      <path id="Path_22526" data-name="Path 22526" d="M161.2,304.1h8.338v.928H161.2Z" transform="translate(-161.2 -302.033)" fill="#fff"/>
      <path id="Path_22527" data-name="Path 22527" d="M161.2,351.2h8.338v.928H161.2Z" transform="translate(-161.2 -347.062)" fill="#fff"/>
      <path id="Path_22528" data-name="Path 22528" d="M161.2,398.2h5.932v.928H161.2Z" transform="translate(-161.2 -391.995)" fill="#fff"/>
    </g>
    <path id="Path_22529" data-name="Path 22529" d="M320.3,102.491l5.325,4.314V102.75L322.609,101Z" transform="translate(-238.72 -96.559)" opacity="0.19"/>
    <path id="Path_22530" data-name="Path 22530" d="M307.365,6.165h-4.714A1.453,1.453,0,0,1,301.2,4.714V0Z" transform="translate(-220.459)" fill="#a6c5fa"/>
  </g>
</svg>
