<svg xmlns="http://www.w3.org/2000/svg" width="34.399" height="34.405" viewBox="0 0 34.399 34.405">
  <g id="minibus_1_" data-name="minibus (1)" transform="translate(-1 -0.975)">
    <g id="Group_39684" data-name="Group 39684" transform="translate(11.093 1.821)">
      <path id="Path_31427" data-name="Path 31427" d="M57.989,7.494A11.721,11.721,0,0,0,38.933,20.407l.027.055A28.062,28.062,0,0,0,47.369,31.41l.328.273a3.312,3.312,0,0,0,2.02.71,3.206,3.206,0,0,0,1.993-.683A27.994,27.994,0,0,0,60.5,20.38,11.666,11.666,0,0,0,57.989,7.494Z" transform="translate(-37.969 -4.075)" fill="#e6edff"/>
    </g>
    <g id="Group_39685" data-name="Group 39685" transform="translate(18.199 8.899)">
      <circle id="Ellipse_483" data-name="Ellipse 483" cx="4.641" cy="4.641" r="4.641" fill="#fff"/>
    </g>
    <g id="Group_39686" data-name="Group 39686" transform="translate(1.819 2.893)">
      <path id="Path_31428" data-name="Path 31428" d="M17.923,26.237l-3-1.583L5.338,9.447A6.118,6.118,0,0,0,4,8V35.027a.8.8,0,0,0,.819.819H18.742a1.352,1.352,0,0,0,1.365-1.365V29.868a4.11,4.11,0,0,0-2.184-3.631Z" transform="translate(-4 -8)" fill="#fff"/>
    </g>
    <g id="Group_39687" data-name="Group 39687" transform="translate(10.815 0.975)">
      <path id="Path_31429" data-name="Path 31429" d="M48.977,30.93a.819.819,0,1,1,0-1.638,2.34,2.34,0,0,0,1.474-.491A27.492,27.492,0,0,0,59,17.8,10.922,10.922,0,0,0,41.224,5.814a11.26,11.26,0,0,0-2.675,4.313.82.82,0,0,1-1.556-.519,12.55,12.55,0,1,1,23.478,8.818,28.98,28.98,0,0,1-9.064,11.657,3.811,3.811,0,0,1-2.43.846Z" transform="translate(-36.952 -0.975)" fill="#090b1e"/>
    </g>
    <g id="Group_39688" data-name="Group 39688" transform="translate(4.822 26.917)">
      <circle id="Ellipse_484" data-name="Ellipse 484" cx="3.822" cy="3.822" r="3.822" transform="translate(0)" fill="#fff"/>
    </g>
    <g id="Group_39689" data-name="Group 39689" transform="translate(1.819 9.172)">
      <path id="Path_31430" data-name="Path 31430" d="M14.92,41.374H6.73A2.738,2.738,0,0,1,4,38.644V31H8.368Z" transform="translate(-4 -31)" fill="#fff"/>
    </g>
    <g id="Group_39690" data-name="Group 39690" transform="translate(1 8.353)">
      <path id="Path_31431" data-name="Path 31431" d="M4.549,40.012a3.6,3.6,0,0,1-2.512-1.037A3.553,3.553,0,0,1,1,36.463V28.819A.8.8,0,0,1,1.819,28a.8.8,0,0,1,.819.819v7.644a1.879,1.879,0,0,0,.573,1.365,1.9,1.9,0,0,0,1.338.546h4.1a.819.819,0,1,1,0,1.638Z" transform="translate(-1 -28)" fill="#444b54"/>
    </g>
    <g id="Group_39691" data-name="Group 39691" transform="translate(31.03 33.742)">
      <path id="Path_31432" data-name="Path 31432" d="M114.549,122.638h-2.73a.819.819,0,1,1,0-1.638h2.73a.819.819,0,1,1,0,1.638Z" transform="translate(-111 -121)" fill="#090b1e"/>
    </g>
    <path id="Path_31433" data-name="Path 31433" d="M26.389,34.918H12.166A4.781,4.781,0,0,0,13.2,32.734h3.358a2.19,2.19,0,0,0,2.184-2.184V25.936A4.9,4.9,0,0,0,16.124,21.6l-2.812-1.474L2.5,2.977A.828.828,0,0,0,1.382,2.7.834.834,0,0,0,1.137,3.85l10.92,17.308a1.564,1.564,0,0,0,.3.3l3,1.583a3.261,3.261,0,0,1,1.747,2.894V30.55a.548.548,0,0,1-.546.546H13.2a4.636,4.636,0,0,0-9.2.819,4.537,4.537,0,0,0,1.119,3h-3.3a.819.819,0,1,0,0,1.638h24.57a.819.819,0,1,0,0-1.638Zm-20.748-3a3,3,0,1,1,3,3A2.994,2.994,0,0,1,5.641,31.915Z" transform="translate(0 -1.176)" fill="#090b1e"/>
  </g>
</svg>
