<svg xmlns="http://www.w3.org/2000/svg" width="102.331" height="26.151" viewBox="0 0 102.331 26.151">
  <g id="paypal" transform="translate(0 -187.6)">
    <path id="Path_22567" data-name="Path 22567" d="M355.809,221.2h-5.523a1.079,1.079,0,0,0-.812.65L347.2,236.144a.431.431,0,0,0,.487.487h2.924a.431.431,0,0,0,.487-.487l.65-4.061a.743.743,0,0,1,.812-.65h1.787q5.6,0,6.335-5.36a4.258,4.258,0,0,0-.65-3.573,6.551,6.551,0,0,0-4.223-1.3m.65,5.36c-.325,1.949-1.787,1.949-3.249,1.949h-.975l.65-3.736c0-.162.162-.325.487-.325h.325c.975,0,1.949,0,2.436.65.325.162.325.65.325,1.462" transform="translate(-276.705 -26.778)" fill="#139ad6"/>
    <g id="Group_12579" data-name="Group 12579" transform="translate(30.699 194.422)">
      <path id="Path_22568" data-name="Path 22568" d="M159.809,221.2h-5.523a1.079,1.079,0,0,0-.812.65L151.2,236.144a.431.431,0,0,0,.487.487h2.6a1.079,1.079,0,0,0,.812-.65l.65-3.9a.743.743,0,0,1,.812-.65h1.787q5.6,0,6.335-5.36a4.258,4.258,0,0,0-.65-3.573,6.243,6.243,0,0,0-4.223-1.3m.65,5.36c-.325,1.949-1.787,1.949-3.249,1.949H156.4l.65-3.736c0-.162.162-.325.487-.325h.325c.975,0,1.949,0,2.436.65a1.74,1.74,0,0,1,.162,1.462" transform="translate(-151.2 -221.2)" fill="#263b80"/>
      <path id="Path_22569" data-name="Path 22569" d="M226.508,245.525h-2.6c-.162,0-.487.162-.487.325l-.162.812-.162-.325a3.821,3.821,0,0,0-3.086-1.137,6.241,6.241,0,0,0-6.01,5.36,4.842,4.842,0,0,0,.975,4.061,4.093,4.093,0,0,0,3.411,1.3,5.192,5.192,0,0,0,3.736-1.462l-.162.812a.431.431,0,0,0,.487.487h2.436a1.079,1.079,0,0,0,.812-.65l1.462-9.1c-.162-.162-.487-.487-.65-.487m-3.736,5.2a3.142,3.142,0,0,1-3.086,2.6,2.6,2.6,0,0,1-1.787-.65,3.464,3.464,0,0,1-.487-1.949,2.9,2.9,0,0,1,4.711-1.949,2.836,2.836,0,0,1,.65,1.949" transform="translate(-201.169 -240.327)" fill="#263b80"/>
    </g>
    <path id="Path_22570" data-name="Path 22570" d="M421.708,245.525h-2.6c-.163,0-.487.162-.487.325l-.162.812-.162-.325a3.821,3.821,0,0,0-3.086-1.137,6.242,6.242,0,0,0-6.01,5.36,4.841,4.841,0,0,0,.975,4.061,4.093,4.093,0,0,0,3.411,1.3,5.192,5.192,0,0,0,3.736-1.462l-.162.812a.431.431,0,0,0,.487.487h2.436a1.079,1.079,0,0,0,.812-.65l1.462-9.1c-.162-.162-.325-.487-.65-.487m-3.736,5.2a3.142,3.142,0,0,1-3.086,2.6,2.6,2.6,0,0,1-1.787-.65,3.464,3.464,0,0,1-.487-1.949,2.9,2.9,0,0,1,4.711-1.949,1.864,1.864,0,0,1,.65,1.949" transform="translate(-326.036 -45.905)" fill="#139ad6"/>
    <path id="Path_22571" data-name="Path 22571" d="M296.507,246.8h-2.761a.844.844,0,0,0-.65.325l-3.573,5.523-1.624-5.2a.75.75,0,0,0-.812-.487h-2.6c-.325,0-.487.325-.487.65l2.924,8.609-2.761,3.9c-.162.325,0,.812.325.812h2.6a.844.844,0,0,0,.65-.325l8.934-12.832c.487-.487.162-.975-.162-.975" transform="translate(-226.337 -47.18)" fill="#263b80"/>
    <path id="Path_22572" data-name="Path 22572" d="M477.474,222.075,475.2,236.693a.431.431,0,0,0,.487.487h2.274a1.079,1.079,0,0,0,.812-.65l2.274-14.294a.431.431,0,0,0-.487-.487h-2.6c-.162-.162-.325,0-.487.325" transform="translate(-378.716 -27.165)" fill="#139ad6"/>
    <path id="Path_22573" data-name="Path 22573" d="M18.679,189.549c-1.137-1.3-3.249-1.949-6.172-1.949H4.386a1.393,1.393,0,0,0-1.137.975L0,209.853a.743.743,0,0,0,.65.812H5.685l1.3-7.959v.325a1.393,1.393,0,0,1,1.137-.975h2.436c4.71,0,8.284-1.949,9.421-7.309v-.487h0a5.673,5.673,0,0,0-1.3-4.71" transform="translate(0 0)" fill="#263b80"/>
    <path id="Path_22574" data-name="Path 22574" d="M40.219,220.4h0v.487c-1.137,5.523-4.71,7.309-9.421,7.309H28.361a1.393,1.393,0,0,0-1.137.975L25.6,239.079a.6.6,0,0,0,.65.65h4.223a.91.91,0,0,0,.975-.812v-.162l.812-5.035v-.325a.91.91,0,0,1,.975-.812h.65c4.061,0,7.309-1.624,8.122-6.5.325-1.949.162-3.736-.812-4.873a1.663,1.663,0,0,0-.975-.812" transform="translate(-20.402 -26.14)" fill="#139ad6"/>
    <path id="Path_22575" data-name="Path 22575" d="M46.095,216.087c-.162,0-.325-.162-.487-.162a.6.6,0,0,1-.487-.162,8.58,8.58,0,0,0-2.112-.162H36.674a.6.6,0,0,0-.487.162.893.893,0,0,0-.487.812l-1.3,8.446v.325a1.393,1.393,0,0,1,1.137-.975h2.436c4.71,0,8.284-1.949,9.421-7.309a.6.6,0,0,1,.162-.487c-.325-.162-.487-.325-.812-.325-.487-.162-.487-.162-.65-.162" transform="translate(-27.416 -22.315)" fill="#232c65"/>
  </g>
</svg>
