<svg xmlns="http://www.w3.org/2000/svg" width="16.621" height="13.297" viewBox="0 0 16.621 13.297">
  <path id="settings-sliders" d="M15.3,10.648a3.324,3.324,0,1,0-3.22-4.155H2.831a.831.831,0,1,0,0,1.662h9.246A3.326,3.326,0,0,0,15.3,10.648ZM13.635,7.324A1.662,1.662,0,1,0,15.3,5.662,1.662,1.662,0,0,0,13.635,7.324ZM2,13.973a3.325,3.325,0,0,1,6.544-.831H17.79a.831.831,0,0,1,0,1.662H8.544A3.325,3.325,0,0,1,2,13.973Zm4.986,0a1.662,1.662,0,1,0-1.662,1.662A1.662,1.662,0,0,0,6.986,13.973Z" transform="translate(-2 -4)" fill="#282828" fill-rule="evenodd"/>
</svg>
