<svg xmlns="http://www.w3.org/2000/svg" width="157.949" height="22" viewBox="0 0 157.949 22">
  <g id="Group_39856" data-name="Group 39856" transform="translate(-210 -1919.999)">
    <g id="visa" transform="translate(210 1840.549)">
      <path id="Path_22771" data-name="Path 22771" d="M31.9,99.565a1.886,1.886,0,0,1-1.886,1.886H1.886A1.886,1.886,0,0,1,0,99.565V81.337a1.886,1.886,0,0,1,1.886-1.886H30.014A1.886,1.886,0,0,1,31.9,81.337V99.565Z" transform="translate(0 0)" fill="#fff"/>
      <path id="Path_22772" data-name="Path 22772" d="M35.682,193.988l-.749-3.593a.893.893,0,0,0-.966-.662H30.533l-.031.164A7.063,7.063,0,0,1,35.682,193.988Z" transform="translate(-28.602 -103.41)" fill="#f79f1a"/>
      <g id="Group_13101" data-name="Group 13101" transform="translate(0 79.451)">
        <path id="Path_22773" data-name="Path 22773" d="M187.1,190.892h-2.219l-1.386,8.132h2.215Z" transform="translate(-172.066 -183.949)" fill="#059bbf"/>
        <path id="Path_22774" data-name="Path 22774" d="M70.167,199.1l3.49-8.119H71.308l-2.171,5.547-.232-.837a8.677,8.677,0,0,0-3.069-3.371L67.82,199.1Z" transform="translate(-61.734 -184.032)" fill="#059bbf"/>
        <path id="Path_22775" data-name="Path 22775" d="M247.684,194.272c.008-.923-.585-1.628-1.862-2.209-.776-.376-1.25-.626-1.244-1.007,0-.337.4-.7,1.269-.7a4.092,4.092,0,0,1,1.659.312l.2.092.3-1.762a5.747,5.747,0,0,0-1.987-.34c-2.19,0-3.732,1.1-3.746,2.683-.014,1.169,1.1,1.82,1.943,2.21.863.4,1.152.651,1.147,1.008-.006.545-.688.793-1.325.793a4.651,4.651,0,0,1-2.088-.426l-.283-.13-.311,1.822a6.994,6.994,0,0,0,2.468.432C246.154,197.05,247.668,195.962,247.684,194.272Z" transform="translate(-226.319 -181.855)" fill="#059bbf"/>
        <path id="Path_22776" data-name="Path 22776" d="M343.179,197.932l2.839,0c.067.283.27,1.219.27,1.219h2.057l-1.8-8.127h-1.712a1.1,1.1,0,0,0-1.161.673l-3.292,7.453h2.33S343.093,198.152,343.179,197.932Zm1.52-3.938c-.011.022.184-.47.3-.776l.15.7s.423,1.943.512,2.349h-1.84C344,195.8,344.7,193.994,344.7,193.994Z" transform="translate(-319.178 -184.075)" fill="#059bbf"/>
        <path id="Path_22777" data-name="Path 22777" d="M30.014,79.451H1.886A1.886,1.886,0,0,0,0,81.337v1.957H31.9V81.337A1.886,1.886,0,0,0,30.014,79.451Z" transform="translate(0 -79.451)" fill="#059bbf"/>
      </g>
      <path id="Path_22778" data-name="Path 22778" d="M30.014,374.714H1.886A1.886,1.886,0,0,1,0,372.828v-1.957H31.9v1.957A1.886,1.886,0,0,1,30.014,374.714Z" transform="translate(0 -273.263)" fill="#f79f1a"/>
      <path id="Path_22779" data-name="Path 22779" d="M1.341,99.565V81.337a1.886,1.886,0,0,1,1.886-1.886H1.886A1.886,1.886,0,0,0,0,81.337V99.565a1.886,1.886,0,0,0,1.886,1.886H3.226A1.886,1.886,0,0,1,1.341,99.565Z" transform="translate(0 0)" fill="#202121" opacity="0.15"/>
    </g>
    <g id="maestro" transform="translate(197.57 1794.422)">
      <rect id="Rectangle_1709" data-name="Rectangle 1709" width="32" height="22" rx="2" transform="translate(54.38 125.577)" fill="#075fb7"/>
      <g id="Group_13102" data-name="Group 13102" transform="translate(58.736 129.608)">
        <path id="Path_22780" data-name="Path 22780" d="M71.774,142.577a6.968,6.968,0,1,0-4.668,1.8,6.937,6.937,0,0,0,4.668-1.8Z" transform="translate(-60.13 -130.442)" fill="#009ddd"/>
        <path id="Path_22781" data-name="Path 22781" d="M230.767,167.181a6.965,6.965,0,0,0,0-10.333v10.333Z" transform="translate(-219.123 -155.047)" fill="#009ddd"/>
      </g>
      <path id="Path_22782" data-name="Path 22782" d="M206.38,130.446a6.968,6.968,0,0,0-4.683,1.8,8.956,8.956,0,0,0-.7.738h1.406a8.952,8.952,0,0,1,.533.737h-2.471q-.224.369-.41.737h3.276c.11.245.218.492.3.737h-3.862a6.669,6.669,0,0,0-.205.751h4.272a7.418,7.418,0,0,1,.151,1.474,7.014,7.014,0,0,1-.356,2.212h-3.862q.122.368.286.737h3.276a7.583,7.583,0,0,1-.4.737h-2.471a7.4,7.4,0,0,0,.533.737h1.406a7.174,7.174,0,0,1-.71.737,6.969,6.969,0,1,0,4.683-12.136Z" transform="translate(-131.317 -0.837)" fill="#ed1c2e"/>
      <g id="Group_13103" data-name="Group 13103" transform="translate(61.057 134.782)">
        <path id="Path_22783" data-name="Path 22783" d="M366.194,251.689a.228.228,0,0,1,.232-.218.215.215,0,0,1,.218.218.227.227,0,0,1-.218.232.24.24,0,0,1-.232-.232Zm.232.178a.169.169,0,0,0,.164-.178.158.158,0,0,0-.164-.164.169.169,0,0,0-.177.164.18.18,0,0,0,.177.178Zm-.027-.082h-.054v-.191h.082c.027,0,.041,0,.055.014s.027.027.027.041-.013.055-.041.055l.041.082h-.055l-.027-.068H366.4v.069Zm0-.109h.054v-.042H366.4v.042Z" transform="translate(-347.629 -248.387)" fill="#fff"/>
        <path id="Path_22784" data-name="Path 22784" d="M97.921,209.8h-.873l.519-2.716L96.379,209.8h-.792l-.136-2.7-.519,2.7H94.14l.669-3.535h1.364l.068,2.184.957-2.184h1.4Z" transform="translate(-94.14 -206.266)" fill="#fff"/>
        <path id="Path_22785" data-name="Path 22785" d="M273.682,209.764a2.217,2.217,0,0,1-.628.095c-.436,0-.683-.218-.683-.627a1.935,1.935,0,0,1,.027-.26l.054-.287.042-.218.4-2.2h.86l-.122.655h.45l-.123.7h-.45l-.218,1.2a.661.661,0,0,0-.027.123c0,.15.1.218.3.218a.992.992,0,0,0,.232-.027l-.109.628Z" transform="translate(-260.209 -206.27)" fill="#fff"/>
        <path id="Path_22786" data-name="Path 22786" d="M297.831,215.522a.232.232,0,0,0-.1-.028c-.041-.014-.068-.014-.068-.027h-.1a.9.9,0,0,0-.751.464l.082-.437h-.792l-.532,2.88h.874c.314-1.762.437-2.075.86-2.075.027,0,.069.014.109.014l.1.027.314-.818Z" transform="translate(-281.832 -214.839)" fill="#fff"/>
        <path id="Path_22787" data-name="Path 22787" d="M236.694,216.042c0,.355.205.614.669.792.355.15.41.191.41.328,0,.177-.164.259-.505.259a2.813,2.813,0,0,1-.792-.123l-.109.669h.041l.15.041c.054,0,.136.014.232.014a3.571,3.571,0,0,0,.492.027c.915,0,1.351-.3,1.351-.955,0-.4-.177-.628-.628-.805-.369-.137-.41-.177-.41-.314s.15-.232.437-.232a5.717,5.717,0,0,1,.627.041l.123-.655a5.24,5.24,0,0,0-.764-.054c-.982,0-1.324.436-1.324.968Z" transform="translate(-226.661 -214.473)" fill="#fff"/>
        <path id="Path_22788" data-name="Path 22788" d="M157.959,218h-.71l.014-.3a1.183,1.183,0,0,1-.915.341.749.749,0,0,1-.792-.778c0-.7.559-1.106,1.529-1.106a3.359,3.359,0,0,1,.355.014.547.547,0,0,0,.027-.178c0-.191-.151-.259-.56-.259a3.666,3.666,0,0,0-.71.068l-.123.041-.082.013.123-.641a3.93,3.93,0,0,1,1.038-.15c.75,0,1.133.286,1.133.832a3.052,3.052,0,0,1-.068.574l-.177,1.024-.027.177-.028.151-.014.095-.014.082Zm-.628-1.284a1.132,1.132,0,0,0-.191-.014c-.492,0-.737.15-.737.437a.279.279,0,0,0,.3.3.67.67,0,0,0,.628-.724Z" transform="translate(-151.366 -214.467)" fill="#fff"/>
        <path id="Path_22789" data-name="Path 22789" d="M200.32,217.738a3.3,3.3,0,0,1-.887.123c-.968,0-1.474-.451-1.474-1.3a1.572,1.572,0,0,1,1.516-1.706,1.034,1.034,0,0,1,1.161,1.037,2.935,2.935,0,0,1-.1.71h-1.734v.1c0,.328.246.5.751.5a2.306,2.306,0,0,0,.9-.177l-.137.71Zm-.464-1.706v-.15c0-.232-.151-.369-.41-.369s-.464.191-.547.519Z" transform="translate(-190.874 -214.271)" fill="#fff"/>
        <path id="Path_22790" data-name="Path 22790" d="M326.452,216.3a1.536,1.536,0,0,1-1.693,1.378,1.223,1.223,0,0,1-1.364-1.324,1.612,1.612,0,0,1,1.706-1.707,1.255,1.255,0,0,1,1.379,1.3,1.467,1.467,0,0,1-.027.355Zm-.9-.369c0-.3-.123-.572-.477-.572-.438,0-.711.518-.711.982,0,.382.191.642.492.642a.846.846,0,0,0,.669-.7,1.51,1.51,0,0,0,.027-.356Z" transform="translate(-307.751 -214.079)" fill="#fff"/>
      </g>
    </g>
    <g id="american-express" transform="translate(294 1840.549)">
      <path id="Path_22791" data-name="Path 22791" d="M31.9,99.564a1.886,1.886,0,0,1-1.886,1.886H1.886A1.886,1.886,0,0,1,0,99.564V81.337a1.886,1.886,0,0,1,1.886-1.886H30.013A1.886,1.886,0,0,1,31.9,81.337V99.564Z" fill="#306fc5"/>
      <path id="Path_22792" data-name="Path 22792" d="M1.341,99.564V81.337a1.886,1.886,0,0,1,1.886-1.886H1.886A1.886,1.886,0,0,0,0,81.337V99.564a1.886,1.886,0,0,0,1.886,1.886H3.226A1.886,1.886,0,0,1,1.341,99.564Z" fill="#202121" opacity="0.15"/>
      <g id="Group_13104" data-name="Group 13104" transform="translate(2.29 85.915)">
        <path id="Path_22793" data-name="Path 22793" d="M74.59,202.491h.953l-.476-1.213Z" transform="translate(-72.232 -200.152)" fill="#fff"/>
        <path id="Path_22794" data-name="Path 22794" d="M155.946,286.107v.563h1.6v.607h-1.6v.65h1.776l.823-.91-.78-.91Z" transform="translate(-148.52 -279.695)" fill="#fff"/>
        <path id="Path_22795" data-name="Path 22795" d="M349.073,201.278l-.52,1.213h1Z" transform="translate(-329.127 -200.152)" fill="#fff"/>
        <path id="Path_22796" data-name="Path 22796" d="M213.394,283.71v-2.469l-1.126,1.213Z" transform="translate(-201.333 -275.133)" fill="#fff"/>
        <path id="Path_22797" data-name="Path 22797" d="M243.553,286.5a.437.437,0,0,0-.477-.39h-.91v.78h.953C243.38,286.887,243.553,286.757,243.553,286.5Z" transform="translate(-229.369 -279.696)" fill="#fff"/>
        <path id="Path_22798" data-name="Path 22798" d="M294.834,287.455a.338.338,0,0,0,.13-.3.241.241,0,0,0-.13-.3.842.842,0,0,0-.346-.043h-.867v.693h.867A.843.843,0,0,0,294.834,287.455Z" transform="translate(-277.617 -280.35)" fill="#fff"/>
        <path id="Path_22799" data-name="Path 22799" d="M60.2,183.2v.52l-.26-.52H57.907v.52l-.26-.52H54.875a2.637,2.637,0,0,0-1.213.26v-.26H51.712v.26a1.249,1.249,0,0,0-.823-.26H43.915l-.477,1.083-.476-1.083H40.752v.52l-.217-.52H38.629l-.867,2.036-1,2.209-.018.043H39l.016-.043.26-.65h.563l.26.693h2.512v-.52l.217.52h1.256l.216-.52v.52h6.022V186.36h.087c.087,0,.087,0,.087.13v.953h3.119v-.26a2.592,2.592,0,0,0,1.169.26h1.3l.26-.693h.606l.26.693h2.513v-.65l.39.65h2.036V183.2H60.2Zm-14.686,3.639h-.693v-2.383l-.043.1h0l-1.008,2.285h-.638l-1.04-2.383v2.383H40.622l-.3-.65H38.846l-.3.65h-.762l1.282-3.033h1.083l1.213,2.9v-2.9h1.148l.02.043h0l.547,1.19.393.891.014-.045.866-2.079h1.17v3.033Zm2.989-2.383h-1.69v.563h1.646v.606H46.817v.607h1.69v.65H46.081V183.8h2.426v.65Zm3.09,1.117,0,0a.5.5,0,0,1,.042.051.833.833,0,0,1,.153.508v.012s0,0,0,.007,0,0,0,0c0,.024,0,.048,0,.075v.607h-.65v-.347a1.031,1.031,0,0,0-.13-.607.4.4,0,0,0-.127-.087.865.865,0,0,0-.392-.043h-.78v1.083h-.736V183.8h1.646a1.661,1.661,0,0,1,.866.13.732.732,0,0,1,.345.674.861.861,0,0,1-.519.8A.58.58,0,0,1,51.6,185.572Zm1.459,1.266h-.737V183.8h.737Zm8.448,0H60.55l-1.386-2.3v1.906l0,0v.4h-.732v0h-.737l-.26-.65H55.914l-.26.693h-.823a1.3,1.3,0,0,1-1.429-1.516,1.776,1.776,0,0,1,.39-1.213,1.365,1.365,0,0,1,1.083-.347h.693v.65h-.693a.8.8,0,0,0-.563.173,1.018,1.018,0,0,0-.216.693.943.943,0,0,0,.216.736.691.691,0,0,0,.52.174h.3l1-2.383h1.083l1.213,2.9v-2.9H59.51l1.256,2.123v-2.123H61.5v2.989h0Z" transform="translate(-36.748 -183.198)" fill="#fff"/>
        <path id="Path_22800" data-name="Path 22800" d="M246.2,203.977a.232.232,0,0,0,.034-.046.468.468,0,0,0,.06-.327.242.242,0,0,0-.007-.039s0-.007,0-.01h0a.243.243,0,0,0-.131-.147.848.848,0,0,0-.347-.043h-.867v.693h.867a.844.844,0,0,0,.347-.043.163.163,0,0,0,.036-.026h0Z" transform="translate(-231.974 -202.108)" fill="#fff"/>
        <path id="Path_22801" data-name="Path 22801" d="M154.966,267.455a1.66,1.66,0,0,0-.216-.823v-1.949h0v-.13h-2.086a1.233,1.233,0,0,0-.6.26v-.26h-1.993a1.376,1.376,0,0,0-.867.26v-.26h-3.552v.26a1.676,1.676,0,0,0-.953-.26h-2.339v.26a1.646,1.646,0,0,0-1-.26h-2.6l-.607.65-.563-.65h-3.9v4.376h3.812l.626-.627.543.627H141.1v-1h.217a2.632,2.632,0,0,0,1-.13v1.17h1.95v-1.126h.086c.13,0,.13,0,.13.13v1h5.892a1.7,1.7,0,0,0,1-.26v.26h1.863a1.946,1.946,0,0,0,1.04-.217,1.455,1.455,0,0,0,.688-1.168c0-.015,0-.03.005-.045l0,0C154.965,267.511,154.966,267.483,154.966,267.455Zm-13.646-.26h-.867v1.126h-1.424l-.829-.953,0,0-.04-.047-.953,1h-2.773v-3.032h2.816l.769.843.162.176.022-.023.91-1h2.3a1.124,1.124,0,0,1,1.134.563,1.225,1.225,0,0,1,.036.3C142.576,267.022,141.969,267.195,141.32,267.195Zm4.332-.043a.984.984,0,0,1,.13.563v.606h-.736v-.39a.967.967,0,0,0-.13-.607c-.086-.13-.26-.13-.52-.13h-.78v1.126h-.736v-3.076h1.646a1.747,1.747,0,0,1,.867.13.767.767,0,0,1,.39.693.863.863,0,0,1-.52.823A.738.738,0,0,1,145.652,267.152Zm2.989-1.257h-1.69v.563H148.6v.607h-1.646v.607h1.69v.65h-2.426v-3.076h2.426Zm1.819,2.426h-1.386v-.65h1.386a.366.366,0,0,0,.3-.087.315.315,0,0,0,0-.433.368.368,0,0,0-.26-.087c-.693-.043-1.516,0-1.516-.953,0-.433.26-.91,1.04-.91h1.43v.736h-1.343a.643.643,0,0,0-.3.043c-.086.043-.086.13-.086.217,0,.13.086.173.173.216a.549.549,0,0,0,.26.043h.39a1.1,1.1,0,0,1,.823.26.9.9,0,0,1,.217.65C151.587,268.018,151.2,268.321,150.46,268.321Zm3.726-.3a1.262,1.262,0,0,1-.91.3H151.89v-.65h1.386a.365.365,0,0,0,.3-.087.314.314,0,0,0,0-.433.366.366,0,0,0-.26-.087c-.693-.043-1.516,0-1.516-.953a.885.885,0,0,1,.817-.894,1.617,1.617,0,0,1,.223-.016h1.43v.736H152.93a.641.641,0,0,0-.3.043.33.33,0,0,0-.087.217c0,.13.043.173.174.216a.548.548,0,0,0,.26.043h.39a1.353,1.353,0,0,1,.464.069.933.933,0,0,1,.606.685.975.975,0,0,1,.013.155A.881.881,0,0,1,154.186,268.018Z" transform="translate(-127.655 -259.483)" fill="#fff"/>
      </g>
    </g>
    <g id="discover" transform="translate(337.949 1757.703)">
      <g id="Rectangle_1710" data-name="Rectangle 1710" transform="translate(-2 162.296)" fill="#fff" stroke="#9e9e9e" stroke-width="1">
        <rect width="32" height="22" rx="2" stroke="none"/>
        <rect x="0.5" y="0.5" width="31" height="21" rx="1.5" fill="none"/>
      </g>
      <ellipse id="Ellipse_408" data-name="Ellipse 408" cx="2.211" cy="2.211" rx="2.211" ry="2.211" transform="translate(12.785 170.151)" fill="#ef9122"/>
      <path id="Path_22802" data-name="Path 22802" d="M221.6,172.211a2.211,2.211,0,1,1,2.211,2.211" transform="translate(-208.816 0.151)" fill="#f26e21"/>
      <path id="Path_22803" data-name="Path 22803" d="M234.4,170.638a2.2,2.2,0,1,1,3.1,3.1" transform="translate(-220.936 0.151)" fill="#f44500"/>
      <path id="Path_22804" data-name="Path 22804" d="M1.191,172.4H0v4.167H1.191a2.307,2.307,0,0,0,1.488-.468,2.1,2.1,0,0,0,.765-1.616A2.058,2.058,0,0,0,1.191,172.4Zm.978,3.147a1.635,1.635,0,0,1-1.106.34H.808v-2.764h.213a1.443,1.443,0,0,1,1.106.34,1.358,1.358,0,0,1,.468,1.021A1.271,1.271,0,0,1,2.169,175.547Z" transform="translate(1.004 -2.122)" fill="#595a5b"/>
      <rect id="SVGCleanerId_0" width="0.808" height="4.167" transform="translate(4.831 170.278)" fill="#595a5b"/>
      <path id="Path_22805" data-name="Path 22805" d="M95.3,173.258c-.51-.17-.638-.3-.638-.51a.538.538,0,0,1,.6-.468.823.823,0,0,1,.68.34l.425-.553a1.853,1.853,0,0,0-1.233-.468,1.248,1.248,0,0,0-1.318,1.191c0,.6.255.85,1.021,1.148a1.654,1.654,0,0,1,.553.255.468.468,0,0,1,.255.425.593.593,0,0,1-.638.6.992.992,0,0,1-.893-.553l-.51.51a1.668,1.668,0,0,0,1.446.808,1.341,1.341,0,0,0,1.446-1.361C96.492,173.9,96.237,173.6,95.3,173.258Z" transform="translate(-87.62 -1.365)" fill="#595a5b"/>
      <path id="Path_22806" data-name="Path 22806" d="M152.8,171.454a2.161,2.161,0,0,0,2.211,2.169,2.4,2.4,0,0,0,1.021-.255v-.978a1.322,1.322,0,0,1-.978.468,1.374,1.374,0,0,1-1.4-1.446,1.39,1.39,0,0,1,1.361-1.446,1.341,1.341,0,0,1,1.021.468v-.978a2.137,2.137,0,0,0-1.021-.255A2.35,2.35,0,0,0,152.8,171.454Z" transform="translate(-143.673 0.908)" fill="#3b3d3f"/>
      <path id="Path_22807" data-name="Path 22807" d="M303.6,175.207l-1.106-2.807H301.6l1.744,4.295h.468l1.829-4.295h-.893Z" transform="translate(-284.563 -2.122)"/>
      <path id="Path_22808" data-name="Path 22808" d="M384,176.567h2.339v-.68h-1.488v-1.148H386.3v-.723h-1.446v-.893h1.488V172.4H384Z" transform="translate(-362.584 -2.122)"/>
      <g id="Group_13105" data-name="Group 13105" transform="translate(1.004 170.278)">
        <path id="Path_22809" data-name="Path 22809" d="M440.144,174.824a1.122,1.122,0,0,0,.978-1.191c0-.765-.553-1.233-1.488-1.233H438.4v4.167h.808v-1.658h.128l1.148,1.658h.978Zm-.68-.51h-.255v-1.276h.255c.51,0,.808.213.808.638S439.974,174.314,439.463,174.314Z" transform="translate(-415.096 -172.4)" fill="#595a5b"/>
        <path id="Path_22810" data-name="Path 22810" d="M1.191,172.4H0v4.167H1.191a2.307,2.307,0,0,0,1.488-.468,2.1,2.1,0,0,0,.765-1.616A2.058,2.058,0,0,0,1.191,172.4Zm.978,3.147a1.635,1.635,0,0,1-1.106.34H.808v-2.764h.213a1.443,1.443,0,0,1,1.106.34,1.358,1.358,0,0,1,.468,1.021A1.271,1.271,0,0,1,2.169,175.547Z" transform="translate(-0.001 -172.4)" fill="#595a5b"/>
      </g>
      <g id="Group_13106" data-name="Group 13106" transform="translate(4.831 170.278)">
        <rect id="SVGCleanerId_0_1_" width="0.808" height="4.167" transform="translate(-0.001 0)" fill="#595a5b"/>
      </g>
      <g id="Group_13107" data-name="Group 13107" transform="translate(5.98 170.235)">
        <path id="Path_22811" data-name="Path 22811" d="M95.3,173.258c-.51-.17-.638-.3-.638-.51a.538.538,0,0,1,.6-.468.823.823,0,0,1,.68.34l.425-.553a1.853,1.853,0,0,0-1.233-.468,1.248,1.248,0,0,0-1.318,1.191c0,.6.255.85,1.021,1.148a1.654,1.654,0,0,1,.553.255.468.468,0,0,1,.255.425.593.593,0,0,1-.638.6.992.992,0,0,1-.893-.553l-.51.51a1.668,1.668,0,0,0,1.446.808,1.341,1.341,0,0,0,1.446-1.361C96.492,173.9,96.237,173.6,95.3,173.258Z" transform="translate(-93.601 -171.6)" fill="#595a5b"/>
        <path id="Path_22812" data-name="Path 22812" d="M155.788,184.227a2.406,2.406,0,0,0,1.021-.255v-.978a1.322,1.322,0,0,1-.978.468,1.374,1.374,0,0,1-1.4-1.446,1.59,1.59,0,0,1,.425-1.063l-.553-.553a2.213,2.213,0,0,0-.723,1.616A2.121,2.121,0,0,0,155.788,184.227Z" transform="translate(-150.387 -179.932)" fill="#595a5b"/>
      </g>
      <path id="Path_22813" data-name="Path 22813" d="M440.144,174.824a1.122,1.122,0,0,0,.978-1.191c0-.765-.553-1.233-1.488-1.233H438.4v4.167h.808v-1.658h.128l1.148,1.658h.978Zm-.68-.51h-.255v-1.276h.255c.51,0,.808.213.808.638S439.974,174.314,439.463,174.314Z" transform="translate(-414.092 -2.122)"/>
      <g id="Group_13108" data-name="Group 13108" transform="translate(7 175.976)">
        <path id="Path_22814" data-name="Path 22814" d="M112.8,281.939V279.6l1.616,1.658v-1.531h.34v2.339l-1.616-1.658v1.531Z" transform="translate(-112.8 -279.6)" fill="#f26e21"/>
        <path id="Path_22815" data-name="Path 22815" d="M159.633,282.34h-.893v.51h.851v.34h-.851v.723h.893v.3H158.4V282h1.233Z" transform="translate(-155.976 -281.873)" fill="#f26e21"/>
        <path id="Path_22816" data-name="Path 22816" d="M186.451,283.1v1.871h-.34V283.1h-.51v-.3h1.361v.3Z" transform="translate(-181.73 -282.63)" fill="#f26e21"/>
        <path id="Path_22817" data-name="Path 22817" d="M214.74,281.285l.553,1.488.6-1.573.553,1.573.6-1.488h.425l-.978,2.339-.553-1.573-.6,1.573-.936-2.339Z" transform="translate(-208.999 -281.115)" fill="#f26e21"/>
        <path id="Path_22818" data-name="Path 22818" d="M272.8,282.348a1.143,1.143,0,1,1,1.148,1.148,1.025,1.025,0,0,1-.765-.3A1.014,1.014,0,0,1,272.8,282.348Zm.34,0a.772.772,0,0,0,.255.6.749.749,0,0,0,.553.255.84.84,0,0,0,.6-.255.851.851,0,0,0-.6-1.446.839.839,0,0,0-.6.255A1.016,1.016,0,0,0,273.14,282.348Z" transform="translate(-264.295 -281.115)" fill="#f26e21"/>
        <path id="Path_22819" data-name="Path 22819" d="M324.765,283.276l.68.936h-.425l-.638-.893h-.043v.893H324V282h.383a.883.883,0,0,1,.638.17.683.683,0,0,1,.213.468.52.52,0,0,1-.128.383A.4.4,0,0,1,324.765,283.276Zm-.425-.255h.085c.3,0,.468-.128.468-.34s-.17-.34-.468-.34H324.3v.68Z" transform="translate(-312.773 -281.873)" fill="#f26e21"/>
        <path id="Path_22820" data-name="Path 22820" d="M356.383,282.135l.851-.893h.425l-.978.978.978,1.191h-.425l-.808-.978-.085.085v.893H356V281.2h.34v.936Z" transform="translate(-343.072 -281.115)" fill="#f26e21"/>
      </g>
      <g id="Group_13109" data-name="Group 13109" transform="translate(17.037 170.278)">
        <path id="Path_22821" data-name="Path 22821" d="M385.616,209.216h-.765v-.765L384,207.6v2.3h2.3Z" transform="translate(-379.621 -205.729)" fill="#3b3d3f"/>
        <path id="Path_22822" data-name="Path 22822" d="M304.534,172.825l-.936,2.381-1.106-2.807H301.6l1.744,4.295h.468l1.361-3.232Z" transform="translate(-301.601 -172.4)" fill="#3b3d3f"/>
      </g>
    </g>
  </g>
</svg>
