<svg xmlns="http://www.w3.org/2000/svg" width="19.078" height="21.5" viewBox="0 0 19.078 21.5">
  <g id="user" transform="translate(0.75 0.75)">
    <g id="Group_12090" data-name="Group 12090" transform="translate(3.516)">
      <g id="Group_12089" data-name="Group 12089">
        <path id="Path_22045" data-name="Path 22045" d="M126.273,0a5.273,5.273,0,1,0,5.273,5.273A5.279,5.279,0,0,0,126.273,0Z" transform="translate(-121)" fill="none" stroke="#1852d8" stroke-width="1.5"/>
      </g>
    </g>
    <g id="Group_12092" data-name="Group 12092" transform="translate(0 11.719)">
      <g id="Group_12091" data-name="Group 12091">
        <path id="Path_22046" data-name="Path 22046" d="M46.35,302.273A7.518,7.518,0,0,0,40.961,300H38.617a7.518,7.518,0,0,0-5.389,2.273A7.685,7.685,0,0,0,31,307.7a.586.586,0,0,0,.586.586H47.992a.586.586,0,0,0,.586-.586A7.685,7.685,0,0,0,46.35,302.273Z" transform="translate(-31 -300)" fill="none" stroke="#1852d8" stroke-width="1.5"/>
      </g>
    </g>
  </g>
</svg>
