<svg xmlns="http://www.w3.org/2000/svg" xmlns:xlink="http://www.w3.org/1999/xlink" width="129.635" height="136.484" viewBox="0 0 129.635 136.484">
  <defs>
    <clipPath id="clip-path">
      <rect id="Rectangle_2778" data-name="Rectangle 2778" width="93.245" height="122.5" fill="#f6f6ff"/>
    </clipPath>
    <clipPath id="clip-path-4">
      <rect id="Rectangle_2779" data-name="Rectangle 2779" width="114.428" height="136.484" fill="none"/>
    </clipPath>
  </defs>
  <g id="Group_40202" data-name="Group 40202" transform="translate(-507.112 -971.25)">
    <g id="Group_40207" data-name="Group 40207">
      <g id="Group_40201" data-name="Group 40201" transform="translate(543.502 971.25)">
        <g id="Group_40200" data-name="Group 40200" clip-path="url(#clip-path)">
          <g id="Group_40199" data-name="Group 40199" transform="translate(0 0)">
            <g id="Group_40198" data-name="Group 40198" clip-path="url(#clip-path)">
              <g id="Group_40197" data-name="Group 40197" transform="translate(0 0)" style="mix-blend-mode: multiply;isolation: isolate">
                <g id="Group_40196" data-name="Group 40196">
                  <g id="Group_40195" data-name="Group 40195" clip-path="url(#clip-path)">
                    <path id="Path_32656" data-name="Path 32656" d="M36.277.318C8.586,5.592-.3,60.766.008,73.785s4.96,45.568,32.549,48.358S89.9,110.984,93,96.1,68.826-5.882,36.277.318" transform="translate(0 -0.002)" fill="#f6f6ff"/>
                  </g>
                </g>
              </g>
            </g>
          </g>
        </g>
      </g>
      <g id="Group_40206" data-name="Group 40206" transform="translate(507.112 971.25)">
        <g id="Group_40205" data-name="Group 40205" clip-path="url(#clip-path-4)">
          <path id="Path_32657" data-name="Path 32657" d="M372.016,465.733a28.993,28.993,0,1,0-28.993,28.993,28.993,28.993,0,0,0,28.993-28.993" transform="translate(-257.587 -358.243)" fill="#d9d4ff"/>
          <path id="Path_32658" data-name="Path 32658" d="M276.013,642.921a.383.383,0,0,0-.261.46,37.441,37.441,0,0,1,.448,5.652.374.374,0,0,0,.748,0,38.771,38.771,0,0,0-.475-5.851.377.377,0,0,0-.46-.261" transform="translate(-226.185 -527.357)" fill="#231815"/>
          <path id="Path_32659" data-name="Path 32659" d="M322.891,644.01c-.413,2.5-.572,5.028-.808,7.551-.045.479.7.476.748,0,.23-2.456.38-4.915.782-7.352.078-.471-.643-.674-.722-.2" transform="translate(-264.191 -528.038)" fill="#231815"/>
          <path id="Path_32660" data-name="Path 32660" d="M215.541,677.158c0-.117,0-.234,0-.351,0-.032,0-.064,0-.1,0-.091,0-.182,0-.274,0-.167,0-.334,0-.5,0-.208-.008-.416-.014-.624,0-.111,0-.221-.008-.332a4.039,4.039,0,0,0-.076-.966l-.006-.019a.937.937,0,0,0-.039-.106.668.668,0,0,0-.046-.083c-.01-.016-.018-.033-.029-.048a.571.571,0,0,0-.07-.072l-.013-.013c-.01-.008-.017-.019-.027-.026a.264.264,0,0,0-.09-.041.288.288,0,0,0-.306.051,9.749,9.749,0,0,1-4.386,1.15c-.635.044-1.27.082-1.905.129-.061,0-.134.006-.212.006l.589-1.064a.378.378,0,0,0-.323-.563c.086,0,.066-.01.016-.026-.068-.027-.222-.067-.279-.086l-.141-.052-.436-.163-.576-.219q-.428-.162-.855-.328a8.42,8.42,0,0,0-1.308-.524.837.837,0,0,0-.817.066,2.646,2.646,0,0,0-.635,1.056c-.032.068-.064.136-.1.2-.093.167-.194.331-.3.491-.032.048-.065.1-.1.143a4.8,4.8,0,0,1-.322.414c-.017.019-.032.041-.049.059-.036.039-.074.075-.111.113s-.091.091-.139.134a4.858,4.858,0,0,1-1.937,1.01c-.186.054-.373.1-.562.145s-.365.081-.545.118l-.421.085c-.351.067-.7.132-1.051.2s-.691.154-1.035.234l-.256.058-.41.1c-.14.034-.281.066-.421.1-1.905.487-4.57.942-5.434,2.983-.836,1.975.95,3.345,2.647,3.845,2.406.709,5.008.557,7.488.578l7.966.068,3.931.034c.89.008,2.051.169,2.427-.866a7.852,7.852,0,0,0,.275-1.751c.128-1.008.27-2.012.361-3.021.047-.45.084-.9.089-1.361m-24.475,2.706a3.7,3.7,0,0,1,2.349-1.756c.482-.165.972-.311,1.464-.447l.03.028c.1.107.216.207.322.31a4.478,4.478,0,0,1,.835,1.3l.021.048a4.446,4.446,0,0,1,.147.434c.017.061.032.124.046.186.02.084.037.169.052.255q.029.164.044.329c.008.084.015.167.018.252,0,.173-.013.347-.022.519-.933-.083-1.865-.182-2.791-.309-.573-.078-1.148-.167-1.712-.3a5.4,5.4,0,0,1-.553-.156,1.065,1.065,0,0,1-.162-.065c-.033-.016-.176-.113-.093-.047a.393.393,0,0,0-.156-.076,2.183,2.183,0,0,1,.161-.507m21.427,3.545-3.518-.03-7.035-.06a60.032,60.032,0,0,1-6.931-.194c-1.167-.146-3.451-.632-4.008-1.874a7.351,7.351,0,0,0,1.708.385c1.339.217,2.693.346,4.046.453h.006l.081.006.145.012.218.014a115.6,115.6,0,0,0,15.672.232q.7-.038,1.406-.093a2.558,2.558,0,0,1-.176.781c-.247.552-1.116.371-1.614.367" transform="translate(-155.969 -551.091)" fill="#231815"/>
          <path id="Path_32661" data-name="Path 32661" d="M231.87,700.967a.374.374,0,1,0-.646.378,17.889,17.889,0,0,1,.944,1.88.375.375,0,0,0,.512.134.386.386,0,0,0,.134-.512,17.919,17.919,0,0,0-.945-1.88" transform="translate(-189.624 -574.827)" fill="#fff"/>
          <path id="Path_32662" data-name="Path 32662" d="M246.029,696.676a.378.378,0,0,0-.512-.134.382.382,0,0,0-.134.512,11.924,11.924,0,0,1,.928,2.147.374.374,0,1,0,.722-.2,13.4,13.4,0,0,0-1-2.326" transform="translate(-201.239 -571.307)" fill="#fff"/>
          <path id="Path_32663" data-name="Path 32663" d="M261.778,692.229c-.225-.425-.444-.854-.677-1.275a5.129,5.129,0,0,0-.8-1.125.374.374,0,0,0-.529.529,2.861,2.861,0,0,1,.372.455c.121.179.23.365.334.554.225.41.439.826.658,1.24a.377.377,0,0,0,.512.134.382.382,0,0,0,.134-.512" transform="translate(-212.991 -565.755)" fill="#fff"/>
          <path id="Path_32664" data-name="Path 32664" d="M94.046,478.671c-.611.554-1.211,1.121-1.84,1.655a19.58,19.58,0,0,1-1.9,1.409c-.4.264-.026.913.378.646a21.244,21.244,0,0,0,2.016-1.494c.643-.543,1.255-1.122,1.878-1.688.358-.324-.173-.852-.529-.529" transform="translate(-73.932 -392.555)" fill="#231815"/>
          <path id="Path_32665" data-name="Path 32665" d="M112.575,518.934c-2.283,1.028-4.443,2.278-6.646,3.462-.424.228-.047.874.378.646,2.2-1.184,4.363-2.434,6.646-3.462.438-.2.058-.842-.378-.646" transform="translate(-86.737 -425.634)" fill="#231815"/>
          <path id="Path_32666" data-name="Path 32666" d="M20.664,462.329a.661.661,0,0,0,.031-.063.491.491,0,0,0,.021-.09.3.3,0,0,0-.079-.31.319.319,0,0,0-.057-.044.252.252,0,0,0-.037-.027,9.773,9.773,0,0,1-3.416-3.022c-.4-.517-.792-1.038-1.192-1.554-.036-.047-.073-.1-.111-.153l1.2-.1a.378.378,0,0,0,.323-.563c.044.07.042.066.031.039.021.011-.048-.161-.067-.227l-.013-.051c-.015-.063-.03-.126-.045-.189q-.054-.227-.106-.454c-.046-.2-.09-.4-.136-.6q-.1-.448-.2-.9a8.136,8.136,0,0,0-.3-1.4.862.862,0,0,0-.478-.631,2.635,2.635,0,0,0-1.291.05c-.078.011-.157.024-.233.029q-.222.016-.445.019h-.079c-.138,0-.277,0-.414-.013l-.037,0a4.054,4.054,0,0,1-.853-.158c-.067-.021-.133-.042-.2-.066l-.059-.023a5.109,5.109,0,0,1-1.328-.8l-.013-.011q-.12-.1-.235-.2c-.137-.12-.267-.247-.4-.37s-.283-.276-.42-.415c-.842-.852-1.691-1.694-2.583-2.5-1.456-1.31-3.29-3.25-5.455-2.845S-.266,447.477.3,449.185a27.637,27.637,0,0,0,3.492,6.22l4.352,6.672,2.148,3.293c.48.735,1,1.938,2.076,1.757a6.151,6.151,0,0,0,1.674-.735c.815-.4,1.631-.8,2.432-1.224a16.011,16.011,0,0,0,1.5-.843c.111-.072.22-.146.331-.219l.044-.027.227-.152q.209-.139.416-.279c.173-.117.343-.238.513-.359.09-.064.182-.125.271-.189a3.29,3.29,0,0,0,.857-.7.679.679,0,0,0,.037-.067M2.039,445.457a3.474,3.474,0,0,1,2.786.858c.451.333.886.693,1.311,1.064-.05.192-.063.4-.113.6-.034.128-.074.255-.12.379-.025.067-.055.132-.083.2-.037.085-.075.169-.117.251-.027.053-.053.106-.082.158a4.414,4.414,0,0,1-.252.4l-.019.025a4.45,4.45,0,0,1-1.094,1.057c-.115.07-.232.137-.348.206-.456-.838-.9-1.685-1.312-2.543a6.224,6.224,0,0,1-.891-2.434.34.34,0,0,0-.011-.1,2.091,2.091,0,0,1,.345-.114m9.883,20.868c-.432-.224-.73-.939-.987-1.333l-1.922-2.946-3.844-5.893a58.983,58.983,0,0,1-3.485-5.581c-.528-1.05-1.436-3.245-.7-4.416a7.8,7.8,0,0,0,.67,1.7c.545,1.2,1.171,2.365,1.812,3.517a.052.052,0,0,1,0,0l.042.075.09.164c.041.072.083.143.124.215A115.919,115.919,0,0,0,12.212,465q.408.546.828,1.084c-.391.208-.827.389-1.119.238" transform="translate(0 -364.732)" fill="#231815"/>
          <path id="Path_32667" data-name="Path 32667" d="M38.223,471.061a.379.379,0,0,0-.512.134,17.891,17.891,0,0,1-1.044,1.827.378.378,0,0,0,.134.512.383.383,0,0,0,.512-.134,17.9,17.9,0,0,0,1.044-1.828.382.382,0,0,0-.134-.512" transform="translate(-30.035 -386.357)" fill="#fff"/>
          <path id="Path_32668" data-name="Path 32668" d="M48.347,480.472a.38.38,0,0,0-.512.134q-.278.532-.6,1.037-.163.252-.339.5-.088.122-.178.242l-.056.073-.093.118a.384.384,0,0,0,0,.529.378.378,0,0,0,.529,0,13.343,13.343,0,0,0,1.387-2.118.381.381,0,0,0-.134-.512" transform="translate(-38.109 -394.076)" fill="#fff"/>
          <path id="Path_32669" data-name="Path 32669" d="M62.652,488.61a.38.38,0,0,0-.46.261,4.4,4.4,0,0,1-.455,1.17c-.213.406-.437.808-.656,1.211a.374.374,0,1,0,.646.378c.226-.416.458-.83.677-1.251a5.207,5.207,0,0,0,.509-1.309.381.381,0,0,0-.261-.46" transform="translate(-50.063 -400.782)" fill="#fff"/>
          <path id="Path_32670" data-name="Path 32670" d="M190.739,328.713c-.048-1.154-.146-2.3-.281-3.451a.381.381,0,0,0-.077-.185l.005-.005c.335-.346-.193-.876-.529-.529-1.849,1.908-4.62,2.729-7.16,3.209a64.777,64.777,0,0,1-8.792.793c-5.93.3-11.876.4-17.809.106-2.961-.144-5.918-.38-8.857-.771-1.374-.183-2.723-.578-4.1-.691a5.54,5.54,0,0,0-3.6.977c-2.362,1.537-4.6,3.307-6.806,5.061q-3.355,2.673-6.515,5.578c-4.9,4.519-9.784,9.039-14.8,13.43a.383.383,0,0,0,0,.529l4.82,6.082,1.141,1.441a10.524,10.524,0,0,0,1.047,1.315.88.88,0,0,0,.693.2,5.231,5.231,0,0,0,2.078-.9c.993-.6,1.938-1.278,2.869-1.969,3.995-2.967,7.658-6.337,11.586-9.386.845-.656,1.709-1.289,2.593-1.892a12.837,12.837,0,0,0-1.451,4.779,32.387,32.387,0,0,0,.185,6.724q.35,3.5.82,6.992,1.074,7.98,2.77,15.857a.382.382,0,0,0,.361.275c1.416.1,2.83.25,4.247.35.971.069,1.943.13,2.916.157a9.449,9.449,0,0,0,2.035-.065.756.756,0,0,0,.551-.3,2.341,2.341,0,0,0,.116-.9q.069-.827.142-1.654.643-7.25,1.578-14.469.478-3.681,1.033-7.351c.142-.938.3-1.874.412-2.816a14.139,14.139,0,0,1,.427-2.351,2.707,2.707,0,0,1,1.77-2.059,8,8,0,0,1,1.765-.154l2.18-.079a.37.37,0,0,0,.226-.09c.162.059.325.121.487.179,7.856,2.82,17.932,4.349,24.835-1.567a14.782,14.782,0,0,0,4.705-8.6,27.261,27.261,0,0,0,.423-5.322c-.018-2.156.045-4.315-.045-6.471" transform="translate(-91.308 -266.119)" fill="#231815"/>
          <path id="Path_32671" data-name="Path 32671" d="M357.642,347.239a11.35,11.35,0,0,1,5.068-1.118.374.374,0,0,0,0-.748,12.189,12.189,0,0,0-5.446,1.22c-.434.209-.054.855.378.646" transform="translate(-292.894 -283.297)" fill="#231815"/>
          <path id="Path_32672" data-name="Path 32672" d="M361.469,176.216c-.458-1.874-.919-3.741-1.482-5.587s-1.216-3.668-1.82-5.5a31.6,31.6,0,0,0-1.923-5.006c-1.47-2.764-4.1-5.334-7.464-4.99a8.805,8.805,0,0,0-4.307,1.942,17.541,17.541,0,0,0-3.4,3.421,12.431,12.431,0,0,0-2.212,4.426c-.447,1.713-.726,3.48-1.069,5.216-.6,3.017-1.357,5.993-2.03,8.992a.345.345,0,0,0-.189.052,38.7,38.7,0,0,1-5.341,2.447l-1.327.568a11.87,11.87,0,0,0-1.356.584.685.685,0,0,0-.352.55.347.347,0,0,0-.054.009,34.783,34.783,0,0,0-3.412,1.372,4.129,4.129,0,0,0-2.066,2.114A12.016,12.016,0,0,0,319.1,189.9c-.27.4.377.775.646.378a10.526,10.526,0,0,1,2.422-2.906,7.4,7.4,0,0,1,.873-.511c-.176.23-.343.467-.507.7a21.337,21.337,0,0,0-1.528,2.539c-.219.428.426.807.646.378a21.417,21.417,0,0,1,1.306-2.217,5.847,5.847,0,0,1,1.756-1.963,9.847,9.847,0,0,1,2.5-.839,17.389,17.389,0,0,1,2.729-.423.381.381,0,0,0,.112-.031q.293.981.587,1.962c.275.912.5,1.86.834,2.751a1.418,1.418,0,0,0,1.469.937c.98.022,1.965,0,2.945-.013q5.975-.067,11.943-.446c5.364-.348,14.645-1.324,14.573-8.538a24.14,24.14,0,0,0-.938-5.442m-34.376,8.5a16.2,16.2,0,0,0-1.75.495.354.354,0,0,0-.173.014c-.665.223-1.351.457-2.007.748a5.135,5.135,0,0,1,1.118-.707c.984-.473,2.039-.819,3.058-1.21a4.746,4.746,0,0,0,.266.552c-.171.035-.342.069-.512.109m1.265-.245a.374.374,0,0,0-.041-.124,3.515,3.515,0,0,1-.255-.527,1.867,1.867,0,0,1-.132-.4c.044-.092.449-.2.545-.237l.589-.252,2.359-1.009a39.581,39.581,0,0,0,4.131-1.865q-.231,1.045-.466,2.09s0,0,0,0q-.8.272-1.6.535c-1.143.373-2.28.666-3.446.949a.379.379,0,0,0-.261.46c.02.068.041.135.061.2q-.746.06-1.486.177m31.023,1.943c-2.449,1.842-5.74,2.464-8.713,2.791-3.573.393-7.192.5-10.784.6q-2.764.079-5.53.092c-.444,0-.888.009-1.331,0a.806.806,0,0,1-.914-.661c-.281-.888-.536-1.785-.8-2.676q-.348-1.154-.691-2.31a124.149,124.149,0,0,0,12.43-4.149c1.945-.714,3.946-1.366,5.829-2.236a2.1,2.1,0,0,0,1.238-1.161,5.475,5.475,0,0,0-.322-2.673q-.818-3.735-1.784-7.435a.374.374,0,0,0-.722.2q.786,3.018,1.478,6.061a24.787,24.787,0,0,1,.676,3.149c.065.722-.475,1.006-1.055,1.265-1.83.817-3.753,1.455-5.634,2.145q-2.934,1.076-5.884,2.112c-.314.11-.629.218-.943.326.6-2.617,1.219-5.228,1.822-7.843.412-1.786.747-3.589,1.11-5.385a33.944,33.944,0,0,1,1.046-4.558,12.716,12.716,0,0,1,2.465-4,15.478,15.478,0,0,1,3.54-3.086,6.152,6.152,0,0,1,4.477-1.051,6.886,6.886,0,0,1,3.878,2.531c2.2,2.639,2.932,6.213,4.032,9.386a98.033,98.033,0,0,1,2.857,10.219,12.226,12.226,0,0,1,.378,5.162,5.432,5.432,0,0,1-2.146,3.178" transform="translate(-261.697 -127.222)" fill="#231815"/>
          <path id="Path_32673" data-name="Path 32673" d="M341.878,334.889a.376.376,0,0,0,0-.529.383.383,0,0,0-.529,0,9.071,9.071,0,0,0-2.227,2.611.374.374,0,0,0,.646.378,8.438,8.438,0,0,1,2.11-2.459" transform="translate(-278.13 -274.177)" fill="#231815"/>
          <path id="Path_32674" data-name="Path 32674" d="M349.894,341.844a5.874,5.874,0,0,0-1.768,1.624.376.376,0,0,0,.134.512.384.384,0,0,0,.512-.134l.081-.11h0l.043-.054c.058-.071.117-.141.178-.209q.179-.2.378-.38.1-.088.2-.171a1.231,1.231,0,0,1,.106-.085h0l.055-.041a5.445,5.445,0,0,1,.459-.3.374.374,0,0,0-.378-.646" transform="translate(-285.512 -280.362)" fill="#231815"/>
          <path id="Path_32675" data-name="Path 32675" d="M267.1,433.548a40.278,40.278,0,0,1,5.138-2.254,7.9,7.9,0,0,1,2.619-.567,8.2,8.2,0,0,1,2.512.492,27.823,27.823,0,0,1,8.131,4.538c.321.241.632-.3.315-.538a28.039,28.039,0,0,0-8.608-4.7,7.761,7.761,0,0,0-2.535-.408,8.764,8.764,0,0,0-2.6.586,41.469,41.469,0,0,0-5.287,2.317c-.356.185-.041.724.315.538" transform="translate(-218.704 -352.799)" fill="#fff"/>
          <path id="Path_32676" data-name="Path 32676" d="M397.4,74.228a1.011,1.011,0,0,0-.486-.226,2.493,2.493,0,0,0-.586-.049,1.789,1.789,0,0,0-.557.1.813.813,0,0,0-.432.338c-.007.011-.019.018-.025.031s-.012.034-.018.052-.014.024-.02.038a.264.264,0,0,0-.005.05.371.371,0,0,0,.043.289.472.472,0,0,0,.278.2,1.187,1.187,0,0,0,.4.02,7.889,7.889,0,0,0,.958-.154c.094-.02.188-.04.282-.063a.377.377,0,0,0,.165-.625m-1.421.514-.006.017h0l.005-.016v0m.235-.031h0l-.013,0,.012,0m-.248.07h0c0,.005,0,.01-.005.015s0-.01.005-.015" transform="translate(-324.22 -60.66)" fill="#231815"/>
          <path id="Path_32677" data-name="Path 32677" d="M400.529,86.5a.35.35,0,0,0-.036-.062.611.611,0,0,0-.106-.124.662.662,0,0,0-.224-.128.417.417,0,0,0-.077-.014.3.3,0,0,0-.118,0,.412.412,0,0,0-.155.05.406.406,0,0,0-.045.033.442.442,0,0,0-.049.04.473.473,0,0,0-.1.155.6.6,0,0,0-.035.1.985.985,0,0,0-.021.143.374.374,0,0,0,0,.06.858.858,0,0,0,.033.2,1.043,1.043,0,0,0,.082.189,1.224,1.224,0,0,0,.119.163.467.467,0,0,0,.35.183h.008a.7.7,0,0,0,.1-.014l.007,0a.517.517,0,0,0,.1-.04.411.411,0,0,0,.1-.079.49.49,0,0,0,.078-.109.781.781,0,0,0,.053-.136,1.183,1.183,0,0,0,.023-.152.575.575,0,0,0,0-.066.59.59,0,0,0,0-.066,1.264,1.264,0,0,0-.025-.164.932.932,0,0,0-.061-.157m-.636.37,0,0a.38.38,0,0,0,.061.036h0l-.042-.018-.02-.015m.148.041-.014,0-.028,0a.294.294,0,0,0,.042,0" transform="translate(-327.748 -70.682)" fill="#231815"/>
          <path id="Path_32678" data-name="Path 32678" d="M415.64,31.825c-.316-.806-.661-1.6-.923-2.427a10.679,10.679,0,0,1-.444-2.65,6.558,6.558,0,0,0-.434-2.251,7.342,7.342,0,0,0-1.238-1.844,23.133,23.133,0,0,1-1.585-1.874,9.407,9.407,0,0,1-1.052-2.05c-.577-1.536-1.039-3.115-1.607-4.656-.64-1.737-1.271-3.488-1.981-5.2a15.811,15.811,0,0,0-2-3.546A13.591,13.591,0,0,0,397.4.39a13.644,13.644,0,0,0-6.636.044,14.514,14.514,0,0,0-5.774,2.56,6.32,6.32,0,0,0-1.826,2.178,5.193,5.193,0,0,0-.44,2.635.9.9,0,0,0,.029.159.382.382,0,0,0,.025.188c-.069-.159-.046.159-.066.272-.025.142-.061.282-.088.424a10.879,10.879,0,0,0-.134,1.283,12.221,12.221,0,0,0,.134,3.2,33.933,33.933,0,0,1,.748,3.318,5.016,5.016,0,0,1-.131,1.7c-.094.377-.333.858-.1,1.228a.867.867,0,0,0,.708.338,1.654,1.654,0,0,1,1.3.457,5.449,5.449,0,0,1,.918,1.982c.435,1.218,1.037,2.582,2.459,2.823a3.969,3.969,0,0,0,1.067.024,4.37,4.37,0,0,1,.36,1.8,8.942,8.942,0,0,1-.24,2.245c-.359,1.6-1.011,3.124-1.335,4.735A10.193,10.193,0,0,0,390.12,42c.26.356.826.065.685-.292.459-2.336.774-4.757,2.058-6.811a.327.327,0,0,0-.049-.427.346.346,0,0,0,.349-.169l1.928-3.116a7.653,7.653,0,0,0,1.365-2.318,1.966,1.966,0,0,0-.209-1.087c-.192-.467-.346-.939-.5-1.42L394.6,22.784a.408.408,0,0,0-.13-.185.3.3,0,0,0-.314-.084.308.308,0,0,0-.106.045c-.172.119-.348.232-.526.342-.086.052-.173.1-.26.152s-.182.107-.275.157-.214.113-.321.167c-.079.04-.158.081-.237.12-.1.048-.2.095-.3.141-.142.065-.284.13-.428.191a6.524,6.524,0,0,1-2.706.651c-1.407-.061-1.881-1.378-2.283-2.533a4.945,4.945,0,0,0,1.623-1.744.374.374,0,0,0-.646-.378,4.58,4.58,0,0,1-.307.487l-.041.055c-.029.038-.02.033-.01.021-.023.031-.077.088-.084.1q-.092.111-.191.215a4.524,4.524,0,0,1-.411.383l-.053.043-.007.006,0,0c-.036.027-.073.055-.111.081l-.016.011a4.153,4.153,0,0,0-.726-1.323,2.244,2.244,0,0,0-.835-.6,1.839,1.839,0,0,0-.534-.129c-.1-.008-.474.042-.534-.035s.13-.584.154-.686a6.024,6.024,0,0,0,.122-.671,5.782,5.782,0,0,0-.032-1.514c-.141-1.006-.478-1.965-.692-2.955a11.855,11.855,0,0,1-.124-3.465c.028-.347.079-.678.138-1.015.08.067.161.132.24.194.931.809,2.039,1.456,2.991,2.212.576.464,1.149.933,1.756,1.358a15.339,15.339,0,0,0,1.572.951.387.387,0,0,0,.453-.058c.525-.47,1.143-.914,1.852-.567.022.011.044.021.065.033.039.022.075.046.111.071s.057.037.083.059.043.038.065.058a1.61,1.61,0,0,1,.175.184c.016.02.034.04.05.061s.036.055.054.083.049.078.071.119c.01.018.018.037.027.055a1.7,1.7,0,0,1,.072.173l.009.026a1.747,1.747,0,0,1,.055.207c0,.006,0,.012,0,.018a1.733,1.733,0,0,1,.024.2c0,.012,0,.024,0,.036a1.687,1.687,0,0,1,0,.2c0,.047-.01.094-.017.141,0,.024-.006.048-.011.071-.009.046-.019.092-.031.137-.007.024-.013.049-.021.073-.013.044-.027.088-.044.131-.009.025-.02.049-.03.074-.018.042-.035.084-.056.125-.007.013-.015.026-.021.039-.024.046-.049.093-.077.137a2.438,2.438,0,0,1-.212.288l-.038.044a2.206,2.206,0,0,1-.242.234c-.022.018-.045.034-.067.051a3.013,3.013,0,0,0-.457.3.524.524,0,0,0-.057.076h0a.513.513,0,0,0-.045.072.415.415,0,0,0-.038.105,88.06,88.06,0,0,0-.011.113s0,.009,0,.013a.652.652,0,0,0,.017.123c0,.017.005.033.01.05a.989.989,0,0,0,.057.145l.016.033a5.736,5.736,0,0,0,1.35,1.383c.05.043.1.085.152.128.155.132.31.264.467.393l.237.193c.128.1.254.21.383.312.521.418,1.052.824,1.573,1.243l.029.023a5.463,5.463,0,0,1,1.419,1.988c.229.48.435.974.661,1.456a8.716,8.716,0,0,0,.56,1.061c.058.091.122.178.184.265.019.027.037.054.056.081s.039.049.057.073c.069.091.137.182.213.269a11.888,11.888,0,0,0,3.155,2.341,15.656,15.656,0,0,1,3.682,2.653,11.716,11.716,0,0,1,2.36,3.812c.849,2.214,1.551,4.487,2.309,6.734q1.161,3.44,1.988,6.98a.371.371,0,0,0,.636.145c3-.547,4.07-3.781,4.184-6.5a25.425,25.425,0,0,0-1.764-10.291" transform="translate(-313.706 0)" fill="#231815"/>
          <path id="Path_32679" data-name="Path 32679" d="M241.823,245.9l-8.025-1.211-12.777-1.928-.69-.1-2.262-6.264-3.913-10.838-.9-2.5a.632.632,0,0,0-.767-.436l-2.1.757a.632.632,0,0,0-.436.767l2.454,6.8,3.913,10.838.823,2.279c-.038.3.082.693.437.747l8.025,1.211,12.777,1.928,2.915.44a.706.706,0,0,0,.155.005.5.5,0,0,0,.613-.441l.194-1.283c.045-.3-.072-.712-.436-.767" transform="translate(-172.193 -182.584)" fill="#9591e2"/>
        </g>
      </g>
    </g>
  </g>
</svg>
