<svg xmlns="http://www.w3.org/2000/svg" width="44" height="44" viewBox="0 0 44 44">
  <g id="Group_39869" data-name="Group 39869" transform="translate(-193 -476)">
    <circle id="Ellipse_494" data-name="Ellipse 494" cx="22" cy="22" r="22" transform="translate(193 476)" fill="#f4efff"/>
    <g id="Group_38886" data-name="Group 38886" transform="translate(-1290.52 -1007.52)">
      <path id="Path_30973" data-name="Path 30973" d="M3136.192,2622.713Z" transform="translate(-1624.648 -1116.031)" fill="#8456e9"/>
      <path id="Path_30974" data-name="Path 30974" d="M1863.451,2622.713Z" transform="translate(-363.954 -1116.031)" fill="#8456e9"/>
      <path id="Path_30975" data-name="Path 30975" d="M1505.521,1496.02a9.5,9.5,0,1,0,9.5,9.5A9.5,9.5,0,0,0,1505.521,1496.02Zm-1.285,16.93c-.172-.022-.34-.052-.5-.088q-.189-.042-.372-.094l-.056-.018-.056-.018-.027-.009-.121-.041-.18-.064-.108-.04-.107-.041-.1-.042-.1-.043-.141-.065-.111-.054q-.23-.113-.454-.242c-.059-.034-.118-.068-.176-.1l-.123-.075a6.012,6.012,0,0,1-2.87-3.951,2.568,2.568,0,0,1-.044-.284c0-.026-.005-.053-.007-.08,0-.01,0-.02,0-.03h0c0-.037,0-.073,0-.11h0c0-.013,0-.025,0-.038,0-.087,0-.175.008-.262q.005-.068.013-.135s0-.007,0-.01c0-.029.007-.057.011-.086.013-.09.031-.179.052-.265a1.989,1.989,0,0,1,.494-.2,4.278,4.278,0,0,1,.536-.107,10.2,10.2,0,0,1,1.4-.081c.221,0,.484.026.485.4a.264.264,0,0,0,.059.144,30.06,30.06,0,0,1,2.222,2.819,3.086,3.086,0,0,1,.142.792c.06.5.116,1,.173,1.515.037.33.074.667.113,1.012Zm2.023-4.582q-.076.676-.153,1.353c-.113.881-.227,1.752-.349,2.621-.017.125-.149.234-.236.349-.087-.115-.218-.224-.235-.349-.122-.869-.236-1.74-.349-2.621q-.077-.676-.153-1.353a.671.671,0,0,1,.051-.221h1.373A.674.674,0,0,1,1506.258,1508.368Zm-.738-1.129a1.509,1.509,0,1,1,1.509-1.509A1.509,1.509,0,0,1,1505.521,1507.239Zm6.956.219h0c0,.037,0,.074,0,.11h0c0,.01,0,.02,0,.03,0,.026,0,.053-.007.08a2.54,2.54,0,0,1-.044.284,6.012,6.012,0,0,1-2.87,3.951l-.122.075-.176.1q-.224.128-.454.242l-.111.054-.14.065-.105.044-.1.042-.107.041-.107.04-.18.064-.121.041-.028.009-.056.018-.056.018q-.183.053-.372.094-.247.054-.5.088l-.038,0c.039-.345.076-.681.113-1.012.057-.514.113-1.015.173-1.515a3.091,3.091,0,0,1,.142-.792,30,30,0,0,1,2.222-2.819.265.265,0,0,0,.059-.144c0-.376.264-.4.485-.4a10.2,10.2,0,0,1,1.4.081,4.291,4.291,0,0,1,.536.107,1.982,1.982,0,0,1,.493.2c.021.086.038.175.052.265,0,.028.008.057.012.086,0,0,0,.007,0,.01q.008.067.013.135c.006.087.009.175.008.262C1512.477,1507.432,1512.477,1507.445,1512.477,1507.458Zm-.721-3.807c-1.407-.269-3.795-1.235-6.2-1.244h-.072c-2.4.009-4.792.975-6.2,1.244-1.03.2-1.533.02-1.133-1.178a7.575,7.575,0,0,1,.772-1.4q.074-.105.15-.208l.076-.1.077-.1c.038-.049.078-.1.117-.147l.039-.048a8.556,8.556,0,0,1,.92-.958l.089-.078q.156-.134.317-.259l.046-.035.093-.07.047-.034.141-.1a7.425,7.425,0,0,1,.685-.422q.21-.112.423-.213a8.012,8.012,0,0,1,6.755,0q.214.1.423.213a7.41,7.41,0,0,1,.685.422l.141.1.047.034.093.07.046.035q.161.125.317.259l.089.078a8.556,8.556,0,0,1,.92.958l.039.048.117.147.077.1.076.1c.051.068.1.137.15.208a7.582,7.582,0,0,1,.772,1.4C1513.289,1503.671,1512.785,1503.848,1511.756,1503.651Z" fill="#8456e9"/>
    </g>
  </g>
</svg>
