<svg xmlns="http://www.w3.org/2000/svg" width="34.475" height="35.358" viewBox="0 0 34.475 35.358">
  <g id="pen" transform="translate(-4.994 -3.637)">
    <path id="Path_30734" data-name="Path 30734" d="M38.694,5.95a.89.89,0,0,0-.61-.539A37.224,37.224,0,0,0,29.913,4.5a15.042,15.042,0,0,0-7.074,1.945V5.384a.87.87,0,0,0-.469-.778.907.907,0,0,0-.911.044L18.807,6.419a19.973,19.973,0,0,0-4.554,4.917l-.309-.92A.888.888,0,0,0,12.705,9.9c-.345.177-2.211,1.4-4.855,8.436a27.091,27.091,0,0,0-.911,14.67.745.745,0,0,0,.053.124c.177-.363,1.18.61,1.322.451,0,0,1.486-5.718,8.195-13.255A63.037,63.037,0,0,1,29.515,9.01c.241-.116-17.842,11.268-20.506,24.264a.986.986,0,0,1-.221.309,26.419,26.419,0,0,0,7.375-2.644,24.738,24.738,0,0,0,8.268-6.446.9.9,0,0,0,.168-.681.881.881,0,0,0-.38-.584l-1.15-.769,3.59-1.194c2.821-.937,6.384-4.483,6.535-4.634a.9.9,0,0,0,.23-.858.869.869,0,0,0-.637-.619l-1.6-.4.99-.663c2.768-1.848,6.287-7.1,6.437-7.322a.884.884,0,0,0,.088-.814Z" transform="translate(-0.154 0)" fill="none" stroke="#282828" stroke-width="1.7"/>
    <path id="Path_30735" data-name="Path 30735" d="M32.663,34.528A23.729,23.729,0,0,0,26.2,37.3c-2.476,1.654-4.775,2.423-7.958.831-4-2-8.71,1.707-8.9,1.866A.894.894,0,0,0,9.2,41.248a.883.883,0,0,0,.69.336.85.85,0,0,0,.548-.195c.044-.035,4.015-3.166,7.012-1.671,4.191,2.1,7.269.7,9.727-.937a22.042,22.042,0,0,1,5.916-2.529.884.884,0,1,0-.424-1.715Z" transform="translate(-0.464 -3.473)" fill="#282828"/>
    <path id="Path_30736" data-name="Path 30736" d="M6.626,37.43c-.3.707-.681,1.724-1.211,3.192-.168.46-.292.814-.354.955a.891.891,0,0,0,.478,1.158.955.955,0,0,0,.336.071.877.877,0,0,0,.814-.548c.062-.159.2-.539.38-1.035.265-.743.893-2.467,1.282-3.343a5.286,5.286,0,0,1-.716.062,1.33,1.33,0,0,1-1.026-.5Z" transform="translate(0 -3.811)" fill="#282828"/>
  </g>
</svg>
