<svg xmlns="http://www.w3.org/2000/svg" width="13.615" height="13.5" viewBox="0 0 13.615 13.5">
  <g id="edit" transform="translate(0.25 0.246)">
    <g id="Group_39944" data-name="Group 39944" transform="translate(0 0.861)">
      <g id="Group_39943" data-name="Group 39943">
        <path id="Path_32244" data-name="Path 32244" d="M10.815,39.741a.469.469,0,0,0-.47.467v4.67a.469.469,0,0,1-.47.467H1.411a.469.469,0,0,1-.47-.467v-9.34a.469.469,0,0,1,.47-.467H7.053a.467.467,0,1,0,0-.934H1.411A1.406,1.406,0,0,0,0,35.538v9.34a1.406,1.406,0,0,0,1.411,1.4H9.875a1.406,1.406,0,0,0,1.411-1.4v-4.67A.469.469,0,0,0,10.815,39.741Z" transform="translate(0 -34.137)" fill="#1852d8" stroke="#1852d8" stroke-width="0.5"/>
      </g>
    </g>
    <g id="Group_39946" data-name="Group 39946" transform="translate(3.571 0.004)">
      <g id="Group_39945" data-name="Group 39945" transform="translate(0 0)">
        <path id="Path_32245" data-name="Path 32245" d="M111.357.484a1.641,1.641,0,0,0-2.321,0L103.391,6.13a.433.433,0,0,0-.1.168l-.857,2.572a.429.429,0,0,0,.406.564.435.435,0,0,0,.135-.022l2.572-.857a.429.429,0,0,0,.168-.1L111.357,2.8A1.641,1.641,0,0,0,111.357.484ZM110.751,2.2l-5.572,5.572-1.665.556.554-1.663,5.574-5.572A.783.783,0,1,1,110.751,2.2Z" transform="translate(-102.409 -0.004)" fill="#1852d8" stroke="#1852d8" stroke-width="0.5"/>
      </g>
    </g>
  </g>
</svg>
