<svg xmlns="http://www.w3.org/2000/svg" width="34.11" height="34.051" viewBox="0 0 34.11 34.051">
  <g id="thumbs-up" transform="translate(-0.75 -0.744)">
    <path id="Path_32258" data-name="Path 32258" d="M1,30.481a3.46,3.46,0,0,0,3.494,3.494H8.9a1.4,1.4,0,0,0,1.4-1.4L15.6,33.9c2.725.7,4.472.7,9.154.629h3.424a2.938,2.938,0,0,0,2.935-2.865v-.419a3.98,3.98,0,0,0-.629-1.537,3.079,3.079,0,0,0,1.887-2.655v-.419a3.98,3.98,0,0,0-.629-1.537,2.977,2.977,0,0,0,1.887-2.8,3.178,3.178,0,0,0-.7-1.957,3.07,3.07,0,0,0,1.677-2.725,2.968,2.968,0,0,0-2.935-3H23.709a12.381,12.381,0,0,0,2.376-7.267V4.417A3.3,3.3,0,0,0,23.36,1.063C20.635.5,19.727,2.81,19.028,4.627c-.839,2.306-2.1,5.73-6.149,7.686l-2.585,1.258v-.14c0-1.4-1.467-1.4-1.957-1.4a33.194,33.194,0,0,1-3.773,0A3.46,3.46,0,0,0,1.07,15.527V30.481Zm9.293-15.373,3.214-1.537c4.542-2.166,6.009-6.079,6.848-8.455.559-1.537,1.118-3,2.725-2.655a1.93,1.93,0,0,1,1.537,1.957V7.282a11.424,11.424,0,0,1-2.1,6.5l-.769,1.048a.708.708,0,0,0,.559,1.118h9.293a1.609,1.609,0,0,1,0,3.214H27.483a.7.7,0,0,0,0,1.4h3.144a1.609,1.609,0,0,1,0,3.214h-4.4a.7.7,0,1,0,0,1.4h3.144a1.55,1.55,0,0,1,1.537,1.537v.14a1.567,1.567,0,0,1-1.537,1.607h-4.4a.7.7,0,0,0,0,1.4h3.144a1.55,1.55,0,0,1,1.537,1.537v.14a1.567,1.567,0,0,1-1.537,1.607H24.688c-4.682,0-6.219,0-8.8-.629l-5.59-1.467Zm-7.9.349a2.044,2.044,0,0,1,2.026-2.1c1.677.07,3,0,3.843,0,.349,0,.489,0,.559.07V32.577H4.494a2.059,2.059,0,0,1-2.1-2.1Z" transform="translate(0 0)" fill="#090b1e" stroke="#090b1e" stroke-width="0.5"/>
  </g>
</svg>
