<svg xmlns="http://www.w3.org/2000/svg" width="15.158" height="14.36" viewBox="0 0 15.158 14.36">
  <g id="Group_39536" data-name="Group 39536" transform="translate(-28.663 -2.479)">
    <g id="n" transform="translate(28.663 2.479)">
      <g id="Group_39783" data-name="Group 39783" transform="translate(0)">
        <g id="Path_32099" data-name="Path 32099" transform="translate(-2.25 -3.25)" fill="none">
          <path d="M13.715,4.026h-.194V3.832a.583.583,0,0,0-1.166,0v.194H7.3V3.832a.583.583,0,0,0-1.166,0v.194H5.942A3.693,3.693,0,0,0,2.25,7.713v6.21A3.693,3.693,0,0,0,5.942,17.61h7.773a3.693,3.693,0,0,0,3.692-3.687V7.713A3.693,3.693,0,0,0,13.715,4.026Z" stroke="none"/>
          <path d="M 5.942276954650879 5.426219940185547 C 4.678306579589844 5.426219940185547 3.649997711181641 6.452170372009277 3.649997711181641 7.713240623474121 L 3.649997711181641 13.92296981811523 C 3.649997711181641 15.18404006958008 4.678306579589844 16.21000099182129 5.942276954650879 16.21000099182129 L 13.71549701690674 16.21000099182129 C 14.97946739196777 16.21000099182129 16.00777626037598 15.18404006958008 16.00777626037598 13.92296981811523 L 16.00777626037598 7.713240623474121 C 16.00777626037598 6.452170372009277 14.97946739196777 5.426219940185547 13.71549701690674 5.426219940185547 L 5.942276954650879 5.426219940185547 M 6.719596862792969 3.25 C 7.038307189941406 3.25 7.302586555480957 3.513910293579102 7.302586555480957 3.832160949707031 L 7.302586555480957 4.026220321655273 L 12.35518646240234 4.026220321655273 L 12.35518646240234 3.832160949707031 C 12.35518646240234 3.513910293579102 12.61947631835938 3.25 12.93817710876465 3.25 C 13.25687694549561 3.25 13.52116680145264 3.513910293579102 13.52116680145264 3.832160949707031 L 13.52116680145264 4.026220321655273 L 13.71549701690674 4.026220321655273 C 15.75207710266113 4.026220321655273 17.40777778625488 5.679560661315918 17.40777778625488 7.713240623474121 L 17.40777778625488 13.92296981811523 C 17.40777778625488 15.95666027069092 15.75207710266113 17.61000061035156 13.71549701690674 17.61000061035156 L 5.942276954650879 17.61000061035156 C 3.905696868896484 17.61000061035156 2.249996185302734 15.95666027069092 2.249996185302734 13.92296981811523 L 2.249996185302734 7.713240623474121 C 2.249996185302734 5.679560661315918 3.905696868896484 4.026220321655273 5.942276954650879 4.026220321655273 L 6.13660717010498 4.026220321655273 L 6.13660717010498 3.832160949707031 C 6.13660717010498 3.513910293579102 6.400897026062012 3.25 6.719596862792969 3.25 Z" stroke="none" fill="#090b1e"/>
        </g>
        <circle id="Ellipse_469" data-name="Ellipse 469" cx="0.798" cy="0.798" r="0.798" transform="translate(3.875 5.787)" fill="#090b1e" stroke="#090b1e" stroke-width="0.3"/>
        <circle id="Ellipse_474" data-name="Ellipse 474" cx="0.798" cy="0.798" r="0.798" transform="translate(3.875 8.882)" fill="#090b1e" stroke="#090b1e" stroke-width="0.3"/>
        <circle id="Ellipse_470" data-name="Ellipse 470" cx="0.798" cy="0.798" r="0.798" transform="translate(6.975 5.787)" fill="#090b1e" stroke="#090b1e" stroke-width="0.3"/>
        <circle id="Ellipse_473" data-name="Ellipse 473" cx="0.798" cy="0.798" r="0.798" transform="translate(6.975 8.882)" fill="#090b1e" stroke="#090b1e" stroke-width="0.3"/>
        <circle id="Ellipse_471" data-name="Ellipse 471" cx="0.798" cy="0.798" r="0.798" transform="translate(10.075 5.787)" fill="#090b1e" stroke="#090b1e" stroke-width="0.3"/>
        <circle id="Ellipse_472" data-name="Ellipse 472" cx="0.798" cy="0.798" r="0.798" transform="translate(10.075 8.882)" fill="#090b1e" stroke="#090b1e" stroke-width="0.3"/>
      </g>
    </g>
  </g>
</svg>
