<svg xmlns="http://www.w3.org/2000/svg" width="20.861" height="21.5" viewBox="0 0 20.861 21.5">
  <g id="Group_42677" data-name="Group 42677" transform="translate(-203.561 -653.25)">
    <g id="user" transform="translate(204.311 654)">
      <g id="Group_12090" data-name="Group 12090" transform="translate(3.516)">
        <g id="Group_12089" data-name="Group 12089">
          <path id="Path_22045" data-name="Path 22045" d="M126.273,0a5.273,5.273,0,1,0,5.273,5.273A5.279,5.279,0,0,0,126.273,0Z" transform="translate(-121)" fill="none" stroke="#1852d8" stroke-width="1.5"/>
        </g>
      </g>
      <g id="Group_12092" data-name="Group 12092" transform="translate(0 11.719)">
        <g id="Group_12091" data-name="Group 12091">
          <path id="Path_22046" data-name="Path 22046" d="M46.35,302.273A7.518,7.518,0,0,0,40.961,300H38.617a7.518,7.518,0,0,0-5.389,2.273A7.685,7.685,0,0,0,31,307.7a.586.586,0,0,0,.586.586H47.992a.586.586,0,0,0,.586-.586A7.685,7.685,0,0,0,46.35,302.273Z" transform="translate(-31 -300)" fill="none" stroke="#1852d8" stroke-width="1.5"/>
        </g>
      </g>
    </g>
    <g id="Group_42642" data-name="Group 42642" transform="translate(-1 166)">
      <path id="Path_41356" data-name="Path 41356" d="M225.272,509.572s-2.8,1.705-5.292.524-1.859-1.638.766-4,2.562-2.577,2.562-2.577l3.954,4.037Z" transform="translate(-3.926 -4.301)" fill="#fff"/>
      <g id="edit" transform="translate(212.791 506.935) rotate(-3)">
        <g id="Group_39946" data-name="Group 39946" transform="translate(3.571 -8.996)">
          <g id="Group_39945" data-name="Group 39945" transform="translate(0 0)">
            <g id="Path_32245" data-name="Path 32245" transform="translate(-102.409 -0.004)" fill="#1852d8">
              <path d="M 102.8074569702148 8.926749229431152 L 102.8072509765625 8.926749229431152 L 102.8070602416992 8.926749229431152 C 102.748176574707 8.926689147949219 102.6899795532227 8.917228698730469 102.6341018676758 8.898629188537598 C 102.3470001220703 8.803009033203125 102.1912307739258 8.491659164428711 102.2868423461914 8.204559326171875 L 103.0844039916992 5.81187915802002 C 103.1113357543945 5.73154878616333 103.1569366455078 5.657588958740234 103.2163619995117 5.597718715667725 L 108.4694366455078 0.3450989425182343 C 108.7794342041016 0.03295892849564552 109.2100830078125 -0.1462710648775101 109.6505813598633 -0.1462710648775101 C 110.1028518676758 -0.1463210731744766 110.5239410400391 0.02809892781078815 110.8406524658203 0.3448489308357239 C 111.4942855834961 0.9985489249229431 111.4942016601562 2.062148809432983 110.8404922485352 2.715798854827881 L 105.5878524780273 7.968449115753174 C 105.5280303955078 8.028368949890137 105.4538345336914 8.074298858642578 105.3733596801758 8.10115909576416 L 102.9806365966797 8.89871883392334 C 102.9243240356445 8.917279243469238 102.8662109375 8.92664909362793 102.8074569702148 8.926749229431152 Z M 104.0843505859375 6.281718730926514 L 103.6748733520508 7.510156631469727 L 104.9054260253906 7.099243640899658 L 110.0645065307617 1.940178871154785 C 110.1726150512695 1.832438945770264 110.2342834472656 1.683368921279907 110.2338943481445 1.531028985977173 C 110.2334365844727 1.377238869667053 110.1733169555664 1.232518911361694 110.0646209716797 1.123588919639587 C 109.9551620483398 1.013918876647949 109.8095245361328 0.9535089135169983 109.654541015625 0.9535089135169983 C 109.5 0.9535089135169983 109.3546600341797 1.013628959655762 109.2453002929688 1.122788906097412 L 104.0843505859375 6.281718730926514 Z" stroke="none"/>
              <path d="M 109.6505813598633 0.003732681274414062 C 109.2469711303711 0.00373077392578125 108.859977722168 0.16473388671875 108.5754928588867 0.4511690139770508 L 103.3228149414062 5.703389167785645 C 103.2792205810547 5.747299194335938 103.2463607788086 5.800668716430664 103.2266998291016 5.859309196472168 L 102.4291610717773 8.251958847045898 C 102.3595733642578 8.460919380187988 102.4725341796875 8.686718940734863 102.6814804077148 8.756308555603027 C 102.7626876831055 8.783342361450195 102.8520278930664 8.78316593170166 102.9332046508789 8.75641918182373 L 105.3258666992188 7.958878993988037 C 105.3846206665039 7.939259052276611 105.4380264282227 7.906219005584717 105.4817810058594 7.86237907409668 L 110.7344207763672 2.609728813171387 C 111.3305969238281 2.013628959655762 111.330680847168 1.047079086303711 110.7345809936523 0.4509086608886719 C 110.4472198486328 0.1635093688964844 110.0575637817383 0.003711700439453125 109.6505813598633 0.003732681274414062 M 103.4376449584961 7.747519016265869 L 103.9532623291016 6.200658798217773 L 109.1393356323242 1.016618728637695 C 109.4244079589844 0.7320737838745117 109.8862380981445 0.7325344085693359 110.1708068847656 1.01763916015625 C 110.3067169189453 1.153839111328125 110.38330078125 1.338219165802002 110.3838806152344 1.530638694763184 C 110.384391784668 1.724079132080078 110.3075866699219 1.909698963165283 110.1705703735352 2.046248912811279 L 104.9864959716797 7.230319023132324 L 103.4376449584961 7.747519016265869 M 109.6505813598633 -0.2962713241577148 L 109.6538009643555 -0.2962608337402344 C 110.1429138183594 -0.296320915222168 110.6016845703125 -0.1063013076782227 110.9467315673828 0.2387886047363281 C 111.2916870117188 0.5837888717651367 111.4816436767578 1.042479038238525 111.4816055297852 1.530368804931641 C 111.481559753418 2.018249034881592 111.2915420532227 2.476909160614014 110.9465408325195 2.821868896484375 L 105.6939163208008 8.074508666992188 C 105.6178207397461 8.150738716125488 105.5233459472656 8.209218978881836 105.4208755493164 8.243438720703125 L 103.028076171875 9.04102897644043 C 102.8831253051758 9.088776588439941 102.7278137207031 9.087926864624023 102.5867233276367 9.040948867797852 C 102.2211303710938 8.919188499450684 102.0227813720703 8.522739410400391 102.14453125 8.157169342041016 L 102.9420928955078 5.764438629150391 C 102.9763870239258 5.662158966064453 103.0343551635742 5.56813907623291 103.1099014282227 5.492038726806641 L 108.3633728027344 0.2390289306640625 C 108.7009735107422 -0.10089111328125 109.17041015625 -0.2962713241577148 109.6505813598633 -0.2962713241577148 Z M 104.8243789672852 6.968173503875732 L 109.9584426879883 1.834118843078613 C 110.0385894775391 1.754239082336426 110.0841827392578 1.644039154052734 110.0838851928711 1.531428813934326 C 110.0835418701172 1.417519092559814 110.0389938354492 1.310258865356445 109.9584426879883 1.229548931121826 C 109.8773345947266 1.148278713226318 109.7693939208984 1.103508949279785 109.654541015625 1.103508949279785 C 109.5400161743164 1.103508949279785 109.4323120117188 1.148058891296387 109.3512649536133 1.228949069976807 L 104.2154769897461 6.362728118896484 L 103.9121170043945 7.272800922393799 L 104.8243789672852 6.968173503875732 Z" stroke="none" fill="#1852d8"/>
            </g>
          </g>
        </g>
      </g>
    </g>
  </g>
</svg>
