<svg xmlns="http://www.w3.org/2000/svg" width="17.919" height="18.277" viewBox="0 0 17.919 18.277">
  <g id="import" transform="translate(-1035 -103.643)">
    <path id="import-2" data-name="import" d="M19.023,12.752a.9.9,0,0,0-.9.9v3.584a.9.9,0,0,1-.9.9H4.688a.9.9,0,0,1-.9-.9V13.648a.9.9,0,1,0-1.792,0v3.584a2.688,2.688,0,0,0,2.688,2.688H17.232a2.688,2.688,0,0,0,2.688-2.688V13.648A.9.9,0,0,0,19.023,12.752Z" transform="translate(1033 102)" fill="#1852d8"/>
    <g id="arrow-down" transform="translate(1029.96 102)">
      <path id="Path_32344" data-name="Path 32344" d="M11.795,16.715A.751.751,0,0,1,11,15.92V4.795a.795.795,0,0,1,1.589,0V15.92A.751.751,0,0,1,11.795,16.715Z" transform="translate(2.205 -2.357)" fill="#1852d8"/>
      <path id="Path_32345" data-name="Path 32345" d="M11.795,18.357a.721.721,0,0,1-.556-.238.768.768,0,0,1,0-1.113l4.768-4.768a.787.787,0,0,1,1.113,1.113l-4.768,4.768a.721.721,0,0,1-.556.238Z" transform="translate(2.205 -4)" fill="#1852d8"/>
      <path id="Path_32346" data-name="Path 32346" d="M10.563,18.357a.721.721,0,0,1-.556-.238L5.238,13.351a.787.787,0,0,1,1.113-1.113l4.768,4.768a.768.768,0,0,1,0,1.113A.721.721,0,0,1,10.563,18.357Z" transform="translate(3.437 -4)" fill="#1852d8"/>
    </g>
  </g>
</svg>
