<svg xmlns="http://www.w3.org/2000/svg" width="16" height="16" viewBox="0 0 16 16">
  <path id="arrow-left" d="M4.292,8a.625.625,0,0,0,.625.625H9.554L8.162,10.016a.625.625,0,0,0,.884.884L11.5,8.442a.625.625,0,0,0,0-.884L9.046,5.1a.625.625,0,0,0-.884.884L9.554,7.375H4.917A.625.625,0,0,0,4.292,8ZM0,4.637v6.727a4.506,4.506,0,0,0,1.543,3.355A4.346,4.346,0,0,0,4.637,16h6.727a4.346,4.346,0,0,0,3.094-1.281A4.505,4.505,0,0,0,16,11.363V4.637a4.506,4.506,0,0,0-1.543-3.355A4.346,4.346,0,0,0,11.363,0H4.637A4.346,4.346,0,0,0,1.543,1.281,4.505,4.505,0,0,0,0,4.637Zm1.25,0A3.3,3.3,0,0,1,2.427,2.165a3.1,3.1,0,0,1,2.21-.915h6.727a3.1,3.1,0,0,1,2.21.915A3.282,3.282,0,0,1,14.75,4.637v6.727a3.3,3.3,0,0,1-1.177,2.471,3.1,3.1,0,0,1-2.21.915H4.637a3.1,3.1,0,0,1-2.21-.915A3.282,3.282,0,0,1,1.25,11.363Z" transform="translate(0)"/>
</svg>
