<svg xmlns="http://www.w3.org/2000/svg" width="12.467" height="17" viewBox="0 0 12.467 17">
  <g id="earth-globe_1_" data-name="earth-globe (1)" transform="translate(-2.527 -0.001)">
    <g id="Layer_2" data-name="Layer 2" transform="translate(2.527 0.001)">
      <path id="Path_32239" data-name="Path 32239" d="M15.574,2.76A6.166,6.166,0,0,0,11.04,1,6.256,6.256,0,0,0,5.006,6.935a6.194,6.194,0,0,0,1.61,4.483A21.5,21.5,0,0,1,10.6,17.4l.109.255a.567.567,0,0,0,1.042,0L12,17.089A19.72,19.72,0,0,1,15.8,11.466a6.23,6.23,0,0,0-.23-8.708ZM11.232,9.5A2.267,2.267,0,1,1,13.5,7.233,2.267,2.267,0,0,1,11.232,9.5Z" transform="translate(-4.998 -0.999)" fill="#090b1e"/>
    </g>
  </g>
</svg>
