<svg xmlns="http://www.w3.org/2000/svg" width="136.645" height="132.788" viewBox="0 0 136.645 132.788">
  <g id="Group_40134" data-name="Group 40134" transform="translate(-644 -286.712)">
    <g id="Group_40133" data-name="Group 40133" transform="translate(-167.5 -5)">
      <g id="_x32_19" transform="translate(820.555 287.742)">
        <path id="Path_32365" data-name="Path 32365" d="M10.388,130.994c3.13,1.807,8.284,5.764,9.39,5.764a1.54,1.54,0,0,0,1.283-.69,5.97,5.97,0,0,0,3.718-.779c2.694-1.58,2.592-2.379,17.579-23.4l0,.036c7.034-.684,14.132-1.367,21.152-.553s14.052,3.256,19.209,8.087c2.625,2.459,4.773,5.527,7.922,7.265a8.172,8.172,0,0,0,7.5.258,4.819,4.819,0,0,0,4.317-3.289c2.09-6.187,4.531-10.853,6.749-16.5a2.851,2.851,0,0,1,2.671-1.826,15.732,15.732,0,0,0,15.713-15.714V36.192A11.3,11.3,0,0,0,116.3,24.9H107.89c2.189-2.754,4.376-5.519,6.57-8.25a9.735,9.735,0,0,1-.6-4.819c-.21.273-.5.646-.288.372a1.53,1.53,0,0,0-.442-2.242c-3.3-1.947-6.09-3.755-9.531-5.784a1.534,1.534,0,0,0-2.007.407L86.566,24.9H21.836a11.225,11.225,0,0,0-5.73,1.576,11.507,11.507,0,0,0-6.741,6.549c-1.607,3.681-1.8,7.8-1.949,11.814C6.773,62.393,6.587,80,8.176,97.486c.873,9.6,3.691,13.9,14.36,14.2L9.922,128.757a1.531,1.531,0,0,0,.465,2.236ZM116.3,27.966a8.235,8.235,0,0,1,8.227,8.226V89.651A12.667,12.667,0,0,1,111.876,102.3a5.892,5.892,0,0,0-5.522,3.771c-.858,2.185-1.747,4.216-2.637,6.247-1.4,3.193-2.844,6.5-4.162,10.394a1.832,1.832,0,0,1-2.828.863l-20.01-14.742A19.05,19.05,0,0,0,65.354,105.1H47.215q6.165-8.571,12.43-17.113H73.4a1.531,1.531,0,0,0,0-3.062H61.907q5.34-7.238,10.745-14.435h9.663a1.531,1.531,0,0,0,0-3.062h-7.35q5.723-7.591,11.5-15.116H103.95a1.531,1.531,0,1,0,0-3.062H88.823q8.273-10.73,16.628-21.289H116.3ZM21.836,105.1a8.256,8.256,0,0,1-8.247-8.248V36.212a8.256,8.256,0,0,1,8.247-8.246H84.313c-7.547,10.228-11.474,15.546-15.7,21.289h-33.3a1.531,1.531,0,0,0,0,3.062H66.355c-.152.206-10.167,13.768-11.16,15.116H39.437a1.531,1.531,0,1,0,0,3.062h13.5c-35,47.429-22.924,31.071-25.536,34.609h-.246l.2-.443a6.86,6.86,0,0,1-.6.443Zm81.39-97.582c2.447,1.473,4.327,2.664,6.87,4.2C83.932,46.213,63,74.28,43.953,99.79l0,0c-1.285,1.656-17.095,23.1-24.588,33.394-1.763-1.1-4.093-2.736-5.993-3.952,1.542-2.09,49.675-67.31,89.851-121.713Z" transform="translate(0 0)" fill="#dcdcdc"/>
      </g>
    </g>
    <circle id="Ellipse_514" data-name="Ellipse 514" cx="22" cy="22" r="22" transform="translate(644 287)" fill="#dcdcdc"/>
    <g id="eyes_1_" data-name="eyes (1)" transform="translate(646.897 288.835)">
      <circle id="Ellipse_515" data-name="Ellipse 515" cx="20" cy="20" r="20" transform="translate(0.103 0.165)" fill="#fff"/>
      <path id="Path_32366" data-name="Path 32366" d="M30.013,15.205c0,6.188-3.135,11.205-7,11.205-2.217,0-4.191-1.653-5.474-4.227a19.049,19.049,0,0,0,1.272-6.978,19.049,19.049,0,0,0-1.272-6.978C18.819,5.654,20.792,4,23.01,4,26.877,4,30.013,9.017,30.013,15.205ZM9,4C5.135,4,2,9.017,2,15.205S5.135,26.41,9,26.41s7-5.017,7-11.205S12.871,4,9,4Z" transform="translate(5.04 5.66)" fill="#fff"/>
    </g>
    <path id="eyes" d="M19.64,23.683c-3.765,0-6.714-4.487-6.714-10.216S15.875,3.25,19.64,3.25s6.714,4.487,6.714,10.216S23.4,23.683,19.64,23.683ZM19.64,5c-2.3,0-4.294,2.844-4.822,6.539a2.335,2.335,0,1,1,0,3.851c.527,3.7,2.519,6.539,4.822,6.539,2.69,0,4.962-3.876,4.962-8.465S22.33,5,19.64,5ZM1.25,13.466C1.25,19.2,4.2,23.683,7.964,23.683a5.526,5.526,0,0,0,4.285-2.294,13.81,13.81,0,0,1-.872-1.85,4.262,4.262,0,0,1-3.413,2.392c-2.3,0-4.294-2.844-4.822-6.539a2.335,2.335,0,1,0,0-3.851C3.67,7.845,5.661,5,7.964,5a4.262,4.262,0,0,1,3.413,2.392,13.81,13.81,0,0,1,.872-1.85A5.526,5.526,0,0,0,7.964,3.25C4.2,3.25,1.25,7.737,1.25,13.466Z" transform="translate(653.26 295.533)" fill="#90b1ff" stroke="#90b1ff" stroke-width="0.8"/>
  </g>
</svg>
