<svg xmlns="http://www.w3.org/2000/svg" xmlns:xlink="http://www.w3.org/1999/xlink" width="120" height="120" viewBox="0 0 120 120">
  <defs>
    <clipPath id="clip-path">
      <path id="path3153" d="M0-682.665H120v120H0Z" transform="translate(0 682.665)" fill="#dcdcdc"/>
    </clipPath>
  </defs>
  <g id="Group_40135" data-name="Group 40135" transform="translate(-828 -301)">
    <g id="g3147" transform="translate(828 983.665)">
      <g id="g3149" transform="translate(0 -682.665)">
        <g id="g3151" clip-path="url(#clip-path)">
          <g id="g3157" transform="translate(41.814 59.904)">
            <path id="path3159" d="M-1.677,0A198.438,198.438,0,0,0-.849,33.55a7.8,7.8,0,0,0,7.207,6.919q16,1.125,32,1.041a4.356,4.356,0,0,1,3.614,1.861c3.464,4.985,9.11,9.794,13.354,13.026A3.532,3.532,0,0,0,61,53.584v-8.69a4.371,4.371,0,0,1,4.076-4.359c.309-.021.619-.042.93-.066a7.806,7.806,0,0,0,7.207-6.938q.077-.706.15-1.416" transform="translate(2.034)" fill="none" stroke="#dcdcdc" stroke-linecap="round" stroke-linejoin="round" stroke-width="4"/>
          </g>
          <g id="g3161" transform="translate(74.941 42.195)">
            <path id="path3163" d="M0-.142Q11.464-.28,22.926.2q5.99.246,11.981.67a7.8,7.8,0,0,1,7.207,6.919,197.851,197.851,0,0,1,.741,34.863" transform="translate(0 0.173)" fill="none" stroke="#dcdcdc" stroke-linecap="round" stroke-linejoin="round" stroke-width="4"/>
          </g>
          <g id="g3165" transform="translate(67.97 68.338)">
            <path id="path3167" d="M0-15.921v-.441a2.1,2.1,0,0,1,2.1-2.1h4.15a2.1,2.1,0,0,1,2.1,2.1V.4a2.1,2.1,0,0,1-2.1,2.1H2.1A2.1,2.1,0,0,1,0,.4v-16.32Z" transform="translate(-0.001 18.466)" fill="none" stroke="#dcdcdc" stroke-linecap="round" stroke-linejoin="round" stroke-width="3.5"/>
          </g>
          <g id="g3169" transform="translate(71.948 50.349)">
            <path id="path3171" d="M-2.283-84.853a5.65,5.65,0,0,1,.486-2.4A5.7,5.7,0,0,1,.537-89.872a8.683,8.683,0,0,0,3.447-3.811l1.26-2.685a3.563,3.563,0,0,1,3.227-2.049,3.546,3.546,0,0,1,1.511.338,3.562,3.562,0,0,1,1.71,4.738L8.744-87.062c.01.017.014.022.025.039h7.559a2.675,2.675,0,0,1,1.9.786,2.673,2.673,0,0,1,.788,1.9,2.688,2.688,0,0,1-2.688,2.688h.9a2.734,2.734,0,0,1,2.747,2.741,2.687,2.687,0,0,1-2.686,2.634h-.965a2.675,2.675,0,0,1,1.9.786,2.673,2.673,0,0,1,.788,1.9A2.687,2.687,0,0,1,16.328-70.9h-.965a2.68,2.68,0,0,1,1.9.787,2.7,2.7,0,0,1,.6.914h0a2.7,2.7,0,0,1,.185.985,2.687,2.687,0,0,1-2.687,2.688H.719a4.781,4.781,0,0,1-3.367-1.386" transform="translate(6.663 104.947)" fill="none" stroke="#dcdcdc" stroke-linecap="round" stroke-linejoin="round" stroke-width="3.5"/>
          </g>
          <g id="g3173" transform="translate(1.758 2.971)">
            <path id="path3175" d="M-132.3-292.658a37.11,37.11,0,0,0,2.963-3.682,4.187,4.187,0,0,1,3.473-1.788q15.384.077,30.768-1a7.5,7.5,0,0,0,6.37-4.523,7.418,7.418,0,0,0,.56-2.13,190.454,190.454,0,0,0,0-41.629,7.5,7.5,0,0,0-6.926-6.656,409.291,409.291,0,0,0-45.834-.645q-5.759.239-11.522.645a7.5,7.5,0,0,0-6.93,6.656,190.729,190.729,0,0,0,0,41.613,7.51,7.51,0,0,0,6.933,6.67l.893.063a4.2,4.2,0,0,1,3.921,4.191v8.358a3.4,3.4,0,0,0,5.454,2.7c1.49-1.134,3.161-2.473,4.845-3.947" transform="translate(160.52 355.073)" fill="none" stroke="#dcdcdc" stroke-linecap="round" stroke-linejoin="round" stroke-width="4"/>
          </g>
          <g id="g3193" transform="translate(25.713 36.779)">
            <path id="path3195" d="M-119.95,0a13.881,13.881,0,0,1-12.791,8.492A13.881,13.881,0,0,1-145.532,0" transform="translate(145.532)" fill="none" stroke="#dcdcdc" stroke-linecap="round" stroke-linejoin="round" stroke-width="4"/>
          </g>
        </g>
      </g>
    </g>
    <path id="star" d="M15.958,6.29a.849.849,0,0,0-.731-.584l-4.619-.419L8.782,1.013a.851.851,0,0,0-1.565,0L5.392,5.286.773,5.706A.851.851,0,0,0,.289,7.194l3.491,3.061L2.751,14.789a.85.85,0,0,0,1.265.919L8,13.327l3.982,2.381a.851.851,0,0,0,1.266-.919l-1.029-4.534L15.71,7.194a.851.851,0,0,0,.248-.9ZM8.076,13.281" transform="translate(845 314.004)" fill="#90b1ff"/>
    <path id="star-2" data-name="star" d="M15.958,6.29a.849.849,0,0,0-.731-.584l-4.619-.419L8.782,1.013a.851.851,0,0,0-1.565,0L5.392,5.286.773,5.706A.851.851,0,0,0,.289,7.194l3.491,3.061L2.751,14.789a.85.85,0,0,0,1.265.919L8,13.327l3.982,2.381a.851.851,0,0,0,1.266-.919l-1.029-4.534L15.71,7.194a.851.851,0,0,0,.248-.9ZM8.076,13.281" transform="translate(872 314.004)" fill="#90b1ff"/>
    <path id="Polygon_3" data-name="Polygon 3" d="M7.5,6.372a4,4,0,0,1,7.01,0l4.235,7.7A4,4,0,0,1,15.235,20H6.765a4,4,0,0,1-3.5-5.928Z" transform="matrix(0.921, -0.391, 0.391, 0.921, 830.967, 389.093)" fill="none" stroke="#dcdcdc" stroke-width="3"/>
    <path id="Polygon_4" data-name="Polygon 4" d="M7.5,6.372a4,4,0,0,1,7.01,0l4.235,7.7A4,4,0,0,1,15.235,20H6.765a4,4,0,0,1-3.5-5.928Z" transform="translate(941.393 319.051) rotate(112)" fill="none" stroke="#dcdcdc" stroke-width="3"/>
  </g>
</svg>
