<svg xmlns="http://www.w3.org/2000/svg" width="239" height="121" viewBox="0 0 239 121">
  <g id="Group_40133" data-name="Group 40133" transform="translate(-768.5 -304)">
    <line id="Line_658" data-name="Line 658" x2="239" transform="translate(768.5 424.5)" fill="none" stroke="#dcdcdc" stroke-width="1"/>
    <line id="Line_659" data-name="Line 659" x2="22" transform="translate(798.5 412.5)" fill="none" stroke="#dcdcdc" stroke-width="1"/>
    <line id="Line_661" data-name="Line 661" x2="9" transform="translate(811.5 403.5)" fill="none" stroke="#dcdcdc" stroke-width="1"/>
    <line id="Line_662" data-name="Line 662" x2="9" transform="translate(955.5 403.5)" fill="none" stroke="#dcdcdc" stroke-width="1"/>
    <line id="Line_660" data-name="Line 660" x2="22" transform="translate(956.5 412.5)" fill="none" stroke="#dcdcdc" stroke-width="1"/>
    <g id="outline" transform="translate(803 256)">
      <path id="Path_32353" data-name="Path 32353" d="M201.412,218.824A9.412,9.412,0,1,0,192,209.412,9.412,9.412,0,0,0,201.412,218.824Zm0-14.118a4.706,4.706,0,1,1-4.706,4.706A4.706,4.706,0,0,1,201.412,204.706Z" transform="translate(-124.235 -107.294)" fill="#dcdcdc"/>
      <path id="Path_32354" data-name="Path 32354" d="M105.412,200a9.412,9.412,0,1,0,9.412,9.412A9.412,9.412,0,0,0,105.412,200Zm0,14.118a4.706,4.706,0,1,1,4.706-4.706A4.706,4.706,0,0,1,105.412,214.118Z" transform="translate(-56.471 -107.294)" fill="#dcdcdc"/>
      <path id="Path_32355" data-name="Path 32355" d="M310.117,224a2.353,2.353,0,0,0-2.353,2.353,4.706,4.706,0,0,1-7.843,3.508,2.353,2.353,0,1,0-3.139,3.506,9.412,9.412,0,0,0,15.687-7.015A2.353,2.353,0,0,0,310.117,224Z" transform="translate(-197.647 -124.235)" fill="#90b1ff"/>
      <path id="Path_32356" data-name="Path 32356" d="M105.412,320a9.412,9.412,0,1,0,9.412,9.412A9.412,9.412,0,0,0,105.412,320Zm0,14.118a4.706,4.706,0,1,1,4.706-4.706A4.706,4.706,0,0,1,105.412,334.118Z" transform="translate(-56.471 -192)" fill="#dcdcdc"/>
      <path id="Path_32357" data-name="Path 32357" d="M297.412,320a9.412,9.412,0,1,0,9.412,9.412A9.412,9.412,0,0,0,297.412,320Zm0,14.118a4.706,4.706,0,1,1,4.706-4.706A4.706,4.706,0,0,1,297.412,334.118Z" transform="translate(-192 -192)" fill="#dcdcdc"/>
      <path id="Path_32362" data-name="Path 32362" d="M297.412,320a9.412,9.412,0,1,0,9.412,9.412A9.412,9.412,0,0,0,297.412,320Zm0,14.118a4.706,4.706,0,1,1,4.706-4.706A4.706,4.706,0,0,1,297.412,334.118Z" transform="translate(-220.234 -192)" fill="#dcdcdc"/>
      <path id="Path_32358" data-name="Path 32358" d="M148.149,67.413a8.265,8.265,0,0,0-8.214-7.647H126.588V55.059a7.059,7.059,0,1,0-14.118,0v4.706H98.353V55.059a7.059,7.059,0,1,0-14.118,0v4.706H70.118V55.059a7.059,7.059,0,1,0-14.118,0v4.706H41.882V55.059a7.059,7.059,0,1,0-14.118,0v4.706H21.294A5.3,5.3,0,0,0,16,65.059v97.647A5.3,5.3,0,0,0,21.294,168H133.059a5.3,5.3,0,0,0,5.259-4.706h14.152a2.353,2.353,0,0,0,2.347-2.521ZM117.176,55.059a2.353,2.353,0,0,1,4.706,0v9.412a2.353,2.353,0,0,1-4.706,0Zm-28.235,0a2.353,2.353,0,1,1,4.706,0v9.412a2.353,2.353,0,1,1-4.706,0Zm-28.235,0a2.353,2.353,0,0,1,4.706,0v9.412a2.353,2.353,0,1,1-4.706,0Zm-28.235,0a2.353,2.353,0,0,1,4.706,0v9.412a2.353,2.353,0,1,1-4.706,0ZM21.294,64.471h6.471a7.059,7.059,0,1,0,14.118,0H56a7.059,7.059,0,1,0,14.118,0H84.235a7.059,7.059,0,1,0,14.118,0h14.118a7.059,7.059,0,1,0,14.118,0h7.059v9.412H20.706V65.059A.588.588,0,0,1,21.294,64.471Zm112.353,98.235a.588.588,0,0,1-.588.588H21.294a.588.588,0,0,1-.588-.588V78.588H133.647Zm4.706-4.118V64.471h1.581a3.542,3.542,0,0,1,3.521,3.278l6.488,90.839Z" fill="#dcdcdc"/>
      <path id="Path_32359" data-name="Path 32359" d="M310.118,408H298.353a2.353,2.353,0,0,0,0,4.706h11.765a2.353,2.353,0,0,0,0-4.706Z" transform="translate(-197.647 -254.118)" fill="#dcdcdc"/>
      <path id="Path_32363" data-name="Path 32363" d="M310.118,408H298.353a2.353,2.353,0,0,0,0,4.706h11.765a2.353,2.353,0,0,0,0-4.706Z" transform="translate(194.376 -407.874) rotate(47)" fill="#90b1ff"/>
      <path id="Path_32364" data-name="Path 32364" d="M310.118,408H298.353a2.353,2.353,0,0,0,0,4.706h11.765a2.353,2.353,0,0,0,0-4.706Z" transform="translate(610.275 142.978) rotate(132)" fill="#90b1ff"/>
      <path id="Path_32360" data-name="Path 32360" d="M372.706,408h-2.353a2.353,2.353,0,1,0,0,4.706h2.353a2.353,2.353,0,1,0,0-4.706Z" transform="translate(-248.471 -254.118)" fill="#dcdcdc"/>
    </g>
  </g>
</svg>
