<svg xmlns="http://www.w3.org/2000/svg" width="115.335" height="111.2" viewBox="0 0 115.335 111.2">
  <g id="Group_40145" data-name="Group 40145" transform="translate(-829.9 -309.4)">
    <path id="transaction-history" d="M110.8,60.616a9.5,9.5,0,0,0,9.49-9.49V41.116a1.841,1.841,0,0,0-1.841-1.841H104.991V24.695a9.5,9.5,0,0,0-9.49-9.49H23.066A9.273,9.273,0,0,0,13.8,24.47v87.1a5.839,5.839,0,0,1-5.808,5.813H7.989a1.841,1.841,0,0,0,.005,3.682h10.4a1.832,1.832,0,0,0,.875-.222l5.119-2.768,2.626,2.486a1.84,1.84,0,0,0,2.157.274l5.581-3.092,5.58,3.092a1.837,1.837,0,0,0,1.579.1l6.7-2.7,4.246,2.567a1.84,1.84,0,0,0,1.792.063l5.128-2.632,5.653,2.66a1.852,1.852,0,0,0,.783.175H77.618l.03,0A28,28,0,1,0,92.281,69.192c-.873,0-1.735.045-2.588.124v-8.7h21.1Zm5.808-17.659v8.169a5.815,5.815,0,0,1-5.808,5.809h-.2c-.016,0-.03-.006-.045-.007a5.814,5.814,0,0,1-5.557-5.8V42.957h11.615Zm-15.3-18.262V51.131a9.478,9.478,0,0,0,1.992,5.8H89.694V24.7a5.8,5.8,0,0,1,5.289-5.788c.043,0,.084-.018.127-.024H95.5A5.816,5.816,0,0,1,101.31,24.695Zm15.3,72.5A24.325,24.325,0,1,1,92.282,72.873,24.352,24.352,0,0,1,116.606,97.2Zm-52.331,0A27.917,27.917,0,0,0,72.9,117.387H66.623l-6.1-2.869a1.834,1.834,0,0,0-1.623.028l-5.02,2.575-4.155-2.512a1.828,1.828,0,0,0-1.64-.132l-6.738,2.716-5.705-3.16a1.839,1.839,0,0,0-1.783,0l-5.294,2.932-2.616-2.478a1.842,1.842,0,0,0-2.141-.281l-5.884,3.181H15.479a9.469,9.469,0,0,0,2-5.808V24.47a5.589,5.589,0,0,1,5.582-5.583H87.991a9.5,9.5,0,0,0-1.98,5.808V69.908A28.05,28.05,0,0,0,64.275,97.2ZM75.543,38.834a1.841,1.841,0,0,1-1.841,1.84H29.794a1.841,1.841,0,1,1,0-3.681H73.7A1.841,1.841,0,0,1,75.543,38.834Zm0,11.721A1.841,1.841,0,0,1,73.7,52.4H29.794a1.841,1.841,0,1,1,0-3.682H73.7A1.841,1.841,0,0,1,75.543,50.555Zm0,11.722a1.841,1.841,0,0,1-1.841,1.84H29.794a1.841,1.841,0,1,1,0-3.682H73.7A1.841,1.841,0,0,1,75.543,62.278ZM70.749,74a1.84,1.84,0,0,1-1.841,1.841H29.794a1.841,1.841,0,1,1,0-3.682H68.908A1.84,1.84,0,0,1,70.749,74Zm-8.09,11.721a1.84,1.84,0,0,1-1.84,1.84H29.794a1.841,1.841,0,1,1,0-3.682H60.819A1.841,1.841,0,0,1,62.659,85.719ZM60.5,97.439a1.841,1.841,0,0,1-1.841,1.842H29.794a1.84,1.84,0,1,1,0-3.681H58.661A1.84,1.84,0,0,1,60.5,97.439Z" transform="translate(824.347 294.795)" fill="#dcdcdc" stroke="#dcdcdc" stroke-width="1.2"/>
    <rect id="Rectangle_2756" data-name="Rectangle 2756" width="5" height="18" rx="2.5" transform="translate(921 393) rotate(90)" fill="#90b1ff"/>
    <rect id="Rectangle_2757" data-name="Rectangle 2757" width="5" height="18" rx="2.5" transform="translate(916 380)" fill="#90b1ff"/>
  </g>
</svg>
