<svg xmlns="http://www.w3.org/2000/svg" width="20.738" height="19.938" viewBox="0 0 20.738 19.938">
  <path id="star" d="M18.95,7.376a1.009,1.009,0,0,0-.868-.693l-5.485-.5L10.429,1.11a1.01,1.01,0,0,0-1.858,0L6.4,6.184l-5.486.5A1.011,1.011,0,0,0,.344,8.449L4.49,12.085,3.267,17.469a1.01,1.01,0,0,0,1.5,1.092L9.5,15.733l4.729,2.828a1.011,1.011,0,0,0,1.5-1.092l-1.222-5.384,4.146-3.635a1.011,1.011,0,0,0,.295-1.073Zm-9.359,8.3" transform="translate(0.869 0.354)" fill="none" stroke="#fa8761" stroke-width="1.7"/>
</svg>
