<svg xmlns="http://www.w3.org/2000/svg" width="14.729" height="15.841" viewBox="0 0 14.729 15.841">
  <g id="Layer_18" data-name="Layer 18" transform="translate(-2.85 -1.845)">
    <path id="Path_41959" data-name="Path 41959" d="M16.874,4.218h-3.94a2.775,2.775,0,0,0-5.439,0H3.555a.555.555,0,0,0,0,1.11h1.11v9.434A2.775,2.775,0,0,0,7.44,17.537h5.55a2.775,2.775,0,0,0,2.775-2.775V5.327h1.11a.555.555,0,1,0,0-1.11Zm-6.659-1.11a1.665,1.665,0,0,1,1.565,1.11H8.649a1.665,1.665,0,0,1,1.565-1.11Zm4.44,11.654a1.665,1.665,0,0,1-1.665,1.665H7.44a1.665,1.665,0,0,1-1.665-1.665V5.327h8.879ZM9.1,8.657V13.1a.555.555,0,0,1-1.11,0V8.657a.555.555,0,0,1,1.11,0Zm3.33,0V13.1a.555.555,0,0,1-1.11,0V8.657a.555.555,0,1,1,1.11,0Z" transform="translate(0)" stroke="#090b1e" stroke-width="0.3"/>
  </g>
</svg>
