<svg xmlns="http://www.w3.org/2000/svg" width="36" height="29.251" viewBox="0 0 36 29.251">
  <path id="speedometer_1_" data-name="speedometer (1)" d="M36,17.906A17.69,17.69,0,0,1,32.366,28.7a1.411,1.411,0,0,1-1.97.272,1.4,1.4,0,0,1-.273-1.96,14.92,14.92,0,0,0,3.065-9.1,15.188,15.188,0,0,0-30.375,0,14.921,14.921,0,0,0,3.065,9.1,1.4,1.4,0,0,1-.273,1.96,1.411,1.411,0,0,1-1.97-.272A17.691,17.691,0,0,1,0,17.906a18,18,0,0,1,36,0ZM26.91,9.477a1.4,1.4,0,0,1,0,1.979l-4.584,4.562a4.848,4.848,0,0,1,.592,2.326,4.915,4.915,0,1,1-2.581-4.306l4.584-4.562a1.411,1.411,0,0,1,1.989,0Zm-6.8,8.868A2.106,2.106,0,1,0,18,20.441,2.1,2.1,0,0,0,20.106,18.345Zm0,0" transform="translate(0)" fill="#090b1e"/>
</svg>
