<svg xmlns="http://www.w3.org/2000/svg" width="14.363" height="14.363" viewBox="0 0 14.363 14.363">
  <g id="Group_39294" data-name="Group 39294" transform="translate(-1496.02 -1496.02)">
    <path id="Path_30973" data-name="Path 30973" d="M3136.191,2622.713Z" transform="translate(-1628.436 -1118.633)" fill="#090b1e"/>
    <path id="Path_30974" data-name="Path 30974" d="M1863.451,2622.713Z" transform="translate(-364.803 -1118.633)" fill="#090b1e"/>
    <path id="Path_30975" data-name="Path 30975" d="M1503.2,1496.02a7.182,7.182,0,1,0,7.182,7.182A7.182,7.182,0,0,0,1503.2,1496.02Zm-.971,12.8c-.13-.017-.257-.039-.381-.066q-.143-.031-.281-.071l-.042-.014-.042-.014-.021-.007-.091-.031-.136-.049-.081-.031-.081-.031-.079-.032-.079-.033-.106-.049-.084-.041q-.174-.086-.343-.183l-.133-.078-.093-.056a4.545,4.545,0,0,1-2.169-2.987,1.964,1.964,0,0,1-.033-.214c0-.02,0-.04-.005-.06s0-.015,0-.022h0c0-.028,0-.056,0-.083h0c0-.01,0-.019,0-.029,0-.066,0-.132.006-.2,0-.034.006-.068.01-.1v-.008c0-.022.005-.043.009-.065.01-.068.023-.135.039-.2a1.5,1.5,0,0,1,.373-.152,3.237,3.237,0,0,1,.4-.081,7.712,7.712,0,0,1,1.061-.061c.167,0,.366.019.367.3a.2.2,0,0,0,.044.109,22.726,22.726,0,0,1,1.679,2.131,2.332,2.332,0,0,1,.107.6c.045.378.088.757.131,1.146.028.25.056.5.085.765Zm1.529-3.464q-.057.511-.116,1.022c-.086.666-.172,1.324-.264,1.981-.013.094-.112.177-.178.263-.066-.087-.165-.169-.178-.263-.092-.657-.178-1.315-.264-1.981q-.058-.511-.116-1.022a.507.507,0,0,1,.039-.167h1.038A.507.507,0,0,1,1503.759,1505.354Zm-.558-.854a1.141,1.141,0,1,1,1.141-1.141A1.141,1.141,0,0,1,1503.2,1504.5Zm5.258.165h0q0,.042,0,.083h0c0,.008,0,.015,0,.022s0,.04-.005.06a1.934,1.934,0,0,1-.033.214,4.545,4.545,0,0,1-2.169,2.987l-.093.056-.133.078q-.17.1-.344.183l-.084.041-.106.049-.08.033-.079.032-.081.031-.081.031-.136.049-.091.031-.021.007-.042.014-.042.014q-.138.04-.281.071-.186.041-.381.066l-.029,0c.029-.261.057-.515.085-.765.043-.389.085-.767.13-1.146a2.338,2.338,0,0,1,.107-.6,22.686,22.686,0,0,1,1.679-2.131.2.2,0,0,0,.044-.109c0-.284.2-.3.367-.3a7.714,7.714,0,0,1,1.061.061,3.246,3.246,0,0,1,.4.081,1.5,1.5,0,0,1,.373.152c.016.065.029.133.039.2,0,.021.006.043.009.065,0,0,0,.005,0,.008,0,.034.007.068.01.1,0,.066.007.132.006.2C1508.46,1504.647,1508.46,1504.656,1508.46,1504.666Zm-.545-2.878a22.136,22.136,0,0,0-4.686-.941h-.055a22.137,22.137,0,0,0-4.686.941c-.778.149-1.159.015-.856-.891a5.726,5.726,0,0,1,.584-1.061q.056-.08.113-.157l.057-.077.058-.076.088-.111.03-.036a6.46,6.46,0,0,1,.7-.724l.067-.059q.118-.1.239-.2l.035-.027.07-.053.035-.026.107-.076a5.624,5.624,0,0,1,.517-.319q.159-.085.32-.161a6.057,6.057,0,0,1,5.106,0q.161.076.32.161a5.609,5.609,0,0,1,.518.319l.107.076.035.026.07.053.035.027q.122.094.24.2l.067.059a6.46,6.46,0,0,1,.7.724l.03.036.088.111.058.076.057.077c.038.052.076.1.113.157a5.732,5.732,0,0,1,.583,1.061C1509.074,1501.8,1508.693,1501.937,1507.915,1501.788Z" fill="#090b1e"/>
  </g>
</svg>
