<svg xmlns="http://www.w3.org/2000/svg" width="64" height="64" viewBox="0 0 64 64">
  <g id="Group_40110" data-name="Group 40110" transform="translate(0.246 -0.335)">
    <g id="Ellipse_500" data-name="Ellipse 500" transform="translate(-0.246 0.335)" fill="none" stroke="#e9e9e9" stroke-width="1">
      <circle cx="32" cy="32" r="32" stroke="none"/>
      <circle cx="32" cy="32" r="31.5" fill="none"/>
    </g>
    <g id="copy" transform="translate(16.754 17.335)">
      <path id="Path_32348" data-name="Path 32348" d="M19.643,7H5.714A3.725,3.725,0,0,0,2,10.714V24.643a3.725,3.725,0,0,0,3.714,3.714H19.643a3.725,3.725,0,0,0,3.714-3.714V10.714A3.725,3.725,0,0,0,19.643,7Z" transform="translate(0 -0.357)" fill="#b5e3fc"/>
      <path id="Path_32349" data-name="Path 32349" d="M24.75,2H9.893a3.29,3.29,0,0,0-3.25,3.25V6.643H5.714A3.725,3.725,0,0,0,2,10.357V24.286A3.725,3.725,0,0,0,5.714,28H19.643a3.725,3.725,0,0,0,3.714-3.714v-.929H24.75A3.29,3.29,0,0,0,28,20.107V5.25A3.29,3.29,0,0,0,24.75,2ZM21.5,24.286a1.863,1.863,0,0,1-1.857,1.857H5.714a1.863,1.863,0,0,1-1.857-1.857V10.357A1.863,1.863,0,0,1,5.714,8.5H19.643A1.863,1.863,0,0,1,21.5,10.357Zm4.643-4.179A1.428,1.428,0,0,1,24.75,21.5H23.357V10.357a3.725,3.725,0,0,0-3.714-3.714H8.5V5.25A1.428,1.428,0,0,1,9.893,3.857H24.75A1.428,1.428,0,0,1,26.143,5.25Z" fill="#004eae"/>
    </g>
  </g>
</svg>
