<svg xmlns="http://www.w3.org/2000/svg" width="54.477" height="60.53" viewBox="0 0 54.477 60.53">
  <g id="transportation" transform="translate(0 0)">
    <path id="Path_32240" data-name="Path 32240" d="M64.332,103.491c0-10.352,3.9-18.159,9.079-18.159s9.079,7.807,9.079,18.159-3.9,18.159-9.079,18.159S64.332,113.843,64.332,103.491Zm15.132,0c0-8.661-3.195-15.132-6.053-15.132s-6.053,6.471-6.053,15.132,3.195,15.133,6.053,15.133S79.464,112.153,79.464,103.491Zm0,0" transform="translate(-37.094 -73.226)" fill="silver"/>
    <path id="Path_32241" data-name="Path 32241" d="M18.491,0H36.65C46.832,0,54.809,13.294,54.809,30.265S46.832,60.53,36.65,60.53H18.491C8.309,60.53.332,47.236.332,30.265S8.309,0,18.491,0ZM51.782,30.265c0-15.019-6.789-27.239-15.132-27.239S21.517,15.246,21.517,30.265,28.306,57.5,36.65,57.5,51.782,45.284,51.782,30.265ZM18.491,57.5h1.137a20.049,20.049,0,0,1-3.461-3.635,1.513,1.513,0,0,1,2.427-1.809c1.85,2.484,4.91,5.444,8.978,5.444h1.082c-6.06-4.851-10.161-15.087-10.161-27.239s4.1-22.387,10.161-27.239H27.57c-4.067,0-7.128,2.96-8.978,5.444a1.513,1.513,0,1,1-2.427-1.809,20.085,20.085,0,0,1,3.461-3.635H18.491c-8.344,0-15.133,12.219-15.133,27.239S10.147,57.5,18.491,57.5Zm0,0" transform="translate(-0.332 0)" fill="silver"/>
    <path id="Path_32242" data-name="Path 32242" d="M287.988,117.284a1.514,1.514,0,0,1-1.506,1.374c-.046,0-.093,0-.141-.006a1.514,1.514,0,0,1-1.368-1.646,45.672,45.672,0,0,1,1.819-9.392,1.514,1.514,0,1,1,2.89.9A42.5,42.5,0,0,0,287.988,117.284Zm0,0" transform="translate(-275.661 -91.42)" fill="silver"/>
    <path id="Path_32243" data-name="Path 32243" d="M286.382,234.668a1.512,1.512,0,0,1,1.646,1.369,42.5,42.5,0,0,0,1.695,8.768,1.515,1.515,0,0,1-.994,1.9,1.556,1.556,0,0,1-.451.068,1.515,1.515,0,0,1-1.445-1.062,45.7,45.7,0,0,1-1.819-9.392A1.516,1.516,0,0,1,286.382,234.668Zm0,0" transform="translate(-275.701 -201.371)" fill="silver"/>
  </g>
</svg>
