<svg xmlns="http://www.w3.org/2000/svg" width="19.349" height="19.348" viewBox="0 0 19.349 19.348">
  <path id="_9" data-name="9" d="M6.98,5.643l.049.005a5.471,5.471,0,0,0,.619.041,3.577,3.577,0,0,0,2.467-1.022,5.493,5.493,0,0,0,.409-.467l.031-.038c.179-.22.291-.358.38-.46a1.434,1.434,0,0,1,.106-.114.727.727,0,0,1,.919,0,1.429,1.429,0,0,1,.106.114c.088.1.2.239.38.46l.031.038h0a5.475,5.475,0,0,0,.409.466,3.577,3.577,0,0,0,2.467,1.022,5.468,5.468,0,0,0,.619-.041h0l.049-.005c.283-.029.459-.047.594-.057a1.411,1.411,0,0,1,.156-.006.727.727,0,0,1,.65.65,1.413,1.413,0,0,1-.006.155c-.009.134-.027.311-.057.594l-.005.049h0a5.486,5.486,0,0,0-.041.619,3.577,3.577,0,0,0,1.022,2.467,5.5,5.5,0,0,0,.466.409h0l.038.031c.22.179.358.291.46.38a1.431,1.431,0,0,1,.114.106.727.727,0,0,1,0,.919,1.43,1.43,0,0,1-.114.106c-.1.088-.239.2-.46.38l-.038.031h0a5.5,5.5,0,0,0-.466.409,3.577,3.577,0,0,0-1.022,2.467,5.486,5.486,0,0,0,.041.619h0l.005.049c.029.283.047.459.057.594a1.413,1.413,0,0,1,.006.156.727.727,0,0,1-.65.65,1.414,1.414,0,0,1-.156-.006c-.134-.009-.311-.027-.594-.057l-.049-.005a5.464,5.464,0,0,0-.619-.041,3.577,3.577,0,0,0-2.467,1.022,5.466,5.466,0,0,0-.409.466h0l-.031.038c-.179.22-.291.358-.38.46a1.4,1.4,0,0,1-.106.114.727.727,0,0,1-.919,0,1.4,1.4,0,0,1-.106-.114c-.088-.1-.2-.239-.38-.46l-.031-.038a5.468,5.468,0,0,0-.409-.467,3.577,3.577,0,0,0-2.467-1.022,5.464,5.464,0,0,0-.619.041l-.049.005c-.283.029-.459.047-.594.057a1.412,1.412,0,0,1-.155.006.727.727,0,0,1-.65-.65,1.415,1.415,0,0,1,.006-.155c.009-.134.027-.311.057-.594l.005-.049a5.47,5.47,0,0,0,.041-.619,3.577,3.577,0,0,0-1.022-2.467,5.475,5.475,0,0,0-.466-.409h0l-.038-.031c-.22-.179-.358-.291-.46-.38a1.418,1.418,0,0,1-.114-.106.727.727,0,0,1,0-.919,1.415,1.415,0,0,1,.114-.106c.1-.088.239-.2.46-.38l.038-.031h0a5.458,5.458,0,0,0,.466-.409A3.577,3.577,0,0,0,5.689,7.648a5.471,5.471,0,0,0-.041-.619L5.643,6.98c-.029-.283-.047-.459-.057-.594a1.416,1.416,0,0,1-.006-.155.727.727,0,0,1,.65-.65,1.411,1.411,0,0,1,.155.006c.134.009.311.027.594.057Zm-1.4.588h0ZM3.589,11.96h0Zm2.642,5.46h0Zm5.729,1.992h0Zm7.452-8.371h0ZM16.769,5.581h0ZM11.04,3.589h0ZM9.449,3.264h0a5.837,5.837,0,0,1,.689-.777,2.152,2.152,0,0,1,2.725,0,5.838,5.838,0,0,1,.689.777h0a4.752,4.752,0,0,0,.331.386,2.152,2.152,0,0,0,1.484.615,4.741,4.741,0,0,0,.507-.039,5.832,5.832,0,0,1,1.037-.063A2.152,2.152,0,0,1,18.837,6.09a5.831,5.831,0,0,1-.063,1.037,4.727,4.727,0,0,0-.039.507,2.152,2.152,0,0,0,.615,1.484,4.736,4.736,0,0,0,.386.331h0a5.829,5.829,0,0,1,.777.689,2.152,2.152,0,0,1,0,2.725,5.827,5.827,0,0,1-.777.689h0a4.731,4.731,0,0,0-.386.331,2.152,2.152,0,0,0-.615,1.484,4.726,4.726,0,0,0,.039.507,5.831,5.831,0,0,1,.063,1.037,2.152,2.152,0,0,1-1.927,1.927,5.835,5.835,0,0,1-1.037-.063,4.753,4.753,0,0,0-.507-.039,2.152,2.152,0,0,0-1.484.615,4.763,4.763,0,0,0-.331.386h0a5.838,5.838,0,0,1-.689.777,2.152,2.152,0,0,1-2.725,0,5.838,5.838,0,0,1-.689-.777h0a4.756,4.756,0,0,0-.331-.386,2.152,2.152,0,0,0-1.484-.615,4.754,4.754,0,0,0-.507.039,5.834,5.834,0,0,1-1.037.063A2.152,2.152,0,0,1,4.163,16.91a5.831,5.831,0,0,1,.063-1.037,4.743,4.743,0,0,0,.039-.507,2.152,2.152,0,0,0-.615-1.484,4.736,4.736,0,0,0-.386-.331h0a5.824,5.824,0,0,1-.777-.689,2.152,2.152,0,0,1,0-2.725,5.826,5.826,0,0,1,.777-.689h0a4.743,4.743,0,0,0,.386-.331,2.152,2.152,0,0,0,.615-1.484,4.743,4.743,0,0,0-.039-.507h0A5.831,5.831,0,0,1,4.163,6.09,2.152,2.152,0,0,1,6.09,4.163a5.831,5.831,0,0,1,1.037.063h0a4.741,4.741,0,0,0,.507.039,2.152,2.152,0,0,0,1.484-.615,4.742,4.742,0,0,0,.331-.386Zm5.405,6.84A.712.712,0,0,0,13.846,9.1l-3.3,3.3L9.154,11A.712.712,0,0,0,8.146,12l1.9,1.9a.712.712,0,0,0,1.008,0Z" transform="translate(-1.826 -1.826)" fill="#090b1e" stroke="#090b1e" stroke-width="0.2" fill-rule="evenodd" opacity="0.9"/>
</svg>
