<svg xmlns="http://www.w3.org/2000/svg" width="17" height="17" viewBox="0 0 17 17">
  <path id="_22" data-name="22" d="M3.32,3.753a.664.664,0,0,1,.664-.664h9.031a.664.664,0,1,1,0,1.328H3.984A.664.664,0,0,1,3.32,3.753ZM13.679,6.409a.664.664,0,0,0-.664-.664H3.984a.664.664,0,0,0,0,1.328h9.031A.664.664,0,0,0,13.679,6.409ZM3.984,8.4a.664.664,0,0,0,0,1.328H7.039a.664.664,0,0,0,0-1.328Zm12.433,5.2A1.992,1.992,0,0,1,13.6,16.417L9.967,12.779a.663.663,0,0,1-.17-.292l-.743-2.68a.664.664,0,0,1,.833-.813l2.614.794a.663.663,0,0,1,.277.166Zm-5.386-1.636,2.441,2.445.939-.939-2.455-2.46-1.3-.395Zm4.446,2.575-.128-.128-.939.939.128.129a.664.664,0,0,0,.939-.94ZM14.343,0H2.656A2.659,2.659,0,0,0,0,2.657V14.344A2.659,2.659,0,0,0,2.656,17H10.79a.664.664,0,0,0,0-1.328H2.656a1.33,1.33,0,0,1-1.328-1.328V2.657A1.33,1.33,0,0,1,2.656,1.329H14.343a1.33,1.33,0,0,1,1.328,1.328v8.168a.664.664,0,0,0,1.328,0V2.657A2.659,2.659,0,0,0,14.343,0Zm0,0" transform="translate(0.001 -0.001)" fill="#090b1e"/>
</svg>
