<svg xmlns="http://www.w3.org/2000/svg" width="66.699" height="61.488" viewBox="0 0 66.699 61.488">
  <g id="Group_42534" data-name="Group 42534" transform="translate(-544.838 -273.912)">
    <g id="gallery_1_" data-name="gallery (1)" transform="translate(544.838 273.912)">
      <g id="Layer_50" data-name="Layer 50" transform="translate(0 0)">
        <path id="Path_41294" data-name="Path 41294" d="M47.464,49.362a1.436,1.436,0,0,0-1.143-.543,1.4,1.4,0,0,0-1.115.6L37.657,60.2,22.373,38.859a1.4,1.4,0,0,0-2.418.236L2.586,77.244a1.4,1.4,0,0,0,1.277,1.984H67.756a1.4,1.4,0,0,0,1.109-2.263ZM6.044,76.423,21.5,42.465,36.53,63.445a1.4,1.4,0,0,0,1.141.586h.008a1.4,1.4,0,0,0,1.142-.6l7.593-10.847L64.894,76.423Z" transform="translate(-2.46 -17.74)"/>
        <path id="Path_41295" data-name="Path 41295" d="M61.1,26A11.328,11.328,0,1,0,49.769,14.673,11.328,11.328,0,0,0,61.1,26Zm0-19.85a8.522,8.522,0,1,1-8.522,8.522A8.522,8.522,0,0,1,61.1,6.151Z" transform="translate(-18.566 -3.345)"/>
      </g>
    </g>
  </g>
</svg>
