<svg xmlns="http://www.w3.org/2000/svg" width="15.465" height="19" viewBox="0 0 15.465 19">
  <g id="Group_42672" data-name="Group 42672" transform="translate(-22 -639.25)">
    <path id="Path_41339" data-name="Path 41339" d="M18.715,17.82a2.429,2.429,0,0,1-2.43,2.43H5.68a2.429,2.429,0,0,1-2.43-2.43V3.68A2.429,2.429,0,0,1,5.68,1.25h7.588a1.543,1.543,0,0,1,1.093.453l3.9,3.9A1.543,1.543,0,0,1,18.715,6.7Zm-1.326,0V6.7a.221.221,0,0,0-.065-.156l-3.9-3.9a.221.221,0,0,0-.156-.065H5.68a1.1,1.1,0,0,0-1.1,1.1V17.82a1.1,1.1,0,0,0,1.1,1.1h10.6a1.1,1.1,0,0,0,1.1-1.1Z" transform="translate(18.75 638)" fill="#090b1e" fill-rule="evenodd"/>
    <path id="Path_41340" data-name="Path 41340" d="M14.25,2.413a.663.663,0,0,1,1.326,0V5.506a.221.221,0,0,0,.221.221H18.89a.663.663,0,0,1,0,1.326H15.8A1.546,1.546,0,0,1,14.25,5.506Z" transform="translate(17.471 637.942)" fill="#090b1e" fill-rule="evenodd"/>
    <path id="Path_41341" data-name="Path 41341" d="M7.913,11.076a.663.663,0,1,1,0-1.326h7.07a.663.663,0,1,1,0,1.326Z" transform="translate(18.286 637.012)" fill="#090b1e" fill-rule="evenodd"/>
    <path id="Path_41342" data-name="Path 41342" d="M7.913,14.576a.663.663,0,1,1,0-1.326h7.07a.663.663,0,1,1,0,1.326Z" transform="translate(18.286 636.605)" fill="#090b1e" fill-rule="evenodd"/>
    <path id="Path_41343" data-name="Path 41343" d="M7.913,18.076a.663.663,0,0,1,0-1.326H11.89a.663.663,0,0,1,0,1.326Z" transform="translate(18.286 636.198)" fill="#090b1e" fill-rule="evenodd"/>
  </g>
</svg>
