<svg id="n" xmlns="http://www.w3.org/2000/svg" width="19" height="18" viewBox="0 0 19 18">
  <g id="Group_39783" data-name="Group 39783" transform="translate(0)">
    <g id="Path_32099" data-name="Path 32099" transform="translate(-2.25 -3.25)" fill="none">
      <path d="M16.622,4.223h-.244V3.98a.731.731,0,0,0-1.462,0v.243H8.583V3.98a.731.731,0,0,0-1.462,0v.243H6.878A4.629,4.629,0,0,0,2.25,8.845v7.784A4.629,4.629,0,0,0,6.878,21.25h9.744a4.629,4.629,0,0,0,4.628-4.622V8.845A4.629,4.629,0,0,0,16.622,4.223Z" stroke="none"/>
      <path d="M 6.878200531005859 5.722970962524414 C 5.153299331665039 5.722970962524414 3.75 7.123321533203125 3.75 8.84459114074707 L 3.75 16.62837982177734 C 3.75 18.34965133666992 5.153299331665039 19.75 6.878200531005859 19.75 L 16.62179946899414 19.75 C 18.34670066833496 19.75 19.75 18.34965133666992 19.75 16.62837982177734 L 19.75 8.84459114074707 C 19.75 7.123321533203125 18.34670066833496 5.722970962524414 16.62179946899414 5.722970962524414 L 6.878200531005859 5.722970962524414 M 7.852560043334961 3.250001907348633 C 8.252050399780273 3.250001907348633 8.583330154418945 3.580810546875 8.583330154418945 3.979730606079102 L 8.583330154418945 4.222970962524414 L 14.91666984558105 4.222970962524414 L 14.91666984558105 3.979730606079102 C 14.91666984558105 3.580810546875 15.24794960021973 3.250001907348633 15.64743995666504 3.250001907348633 C 16.04693031311035 3.250001907348633 16.37821006774902 3.580810546875 16.37821006774902 3.979730606079102 L 16.37821006774902 4.222970962524414 L 16.62179946899414 4.222970962524414 C 19.17461967468262 4.222970962524414 21.25 6.29541015625 21.25 8.84459114074707 L 21.25 16.62837982177734 C 21.25 19.17757034301758 19.17461967468262 21.25 16.62179946899414 21.25 L 6.878200531005859 21.25 C 4.325389862060547 21.25 2.25 19.17757034301758 2.25 16.62837982177734 L 2.25 8.84459114074707 C 2.25 6.29541015625 4.325389862060547 4.222970962524414 6.878200531005859 4.222970962524414 L 7.121799468994141 4.222970962524414 L 7.121799468994141 3.979730606079102 C 7.121799468994141 3.580810546875 7.453079223632812 3.250001907348633 7.852560043334961 3.250001907348633 Z" stroke="none" fill="#090b1e"/>
    </g>
    <circle id="Ellipse_469" data-name="Ellipse 469" cx="1" cy="1" r="1" transform="translate(4.857 7.254)" fill="#090b1e" stroke="#090b1e" stroke-width="0.3"/>
    <circle id="Ellipse_474" data-name="Ellipse 474" cx="1" cy="1" r="1" transform="translate(4.857 11.133)" fill="#090b1e" stroke="#090b1e" stroke-width="0.3"/>
    <circle id="Ellipse_470" data-name="Ellipse 470" cx="1" cy="1" r="1" transform="translate(8.743 7.254)" fill="#090b1e" stroke="#090b1e" stroke-width="0.3"/>
    <circle id="Ellipse_473" data-name="Ellipse 473" cx="1" cy="1" r="1" transform="translate(8.743 11.133)" fill="#090b1e" stroke="#090b1e" stroke-width="0.3"/>
    <circle id="Ellipse_471" data-name="Ellipse 471" cx="1" cy="1" r="1" transform="translate(12.629 7.254)" fill="#090b1e" stroke="#090b1e" stroke-width="0.3"/>
    <circle id="Ellipse_472" data-name="Ellipse 472" cx="1" cy="1" r="1" transform="translate(12.629 11.133)" fill="#090b1e" stroke="#090b1e" stroke-width="0.3"/>
  </g>
</svg>
