<svg xmlns="http://www.w3.org/2000/svg" width="19" height="18.991" viewBox="0 0 19 18.991">
  <g id="manage_fare" transform="translate(-1.981 -2)">
    <path id="Path_32945" data-name="Path 32945" d="M15.556,2c-2.7,0-5.425.932-5.425,2.712V9.137a6.1,6.1,0,1,0,1.222,10.9,8.557,8.557,0,0,0,4.2.951c2.7,0,5.425-.932,5.425-2.712V4.712C20.981,2.932,18.252,2,15.556,2Zm0,1.356c2.524,0,4.069.878,4.069,1.356S18.08,6.069,15.556,6.069s-4.069-.878-4.069-1.356S13.032,3.356,15.556,3.356ZM3.35,14.884A4.747,4.747,0,1,1,8.1,19.631,4.747,4.747,0,0,1,3.35,14.884Zm12.206,4.747A8.2,8.2,0,0,1,12.5,19.1a6.119,6.119,0,0,0,1.142-1.678,10.981,10.981,0,0,0,1.917.172,8.945,8.945,0,0,0,4.069-.86v1.538C19.625,18.753,18.08,19.631,15.556,19.631Zm0-3.391a9.744,9.744,0,0,1-1.482-.121,5.866,5.866,0,0,0,.071-2.011,11.249,11.249,0,0,0,1.411.1,8.945,8.945,0,0,0,4.069-.86v1.538C19.625,15.362,18.08,16.24,15.556,16.24Zm0-3.391a9.6,9.6,0,0,1-1.772-.163,6.126,6.126,0,0,0-1.79-2.494,9.688,9.688,0,0,0,3.562.624,8.945,8.945,0,0,0,4.069-.86v1.538C19.625,11.972,18.08,12.85,15.556,12.85Zm0-3.391c-2.524,0-4.069-.878-4.069-1.356V6.565a8.945,8.945,0,0,0,4.069.86,8.945,8.945,0,0,0,4.069-.86V8.1C19.625,8.581,18.08,9.459,15.556,9.459Z" transform="translate(0)" fill="#090b1e"/>
    <path id="Path_32946" data-name="Path 32946" d="M10.645,17.315a.663.663,0,0,1-.268-.056.614.614,0,0,1-.32-.825l2.151-4.569a.657.657,0,0,1,.854-.309.614.614,0,0,1,.32.825L11.232,16.95A.646.646,0,0,1,10.645,17.315Z" transform="translate(-3.328 0.567)" fill="#090b1e"/>
    <path id="Path_32947" data-name="Path 32947" d="M9.86,13.161a.831.831,0,1,1,.86-.831A.847.847,0,0,1,9.86,13.161Z" transform="translate(-3.189 1.449)" fill="#090b1e"/>
    <path id="Path_32948" data-name="Path 32948" d="M13.86,18.161a.831.831,0,1,1,.86-.831A.847.847,0,0,1,13.86,18.161Z" transform="translate(-3.748 -1.161)" fill="#090b1e"/>
  </g>
</svg>
