<svg xmlns="http://www.w3.org/2000/svg" width="16.424" height="19.4" viewBox="0 0 16.424 19.4">
  <g id="Group_42669" data-name="Group 42669" transform="translate(-20.8 -330.8)">
    <path id="Path_22662" data-name="Path 22662" d="M91.925,9.787a4.735,4.735,0,0,0,3.46-1.434,4.735,4.735,0,0,0,1.434-3.46,4.736,4.736,0,0,0-1.434-3.46,4.892,4.892,0,0,0-6.92,0,4.735,4.735,0,0,0-1.434,3.46,4.735,4.735,0,0,0,1.434,3.46A4.737,4.737,0,0,0,91.925,9.787ZM89.307,2.276a3.7,3.7,0,0,1,5.236,0,3.538,3.538,0,0,1,1.085,2.618,3.538,3.538,0,0,1-1.085,2.618,3.7,3.7,0,0,1-5.236,0,3.537,3.537,0,0,1-1.085-2.618,3.537,3.537,0,0,1,1.085-2.618Zm0,0" transform="translate(-62.914 331)" fill="#171e14" stroke="#171e14" stroke-width="0.4"/>
    <path id="Path_22663" data-name="Path 22663" d="M15.985,252.4a9.821,9.821,0,0,0-.156-1.123,8.3,8.3,0,0,0-.3-1.129,5.375,5.375,0,0,0-.5-1.053,4.023,4.023,0,0,0-.756-.912,3.384,3.384,0,0,0-1.087-.632,4.026,4.026,0,0,0-1.387-.232,1.473,1.473,0,0,0-.752.3c-.225.136-.489.293-.783.467a4.679,4.679,0,0,1-1.013.413,4.238,4.238,0,0,1-2.479,0,4.664,4.664,0,0,1-1.013-.413c-.291-.172-.555-.33-.784-.467a1.472,1.472,0,0,0-.752-.295,4.021,4.021,0,0,0-1.387.233,3.38,3.38,0,0,0-1.087.632,4.023,4.023,0,0,0-.756.912,5.384,5.384,0,0,0-.5,1.053,8.323,8.323,0,0,0-.3,1.129A9.755,9.755,0,0,0,.038,252.4c-.025.339-.038.692-.038,1.049a2.839,2.839,0,0,0,.947,2.232,3.574,3.574,0,0,0,2.441.824h9.248a3.574,3.574,0,0,0,2.441-.824,2.838,2.838,0,0,0,.947-2.232c0-.358-.013-.711-.039-1.05ZM14.3,254.924a2.41,2.41,0,0,1-1.665.537H3.388a2.41,2.41,0,0,1-1.665-.537,1.85,1.85,0,0,1-.6-1.478c0-.333.012-.662.036-.977a8.8,8.8,0,0,1,.141-1.011,7.338,7.338,0,0,1,.262-1,4.382,4.382,0,0,1,.408-.856,2.981,2.981,0,0,1,.556-.674,2.246,2.246,0,0,1,.723-.416,2.774,2.774,0,0,1,.886-.158c.039.019.11.056.223.125.231.14.5.3.793.473a5.805,5.805,0,0,0,1.272.526,5.449,5.449,0,0,0,3.171,0,5.811,5.811,0,0,0,1.273-.526c.3-.178.561-.333.792-.473.114-.068.184-.106.223-.125a2.776,2.776,0,0,1,.887.158,2.249,2.249,0,0,1,.723.416,2.972,2.972,0,0,1,.556.674,4.37,4.37,0,0,1,.408.856,7.327,7.327,0,0,1,.263,1,8.872,8.872,0,0,1,.141,1.012h0c.024.314.036.643.036.977a1.85,1.85,0,0,1-.6,1.478Zm0,0" transform="translate(21 93.498)" fill="#171e14" stroke="#171e14" stroke-width="0.4"/>
  </g>
</svg>
