<svg xmlns="http://www.w3.org/2000/svg" width="19" height="19" viewBox="0 0 19 19">
  <g id="Group_42670" data-name="Group 42670" transform="translate(-20 -375)">
    <path id="XMLID_122_" d="M15.357,14A1.357,1.357,0,1,1,14,15.357,1.357,1.357,0,0,1,15.357,14Z" transform="translate(14.142 369.143)" fill="#090b1e"/>
    <path id="XMLID_124_" d="M2,11.5A9.5,9.5,0,1,0,11.5,2,9.531,9.531,0,0,0,2,11.5Zm17.6.8-4.009.364a3.386,3.386,0,0,0-3.045,2.864l-.63,4.091a3.906,3.906,0,0,1-.826,0l-.63-4.091a3.387,3.387,0,0,0-3.045-2.864L3.4,12.3a5.935,5.935,0,0,1-.02-1.3,22.4,22.4,0,0,1,16.236,0A6.028,6.028,0,0,1,19.6,12.3ZM3.665,13.69l3.624.329a2.032,2.032,0,0,1,1.827,1.717l.569,3.695A8.162,8.162,0,0,1,3.665,13.69Zm9.651,5.742.569-3.695a2.032,2.032,0,0,1,1.827-1.717l3.624-.329A8.162,8.162,0,0,1,13.315,19.432ZM11.5,3.357a8.149,8.149,0,0,1,7.878,6.117,23.613,23.613,0,0,0-15.755,0A8.149,8.149,0,0,1,11.5,3.357Z" transform="translate(18 373)" fill="#090b1e"/>
  </g>
</svg>
