<svg xmlns="http://www.w3.org/2000/svg" width="18.486" height="22" viewBox="0 0 18.486 22">
  <g id="Group_42671" data-name="Group 42671" transform="translate(-22 -463)">
    <path id="Path_41337" data-name="Path 41337" d="M35.574,5.665c-.011-.594-.022-1.155-.022-1.7a.77.77,0,0,0-.77-.77A10.618,10.618,0,0,1,26.891.218a.77.77,0,0,0-1.074,0A10.616,10.616,0,0,1,17.928,3.2a.77.77,0,0,0-.77.77c0,.543-.011,1.1-.022,1.7-.106,5.528-.25,13.1,8.967,16.292a.769.769,0,0,0,.5,0C35.824,18.763,35.68,11.193,35.574,5.665Zm-9.22,14.748c-7.9-2.871-7.785-9.162-7.679-14.718.006-.333.013-.657.017-.974a11.875,11.875,0,0,0,7.662-2.9,11.876,11.876,0,0,0,7.663,2.9c0,.317.01.64.017.973C34.14,11.251,34.26,17.542,26.354,20.413Z" transform="translate(4.889 463)" fill="#090b1e"/>
    <path id="coins" d="M9.309,5.121a1.293,1.293,0,0,0,.059-.356V3.092C9.368,1.9,7.569,1,5.184,1S1,1.9,1,3.092V4.766a1.628,1.628,0,0,0,.9,1.322,1.1,1.1,0,0,0-.059.351V8.113c0,1.192,1.8,2.092,4.184,2.092s4.184-.9,4.184-2.092V6.439A1.615,1.615,0,0,0,9.309,5.121ZM5.184,6.857A5.711,5.711,0,0,0,8.841,5.811c.335.2.527.418.527.628,0,.51-1.305,1.255-3.347,1.255S2.711,6.97,2.674,6.46a7.426,7.426,0,0,0,2.51.4Zm0-5.021c2.042,0,3.347.745,3.347,1.255S7.226,4.347,5.184,4.347,1.837,3.6,1.837,3.092,3.142,1.837,5.184,1.837ZM1.837,4.372a6.247,6.247,0,0,0,3.347.812,6.247,6.247,0,0,0,3.347-.812v.393c0,.51-1.305,1.255-3.347,1.255S1.837,5.276,1.837,4.766Zm4.184,5c-2.042,0-3.347-.745-3.347-1.255V7.719a6.247,6.247,0,0,0,3.347.812,6.247,6.247,0,0,0,3.347-.812v.393C9.368,8.623,8.062,9.368,6.021,9.368Z" transform="translate(25.801 468.398)" fill="#090b1e" stroke="#090b1e" stroke-width="0.25"/>
  </g>
</svg>
