<svg xmlns="http://www.w3.org/2000/svg" width="13.252" height="13.252" viewBox="0 0 13.252 13.252">
  <path id="upload" d="M7.013,1.171a.584.584,0,0,1,.826,0L10.76,4.092a.584.584,0,0,1-.826.826L8.01,2.994v7.936a.584.584,0,1,1-1.168,0V2.994L4.918,4.918a.584.584,0,0,1-.826-.826ZM2.168,8.01A.584.584,0,0,0,1,8.01V12.1a1.752,1.752,0,0,0,1.752,1.752H12.1A1.752,1.752,0,0,0,13.852,12.1V8.01a.584.584,0,0,0-1.168,0V12.1a.584.584,0,0,1-.584.584H2.752a.584.584,0,0,1-.584-.584Z" transform="translate(-0.8 -0.8)" fill="#1852d8" stroke="#1852d8" stroke-width="0.4" fill-rule="evenodd"/>
</svg>
