<svg xmlns="http://www.w3.org/2000/svg" width="16.615" height="16.5" viewBox="0 0 16.615 16.5">
  <g id="edit" transform="translate(0.25 0.246)">
    <g id="Group_39944" data-name="Group 39944" transform="translate(0 0.861)">
      <g id="Group_39943" data-name="Group 39943">
        <path id="Path_32244" data-name="Path 32244" d="M13.69,41.126a.589.589,0,0,0-.6.582v5.824a.589.589,0,0,1-.6.582H1.786a.589.589,0,0,1-.6-.582V35.884a.589.589,0,0,1,.6-.582H8.928a.583.583,0,1,0,0-1.165H1.786A1.767,1.767,0,0,0,0,35.884V47.532A1.767,1.767,0,0,0,1.786,49.28H12.5a1.767,1.767,0,0,0,1.786-1.747V41.708A.589.589,0,0,0,13.69,41.126Z" transform="translate(0 -34.137)" fill="#fff" stroke="#fff" stroke-width="0.5"/>
      </g>
    </g>
    <g id="Group_39946" data-name="Group 39946" transform="translate(6.571 0.004)">
      <g id="Group_39945" data-name="Group 39945" transform="translate(0 0)">
        <path id="Path_32245" data-name="Path 32245" d="M111.357.484a1.641,1.641,0,0,0-2.321,0L103.391,6.13a.433.433,0,0,0-.1.168l-.857,2.572a.429.429,0,0,0,.406.564.435.435,0,0,0,.135-.022l2.572-.857a.429.429,0,0,0,.168-.1L111.357,2.8A1.641,1.641,0,0,0,111.357.484ZM110.751,2.2l-5.572,5.572-1.665.556.554-1.663,5.574-5.572A.783.783,0,1,1,110.751,2.2Z" transform="translate(-102.409 -0.004)" fill="#fff" stroke="#fff" stroke-width="0.5"/>
      </g>
    </g>
  </g>
</svg>
