<svg id="email" xmlns="http://www.w3.org/2000/svg" width="20" height="20" viewBox="0 0 20 20">
  <g id="Group_12395" data-name="Group 12395" transform="translate(0 0)">
    <path id="Path_22515" data-name="Path 22515" d="M19.414,20H.586A.586.586,0,0,1,0,19.414V8.4a.586.586,0,0,1,.212-.451L9.626.135a.586.586,0,0,1,.748,0l9.414,7.812A.586.586,0,0,1,20,8.4V19.414A.586.586,0,0,1,19.414,20Z" transform="translate(0 0)" fill="#ffcd14"/>
    <path id="Path_22516" data-name="Path 22516" d="M265.243,7.948,256.353.135A.534.534,0,0,0,256,0V20h8.889a.57.57,0,0,0,.553-.586V8.4A.6.6,0,0,0,265.243,7.948Z" transform="translate(-245.443 0)" fill="#ffb400"/>
  </g>
  <path id="Path_22517" data-name="Path 22517" d="M85.164,71.8H71.6a.577.577,0,0,1-.6-.553v-10.7A.577.577,0,0,1,71.6,60H85.164a.577.577,0,0,1,.6.553v10.7A.577.577,0,0,1,85.164,71.8Z" transform="translate(-68.381 -57.787)" fill="#dcf5fa"/>
  <path id="Path_22518" data-name="Path 22518" d="M262.271,60H256V71.8h6.271a.553.553,0,0,0,.553-.553v-10.7A.553.553,0,0,0,262.271,60Z" transform="translate(-245.443 -57.787)" fill="#bedce6"/>
  <g id="Group_12397" data-name="Group 12397" transform="translate(6.518 4.639)">
    <path id="Path_22519" data-name="Path 22519" d="M168.452,117.477l0-.011a3.5,3.5,0,1,0-5.51,3.775,3.532,3.532,0,0,0,2.058.741h.01a.369.369,0,0,0,.01-.738,2.767,2.767,0,0,1-.763-5.4,2.766,2.766,0,0,1,3.487,1.831,2.421,2.421,0,0,1-.15,1.61.816.816,0,0,1-.749.556.283.283,0,0,1-.193-.09.451.451,0,0,1-.126-.315l0-.924c0-.025,0-.051,0-.076s0-.032,0-.048l.008-1.7a.369.369,0,0,0-.367-.371h0a.369.369,0,0,0-.369.367v.127a1.437,1.437,0,0,0-.85-.271,1.782,1.782,0,0,0-1.681,1.908,1.835,1.835,0,0,0,1.647,1.974,1.437,1.437,0,0,0,1.009-.425,1.156,1.156,0,0,0,.2.276,1.008,1.008,0,0,0,.715.307,1.55,1.55,0,0,0,1.435-1.021A3.141,3.141,0,0,0,168.452,117.477Zm-3.538,2.2c-.437,0-.91-.473-.91-1.237a1.059,1.059,0,0,1,.943-1.17c.483,0,.824.452.842,1.1v.126C165.764,119.16,165.381,119.681,164.915,119.681Z" transform="translate(-161.59 -114.972)" fill="#696969"/>
    <g id="Group_12396" data-name="Group 12396" transform="translate(3.482 0)">
      <path id="Path_22520" data-name="Path 22520" d="M256.3,285.543a.369.369,0,0,0-.3-.373v.725A.369.369,0,0,0,256.3,285.543Z" transform="translate(-256 -278.892)" fill="#555"/>
      <path id="Path_22521" data-name="Path 22521" d="M259.375,117.469A3.509,3.509,0,0,0,256,114.976v.738a2.77,2.77,0,0,1,2.668,1.962,2.421,2.421,0,0,1-.15,1.61.816.816,0,0,1-.749.556.283.283,0,0,1-.192-.09.451.451,0,0,1-.126-.315l0-.924c0-.025,0-.051,0-.076s0-.032,0-.048l.008-1.7a.369.369,0,0,0-.367-.371h0a.369.369,0,0,0-.369.367v.127a1.428,1.428,0,0,0-.725-.266v.743c.416.071.7.5.717,1.094v.126a1.184,1.184,0,0,1-.717,1.155v.749a1.456,1.456,0,0,0,.851-.415,1.157,1.157,0,0,0,.2.276,1.008,1.008,0,0,0,.715.307,1.55,1.55,0,0,0,1.435-1.021,3.141,3.141,0,0,0,.176-2.079Z" transform="translate(-255.999 -114.976)" fill="#555"/>
    </g>
  </g>
  <path id="Path_22522" data-name="Path 22522" d="M19.414,211.508H.586A.57.57,0,0,1,0,210.955v-10.4a.549.549,0,0,1,.3-.484.616.616,0,0,1,.594.014l9.1,5.351,9.1-5.351a.616.616,0,0,1,.594-.014.549.549,0,0,1,.3.484v10.4A.57.57,0,0,1,19.414,211.508Z" transform="translate(0 -191.508)" fill="#f7ad1a"/>
  <path id="Path_22523" data-name="Path 22523" d="M265.158,200.069a.553.553,0,0,0-.561.014l-8.6,5.351v6.074h8.889a.553.553,0,0,0,.553-.553v-10.4A.553.553,0,0,0,265.158,200.069Z" transform="translate(-245.443 -191.508)" fill="#ffcd14"/>
</svg>
