<svg xmlns="http://www.w3.org/2000/svg" width="40" height="40" viewBox="0 0 40 40">
  <g id="Group_12455" data-name="Group 12455" transform="translate(-38 -572)">
    <g id="Rectangle_1377" data-name="Rectangle 1377" transform="translate(38 572)" fill="none" stroke="#e0e0e0" stroke-width="1">
      <rect width="40" height="40" rx="20" stroke="none"/>
      <rect x="0.5" y="0.5" width="39" height="39" rx="19.5" fill="none"/>
    </g>
    <g id="facebook1" transform="translate(47.468 581.468)">
      <path id="Path_22538" data-name="Path 22538" d="M21.065,10.532a10.535,10.535,0,0,1-8.887,10.4v-7.36h2.454l.467-3.044H12.178V8.557a1.522,1.522,0,0,1,1.716-1.645h1.328V4.32a16.2,16.2,0,0,0-2.358-.206c-2.406,0-3.978,1.458-3.978,4.1v2.32H6.212v3.044H8.887v7.36a10.533,10.533,0,1,1,12.178-10.4Z" fill="#1877f2"/>
      <path id="Path_22539" data-name="Path 22539" d="M159.42,109.463l.467-3.045h-2.921v-1.976a1.522,1.522,0,0,1,1.716-1.645h1.328v-2.592a16.2,16.2,0,0,0-2.358-.206c-2.406,0-3.978,1.458-3.978,4.1v2.32H151v3.045h2.674v7.36a10.644,10.644,0,0,0,3.291,0v-7.36Z" transform="translate(-144.788 -95.886)" fill="#fff"/>
    </g>
  </g>
</svg>
