<svg xmlns="http://www.w3.org/2000/svg" width="16.76" height="31" viewBox="0 0 16.76 31">
  <path id="Icon_11_" d="M33.048,27.5c-.122,0-2.674,0-3.851,0-.606,0-.822-.218-.822-.828q0-2.35,0-4.7c0-.6.229-.832.827-.832h3.846c0-.107,0-2.369,0-3.411a8.505,8.505,0,0,1,1.058-4.364,6.424,6.424,0,0,1,3.46-2.875A8.554,8.554,0,0,1,40.532,10q1.905,0,3.811,0c.546,0,.788.242.789.792q0,2.21,0,4.421c0,.556-.233.779-.791.785-1.041.011-2.083,0-3.123.046a1.415,1.415,0,0,0-1.6,1.6c-.025,1.15-.01,2.3-.01,3.493H44.09c.635,0,.852.218.852.856q0,2.337,0,4.675c0,.629-.2.83-.843.83H39.591V40.113c0,.672-.212.887-.875.887H33.864c-.586,0-.815-.228-.815-.814C33.048,36.078,33.048,27.646,33.048,27.5Z" transform="translate(-28.374 -9.999)" fill="#3d6ad6"/>
</svg>
