<svg xmlns="http://www.w3.org/2000/svg" width="18.85" height="16.553" viewBox="0 0 18.85 16.553">
  <g id="gallery" transform="translate(0.151 -26.423)">
    <g id="Group_39649" data-name="Group 39649" transform="translate(0 26.576)">
      <g id="Group_39648" data-name="Group 39648" transform="translate(0 0)">
        <path id="Path_31425" data-name="Path 31425" d="M175.88,159.668a1.891,1.891,0,1,0,1.891,1.891A1.891,1.891,0,0,0,175.88,159.668Zm0,2.882a.991.991,0,1,1,0-1.981h0a.991.991,0,1,1,0,1.981Z" transform="translate(-166.491 -153.932)" fill="#090b1e" stroke="#090b1e" stroke-width="0.3"/>
        <path id="Path_31426" data-name="Path 31426" d="M16.932,27.988l-12.293-1.4a1.688,1.688,0,0,0-1.328.383,1.711,1.711,0,0,0-.653,1.171l-.225,1.846h-.7A1.809,1.809,0,0,0,0,31.861V41.07a1.711,1.711,0,0,0,1.665,1.756H14.095a1.848,1.848,0,0,0,1.891-1.756v-.36a2.251,2.251,0,0,0,.856-.36,1.869,1.869,0,0,0,.653-1.216l1.036-9.141A1.824,1.824,0,0,0,16.932,27.988ZM15.086,41.07a.948.948,0,0,1-.991.856H1.734A.811.811,0,0,1,.9,41.139q0-.035,0-.069V39.4l3.49-2.567a1.081,1.081,0,0,1,1.4.068l2.454,2.161a2.117,2.117,0,0,0,1.328.5,2.049,2.049,0,0,0,1.081-.293L15.086,36.7V41.07Zm0-5.426L10.177,38.5a1.148,1.148,0,0,1-1.328-.113L6.372,36.206a2,2,0,0,0-2.5-.09L.9,38.278V31.861a.909.909,0,0,1,.833-.968H14.095a1.036,1.036,0,0,1,.991.968v3.783Zm2.545-5.773v.009l-1.058,9.141a.765.765,0,0,1-.293.608c-.09.09-.293.135-.293.18V31.861a1.936,1.936,0,0,0-1.891-1.869H3.333l.2-1.756a1.036,1.036,0,0,1,.338-.585,1.036,1.036,0,0,1,.675-.18l12.271,1.418A.9.9,0,0,1,17.631,29.871Z" transform="translate(0 -26.576)" fill="#090b1e" stroke="#090b1e" stroke-width="0.3"/>
      </g>
    </g>
  </g>
</svg>
