<svg xmlns="http://www.w3.org/2000/svg" width="30" height="30" viewBox="0 0 30 30">
  <g id="Group_12459" data-name="Group 12459" transform="translate(-20.772 -104.934)">
    <g id="google" transform="translate(20.772 104.934)">
      <path id="Path_22539" data-name="Path 22539" d="M280.346,211.48H268.109a.978.978,0,0,0-.978.978v3.909a.978.978,0,0,0,.978.978H275a9.2,9.2,0,0,1-3.96,4.64l2.938,5.087a14.708,14.708,0,0,0,7.5-12.863,9.917,9.917,0,0,0-.169-1.921A.983.983,0,0,0,280.346,211.48Z" transform="translate(-251.479 -199.088)" fill="#167ee6"/>
      <path id="Path_22540" data-name="Path 22540" d="M47.395,338.416a9.129,9.129,0,0,1-7.9-4.569l-5.086,2.932a14.988,14.988,0,0,0,20.484,5.5v-.007l-2.938-5.087A9.062,9.062,0,0,1,47.395,338.416Z" transform="translate(-32.395 -314.286)" fill="#12b347"/>
      <path id="Path_22541" data-name="Path 22541" d="M263.5,395.873v-.007l-2.938-5.086A9.063,9.063,0,0,1,256,392.012v5.87A14.975,14.975,0,0,0,263.5,395.873Z" transform="translate(-241 -367.882)" fill="#0f993e"/>
      <path id="Path_22542" data-name="Path 22542" d="M5.87,135.612A9.063,9.063,0,0,1,7.1,131.051l-5.086-2.932a14.931,14.931,0,0,0,0,14.986L7.1,140.173A9.062,9.062,0,0,1,5.87,135.612Z" transform="translate(0 -120.612)" fill="#ffd500"/>
      <path id="Path_22543" data-name="Path 22543" d="M47.395,5.87a9.088,9.088,0,0,1,5.8,2.081A.975.975,0,0,0,54.5,7.892l2.77-2.77a.986.986,0,0,0-.056-1.442A14.967,14.967,0,0,0,34.411,7.507L39.5,10.439A9.129,9.129,0,0,1,47.395,5.87Z" transform="translate(-32.395 0)" fill="#ff4b26"/>
      <path id="Path_22544" data-name="Path 22544" d="M261.8,7.951a.974.974,0,0,0,1.311-.059l2.77-2.77a.986.986,0,0,0-.056-1.442A14.955,14.955,0,0,0,256,0V5.87A9.089,9.089,0,0,1,261.8,7.951Z" transform="translate(-241 0)" fill="#d93f21"/>
    </g>
  </g>
</svg>
