<svg xmlns="http://www.w3.org/2000/svg" width="40" height="40" viewBox="0 0 40 40">
  <g id="Group_12456" data-name="Group 12456" transform="translate(-38 -572)">
    <g id="Rectangle_1377" data-name="Rectangle 1377" transform="translate(38 572)" fill="none" stroke="#e0e0e0" stroke-width="1">
      <rect width="40" height="40" rx="20" stroke="none"/>
      <rect x="0.5" y="0.5" width="39" height="39" rx="19.5" fill="none"/>
    </g>
    <g id="google" transform="translate(47.468 581.468)">
      <path id="Path_22540" data-name="Path 22540" d="M276.41,211.479h-8.592a.687.687,0,0,0-.687.687v2.745a.687.687,0,0,0,.687.687h4.839a6.459,6.459,0,0,1-2.78,3.258l2.063,3.572a10.327,10.327,0,0,0,5.266-9.032,6.961,6.961,0,0,0-.118-1.349A.69.69,0,0,0,276.41,211.479Z" transform="translate(-256.141 -202.778)" fill="#167ee6"/>
      <path id="Path_22541" data-name="Path 22541" d="M43.528,337.055a6.41,6.41,0,0,1-5.545-3.208l-3.571,2.058a10.524,10.524,0,0,0,14.383,3.86v0l-2.063-3.572A6.363,6.363,0,0,1,43.528,337.055Z" transform="translate(-32.995 -320.112)" fill="#12b347"/>
      <path id="Path_22542" data-name="Path 22542" d="M261.266,394.355v0l-2.063-3.572a6.363,6.363,0,0,1-3.2.866v4.121A10.515,10.515,0,0,0,261.266,394.355Z" transform="translate(-245.468 -374.702)" fill="#0f993e"/>
      <path id="Path_22543" data-name="Path 22543" d="M4.121,133.38a6.363,6.363,0,0,1,.866-3.2l-3.571-2.059a10.484,10.484,0,0,0,0,10.523l3.571-2.059A6.363,6.363,0,0,1,4.121,133.38Z" transform="translate(0 -122.848)" fill="#ffd500"/>
      <path id="Path_22544" data-name="Path 22544" d="M43.528,4.121A6.381,6.381,0,0,1,47.6,5.583a.684.684,0,0,0,.921-.041L50.463,3.6a.692.692,0,0,0-.04-1.012A10.509,10.509,0,0,0,34.411,5.271L37.982,7.33A6.41,6.41,0,0,1,43.528,4.121Z" transform="translate(-32.995)" fill="#ff4b26"/>
      <path id="Path_22545" data-name="Path 22545" d="M260.07,5.583a.684.684,0,0,0,.921-.041L262.936,3.6a.692.692,0,0,0-.04-1.012A10.5,10.5,0,0,0,256,0V4.121A6.382,6.382,0,0,1,260.07,5.583Z" transform="translate(-245.468)" fill="#d93f21"/>
    </g>
  </g>
</svg>
