<svg xmlns="http://www.w3.org/2000/svg" width="253.8" height="164.843" viewBox="0 0 253.8 164.843">
  <g id="Group_42721" data-name="Group 42721" transform="translate(-579.34 -353.823)" opacity="0.55">
    <path id="check-inbox" d="M144.688,8a42.185,42.185,0,0,0-36.55,21.127c-.5.845-.972,1.7-1.408,2.579s-.837,1.778-1.207,2.7a42.242,42.242,0,0,0,39.165,58.1A41.592,41.592,0,0,0,157.841,90.4a39.756,39.756,0,0,0,5.019-2.006A42.246,42.246,0,0,0,144.688,8Zm0,5.282a36.967,36.967,0,0,1,17.192,69.7,33.2,33.2,0,0,1-4.962,2.166,36.976,36.976,0,0,1-45.639-50.735q.654-1.386,1.429-2.708c.515-.881,1.067-1.742,1.661-2.574A36.957,36.957,0,0,1,144.688,13.282ZM33.082,29.127a7.853,7.853,0,0,0-7.845,6.257c-2.535,13.152-5.094,27.6-7.6,41.543-2.482,13.944-5.047,28.366-7.582,41.492L10,164.372a7.672,7.672,0,0,0,7.923,7.366H160.533a7.672,7.672,0,0,0,7.923-7.366V118.919l-.051-.5c-1.532-7.87-3.065-16.241-4.57-24.666a41.261,41.261,0,0,1-5.045,1.9q1.91,10.591,3.843,20.627h-60.2v2.641a13.2,13.2,0,1,1-26.409,0v-2.641h-60.2c2.358-12.325,4.729-25.551,7.01-38.428,2.509-13.944,5.073-28.361,7.608-41.486l.026-.108a2.531,2.531,0,0,1,2.615-1.847H99.869a40.8,40.8,0,0,1,2.275-5.282Zm-17.8,92.433h56a18.09,18.09,0,0,0,35.9,0h56v42.812a2.445,2.445,0,0,1-2.641,2.084H17.923a2.445,2.445,0,0,1-2.641-2.084Zm15.846,31.691a2.641,2.641,0,1,0,2.641,2.641A2.642,2.642,0,0,0,31.127,153.252Zm10.564,0a2.641,2.641,0,1,0,2.641,2.641A2.642,2.642,0,0,0,41.691,153.252Zm10.564,0a2.641,2.641,0,1,0,2.641,2.641A2.642,2.642,0,0,0,52.255,153.252Zm10.564,0a2.641,2.641,0,1,0,2.641,2.641A2.642,2.642,0,0,0,62.819,153.252Zm10.564,0a2.641,2.641,0,1,0,2.641,2.641A2.642,2.642,0,0,0,73.382,153.252Zm10.564,0a2.641,2.641,0,1,0,2.641,2.641A2.642,2.642,0,0,0,83.946,153.252Zm10.564,0a2.641,2.641,0,1,0,2.641,2.641A2.642,2.642,0,0,0,94.51,153.252Zm10.564,0a2.641,2.641,0,1,0,2.641,2.641A2.642,2.642,0,0,0,105.074,153.252Zm10.564,0a2.641,2.641,0,1,0,2.641,2.641A2.642,2.642,0,0,0,115.637,153.252Zm10.564,0a2.641,2.641,0,1,0,2.641,2.641A2.642,2.642,0,0,0,126.2,153.252Zm10.564,0a2.641,2.641,0,1,0,2.641,2.641A2.642,2.642,0,0,0,136.765,153.252Zm10.564,0a2.641,2.641,0,1,0,2.641,2.641A2.642,2.642,0,0,0,147.329,153.252Z" transform="translate(616.197 345.823)" fill="#dcdcdc"/>
    <g id="wishlist" transform="translate(752.075 387.445)">
      <path id="heart" d="M11.355,54.234a.664.664,0,0,1-.335-.089,39.728,39.728,0,0,1-5.458-3.929,22.525,22.525,0,0,1-3.788-4.058A8.561,8.561,0,0,1,0,41.287a7.031,7.031,0,0,1,1.788-4.709A5.878,5.878,0,0,1,6.17,34.594a6.073,6.073,0,0,1,5.184,3.075,6.073,6.073,0,0,1,5.189-3.075,5.912,5.912,0,0,1,4.207,1.788,6.93,6.93,0,0,1,1.963,4.911,8.727,8.727,0,0,1-1.806,4.862,22.818,22.818,0,0,1-3.782,4.057,39.863,39.863,0,0,1-5.431,3.929.671.671,0,0,1-.335.091Z" transform="translate(0 -34.594)" fill="none" stroke="#075fb7" stroke-width="3"/>
    </g>
    <line id="Line_688" data-name="Line 688" x2="252" transform="translate(580.24 517.766)" fill="none" stroke="#dcdcdc" stroke-linecap="round" stroke-width="1.8"/>
    <line id="Line_689" data-name="Line 689" x2="28.655" transform="translate(784.2 507.652)" fill="none" stroke="#dcdcdc" stroke-linecap="round" stroke-width="1.8"/>
    <line id="Line_691" data-name="Line 691" x2="18.542" transform="translate(784.2 499.224)" fill="none" stroke="#dcdcdc" stroke-linecap="round" stroke-width="1.8" stroke-dasharray="5"/>
    <line id="Line_690" data-name="Line 690" x2="28.655" transform="translate(597.541 507.652)" fill="none" stroke="#dcdcdc" stroke-linecap="round" stroke-width="1.8"/>
    <line id="Line_692" data-name="Line 692" x2="13.93" transform="translate(612.267 499.224)" fill="none" stroke="#dcdcdc" stroke-linecap="round" stroke-width="1.8" stroke-dasharray="5"/>
    <line id="Line_693" data-name="Line 693" x1="62.146" y2="78.653" transform="translate(732.359 357.938)" fill="none" stroke="#dcdcdc" stroke-linecap="round" stroke-width="5.5"/>
  </g>
</svg>
