<svg xmlns="http://www.w3.org/2000/svg" xmlns:xlink="http://www.w3.org/1999/xlink" width="716" height="700" viewBox="0 0 716 700">
  <defs>
    <clipPath id="clip-path">
      <rect id="Rectangle_3602" data-name="Rectangle 3602" width="542.395" height="546.388" fill="none"/>
    </clipPath>
    <clipPath id="clip-path-2">
      <rect id="Rectangle_3601" data-name="Rectangle 3601" width="511.431" height="432.115" fill="none"/>
    </clipPath>
    <clipPath id="clip-path-4">
      <rect id="Rectangle_3604" data-name="Rectangle 3604" width="340.531" height="106.1" fill="none"/>
    </clipPath>
    <clipPath id="clip-path-5">
      <path id="Path_41841" data-name="Path 41841" d="M116.136,176.9c-25.387,19.8-47.22,102.558-46.712,142.16s15.232,59.4,52.3,75.65,106.112,10.156,144.7-2.029,51.278-54.833,50.772-77.682-25.894-49.247-34.525-54.832-33-17.263-45.186-35.54-29.957-57.882-57.372-62.958a93.17,93.17,0,0,0-9.914-.456c-13.142,0-36.689,2.139-54.057,15.688" transform="translate(-69.416 -161.208)" fill="none"/>
    </clipPath>
    <clipPath id="clip-path-6">
      <rect id="Rectangle_3606" data-name="Rectangle 3606" width="204.08" height="228.002" fill="none"/>
    </clipPath>
    <clipPath id="clip-path-8">
      <path id="Path_41850" data-name="Path 41850" d="M148.687,164.587s-13.825,4.442-15.8,7.9-.493,27.651-.493,30.613,1.727-1.73,3.208-5.184,6.666-8.642,8.394-8.147,2.717,2.468,2.717,5.678,3.949,7.654,7.4,10.121,6.666,4.937,6.666,4.937,7.159-10.367,8.889-13.083,1.48-8.4,1.727-10.37c.123-.987,1.3.372,2.561,1.729s2.623,2.715,3.117,1.727c.988-1.975-2.22-3.7-5.678-9.135s-2.469-11.108-7.654-15.059a13.447,13.447,0,0,0-8.4-2.72,27.384,27.384,0,0,0-6.663.992" transform="translate(-131.86 -163.595)" fill="none"/>
    </clipPath>
    <clipPath id="clip-path-9">
      <rect id="Rectangle_3608" data-name="Rectangle 3608" width="20.278" height="35.312" fill="none"/>
    </clipPath>
    <clipPath id="clip-path-11">
      <path id="Path_41855" data-name="Path 41855" d="M93.211,233.25c-.369,2.961-2.963,18.886-1.111,21.108s8.889,4.073,22.589-.37,19.258-10,20.738-17.777c0,0-8.517-12.219-18.886-13.331a18.046,18.046,0,0,0-1.9-.1c-9.944,0-21.077,7.686-21.425,10.47" transform="translate(-91.44 -222.78)" fill="none"/>
    </clipPath>
    <clipPath id="clip-path-12">
      <rect id="Rectangle_3610" data-name="Rectangle 3610" width="19.612" height="33.466" fill="none"/>
    </clipPath>
    <clipPath id="clip-path-14">
      <path id="Path_41860" data-name="Path 41860" d="M124.846,233.522c-7.775,2.963-18.516,8.516-18.516,8.516s-13.9,5.518-14.442,16.3c-.3,5.964,9.628,8.517,20,8.517s25.183-12.963,34.81-18.516,31.847-18.516,34.439-19.628,11.481,1.852,15.183,2.964,10.739,1.111,10.739,1.111,5.186,8.147,7.777,8.147-5.553-12.222-6.666-14.813-19.255-8.517-21.478-8.517-54.065,12.96-61.843,15.924" transform="translate(-91.882 -217.598)" fill="none"/>
    </clipPath>
    <clipPath id="clip-path-15">
      <rect id="Rectangle_3612" data-name="Rectangle 3612" width="94.807" height="49.252" fill="none"/>
    </clipPath>
    <clipPath id="clip-path-17">
      <path id="Path_41867" data-name="Path 41867" d="M140.355,249.4l90.727-2.592,30.412-25.094-81.469-.37Z" transform="translate(-140.355 -221.348)" fill="none"/>
    </clipPath>
    <clipPath id="clip-path-18">
      <rect id="Rectangle_3614" data-name="Rectangle 3614" width="121.139" height="28.057" fill="none"/>
    </clipPath>
    <clipPath id="clip-path-20">
      <path id="Path_41872" data-name="Path 41872" d="M252.191,216.335c-32.216,9.628-64.805,38.142-64.805,38.142l4.075,18.516c11.85-7.408,52.583-14.813,52.583-14.813a112.178,112.178,0,0,0-7.4,34.81c-.742,18.886-11.111,60.361-17.406,71.471s-21.849,18.516-23.33,24.071,8.517,27.774,32.588,43.327,32.217,12.961,39.255,11.48,8.145-10-2.963-17.034-23.7-26.663-24.072-33.328,12.592-41.846,22.96-61.1,25.924-94.8,26.663-109.243c.431-8.4-1.64-12.411-9.779-12.411-5.863,0-14.873,2.084-28.363,6.116" transform="translate(-187.386 -210.219)" fill="none"/>
    </clipPath>
    <clipPath id="clip-path-21">
      <rect id="Rectangle_3616" data-name="Rectangle 3616" width="103.002" height="234.259" fill="none"/>
    </clipPath>
    <clipPath id="clip-path-23">
      <path id="Path_41880" data-name="Path 41880" d="M252.191,216.335c-32.216,9.628-64.805,38.142-64.805,38.142l4.075,18.516c11.85-7.408,52.583-14.813,52.583-14.813a112.178,112.178,0,0,0-7.4,34.81c-.742,18.886-11.111,60.361-17.406,71.471a27.568,27.568,0,0,1-1.573,2.428c5.712.641,13.955,2.665,20.829,8.68a68.06,68.06,0,0,1,5.064,4.9c7.1-9.526,15.079-39.622,24.088-52,23.278-31.98,21.952-91.394,22.691-105.836.431-8.394-1.643-12.41-9.779-12.411-5.861,0-14.872,2.084-28.363,6.116" transform="translate(-187.386 -210.219)" fill="none"/>
    </clipPath>
    <clipPath id="clip-path-24">
      <rect id="Rectangle_3618" data-name="Rectangle 3618" width="103.002" height="170.248" fill="none"/>
    </clipPath>
    <clipPath id="clip-path-25">
      <rect id="Rectangle_3619" data-name="Rectangle 3619" width="87.32" height="150.013" fill="none"/>
    </clipPath>
    <clipPath id="clip-path-27">
      <path id="Path_41887" data-name="Path 41887" d="M196.131,225.678c-14.441,1.481-44.436,9.256-68.879,27.4,0,0-11.85,6.666-15.922,14.072s13.453,19.75,31.969,19.009S195.761,265.3,195.761,265.3s.37,32.588,6.666,44.438,35.18,40.735,46.66,48.141,49.993,35.18,55.919,39.624,17.033,12.589,19.627,12.961,29.624-32.588,35.919-43.7,11.85-34.438,9.63-39.622-6.666-.741-11.111,2.961-45.178,30.738-48.88,32.589a40.616,40.616,0,0,1-6.3,2.592s-33.328-31.849-51.1-56.288-19.255-55.918-25.921-67.768c-5.925-10.533-14.193-15.8-26.1-15.8a45.529,45.529,0,0,0-4.638.247" transform="translate(-110.735 -225.431)" fill="none"/>
    </clipPath>
    <clipPath id="clip-path-28">
      <rect id="Rectangle_3621" data-name="Rectangle 3621" width="50.655" height="37.013" fill="none"/>
    </clipPath>
    <clipPath id="clip-path-30">
      <path id="Path_41892" data-name="Path 41892" d="M197.639,225.773c-14.441,1.481-40.281,4.162-71.988,22.145,0,0-13.308,7.233-17.381,14.639s10.757,26.057,36.537,23.7c18.455-1.687,52.462-20.861,52.462-20.861s.37,32.588,6.666,44.438,35.18,40.735,46.66,48.141c7.28,4.7,25.426,17.58,39.245,27.514,3.465-12.4,9.587-19.2,13.265-22.334-7.833-7.639-37.211-47.057-48.8-69.717-16.989-33.207-18.818-44.525-25.484-56.374-5.19-9.228-12.446-11.829-22.22-11.829a88.852,88.852,0,0,0-8.956.538" transform="translate(-107.602 -225.235)" fill="none"/>
    </clipPath>
    <clipPath id="clip-path-31">
      <rect id="Rectangle_3623" data-name="Rectangle 3623" width="195.5" height="160.255" fill="none"/>
    </clipPath>
    <clipPath id="clip-path-32">
      <rect id="Rectangle_3624" data-name="Rectangle 3624" width="186.996" height="152.709" fill="none"/>
    </clipPath>
    <clipPath id="clip-path-34">
      <path id="Path_41899" data-name="Path 41899" d="M297.072,293.539c1.558,6.928-.015,20.276-7.661,34.653-6.824,12.828-27.919,35.5-38.547,46.543,2.885,1.9,5.291,3.3,6.329,3.45,2.591.37,29.624-32.588,35.919-43.7s11.85-34.438,9.63-39.622c-.726-1.692-1.687-2.355-2.808-2.355a5.76,5.76,0,0,0-2.862,1.031" transform="translate(-250.864 -292.508)" fill="none"/>
    </clipPath>
    <clipPath id="clip-path-35">
      <rect id="Rectangle_3626" data-name="Rectangle 3626" width="16.3" height="13.892" fill="none"/>
    </clipPath>
    <clipPath id="clip-path-37">
      <path id="Path_41906" data-name="Path 41906" d="M193.182,331.931c-1.481,5.553,8.517,27.774,32.588,43.327s32.217,12.961,39.255,11.48,8.145-10-2.963-17.034a48.738,48.738,0,0,1-9.87-8.879c-7.645-3.247-17.842-7.463-26.792-12.97-9.63-5.925-7.408-9.628-12.963-15.183-4.262-4.263-12.647-4.816-16.328-4.844a10.116,10.116,0,0,0-2.928,4.1" transform="translate(-193.04 -327.828)" fill="none"/>
    </clipPath>
    <clipPath id="clip-path-38">
      <rect id="Rectangle_3628" data-name="Rectangle 3628" width="77.325" height="60.049" fill="none"/>
    </clipPath>
    <clipPath id="clip-path-40">
      <path id="Path_41910" data-name="Path 41910" d="M193.153,331.113c-1.286,5.774,8.738,27.751,32.614,43.18,24.07,15.552,32.217,12.961,39.255,11.48,4.676-.985,6.707-5.082,4.3-9.782a20.36,20.36,0,0,0-5.411-4.662c-9.63-5.553-29.256-9.256-41.846-17.774s-9.259-15.924-18.516-21.849a10.673,10.673,0,0,0-5.79-1.875,9.2,9.2,0,0,0-4.607,1.281" transform="translate(-193.044 -329.832)" fill="none"/>
    </clipPath>
    <clipPath id="clip-path-41">
      <rect id="Rectangle_3630" data-name="Rectangle 3630" width="77.297" height="57.081" fill="none"/>
    </clipPath>
    <clipPath id="clip-path-43">
      <path id="Path_41923" data-name="Path 41923" d="M140.539,151.452s1.726,18.708,2.453,24.61,2.382,22.883,4.085,28.5,10.982,15.38,11.881,13.122,5.488-17.511,3.648-26.58-2.4-16.955-1.25-19.222,5.242-4.9,5.242-4.9a145.891,145.891,0,0,1-13.908-8.1c-5.564-3.74-9.739-7.886-11.456-7.886a.712.712,0,0,0-.7.459" transform="translate(-140.539 -150.993)" fill="none"/>
    </clipPath>
    <clipPath id="clip-path-44">
      <rect id="Rectangle_3632" data-name="Rectangle 3632" width="23.768" height="58.187" fill="none"/>
    </clipPath>
    <clipPath id="clip-path-46">
      <path id="Path_41928" data-name="Path 41928" d="M135.615,134.984c-2.619,7.194.361,17.394,2.534,23.434a44.606,44.606,0,0,0,4.564,9.49s10.667,8.931,18.853,12.154,20.751,3.051,22.518-1.209-3.1-37.917-7.322-46.778-8.736-9-16.177-9.679c-.381-.034-.781-.05-1.2-.05-7.737,0-21.29,5.811-23.774,12.638" transform="translate(-134.591 -122.346)" fill="none"/>
    </clipPath>
    <clipPath id="clip-path-47">
      <rect id="Rectangle_3634" data-name="Rectangle 3634" width="44.664" height="59.936" fill="none"/>
    </clipPath>
    <clipPath id="clip-path-49">
      <path id="Path_41947" data-name="Path 41947" d="M136.382,144.573c-5.048,2.777-1.115,12.616,1.92,16.044s8.911-2.93,9.492-4.565l-1.579-7.351s-3.317-4.785-7.34-4.786a5.108,5.108,0,0,0-2.493.659" transform="translate(-133.959 -143.914)" fill="none"/>
    </clipPath>
    <clipPath id="clip-path-50">
      <rect id="Rectangle_3636" data-name="Rectangle 3636" width="13.836" height="17.701" fill="none"/>
    </clipPath>
    <clipPath id="clip-path-53">
      <rect id="Rectangle_3645" data-name="Rectangle 3645" width="49.553" height="22.231" fill="none"/>
    </clipPath>
  </defs>
  <g id="Group_42895" data-name="Group 42895" transform="translate(-19 -19)">
    <g id="Group_42190" data-name="Group 42190">
      <g id="Group_41806" data-name="Group 41806" transform="translate(18.657 19.261)">
        <rect id="rm218-bb-07" width="716" height="700" rx="20" transform="translate(0.343 -0.261)" fill="#e0f1ff"/>
      </g>
    </g>
    <g id="Group_42880" data-name="Group 42880" transform="translate(106 127.259)">
      <g id="Group_42881" data-name="Group 42881">
        <g id="Group_42755" data-name="Group 42755">
          <g id="Group_42754" data-name="Group 42754" clip-path="url(#clip-path)">
            <path id="Path_41831" data-name="Path 41831" d="M509.969,368.431C521.041,278,467.391,157.8,411.765,108.164,311.346,18.558,227.92,35.887,163.033,67.983S88.877,207.229,44.075,255.71-26.214,369.4,41.763,434.31s122.816,31.929,193.882,27.815,165.306,28.3,216.291.114c35.6-19.68,53.139-53.838,58.033-93.808" transform="translate(0 20.224)" fill="#0f4c81"/>
            <g id="Group_42753" data-name="Group 42753" transform="translate(0 62.247)" opacity="0.7">
              <g id="Group_42752" data-name="Group 42752">
                <g id="Group_42751" data-name="Group 42751" clip-path="url(#clip-path-2)">
                  <path id="Path_41832" data-name="Path 41832" d="M509.969,368.431C521.041,278,467.391,157.8,411.765,108.164,311.346,18.558,227.92,35.887,163.033,67.983S88.877,207.229,44.075,255.71-26.214,369.4,41.763,434.31s122.816,31.929,193.882,27.815,165.306,28.3,216.291.114c35.6-19.68,53.139-53.838,58.033-93.808" transform="translate(0 -42.023)" fill="#fff"/>
                </g>
              </g>
            </g>
          </g>
        </g>
        <line id="Line_696" data-name="Line 696" y1="333.193" transform="translate(228.746 52.276)" fill="none" stroke="#263238" stroke-linecap="round" stroke-linejoin="round" stroke-width="1"/>
        <g id="Group_42757" data-name="Group 42757">
          <g id="Group_42882" data-name="Group 42882">
            <path id="Path_41833" data-name="Path 41833" d="M8.211,262.455H218.39L537.7,365.525" transform="translate(3.952 126.31)" fill="none" stroke="#263238" stroke-linecap="round" stroke-linejoin="round" stroke-width="1"/>
            <path id="Path_41834" data-name="Path 41834" d="M88.856,350.34H74.3V110.28h29.964L91.328,63.6h-38.8L39.591,110.28H69.557V350.34H55a14.215,14.215,0,0,0-14.208,13.951c0,.036-.013.071-.013.108,0,.015.006.03.006.046,0,.039-.006.077-.006.116H40.8c.435,3.349,14.188,6.036,31.1,6.036s30.667-2.687,31.1-6.036h.077a14.22,14.22,0,0,0-14.22-14.22" transform="translate(19.054 30.611)" fill="#263238"/>
            <path id="Path_41835" data-name="Path 41835" d="M203.407,35.513V318.174l212.808,35.011V.5ZM410.7,116.447l-108.2,6.129v-98.2L410.7,7.16Zm-108.2,16.466,108.2-4.962v98.742l-108.2-5.059Zm-8.779,88.311-86.731-4.054V137.292l86.731-3.976Zm0-195.449v97.3l-86.731,4.913V39.577Zm-86.731,200.7,86.731,4.99v96.445l-86.731-13.8Zm95.51,102.832V231.971L410.7,238.2V346.526Z" transform="translate(125.439 -63.759)" fill="#263238"/>
            <path id="Path_41836" data-name="Path 41836" d="M203.407,35.513V318.174l212.808,35.011V.5ZM410.7,116.447l-108.2,6.129v-98.2L410.7,7.16Zm-108.2,16.466,108.2-4.962v98.742l-108.2-5.059Zm-8.779,88.311-86.731-4.054V137.292l86.731-3.976Zm0-195.449v97.3l-86.731,4.913V39.577Zm-86.731,200.7,86.731,4.99v96.445l-86.731-13.8Zm95.51,102.832V231.971L410.7,238.2V346.526Z" transform="translate(125.439 -63.759)" fill="none" stroke="#263238" stroke-linecap="round" stroke-linejoin="round" stroke-width="1"/>
          </g>
        </g>
        <g id="Group_42762" data-name="Group 42762">
          <g id="Group_42761" data-name="Group 42761" clip-path="url(#clip-path)">
            <path id="Path_41837" data-name="Path 41837" d="M379.441,336.653c0,29.3-76.23,53.05-170.265,53.05S38.909,365.952,38.909,336.653s76.23-53.05,170.267-53.05,170.265,23.75,170.265,53.05" transform="translate(18.725 136.487)" fill="#0f4c81"/>
            <g id="Group_42760" data-name="Group 42760" transform="translate(57.635 420.09)" opacity="0.5">
              <g id="Group_42759" data-name="Group 42759">
                <g id="Group_42758" data-name="Group 42758" clip-path="url(#clip-path-4)">
                  <path id="Path_41838" data-name="Path 41838" d="M379.441,336.653c0,29.3-76.23,53.05-170.265,53.05S38.909,365.952,38.909,336.653s76.23-53.05,170.267-53.05,170.265,23.75,170.265,53.05" transform="translate(-38.909 -283.603)" fill="#fff"/>
                </g>
              </g>
            </g>
            <path id="Path_41839" data-name="Path 41839" d="M180.108,161.664s-38.587-4.57-63.973,15.232-47.217,102.558-46.71,142.16,15.232,59.4,52.3,75.65,106.112,10.156,144.7-2.031,51.28-54.833,50.772-77.68-25.894-49.247-34.525-54.833-33-17.263-45.186-35.54-29.956-57.879-57.372-62.957" transform="translate(33.407 77.583)" fill="#0f4c81"/>
          </g>
        </g>
        <g id="Group_42767" data-name="Group 42767" transform="translate(102.823 238.791)">
          <g id="Group_42766" data-name="Group 42766" clip-path="url(#clip-path-5)">
            <g id="Group_42765" data-name="Group 42765" transform="translate(0.001 15.355)" opacity="0.13">
              <g id="Group_42764" data-name="Group 42764">
                <g id="Group_42763" data-name="Group 42763" clip-path="url(#clip-path-6)">
                  <path id="Path_41840" data-name="Path 41840" d="M273.5,384.988c-14.59-1.97-31.892-5.929-44.989-13.882-27.651-16.787-34.564-48.387-44.438-60.237s-27.651-10.864-35.55-23.7S153.456,179.53,130.744,173.6a51.981,51.981,0,0,0-14.171-2.022c-.144.111-.293.212-.437.324-25.386,19.8-47.218,102.558-46.71,142.16s15.23,59.4,52.294,75.65,106.113,10.156,144.7-2.031a64.972,64.972,0,0,0,7.078-2.7" transform="translate(-69.416 -171.574)"/>
                </g>
              </g>
            </g>
          </g>
        </g>
        <g id="Group_42769" data-name="Group 42769">
          <g id="Group_42768" data-name="Group 42768" clip-path="url(#clip-path)">
            <path id="Path_41842" data-name="Path 41842" d="M180.108,161.664s-38.587-4.57-63.973,15.232-47.217,102.558-46.71,142.16,15.232,59.4,52.3,75.65,106.112,10.156,144.7-2.031,51.28-54.833,50.772-77.68-25.894-49.247-34.525-54.833-33-17.263-45.186-35.54S207.524,166.742,180.108,161.664Z" transform="translate(33.407 77.583)" fill="none" stroke="#263238" stroke-linecap="round" stroke-linejoin="round" stroke-width="1"/>
            <path id="Path_41843" data-name="Path 41843" d="M150.971,174.544s-25.181,4.814-29.625,9.258-22.96,74.063-22.96,74.063,8.147-2.222,15.553.741,8.147,10.739,8.888,14.442,1.111,13.331,1.111,13.331,74.854-6.686,90.778-10.39,40.157-5.407,40.157-5.407-40.948-92.336-47.243-95.669-32.588-3.7-36.291-2.962-20.367,2.592-20.367,2.592" transform="translate(47.349 82.6)" fill="#263238"/>
            <path id="Path_41844" data-name="Path 41844" d="M150.971,174.544s-25.181,4.814-29.625,9.258-22.96,74.063-22.96,74.063,8.147-2.222,15.553.741,8.147,10.739,8.888,14.442,1.111,13.331,1.111,13.331,74.854-6.686,90.778-10.39,40.157-5.407,40.157-5.407-40.948-92.336-47.243-95.669-32.588-3.7-36.291-2.962S150.971,174.544,150.971,174.544Z" transform="translate(47.349 82.6)" fill="none" stroke="#263238" stroke-linecap="round" stroke-linejoin="round" stroke-width="1"/>
            <line id="Line_697" data-name="Line 697" y1="51.474" x2="6.295" transform="translate(173.51 291.213)" fill="none" stroke="#fff" stroke-linecap="round" stroke-linejoin="round" stroke-width="1"/>
            <line id="Line_698" data-name="Line 698" y1="11.109" x2="8.517" transform="translate(178.324 293.805)" fill="none" stroke="#fff" stroke-linecap="round" stroke-linejoin="round" stroke-width="1"/>
            <path id="Path_41845" data-name="Path 41845" d="M137.636,212.875s24.07-7.777,39.994-7.777" transform="translate(66.239 98.706)" fill="none" stroke="#fff" stroke-linecap="round" stroke-linejoin="round" stroke-width="1"/>
            <path id="Path_41846" data-name="Path 41846" d="M153.5,196.015l-1.612,12.343s4.073,0,4.444,1.852-1.481,3.7-1.481,3.7,11.48,6.3,12.961,13.7" transform="translate(73.097 94.334)" fill="none" stroke="#fff" stroke-linecap="round" stroke-linejoin="round" stroke-width="1"/>
            <path id="Path_41847" data-name="Path 41847" d="M148.687,164.587s-13.825,4.444-15.8,7.9-.493,27.651-.493,30.613,1.729-1.729,3.21-5.184,6.666-8.64,8.393-8.147,2.717,2.469,2.717,5.678,3.949,7.654,7.406,10.123,6.666,4.937,6.666,4.937,7.159-10.369,8.888-13.084,1.481-8.394,1.727-10.369,4.691,5.43,5.679,3.456-2.222-3.7-5.679-9.135-2.468-11.109-7.652-15.059-11.109-2.717-15.06-1.729" transform="translate(63.459 78.732)" fill="#fff"/>
          </g>
        </g>
        <g id="Group_42774" data-name="Group 42774" transform="translate(195.319 242.327)">
          <g id="Group_42773" data-name="Group 42773" clip-path="url(#clip-path-8)">
            <path id="Path_41848" data-name="Path 41848" d="M132.887,172.181c-1.318,2.306-1.1,13.842-.8,22.146,3.149-4.065,9.649-11.726,13.417-10.276,4.795,1.844,6.639,15.49,6.639,15.49L148.9,164.23c-.07.016-.144.034-.212.052,0,0-13.826,4.444-15.8,7.9" transform="translate(-131.86 -163.289)" fill="#0f4c81"/>
            <g id="Group_42772" data-name="Group 42772" transform="translate(0 0.941)" opacity="0.5">
              <g id="Group_42771" data-name="Group 42771">
                <g id="Group_42770" data-name="Group 42770" clip-path="url(#clip-path-9)">
                  <path id="Path_41849" data-name="Path 41849" d="M132.887,172.181c-1.318,2.306-1.1,13.842-.8,22.146,3.149-4.065,9.649-11.726,13.417-10.276,4.795,1.844,6.639,15.49,6.639,15.49L148.9,164.23c-.07.016-.144.034-.212.052,0,0-13.826,4.444-15.8,7.9" transform="translate(-131.86 -164.23)" fill="#fff"/>
                </g>
              </g>
            </g>
          </g>
        </g>
        <g id="Group_42776" data-name="Group 42776">
          <g id="Group_42775" data-name="Group 42775" clip-path="url(#clip-path)">
            <path id="Path_41851" data-name="Path 41851" d="M148.687,164.587s-13.825,4.444-15.8,7.9-.493,27.651-.493,30.613,1.729-1.729,3.21-5.184,6.666-8.64,8.393-8.147,2.717,2.469,2.717,5.678,3.949,7.654,7.406,10.123,6.666,4.937,6.666,4.937,7.159-10.369,8.888-13.084,1.481-8.394,1.727-10.369,4.691,5.43,5.679,3.456-2.222-3.7-5.679-9.135-2.468-11.109-7.652-15.059S152.638,163.6,148.687,164.587Z" transform="translate(63.459 78.732)" fill="none" stroke="#263238" stroke-linecap="round" stroke-linejoin="round" stroke-width="1"/>
            <path id="Path_41852" data-name="Path 41852" d="M135.427,236.212s-8.517-12.22-18.886-13.331-22.96,7.406-23.33,10.369-2.963,18.886-1.111,21.108,8.888,4.073,22.589-.37,19.256-10,20.738-17.775" transform="translate(44.007 107.216)" fill="#fff"/>
          </g>
        </g>
        <g id="Group_42781" data-name="Group 42781" transform="translate(135.447 329.995)">
          <g id="Group_42780" data-name="Group 42780" clip-path="url(#clip-path-11)">
            <path id="Path_41853" data-name="Path 41853" d="M100.776,253.839s-2.951-8.483-1.475-11.434,7.377-7.375,11.065-11.8-8.637,2.5-9.221,0c-.47-2.016,6.494-6.036,9.236-7.532-8.621,1.65-16.87,7.646-17.169,10.037-.37,2.963-2.963,18.886-1.111,21.108.955,1.146,3.308,2.186,7.23,2.321.893-1.558,1.446-2.7,1.446-2.7" transform="translate(-91.441 -222.639)" fill="#0f4c81"/>
            <g id="Group_42779" data-name="Group 42779" transform="translate(0 0.433)" opacity="0.5">
              <g id="Group_42778" data-name="Group 42778">
                <g id="Group_42777" data-name="Group 42777" clip-path="url(#clip-path-12)">
                  <path id="Path_41854" data-name="Path 41854" d="M100.776,253.839s-2.951-8.483-1.475-11.434,7.377-7.375,11.065-11.8-8.637,2.5-9.221,0c-.47-2.016,6.494-6.036,9.236-7.532-8.621,1.65-16.87,7.646-17.169,10.037-.37,2.963-2.963,18.886-1.111,21.108.955,1.146,3.308,2.186,7.23,2.321.893-1.558,1.446-2.7,1.446-2.7" transform="translate(-91.441 -223.072)" fill="#fff"/>
                </g>
              </g>
            </g>
          </g>
        </g>
        <g id="Group_42783" data-name="Group 42783">
          <g id="Group_42782" data-name="Group 42782" clip-path="url(#clip-path)">
            <path id="Path_41856" data-name="Path 41856" d="M135.427,236.212s-8.517-12.22-18.886-13.331-22.96,7.406-23.33,10.369-2.963,18.886-1.111,21.108,8.888,4.073,22.589-.37S133.946,243.988,135.427,236.212Z" transform="translate(44.007 107.216)" fill="none" stroke="#263238" stroke-linecap="round" stroke-linejoin="round" stroke-width="1"/>
            <path id="Path_41857" data-name="Path 41857" d="M106.33,242.039s-13.9,5.516-14.442,16.294c-.3,5.964,9.628,8.517,20,8.517s25.181-12.961,34.81-18.516,31.847-18.516,34.439-19.627,11.48,1.852,15.183,2.963,10.739,1.111,10.739,1.111,5.184,8.147,7.777,8.147-5.555-12.22-6.666-14.813-19.256-8.517-21.478-8.517-54.066,12.961-61.843,15.924-18.516,8.517-18.516,8.517" transform="translate(44.219 104.722)" fill="#fff"/>
          </g>
        </g>
        <g id="Group_42788" data-name="Group 42788" transform="translate(136.101 322.32)">
          <g id="Group_42787" data-name="Group 42787" clip-path="url(#clip-path-14)">
            <path id="Path_41858" data-name="Path 41858" d="M135.374,240.5c21.176-10.588,51.315-22.9,51.315-22.9-2.222,0-54.066,12.961-61.843,15.924s-18.516,8.517-18.516,8.517-13.9,5.516-14.442,16.294c-.3,5.964,9.628,8.517,20,8.517s25.181-12.961,34.81-18.516c1.634-.942,3.635-2.1,5.835-3.374-14.148,1.82-33.05,3.484-17.156-4.463" transform="translate(-91.882 -217.598)" fill="#0f4c81"/>
            <g id="Group_42786" data-name="Group 42786" transform="translate(0.001)" opacity="0.5">
              <g id="Group_42785" data-name="Group 42785">
                <g id="Group_42784" data-name="Group 42784" clip-path="url(#clip-path-15)">
                  <path id="Path_41859" data-name="Path 41859" d="M135.374,240.5c21.176-10.588,51.315-22.9,51.315-22.9-2.222,0-54.066,12.961-61.843,15.924s-18.516,8.517-18.516,8.517-13.9,5.516-14.442,16.294c-.3,5.964,9.628,8.517,20,8.517s25.181-12.961,34.81-18.516c1.634-.942,3.635-2.1,5.835-3.374-14.148,1.82-33.05,3.484-17.156-4.463" transform="translate(-91.882 -217.598)" fill="#fff"/>
                </g>
              </g>
            </g>
          </g>
        </g>
        <g id="Group_42790" data-name="Group 42790">
          <g id="Group_42789" data-name="Group 42789" clip-path="url(#clip-path)">
            <path id="Path_41861" data-name="Path 41861" d="M106.33,242.039s-13.9,5.516-14.442,16.294c-.3,5.964,9.628,8.517,20,8.517s25.181-12.961,34.81-18.516,31.847-18.516,34.439-19.627,11.48,1.852,15.183,2.963,10.739,1.111,10.739,1.111,5.184,8.147,7.777,8.147-5.555-12.22-6.666-14.813-19.256-8.517-21.478-8.517-54.066,12.961-61.843,15.924S106.33,242.039,106.33,242.039Z" transform="translate(44.219 104.722)" fill="none" stroke="#263238" stroke-linecap="round" stroke-linejoin="round" stroke-width="1"/>
            <path id="Path_41862" data-name="Path 41862" d="M178.421,179.5l-11.284,63.477,81.469.37,12.117-60.193a3.738,3.738,0,0,0-3.552-4.475l-74.956-2.262a3.738,3.738,0,0,0-3.794,3.082" transform="translate(80.437 84.901)" fill="#fff"/>
            <path id="Path_41863" data-name="Path 41863" d="M178.421,179.5l-11.284,63.477,81.469.37,12.117-60.193a3.738,3.738,0,0,0-3.552-4.475l-74.956-2.262A3.738,3.738,0,0,0,178.421,179.5Z" transform="translate(80.437 84.901)" fill="none" stroke="#263238" stroke-linecap="round" stroke-linejoin="round" stroke-width="1"/>
            <path id="Path_41864" data-name="Path 41864" d="M180.025,221.348,140.355,249.4l90.727-2.592,30.412-25.094Z" transform="translate(67.548 106.526)" fill="#fff"/>
            <g id="setting" transform="translate(282.402 283.143)">
              <path id="Path_41958" data-name="Path 41958" d="M13,0A13,13,0,1,1,0,13,13,13,0,0,1,13,0Z" transform="translate(1.598 1.598)" fill="#e9f5ff"/>
              <path id="Path_41957" data-name="Path 41957" d="M27.826,17.212,26.6,16.989a.108.108,0,0,1-.084-.063.138.138,0,0,1-.008-.1l.554-1.436a.963.963,0,0,0-.218-1.029l-1.6-1.6a.965.965,0,0,0-1.029-.218l-1.436.554a.135.135,0,0,1-.1-.008A.137.137,0,0,1,22.614,13l-.223-1.222a.967.967,0,0,0-.949-.794H18.151a.963.963,0,0,0-.949.794L16.979,13a.125.125,0,0,1-.063.088.121.121,0,0,1-.1.008l-1.436-.554a.963.963,0,0,0-1.029.218l-1.6,1.6a.963.963,0,0,0-.218,1.029l.554,1.436a.135.135,0,0,1-.008.1.14.14,0,0,1-.088.063l-1.222.223a.967.967,0,0,0-.794.949v3.292a.963.963,0,0,0,.794.949l1.222.223a.108.108,0,0,1,.084.063.138.138,0,0,1,.008.1l-.554,1.436a.963.963,0,0,0,.218,1.029l1.6,1.6a.971.971,0,0,0,1.029.218l1.436-.554a.135.135,0,0,1,.1.008.137.137,0,0,1,.063.088L17.2,27.84a.967.967,0,0,0,.949.794h3.292a.963.963,0,0,0,.949-.794l.223-1.222a.125.125,0,0,1,.063-.088.119.119,0,0,1,.1-.008l1.436.554a.963.963,0,0,0,1.029-.218l1.6-1.6a.963.963,0,0,0,.218-1.029l-.554-1.436a.135.135,0,0,1,.008-.1.14.14,0,0,1,.088-.063l1.222-.223a.967.967,0,0,0,.794-.949V18.161a.963.963,0,0,0-.794-.949Z" transform="translate(-5.203 -5.209)" fill="#65647c"/>
              <circle id="Ellipse_551" data-name="Ellipse 551" cx="5" cy="5" r="5" transform="translate(9.598 9.598)" fill="#ecf9ff"/>
            </g>
          </g>
        </g>
        <g id="Group_42795" data-name="Group 42795" transform="translate(207.902 327.874)">
          <g id="Group_42794" data-name="Group 42794" clip-path="url(#clip-path-17)">
            <path id="Path_41865" data-name="Path 41865" d="M180.025,221.348,140.355,249.4l90.727-2.592,30.412-25.094Z" transform="translate(-140.355 -221.348)" fill="#0f4c81"/>
            <g id="Group_42793" data-name="Group 42793" opacity="0.5">
              <g id="Group_42792" data-name="Group 42792">
                <g id="Group_42791" data-name="Group 42791" clip-path="url(#clip-path-18)">
                  <path id="Path_41866" data-name="Path 41866" d="M180.025,221.348,140.355,249.4l90.727-2.592,30.412-25.094Z" transform="translate(-140.355 -221.348)" fill="#fff"/>
                </g>
              </g>
            </g>
          </g>
        </g>
        <g id="Group_42797" data-name="Group 42797">
          <g id="Group_42796" data-name="Group 42796" clip-path="url(#clip-path)">
            <path id="Path_41868" data-name="Path 41868" d="M180.025,221.348,140.355,249.4l90.727-2.592,30.412-25.094Z" transform="translate(67.548 106.526)" fill="none" stroke="#263238" stroke-linecap="round" stroke-linejoin="round" stroke-width="1"/>
            <path id="Path_41869" data-name="Path 41869" d="M187.386,254.477s32.588-28.514,64.805-38.142,38.883-8.147,38.142,6.3-16.294,89.987-26.663,109.243-23.33,54.436-22.96,61.1,12.961,26.292,24.07,33.328,10,15.553,2.963,17.034-15.183,4.073-39.253-11.48-34.069-37.772-32.588-43.327,17.034-12.961,23.33-24.071,16.664-52.585,17.4-71.471a112.217,112.217,0,0,1,7.406-34.81s-40.735,7.406-52.585,14.813Z" transform="translate(90.182 101.171)" fill="#fff"/>
          </g>
        </g>
        <g id="Group_42802" data-name="Group 42802" transform="translate(277.568 311.389)">
          <g id="Group_42801" data-name="Group 42801" clip-path="url(#clip-path-20)">
            <path id="Path_41870" data-name="Path 41870" d="M187.386,254.477s32.588-28.514,64.805-38.142,38.883-8.147,38.142,6.3-16.294,89.987-26.663,109.243-23.33,54.436-22.96,61.1,12.961,26.292,24.07,33.328,10,15.553,2.963,17.034-15.183,4.073-39.253-11.48-34.069-37.772-32.588-43.327,17.034-12.961,23.33-24.071,16.664-52.585,17.4-71.471a112.217,112.217,0,0,1,7.406-34.81s-40.735,7.406-52.585,14.813Z" transform="translate(-187.386 -210.219)" fill="#0f4c81"/>
            <g id="Group_42800" data-name="Group 42800" transform="translate(0 0)" opacity="0.5">
              <g id="Group_42799" data-name="Group 42799">
                <g id="Group_42798" data-name="Group 42798" clip-path="url(#clip-path-21)">
                  <path id="Path_41871" data-name="Path 41871" d="M187.386,254.477s32.588-28.514,64.805-38.142,38.883-8.147,38.142,6.3-16.294,89.987-26.663,109.243-23.33,54.436-22.96,61.1,12.961,26.292,24.07,33.328,10,15.553,2.963,17.034-15.183,4.073-39.253-11.48-34.069-37.772-32.588-43.327,17.034-12.961,23.33-24.071,16.664-52.585,17.4-71.471a112.217,112.217,0,0,1,7.406-34.81s-40.735,7.406-52.585,14.813Z" transform="translate(-187.386 -210.219)" fill="#fff"/>
                </g>
              </g>
            </g>
          </g>
        </g>
        <g id="Group_42804" data-name="Group 42804">
          <g id="Group_42803" data-name="Group 42803" clip-path="url(#clip-path)">
            <path id="Path_41873" data-name="Path 41873" d="M187.386,254.477s32.588-28.514,64.805-38.142,38.883-8.147,38.142,6.3-16.294,89.987-26.663,109.243-23.33,54.436-22.96,61.1,12.961,26.292,24.07,33.328,10,15.553,2.963,17.034-15.183,4.073-39.253-11.48-34.069-37.772-32.588-43.327,17.034-12.961,23.33-24.071,16.664-52.585,17.4-71.471a112.217,112.217,0,0,1,7.406-34.81s-40.735,7.406-52.585,14.813Z" transform="translate(90.182 101.171)" fill="none" stroke="#263238" stroke-linecap="round" stroke-linejoin="round" stroke-width="1"/>
            <path id="Path_41874" data-name="Path 41874" d="M219.233,364.461a27.688,27.688,0,0,1-1.573,2.428c5.712.641,13.953,2.665,20.829,8.682a67.464,67.464,0,0,1,5.064,4.9c4.336-13.842,12.859-35.115,20.117-48.594,10.369-19.256,25.922-94.8,26.663-109.243s-5.925-15.924-38.142-6.3-64.805,38.142-64.805,38.142l4.073,18.516c11.85-7.406,52.585-14.813,52.585-14.813a112.217,112.217,0,0,0-7.406,34.81c-.741,18.886-11.109,60.361-17.4,71.471" transform="translate(90.182 101.171)" fill="#fff"/>
            <path id="Path_41875" data-name="Path 41875" d="M219.233,364.461a27.688,27.688,0,0,1-1.573,2.428c5.712.641,13.953,2.665,20.829,8.682a67.464,67.464,0,0,1,5.064,4.9c4.336-13.842,12.859-35.115,20.117-48.594,10.369-19.256,25.922-94.8,26.663-109.243s-5.925-15.924-38.142-6.3-64.805,38.142-64.805,38.142l4.073,18.516c11.85-7.406,52.585-14.813,52.585-14.813a112.217,112.217,0,0,0-7.406,34.81C235.9,311.876,225.528,353.352,219.233,364.461Z" transform="translate(90.182 101.171)" fill="none" stroke="#263238" stroke-linecap="round" stroke-linejoin="round" stroke-width="1"/>
            <path id="Path_41876" data-name="Path 41876" d="M219.233,364.461a27.688,27.688,0,0,1-1.573,2.428c5.712.641,13.953,2.665,20.829,8.682a67.464,67.464,0,0,1,5.064,4.9c7.1-9.527,15.079-39.624,24.088-52,23.278-31.982,21.951-91.394,22.691-105.836s-5.925-15.924-38.142-6.3-64.805,38.142-64.805,38.142l4.073,18.516c11.85-7.406,52.585-14.813,52.585-14.813a112.217,112.217,0,0,0-7.406,34.81c-.741,18.886-11.109,60.361-17.4,71.471" transform="translate(90.182 101.171)" fill="#263238"/>
          </g>
        </g>
        <g id="Group_42812" data-name="Group 42812" transform="translate(277.568 311.389)">
          <g id="Group_42811" data-name="Group 42811" clip-path="url(#clip-path-23)">
            <g id="Group_42807" data-name="Group 42807" transform="translate(0 0)" opacity="0.53">
              <g id="Group_42806" data-name="Group 42806">
                <g id="Group_42805" data-name="Group 42805" clip-path="url(#clip-path-24)">
                  <path id="Path_41877" data-name="Path 41877" d="M219.233,364.461a27.688,27.688,0,0,1-1.573,2.428c5.712.641,13.953,2.665,20.829,8.682a67.464,67.464,0,0,1,5.064,4.9c7.1-9.527,15.079-39.624,24.088-52,23.278-31.982,21.951-91.394,22.691-105.836s-5.925-15.924-38.142-6.3-64.805,38.142-64.805,38.142l4.073,18.516c11.85-7.406,52.585-14.813,52.585-14.813a112.217,112.217,0,0,0-7.406,34.81c-.741,18.886-11.109,60.361-17.4,71.471" transform="translate(-187.386 -210.219)" fill="#fff"/>
                </g>
              </g>
            </g>
            <g id="Group_42810" data-name="Group 42810" transform="translate(0 9.72)" opacity="0.14">
              <g id="Group_42809" data-name="Group 42809">
                <g id="Group_42808" data-name="Group 42808" clip-path="url(#clip-path-25)">
                  <path id="Path_41878" data-name="Path 41878" d="M274.68,217.517c-.585-5.258-57.862,18.982-82.017,29.45-3.352,2.671-5.276,4.35-5.276,4.35l4.073,18.516c11.85-7.406,52.585-14.813,52.585-14.813a112.217,112.217,0,0,0-7.406,34.81c-.741,18.886-11.109,60.361-17.4,71.471a27.687,27.687,0,0,1-1.573,2.428,42.208,42.208,0,0,1,11.813,3.063c8.971-18.966,18.476-40.954,22.988-58.178,8.147-31.107,22.96-84.432,22.219-91.1" transform="translate(-187.386 -216.781)"/>
                </g>
              </g>
            </g>
            <path id="Path_41879" data-name="Path 41879" d="M225.636,252.945s11.109-22.589,20.738-31.847" transform="translate(-168.978 -204.983)" fill="none" stroke="#263238" stroke-linecap="round" stroke-linejoin="round" stroke-width="1"/>
          </g>
        </g>
        <g id="Group_42814" data-name="Group 42814">
          <g id="Group_42813" data-name="Group 42813" clip-path="url(#clip-path)">
            <path id="Path_41881" data-name="Path 41881" d="M219.233,364.461a27.688,27.688,0,0,1-1.573,2.428c5.712.641,13.953,2.665,20.829,8.682a67.464,67.464,0,0,1,5.064,4.9c7.1-9.527,15.079-39.624,24.088-52,23.278-31.982,21.951-91.394,22.691-105.836s-5.925-15.924-38.142-6.3-64.805,38.142-64.805,38.142l4.073,18.516c11.85-7.406,52.585-14.813,52.585-14.813a112.217,112.217,0,0,0-7.406,34.81C235.9,311.876,225.528,353.352,219.233,364.461Z" transform="translate(90.182 101.171)" fill="none" stroke="#263238" stroke-linecap="round" stroke-linejoin="round" stroke-width="1"/>
            <path id="Path_41882" data-name="Path 41882" d="M154.471,266.577s18.277-.508,35.032-6.6-13.708-17.263-25.384-11.169a17.352,17.352,0,0,0-9.647,17.769" transform="translate(74.276 118.893)" fill="#263238"/>
            <path id="Path_41883" data-name="Path 41883" d="M154.471,266.577s18.277-.508,35.032-6.6-13.708-17.263-25.384-11.169A17.352,17.352,0,0,0,154.471,266.577Z" transform="translate(74.276 118.893)" fill="none" stroke="#263238" stroke-linecap="round" stroke-linejoin="round" stroke-width="1"/>
            <path id="Path_41884" data-name="Path 41884" d="M127.253,253.082s-11.85,6.666-15.924,14.072,13.454,19.75,31.97,19.009S195.761,265.3,195.761,265.3s.37,32.588,6.666,44.438,35.18,40.735,46.66,48.141S299.079,393.061,305,397.5s17.035,12.591,19.627,12.961,29.625-32.588,35.921-43.7,11.85-34.439,9.628-39.624-6.666-.741-11.109,2.963-45.178,30.736-48.882,32.588a40.643,40.643,0,0,1-6.3,2.592S270.565,333.44,252.79,309s-19.256-55.918-25.922-67.768-16.294-17.035-30.736-15.553-44.438,9.258-68.879,27.4" transform="translate(53.292 108.491)" fill="#fff"/>
          </g>
        </g>
        <g id="Group_42819" data-name="Group 42819" transform="translate(164.028 333.922)">
          <g id="Group_42818" data-name="Group 42818" clip-path="url(#clip-path-27)">
            <path id="Path_41885" data-name="Path 41885" d="M227.671,334.157c9.889,7.086,18.5,13.339,21.056,15.254,5.925,4.444,17.035,12.591,19.627,12.961.92.132,4.919-3.939,9.972-9.73l-42.41-27.279Z" transform="translate(-54.459 -177.338)" fill="#0f4c81"/>
            <g id="Group_42817" data-name="Group 42817" transform="translate(173.212 148.025)" opacity="0.5">
              <g id="Group_42816" data-name="Group 42816">
                <g id="Group_42815" data-name="Group 42815" clip-path="url(#clip-path-28)">
                  <path id="Path_41886" data-name="Path 41886" d="M227.671,334.157c9.889,7.086,18.5,13.339,21.056,15.254,5.925,4.444,17.035,12.591,19.627,12.961.92.132,4.919-3.939,9.972-9.73l-42.41-27.279Z" transform="translate(-227.671 -325.362)" fill="#fff"/>
                </g>
              </g>
            </g>
          </g>
        </g>
        <g id="Group_42821" data-name="Group 42821">
          <g id="Group_42820" data-name="Group 42820" clip-path="url(#clip-path)">
            <path id="Path_41888" data-name="Path 41888" d="M127.253,253.082s-11.85,6.666-15.924,14.072,13.454,19.75,31.97,19.009S195.761,265.3,195.761,265.3s.37,32.588,6.666,44.438,35.18,40.735,46.66,48.141S299.079,393.061,305,397.5s17.035,12.591,19.627,12.961,29.625-32.588,35.921-43.7,11.85-34.439,9.628-39.624-6.666-.741-11.109,2.963-45.178,30.736-48.882,32.588a40.643,40.643,0,0,1-6.3,2.592S270.565,333.44,252.79,309s-19.256-55.918-25.922-67.768-16.294-17.035-30.736-15.553S151.694,234.936,127.253,253.082Z" transform="translate(53.292 108.491)" fill="none" stroke="#263238" stroke-linecap="round" stroke-linejoin="round" stroke-width="1"/>
            <path id="Path_41889" data-name="Path 41889" d="M303.1,363.155c-7.831-7.64-37.209-47.057-48.8-69.717-16.99-33.207-18.819-44.524-25.485-56.374s-16.732-12.773-31.175-11.292-40.283,4.162-71.988,22.145c0,0-13.308,7.234-17.381,14.641s10.757,26.055,36.537,23.7c18.455-1.687,52.462-20.862,52.462-20.862s.37,32.588,6.666,44.438,35.18,40.735,46.66,48.141c7.28,4.7,25.426,17.581,39.243,27.514,3.468-12.4,9.588-19.2,13.265-22.334" transform="translate(51.785 108.397)" fill="#263238"/>
          </g>
        </g>
        <g id="Group_42829" data-name="Group 42829" transform="translate(159.386 333.632)">
          <g id="Group_42828" data-name="Group 42828" clip-path="url(#clip-path-30)">
            <g id="Group_42824" data-name="Group 42824" transform="translate(0.001)" opacity="0.53">
              <g id="Group_42823" data-name="Group 42823">
                <g id="Group_42822" data-name="Group 42822" clip-path="url(#clip-path-31)">
                  <path id="Path_41890" data-name="Path 41890" d="M303.1,363.155c-7.831-7.64-37.209-47.057-48.8-69.717-16.99-33.207-18.819-44.524-25.485-56.374s-16.732-12.773-31.175-11.292-40.283,4.162-71.988,22.145c0,0-13.308,7.234-17.381,14.641s10.757,26.055,36.537,23.7c18.455-1.687,52.462-20.862,52.462-20.862s.37,32.588,6.666,44.438,35.18,40.735,46.66,48.141c7.28,4.7,25.426,17.581,39.243,27.514,3.468-12.4,9.588-19.2,13.265-22.334" transform="translate(-107.602 -225.235)" fill="#fff"/>
                </g>
              </g>
            </g>
            <g id="Group_42827" data-name="Group 42827" transform="translate(0.412 7.546)" opacity="0.14">
              <g id="Group_42826" data-name="Group 42826">
                <g id="Group_42825" data-name="Group 42825" clip-path="url(#clip-path-32)">
                  <path id="Path_41891" data-name="Path 41891" d="M228.511,308.02c-11.109-28.144-4.444-84.432-35.55-77.026-22.668,5.4-64.207,24.556-85.081,34.556,2.465,8.5,16.094,20.147,36.793,18.255,18.454-1.687,52.462-20.862,52.462-20.862s.37,32.588,6.666,44.438,35.18,40.735,46.66,48.141c7.28,4.7,25.426,17.581,39.243,27.516a52.515,52.515,0,0,1,5.173-12.41c-27.581-20.373-60.164-46.9-66.365-62.608" transform="translate(-107.88 -230.329)"/>
                </g>
              </g>
            </g>
            <line id="Line_699" data-name="Line 699" x1="1.111" y1="19.256" transform="translate(88.557 20.905)" fill="none" stroke="#263238" stroke-linecap="round" stroke-linejoin="round" stroke-width="1"/>
          </g>
        </g>
        <g id="Group_42831" data-name="Group 42831">
          <g id="Group_42830" data-name="Group 42830" clip-path="url(#clip-path)">
            <path id="Path_41893" data-name="Path 41893" d="M303.1,363.155c-7.831-7.64-37.209-47.057-48.8-69.717-16.99-33.207-18.819-44.524-25.485-56.374s-16.732-12.773-31.175-11.292-40.283,4.162-71.988,22.145c0,0-13.308,7.234-17.381,14.641s10.757,26.055,36.537,23.7c18.455-1.687,52.462-20.862,52.462-20.862s.37,32.588,6.666,44.438,35.18,40.735,46.66,48.141c7.28,4.7,25.426,17.581,39.243,27.514C293.3,373.089,299.426,366.294,303.1,363.155Z" transform="translate(51.785 108.397)" fill="none" stroke="#263238" stroke-linecap="round" stroke-linejoin="round" stroke-width="1"/>
            <path id="Path_41894" data-name="Path 41894" d="M242.638,365.225c5.925,4.444,17.035,12.591,19.627,12.961s29.625-32.588,35.921-43.7,11.85-34.439,9.628-39.624-6.666-.741-11.109,2.963-45.178,30.736-48.882,32.588c-.97.484-1.858.89-2.648,1.229-1.072,2.026-2.364,5.175-1.425,7.288,1.481,3.333,7.777,7.777,7.777,7.777l-11.2,16.8c1,.732,1.789,1.317,2.315,1.711" transform="translate(115.658 140.771)" fill="#263238"/>
            <path id="Path_41895" data-name="Path 41895" d="M242.638,365.225c5.925,4.444,17.035,12.591,19.627,12.961s29.625-32.588,35.921-43.7,11.85-34.439,9.628-39.624-6.666-.741-11.109,2.963-45.178,30.736-48.882,32.588c-.97.484-1.858.89-2.648,1.229-1.072,2.026-2.364,5.175-1.425,7.288,1.481,3.333,7.777,7.777,7.777,7.777l-11.2,16.8C241.32,364.246,242.112,364.831,242.638,365.225Z" transform="translate(115.658 140.771)" fill="none" stroke="#263238" stroke-linecap="round" stroke-linejoin="round" stroke-width="1"/>
            <path id="Path_41896" data-name="Path 41896" d="M293.113,334.487c6.3-11.109,11.85-34.439,9.628-39.624-1.287-3-3.322-2.767-5.669-1.324,1.558,6.929-.015,20.277-7.663,34.653-6.824,12.829-27.917,35.5-38.545,46.543,2.884,1.9,5.291,3.3,6.328,3.45,2.592.37,29.625-32.588,35.921-43.7" transform="translate(120.731 140.773)" fill="#fff"/>
          </g>
        </g>
        <g id="Group_42836" data-name="Group 42836" transform="translate(371.595 433.281)">
          <g id="Group_42835" data-name="Group 42835" clip-path="url(#clip-path-34)">
            <path id="Path_41897" data-name="Path 41897" d="M257.571,354.763a2.7,2.7,0,0,0,.315-.173c.034-.022.065-.039.1-.062.15-.1.316-.222.5-.363.056-.044.117-.1.176-.144.136-.111.28-.233.43-.364.08-.07.158-.138.241-.213.184-.163.375-.341.576-.53.116-.11.236-.227.357-.344.158-.154.32-.31.487-.475l.419-.422c.133-.135.271-.276.409-.418.339-.348.692-.715,1.059-1.107l.167-.178c.216-.23.438-.47.662-.712.086-.093.173-.187.261-.283.775-.843,1.6-1.755,2.453-2.727.024-.025.046-.05.068-.076q.449-.509.909-1.035l0-.006-6.466-4.159c-3.687,4-7.107,7.606-9.834,10.44h0c.342.225.675.443,1,.653l.139.089c.313.2.619.394.914.576l.019.012c.505.313.976.591,1.422.846.138.078.281.163.413.236s.278.148.415.221c.163.086.323.167.471.241.113.055.221.105.324.154.161.073.311.135.452.191.076.03.154.062.224.086a3.158,3.158,0,0,0,.53.145.639.639,0,0,0,.28-.055c.031-.012.065-.028.1-.043" transform="translate(-250.864 -269.185)" fill="#0f4c81"/>
            <g id="Group_42834" data-name="Group 42834" transform="translate(0 71.787)" opacity="0.5">
              <g id="Group_42833" data-name="Group 42833">
                <g id="Group_42832" data-name="Group 42832" clip-path="url(#clip-path-35)">
                  <path id="Path_41898" data-name="Path 41898" d="M257.571,354.763a2.7,2.7,0,0,0,.315-.173c.034-.022.065-.039.1-.062.15-.1.316-.222.5-.363.056-.044.117-.1.176-.144.136-.111.28-.233.43-.364.08-.07.158-.138.241-.213.184-.163.375-.341.576-.53.116-.11.236-.227.357-.344.158-.154.32-.31.487-.475l.419-.422c.133-.135.271-.276.409-.418.339-.348.692-.715,1.059-1.107l.167-.178c.216-.23.438-.47.662-.712.086-.093.173-.187.261-.283.775-.843,1.6-1.755,2.453-2.727.024-.025.046-.05.068-.076q.449-.509.909-1.035l0-.006-6.466-4.159c-3.687,4-7.107,7.606-9.834,10.44h0c.342.225.675.443,1,.653l.139.089c.313.2.619.394.914.576l.019.012c.505.313.976.591,1.422.846.138.078.281.163.413.236s.278.148.415.221c.163.086.323.167.471.241.113.055.221.105.324.154.161.073.311.135.452.191.076.03.154.062.224.086a3.158,3.158,0,0,0,.53.145.639.639,0,0,0,.28-.055c.031-.012.065-.028.1-.043" transform="translate(-250.864 -340.971)" fill="#fff"/>
                </g>
              </g>
            </g>
          </g>
        </g>
        <g id="Group_42838" data-name="Group 42838">
          <g id="Group_42837" data-name="Group 42837" clip-path="url(#clip-path)">
            <path id="Path_41900" data-name="Path 41900" d="M293.113,334.487c6.3-11.109,11.85-34.439,9.628-39.624-1.287-3-3.322-2.767-5.669-1.324,1.558,6.929-.015,20.277-7.663,34.653-6.824,12.829-27.917,35.5-38.545,46.543,2.884,1.9,5.291,3.3,6.328,3.45C259.784,378.554,286.817,345.6,293.113,334.487Z" transform="translate(120.731 140.773)" fill="none" stroke="#263238" stroke-linecap="round" stroke-linejoin="round" stroke-width="1"/>
            <path id="Path_41901" data-name="Path 41901" d="M262.061,371.948c-11.109-7.036-23.7-26.663-24.07-33.328a11.354,11.354,0,0,1,.173-2.183,10.687,10.687,0,0,0-6.1,2.183,141.579,141.579,0,0,0-14.442-11.48c-4.51-2.918-10.333-3.742-13.284-3.977-5.378,4.416-10.351,7.991-11.157,11.013C191.7,339.731,201.7,361.95,225.77,377.5s32.217,12.961,39.253,11.48,8.147-10-2.963-17.034" transform="translate(92.903 155.526)" fill="#263238"/>
            <path id="Path_41902" data-name="Path 41902" d="M262.061,371.948c-11.109-7.036-23.7-26.663-24.07-33.328a11.354,11.354,0,0,1,.173-2.183,10.687,10.687,0,0,0-6.1,2.183,141.579,141.579,0,0,0-14.442-11.48c-4.51-2.918-10.333-3.742-13.284-3.977-5.378,4.416-10.351,7.991-11.157,11.013C191.7,339.731,201.7,361.95,225.77,377.5s32.217,12.961,39.253,11.48S273.17,378.984,262.061,371.948Z" transform="translate(92.903 155.526)" fill="none" stroke="#263238" stroke-linecap="round" stroke-linejoin="round" stroke-width="1"/>
            <path id="Path_41903" data-name="Path 41903" d="M262.061,369.7a48.816,48.816,0,0,1-9.87-8.879c-7.643-3.245-17.84-7.461-26.792-12.97-9.628-5.925-7.406-9.628-12.961-15.183-4.263-4.263-12.648-4.816-16.329-4.844a10.106,10.106,0,0,0-2.927,4.1c-1.481,5.555,8.517,27.774,32.588,43.327s32.217,12.961,39.253,11.48,8.147-10-2.963-17.034" transform="translate(92.903 157.771)" fill="#fff"/>
          </g>
        </g>
        <g id="Group_42843" data-name="Group 42843" transform="translate(285.942 485.599)">
          <g id="Group_42842" data-name="Group 42842" clip-path="url(#clip-path-37)">
            <path id="Path_41904" data-name="Path 41904" d="M262.061,369.7a48.816,48.816,0,0,1-9.87-8.879c-7.643-3.245-17.84-7.461-26.792-12.97-9.628-5.925-7.406-9.628-12.961-15.183-4.263-4.263-12.648-4.816-16.329-4.844a10.106,10.106,0,0,0-2.927,4.1c-1.481,5.555,8.517,27.774,32.588,43.327s32.217,12.961,39.253,11.48,8.147-10-2.963-17.034" transform="translate(-193.04 -327.828)" fill="#0f4c81"/>
            <g id="Group_42841" data-name="Group 42841" transform="translate(0 0)" opacity="0.5">
              <g id="Group_42840" data-name="Group 42840">
                <g id="Group_42839" data-name="Group 42839" clip-path="url(#clip-path-38)">
                  <path id="Path_41905" data-name="Path 41905" d="M262.061,369.7a48.816,48.816,0,0,1-9.87-8.879c-7.643-3.245-17.84-7.461-26.792-12.97-9.628-5.925-7.406-9.628-12.961-15.183-4.263-4.263-12.648-4.816-16.329-4.844a10.106,10.106,0,0,0-2.927,4.1c-1.481,5.555,8.517,27.774,32.588,43.327s32.217,12.961,39.253,11.48,8.147-10-2.963-17.034" transform="translate(-193.04 -327.828)" fill="#fff"/>
                </g>
              </g>
            </g>
          </g>
        </g>
        <g id="Group_42845" data-name="Group 42845">
          <g id="Group_42844" data-name="Group 42844" clip-path="url(#clip-path)">
            <path id="Path_41907" data-name="Path 41907" d="M262.061,369.7a48.816,48.816,0,0,1-9.87-8.879c-7.643-3.245-17.84-7.461-26.792-12.97-9.628-5.925-7.406-9.628-12.961-15.183-4.263-4.263-12.648-4.816-16.329-4.844a10.106,10.106,0,0,0-2.927,4.1c-1.481,5.555,8.517,27.774,32.588,43.327s32.217,12.961,39.253,11.48S273.17,376.739,262.061,369.7Z" transform="translate(92.903 157.771)" fill="none" stroke="#263238" stroke-linecap="round" stroke-linejoin="round" stroke-width="1"/>
            <path id="Path_41908" data-name="Path 41908" d="M263.91,371.331c-9.628-5.555-29.255-9.258-41.846-17.775s-9.258-15.924-18.516-21.849c-4.254-2.723-7.8-2.081-10.4-.594-1.286,5.774,8.738,27.753,32.614,43.18,24.07,15.553,32.217,12.961,39.253,11.48,4.676-.985,6.709-5.081,4.3-9.782a20.33,20.33,0,0,0-5.413-4.66" transform="translate(92.905 158.735)" fill="#263238"/>
          </g>
        </g>
        <g id="Group_42850" data-name="Group 42850" transform="translate(285.949 488.567)">
          <g id="Group_42849" data-name="Group 42849" clip-path="url(#clip-path-40)">
            <g id="Group_42848" data-name="Group 42848" transform="translate(0 0)" opacity="0.53">
              <g id="Group_42847" data-name="Group 42847">
                <g id="Group_42846" data-name="Group 42846" clip-path="url(#clip-path-41)">
                  <path id="Path_41909" data-name="Path 41909" d="M263.91,371.331c-9.628-5.555-29.255-9.258-41.846-17.775s-9.258-15.924-18.516-21.849c-4.254-2.723-7.8-2.081-10.4-.594-1.286,5.774,8.738,27.753,32.614,43.18,24.07,15.553,32.217,12.961,39.253,11.48,4.676-.985,6.709-5.081,4.3-9.782a20.33,20.33,0,0,0-5.413-4.66" transform="translate(-193.044 -329.832)" fill="#fff"/>
                </g>
              </g>
            </g>
          </g>
        </g>
        <g id="Group_42852" data-name="Group 42852">
          <g id="Group_42851" data-name="Group 42851" clip-path="url(#clip-path)">
            <path id="Path_41911" data-name="Path 41911" d="M263.91,371.331c-9.628-5.555-29.255-9.258-41.846-17.775s-9.258-15.924-18.516-21.849c-4.254-2.723-7.8-2.081-10.4-.594-1.286,5.774,8.738,27.753,32.614,43.18,24.07,15.553,32.217,12.961,39.253,11.48,4.676-.985,6.709-5.081,4.3-9.782A20.33,20.33,0,0,0,263.91,371.331Z" transform="translate(92.905 158.735)" fill="none" stroke="#263238" stroke-linecap="round" stroke-linejoin="round" stroke-width="1"/>
            <path id="Path_41912" data-name="Path 41912" d="M117.959,311.495s7.109-8.631,8.123-2.031-.508,18.785-5.584,23.355-7.617-2.539-7.617-2.539l3.047-4.062s2.539,5.078,4.57-3.047-4.062-7.107-4.062-7.107Z" transform="translate(54.325 147.737)" fill="#fff"/>
            <path id="Path_41913" data-name="Path 41913" d="M117.959,311.495s7.109-8.631,8.123-2.031-.508,18.785-5.584,23.355-7.617-2.539-7.617-2.539l3.047-4.062s2.539,5.078,4.57-3.047-4.062-7.107-4.062-7.107Z" transform="translate(54.325 147.737)" fill="none" stroke="#263238" stroke-linecap="round" stroke-linejoin="round" stroke-width="1"/>
            <path id="Path_41914" data-name="Path 41914" d="M122.249,344.45c-4.207,3.114-17.911,3.114-22.118,0-8.9-6.59-7.372-38.431-7.372-38.431h36.83s1.563,31.841-7.34,38.431" transform="translate(44.593 147.275)" fill="#fff"/>
            <path id="Path_41915" data-name="Path 41915" d="M122.249,344.45c-4.207,3.114-17.911,3.114-22.118,0-8.9-6.59-7.372-38.431-7.372-38.431h36.83S131.151,337.86,122.249,344.45Z" transform="translate(44.593 147.275)" fill="none" stroke="#263238" stroke-linecap="round" stroke-linejoin="round" stroke-width="1"/>
            <path id="Path_41916" data-name="Path 41916" d="M95.429,314.833c0-4.01,3.712-4.01,3.712-8.02s-3.712-4.007-3.712-8.014,3.712-4.011,3.712-8.022-3.712-4.013-3.712-8.027,3.712-4.013,3.712-8.027" transform="translate(45.926 132.214)" fill="none" stroke="#263238" stroke-linecap="round" stroke-linejoin="round" stroke-width="1"/>
            <path id="Path_41917" data-name="Path 41917" d="M104.018,311.7c0-3.044,3.712-3.044,3.712-6.087s-3.712-3.044-3.712-6.088,3.712-3.047,3.712-6.094-3.712-3.048-3.712-6.1,3.712-3.048,3.712-6.1" transform="translate(50.06 135.348)" fill="none" stroke="#263238" stroke-linecap="round" stroke-linejoin="round" stroke-width="1"/>
            <path id="Path_41918" data-name="Path 41918" d="M113.466,314.833c0-4.01,3.712-4.01,3.712-8.02s-3.712-4.007-3.712-8.014,3.712-4.011,3.712-8.022-3.712-4.013-3.712-8.027,3.712-4.013,3.712-8.027" transform="translate(54.607 132.214)" fill="none" stroke="#263238" stroke-linecap="round" stroke-linejoin="round" stroke-width="1"/>
            <path id="Path_41919" data-name="Path 41919" d="M129.556,306.563c0,.927-8.245,1.678-18.415,1.678s-18.415-.751-18.415-1.678,8.245-1.678,18.415-1.678,18.415.753,18.415,1.678" transform="translate(44.625 146.729)" fill="#fff"/>
            <ellipse id="Ellipse_549" data-name="Ellipse 549" cx="18.415" cy="1.678" rx="18.415" ry="1.678" transform="translate(137.352 451.615)" fill="none" stroke="#263238" stroke-linecap="round" stroke-linejoin="round" stroke-width="1"/>
            <path id="Path_41920" data-name="Path 41920" d="M140.54,151.451s1.724,18.71,2.452,24.61,2.383,22.884,4.085,28.5,10.982,15.38,11.883,13.121,5.487-17.51,3.648-26.58-2.4-16.953-1.252-19.222,5.242-4.9,5.242-4.9a145.959,145.959,0,0,1-13.906-8.1c-6.6-4.433-11.243-9.44-12.152-7.427" transform="translate(67.636 72.667)" fill="#fff"/>
          </g>
        </g>
        <g id="Group_42857" data-name="Group 42857" transform="translate(208.175 223.66)">
          <g id="Group_42856" data-name="Group 42856" clip-path="url(#clip-path-43)">
            <path id="Path_41921" data-name="Path 41921" d="M164.308,167.847l-1.514-2.883c-2.72-1.492-6.512-3.672-10.1-6.085-6.6-4.435-11.243-9.44-12.151-7.429,0,0,1.724,18.71,2.45,24.611s2.383,22.883,4.087,28.5a18.823,18.823,0,0,0,2.373,4.62c-1.792-11.17.153-31.333.153-31.333Z" transform="translate(-140.539 -150.993)" fill="#0f4c81"/>
            <g id="Group_42855" data-name="Group 42855" transform="translate(0.001 0)" opacity="0.5">
              <g id="Group_42854" data-name="Group 42854">
                <g id="Group_42853" data-name="Group 42853" clip-path="url(#clip-path-44)">
                  <path id="Path_41922" data-name="Path 41922" d="M164.308,167.847l-1.514-2.883c-2.72-1.492-6.512-3.672-10.1-6.085-6.6-4.435-11.243-9.44-12.151-7.429,0,0,1.724,18.71,2.45,24.611s2.383,22.883,4.087,28.5a18.823,18.823,0,0,0,2.373,4.62c-1.792-11.17.153-31.333.153-31.333Z" transform="translate(-140.54 -150.993)" fill="#fff"/>
                </g>
              </g>
            </g>
          </g>
        </g>
        <g id="Group_42859" data-name="Group 42859">
          <g id="Group_42858" data-name="Group 42858" clip-path="url(#clip-path)">
            <path id="Path_41924" data-name="Path 41924" d="M140.54,151.451s1.724,18.71,2.452,24.61,2.383,22.884,4.085,28.5,10.982,15.38,11.883,13.121,5.487-17.51,3.648-26.58-2.4-16.953-1.252-19.222,5.242-4.9,5.242-4.9a145.959,145.959,0,0,1-13.906-8.1C146.093,154.445,141.45,149.438,140.54,151.451Z" transform="translate(67.636 72.667)" fill="none" stroke="#263238" stroke-linecap="round" stroke-linejoin="round" stroke-width="1"/>
            <path id="Path_41925" data-name="Path 41925" d="M142.713,167.908s10.667,8.929,18.853,12.154,20.751,3.051,22.518-1.21-3.1-37.916-7.322-46.775-8.735-9-16.177-9.679-22.354,5.392-24.971,12.588.361,17.393,2.534,23.432a44.557,44.557,0,0,0,4.564,9.49" transform="translate(64.773 58.88)" fill="#fff"/>
          </g>
        </g>
        <g id="Group_42864" data-name="Group 42864" transform="translate(199.364 181.226)">
          <g id="Group_42863" data-name="Group 42863" clip-path="url(#clip-path-46)">
            <path id="Path_41926" data-name="Path 41926" d="M161.877,167.516c-3.78-11.234-4.706-28.822-4.706-33.528,0-3.631,9.45-7.609,13.77-9.239-2.828-1.751-6.116-1.969-10.355-2.352-7.442-.675-22.354,5.392-24.971,12.588s.361,17.393,2.533,23.432a44.638,44.638,0,0,0,4.565,9.492s10.667,8.929,18.852,12.152c5.454,2.148,12.837,2.779,17.691,1.708-5.784-2.212-14.86-6.769-17.378-14.253" transform="translate(-134.591 -122.346)" fill="#0f4c81"/>
            <g id="Group_42862" data-name="Group 42862" transform="translate(0 -0.001)" opacity="0.5">
              <g id="Group_42861" data-name="Group 42861">
                <g id="Group_42860" data-name="Group 42860" clip-path="url(#clip-path-47)">
                  <path id="Path_41927" data-name="Path 41927" d="M161.877,167.516c-3.78-11.234-4.706-28.822-4.706-33.528,0-3.631,9.45-7.609,13.77-9.239-2.828-1.751-6.116-1.969-10.355-2.352-7.442-.675-22.354,5.392-24.971,12.588s.361,17.393,2.533,23.432a44.638,44.638,0,0,0,4.565,9.492s10.667,8.929,18.852,12.152c5.454,2.148,12.837,2.779,17.691,1.708-5.784-2.212-14.86-6.769-17.378-14.253" transform="translate(-134.591 -122.345)" fill="#fff"/>
                </g>
              </g>
            </g>
          </g>
        </g>
        <g id="Group_42866" data-name="Group 42866">
          <g id="Group_42865" data-name="Group 42865" clip-path="url(#clip-path)">
            <path id="Path_41929" data-name="Path 41929" d="M142.713,167.908s10.667,8.929,18.853,12.154,20.751,3.051,22.518-1.21-3.1-37.916-7.322-46.775-8.735-9-16.177-9.679-22.354,5.392-24.971,12.588.361,17.393,2.534,23.432A44.557,44.557,0,0,0,142.713,167.908Z" transform="translate(64.773 58.88)" fill="none" stroke="#263238" stroke-linecap="round" stroke-linejoin="round" stroke-width="1"/>
            <path id="Path_41930" data-name="Path 41930" d="M167.683,140.682c.167,4.266-2.506,7.836-5.972,7.972s-6.412-3.211-6.58-7.477,2.5-7.836,5.971-7.972S167.515,136.416,167.683,140.682Z" transform="translate(74.655 64.104)" fill="none" stroke="#263238" stroke-linecap="round" stroke-linejoin="round" stroke-width="1"/>
            <path id="Path_41931" data-name="Path 41931" d="M171.463,139.625c.166,4.266-1.21,7.784-3.075,7.858s-3.518-3.325-3.684-7.591,1.207-7.786,3.074-7.858S171.294,135.359,171.463,139.625Z" transform="translate(79.259 63.542)" fill="none" stroke="#263238" stroke-linecap="round" stroke-linejoin="round" stroke-width="1"/>
            <path id="Path_41932" data-name="Path 41932" d="M163.9,137.214s12.235,2.327,11.062,5.275-9.455,6.132-9.455,6.132" transform="translate(78.876 66.036)" fill="#fff"/>
            <path id="Path_41933" data-name="Path 41933" d="M163.9,137.214s12.235,2.327,11.062,5.275-9.455,6.132-9.455,6.132" transform="translate(78.876 66.036)" fill="none" stroke="#263238" stroke-linecap="round" stroke-linejoin="round" stroke-width="1"/>
            <path id="Path_41934" data-name="Path 41934" d="M163.389,136.578s.172-1.512,2.063-.545" transform="translate(78.633 65.312)" fill="none" stroke="#263238" stroke-linecap="round" stroke-linejoin="round" stroke-width="1"/>
            <line id="Line_700" data-name="Line 700" x1="22.249" y2="8.754" transform="translate(207.19 205.976)" fill="none" stroke="#263238" stroke-linecap="round" stroke-linejoin="round" stroke-width="1"/>
            <path id="Path_41935" data-name="Path 41935" d="M155.094,135.286a5.644,5.644,0,0,1,5.546-3.346" transform="translate(74.641 63.494)" fill="none" stroke="#263238" stroke-linecap="round" stroke-linejoin="round" stroke-width="2"/>
            <line id="Line_701" data-name="Line 701" x1="3.425" y2="1.293" transform="translate(241.128 195.533)" fill="none" stroke="#263238" stroke-linecap="round" stroke-linejoin="round" stroke-width="2"/>
            <path id="Path_41936" data-name="Path 41936" d="M157.954,148.865s4.4-1.161,6.975,1.455" transform="translate(76.017 71.52)" fill="none" stroke="#263238" stroke-linecap="round" stroke-linejoin="round" stroke-width="1"/>
            <path id="Path_41937" data-name="Path 41937" d="M160.551,139.633c.2,1.486-.07,2.751-.61,2.825s-1.144-1.071-1.346-2.557.07-2.751.61-2.825,1.144,1.071,1.346,2.557" transform="translate(76.293 65.968)" fill="#263238"/>
            <path id="Path_41938" data-name="Path 41938" d="M148.463,163.78s-1.5,2.96,2.7,3.118,7.018-1.889,4.984-4.387-5.03-4.961-1.939-8.305,9.107-6.161,5.737-9.9-15.811-.345-12.7-3.368,17.486-6.169,23.949-5.778,18.517-4.6,21.16-11.149-1.056-18.655-9.735-17.991-15.144,8.334-18.994,8.808-11.752-3.728-18.372.079-6.846,14.453-7.439,15.765-9.542,3.278-11.118,12.366a24.17,24.17,0,0,0,6.282,20.385c3.706,4.044,5.378,5.59,5.378,5.59Z" transform="translate(60.807 51.011)" fill="#263238"/>
            <path id="Path_41939" data-name="Path 41939" d="M148.463,163.78s-1.5,2.96,2.7,3.118,7.018-1.889,4.984-4.387-5.03-4.961-1.939-8.305,9.107-6.161,5.737-9.9-15.811-.345-12.7-3.368,17.486-6.169,23.949-5.778,18.517-4.6,21.16-11.149-1.056-18.655-9.735-17.991-15.144,8.334-18.994,8.808-11.752-3.728-18.372.079-6.846,14.453-7.439,15.765-9.542,3.278-11.118,12.366a24.17,24.17,0,0,0,6.282,20.385c3.706,4.044,5.378,5.59,5.378,5.59Z" transform="translate(60.807 51.011)" fill="none" stroke="#263238" stroke-linecap="round" stroke-linejoin="round" stroke-width="1"/>
            <path id="Path_41940" data-name="Path 41940" d="M128.558,133.93a7.028,7.028,0,0,0,.957,3.939" transform="translate(61.864 64.455)" fill="none" stroke="#fff" stroke-linecap="round" stroke-linejoin="round" stroke-width="0.75"/>
            <path id="Path_41941" data-name="Path 41941" d="M165.849,120.4s-3.24-7.067,5.007-7.067,9.424,10.307.883,14.134-27.092,4.712-37.106,9.129a13.02,13.02,0,0,0-5.1,3.613" transform="translate(62.341 54.541)" fill="none" stroke="#fff" stroke-linecap="round" stroke-linejoin="round" stroke-width="0.75"/>
            <path id="Path_41942" data-name="Path 41942" d="M149.618,135.04c-2.96,1.059-6.8,2.542-10.708,4.356-8.245,3.828-6.478,7.657-6.478,7.657" transform="translate(63.658 64.99)" fill="none" stroke="#fff" stroke-linecap="round" stroke-linejoin="round" stroke-width="0.75"/>
            <path id="Path_41943" data-name="Path 41943" d="M148.323,133.8s-.72.213-1.951.616" transform="translate(70.443 64.395)" fill="none" stroke="#fff" stroke-linecap="round" stroke-linejoin="round" stroke-width="0.75"/>
            <path id="Path_41944" data-name="Path 41944" d="M146.215,148.7s-4.784-6.9-9.834-4.127-1.114,12.617,1.921,16.044,8.911-2.93,9.492-4.564" transform="translate(64.469 69.26)" fill="#fff"/>
          </g>
        </g>
        <g id="Group_42871" data-name="Group 42871" transform="translate(198.428 213.174)">
          <g id="Group_42870" data-name="Group 42870" clip-path="url(#clip-path-49)">
            <path id="Path_41945" data-name="Path 41945" d="M146.215,148.7s-4.784-6.9-9.834-4.127-1.114,12.617,1.921,16.044,8.911-2.93,9.492-4.564" transform="translate(-133.959 -143.914)" fill="#0f4c81"/>
            <g id="Group_42869" data-name="Group 42869" transform="translate(-0.001)" opacity="0.5">
              <g id="Group_42868" data-name="Group 42868">
                <g id="Group_42867" data-name="Group 42867" clip-path="url(#clip-path-50)">
                  <path id="Path_41946" data-name="Path 41946" d="M146.215,148.7s-4.784-6.9-9.834-4.127-1.114,12.617,1.921,16.044,8.911-2.93,9.492-4.564" transform="translate(-133.958 -143.914)" fill="#fff"/>
                </g>
              </g>
            </g>
          </g>
        </g>
        <g id="Group_42873" data-name="Group 42873">
          <g id="Group_42872" data-name="Group 42872" clip-path="url(#clip-path)">
            <path id="Path_41948" data-name="Path 41948" d="M146.215,148.7s-4.784-6.9-9.834-4.127-1.114,12.617,1.921,16.044,8.911-2.93,9.492-4.564" transform="translate(64.469 69.26)" fill="none" stroke="#263238" stroke-linecap="round" stroke-linejoin="round" stroke-width="1"/>
            <path id="Path_41949" data-name="Path 41949" d="M138.395,235.685H32.221a7.583,7.583,0,0,1-7.584-7.584V150.478a7.584,7.584,0,0,1,7.584-7.584H138.395a7.583,7.583,0,0,1,7.584,7.584V228.1a7.583,7.583,0,0,1-7.584,7.584" transform="translate(11.857 68.769)" fill="#fff"/>
            <rect id="Rectangle_3637" data-name="Rectangle 3637" width="121.342" height="92.791" rx="5.12" transform="translate(36.494 211.663)" fill="none" stroke="#263238" stroke-linecap="round" stroke-linejoin="round" stroke-width="1"/>
            <path id="Path_41950" data-name="Path 41950" d="M105,193.251l71.1,18.516L105,176.957" transform="translate(50.53 85.163)" fill="#fff"/>
            <path id="Path_41951" data-name="Path 41951" d="M105,193.251l71.1,18.516L105,176.957" transform="translate(50.53 85.163)" fill="none" stroke="#263238" stroke-linecap="round" stroke-linejoin="round" stroke-width="1"/>
            <rect id="Rectangle_3638" data-name="Rectangle 3638" width="28.551" height="74.946" transform="translate(46.309 220.585)" fill="#0f4c81"/>
            <rect id="Rectangle_3639" data-name="Rectangle 3639" width="28.551" height="74.946" transform="translate(46.309 220.585)" fill="none" stroke="#263238" stroke-linecap="round" stroke-linejoin="round" stroke-width="1"/>
            <rect id="Rectangle_3640" data-name="Rectangle 3640" width="3.568" height="74.946" transform="translate(147.971 220.585)" fill="#0f4c81"/>
            <rect id="Rectangle_3641" data-name="Rectangle 3641" width="3.568" height="74.946" transform="translate(147.971 220.585)" fill="none" stroke="#263238" stroke-linecap="round" stroke-linejoin="round" stroke-width="1"/>
            <rect id="Rectangle_3642" data-name="Rectangle 3642" width="3.568" height="6.405" transform="translate(147.971 254.855)" fill="#263238"/>
            <rect id="Rectangle_3643" data-name="Rectangle 3643" width="3.568" height="6.405" transform="translate(147.971 254.855)" fill="none" stroke="#263238" stroke-linecap="round" stroke-linejoin="round" stroke-width="1"/>
            <line id="Line_702" data-name="Line 702" x2="56.209" transform="translate(83.782 222.369)" fill="#fff"/>
            <line id="Line_703" data-name="Line 703" x2="56.209" transform="translate(83.782 222.369)" fill="none" stroke="#263238" stroke-linecap="round" stroke-linejoin="round" stroke-width="1"/>
            <line id="Line_704" data-name="Line 704" x2="56.209" transform="translate(83.782 230.399)" fill="#fff"/>
            <line id="Line_705" data-name="Line 705" x2="56.209" transform="translate(83.782 230.399)" fill="none" stroke="#263238" stroke-linecap="round" stroke-linejoin="round" stroke-width="1"/>
            <line id="Line_706" data-name="Line 706" x2="56.209" transform="translate(83.782 238.429)" fill="#fff"/>
            <line id="Line_707" data-name="Line 707" x2="56.209" transform="translate(83.782 238.429)" fill="none" stroke="#263238" stroke-linecap="round" stroke-linejoin="round" stroke-width="1"/>
            <line id="Line_708" data-name="Line 708" x2="56.209" transform="translate(83.782 246.459)" fill="#fff"/>
            <line id="Line_709" data-name="Line 709" x2="56.209" transform="translate(83.782 246.459)" fill="none" stroke="#263238" stroke-linecap="round" stroke-linejoin="round" stroke-width="1"/>
            <line id="Line_710" data-name="Line 710" x2="56.209" transform="translate(83.782 266.088)" fill="#fff"/>
            <line id="Line_711" data-name="Line 711" x2="56.209" transform="translate(83.782 266.088)" fill="none" stroke="#263238" stroke-linecap="round" stroke-linejoin="round" stroke-width="1"/>
            <line id="Line_712" data-name="Line 712" x2="56.209" transform="translate(83.782 273.226)" fill="#fff"/>
            <line id="Line_713" data-name="Line 713" x2="56.209" transform="translate(83.782 273.226)" fill="none" stroke="#263238" stroke-linecap="round" stroke-linejoin="round" stroke-width="1"/>
            <line id="Line_714" data-name="Line 714" x2="56.209" transform="translate(83.782 280.364)" fill="#fff"/>
            <line id="Line_715" data-name="Line 715" x2="56.209" transform="translate(83.782 280.364)" fill="none" stroke="#263238" stroke-linecap="round" stroke-linejoin="round" stroke-width="1"/>
            <line id="Line_716" data-name="Line 716" x2="56.209" transform="translate(83.782 295.176)" fill="#fff"/>
            <line id="Line_717" data-name="Line 717" x2="56.209" transform="translate(83.782 295.176)" fill="none" stroke="#263238" stroke-linecap="round" stroke-linejoin="round" stroke-width="1"/>
          </g>
        </g>
        <g id="Group_42878" data-name="Group 42878">
          <g id="Group_42877" data-name="Group 42877" clip-path="url(#clip-path)">
            <path id="Path_41952" data-name="Path 41952" d="M354.51,335.648c0,6.138-11.093,11.115-24.776,11.115s-24.777-4.977-24.777-11.115,11.093-11.115,24.777-11.115,24.776,4.977,24.776,11.115" transform="translate(146.764 156.185)" fill="#0f4c81"/>
            <g id="Group_42876" data-name="Group 42876" transform="translate(451.721 480.719)" opacity="0.5">
              <g id="Group_42875" data-name="Group 42875">
                <g id="Group_42874" data-name="Group 42874" clip-path="url(#clip-path-53)">
                  <path id="Path_41953" data-name="Path 41953" d="M354.51,335.648c0,6.138-11.093,11.115-24.776,11.115s-24.777-4.977-24.777-11.115,11.093-11.115,24.777-11.115,24.776,4.977,24.776,11.115" transform="translate(-304.957 -324.533)" fill="#fff"/>
                </g>
              </g>
            </g>
            <path id="Path_41954" data-name="Path 41954" d="M303.935,224.605c2.651,1.158,9.138,1.013,9.142,1.012.068,0-1.394-4.245-1.517-4.5-1.424-2.977-5.924-7.892-9.585-7.4a4.373,4.373,0,0,0-3.509,5.481c.607,2.537,3.21,4.422,5.469,5.408" transform="translate(143.577 102.837)" fill="#263238"/>
            <path id="Path_41955" data-name="Path 41955" d="M388.722,208.638c-3.674-.4-8.04,4.639-9.382,7.655-.116.261-1.462,4.543-1.394,4.542h.078c-.7.79-1.432,1.644-2.217,2.594-1.438,1.766-3.045,3.773-4.648,6.076a77.983,77.983,0,0,0-4.819,7.677,57.145,57.145,0,0,0-4.116,9.265c-.012.039-.019.078-.033.117.019-1.081-.028-4.11-.059-4.343-.424-3.272-3.167-9.345-6.8-10.018a4.374,4.374,0,0,0-5.044,4.113c-.213,2.6,1.672,5.2,3.511,6.843,2.072,1.852,7.827,3.645,8.285,3.786a77.766,77.766,0,0,0-2.431,10.038c-.353,1.977-.646,3.98-.915,5.99-.013-.936-.033-1.773-.049-1.89-.424-3.272-3.167-9.345-6.8-10.018a4.373,4.373,0,0,0-5.044,4.113c-.213,2.6,1.672,5.2,3.511,6.843,1.865,1.666,6.74,3.293,8.036,3.708-.095.772-.2,1.542-.292,2.315-.443,3.708-.868,7.411-1.4,11.029-.185,1.277-.416,2.526-.641,3.776-.012-.831-.031-1.532-.044-1.638-.424-3.272-3.167-9.347-6.8-10.018a4.373,4.373,0,0,0-5.044,4.113c-.213,2.6,1.672,5.2,3.511,6.843,1.779,1.589,6.266,3.131,7.8,3.631-.27,1.274-.538,2.551-.856,3.773-.237.83-.406,1.644-.69,2.465q-.4,1.227-.784,2.429c-.555,1.526-1.118,3.1-1.7,4.579-.4,1.028-.791,2-1.187,2.983.2-1.268.539-3.756.544-3.968a16.959,16.959,0,0,0-2.277-8.259,5.033,5.033,0,0,0-.061-.967,4.373,4.373,0,0,0-5.346-3.711c-3.571.951-5.836,7.22-6.005,10.514-.01.194.117,2.315.219,3.653-.181-.776-.345-1.533-.541-2.33-.375-1.579-.794-3.145-1.24-4.83q-.367-1.209-.739-2.443c-.23-.821-.576-1.659-.864-2.5-.707-1.93-1.515-3.853-2.374-5.771,1.383-.332,6.275-1.579,8.239-3.085s4.029-3.955,4.01-6.563a4.372,4.372,0,0,0-4.722-4.478c-3.675.4-6.863,6.251-7.529,9.483-.042.2-.259,2.574-.354,3.879-.524-1.148-1.043-2.3-1.612-3.444-1.643-3.306-3.407-6.6-5.153-9.9-.536-1.009-1.056-2.02-1.583-3.032.495-.113,6.34-1.469,8.539-3.157,1.955-1.5,4.031-3.955,4.011-6.563a4.374,4.374,0,0,0-4.724-4.478c-3.674.4-6.861,6.252-7.528,9.483-.05.244-.358,3.659-.394,4.53-1.157-2.226-2.29-4.457-3.317-6.7a76.821,76.821,0,0,1-3.607-9.314c.23-.052,6.337-1.441,8.59-3.17,1.957-1.5,4.031-3.955,4.011-6.563a4.373,4.373,0,0,0-4.724-4.476c-3.674.4-6.861,6.251-7.528,9.483-.053.253-.382,3.927-.394,4.6-.058-.185-.136-.37-.191-.555a56.322,56.322,0,0,1-1.869-9.834c-.206-1.835-.3-3.6-.354-5.321,1.164-.142,6.478-.85,8.677-2.182,2.108-1.277,4.439-3.488,4.707-6.082a4.375,4.375,0,0,0-4.2-4.97c-3.694-.007-7.507,5.46-8.525,8.6-.055.17-.425,1.969-.677,3.281-.012-.776-.039-1.578-.036-2.321,0-2.8.182-5.353.357-7.618.11-1.287.234-2.449.363-3.534,1.07-.735,5.343-3.752,6.658-5.909,1.283-2.1,2.331-5.141,1.373-7.568a4.371,4.371,0,0,0-6.018-2.472c-3.284,1.7-4.148,8.3-3.6,11.56.047.28,1.287,4.595,1.344,4.558l.064-.044c-.144,1.041-.286,2.161-.418,3.386-.225,2.266-.458,4.827-.523,7.633a77.509,77.509,0,0,0,.215,9.061,57.123,57.123,0,0,0,1.678,10c.01.039.027.079.037.116-.581-.912-2.292-3.411-2.446-3.589-2.158-2.494-7.8-6.048-11.2-4.6a4.374,4.374,0,0,0-1.937,6.214c1.256,2.286,4.265,3.416,6.7,3.771,2.751.4,8.539-1.278,9-1.413a77.446,77.446,0,0,0,3.511,9.714c.8,1.843,1.656,3.675,2.54,5.5-.527-.773-1.006-1.461-1.083-1.551-2.16-2.5-7.8-6.048-11.2-4.6a4.373,4.373,0,0,0-1.937,6.212c1.256,2.286,4.265,3.416,6.7,3.771,2.474.361,7.439-.972,8.747-1.341.347.7.686,1.4,1.035,2.091,1.675,3.337,3.362,6.661,4.918,9.972.548,1.166,1.046,2.334,1.548,3.5-.47-.686-.871-1.261-.942-1.342-2.158-2.494-7.8-6.048-11.2-4.6a4.374,4.374,0,0,0-1.937,6.214c1.256,2.286,4.265,3.416,6.7,3.771,2.363.344,6.955-.844,8.513-1.277.477,1.212.958,2.423,1.367,3.619.259.822.567,1.6.784,2.437l.686,2.459c.379,1.579.779,3.205,1.109,4.755.238,1.077.446,2.106.658,3.143-.532-1.167-1.623-3.431-1.736-3.61-1.755-2.794-6.79-7.159-10.372-6.246a4.372,4.372,0,0,0-2.856,5.847c.9,2.45,3.7,4.023,6.054,4.745,2.6.792,8.341.068,9.058-.028.344,1.717.662,3.391.938,4.974.967,5.487,1.566,10.095,1.938,13.319.065.572.121,1.084.173,1.566H327.6l3.576,69.773a9.973,9.973,0,0,0,19.92,0l3.576-69.773H344.307c.077-.159.15-.308.23-.476,1.422-2.961,3.394-7.218,5.524-12.426.677-1.644,1.367-3.414,2.059-5.239.695.147,6.381,1.3,9.033.7,2.4-.542,5.315-1.9,6.392-4.279a4.372,4.372,0,0,0-2.414-6.044c-3.5-1.176-8.849,2.8-10.807,5.457-.116.157-1.181,2-1.832,3.167.278-.747.557-1.468.835-2.241.558-1.524,1.071-3.06,1.629-4.713q.362-1.209.732-2.446c.262-.81.434-1.7.658-2.558.477-2,.862-4.051,1.2-6.125,1.336.486,6.1,2.145,8.574,1.972s5.541-1.077,6.965-3.263a4.373,4.373,0,0,0-1.469-6.34c-3.284-1.693-9.172,1.429-11.511,3.756-.145.145-1.635,2-2.435,3.041.2-1.247.4-2.493.555-3.762.455-3.663.8-7.386,1.163-11.1.111-1.136.234-2.268.354-3.4.473.179,6.1,2.272,8.862,2.078,2.459-.172,5.543-1.075,6.966-3.262a4.373,4.373,0,0,0-1.469-6.34c-3.284-1.693-9.172,1.429-11.511,3.756-.176.175-2.317,2.853-2.828,3.561.264-2.5.55-4.982.932-7.42a77.148,77.148,0,0,1,2.129-9.759c.221.083,6.082,2.294,8.914,2.1,2.459-.173,5.543-1.075,6.966-3.262a4.373,4.373,0,0,0-1.469-6.34c-3.284-1.695-9.172,1.428-11.511,3.756-.184.182-2.486,3.065-2.865,3.617.053-.187.09-.384.147-.569a56.477,56.477,0,0,1,3.866-9.234c.84-1.644,1.736-3.168,2.64-4.633,1.05.524,5.872,2.865,8.44,2.968,2.463.1,5.627-.461,7.282-2.477a4.372,4.372,0,0,0-.764-6.463c-3.078-2.046-9.273.412-11.853,2.469-.139.111-1.441,1.406-2.375,2.363.418-.655.837-1.338,1.25-1.957,1.546-2.329,3.1-4.364,4.5-6.156.8-1.013,1.546-1.914,2.253-2.748,1.3-.024,6.526-.182,8.812-1.256,2.231-1.047,4.781-3,5.322-5.553a4.375,4.375,0,0,0-3.657-5.384m-40.68,98.711c-2.22,5.11-4.265,9.283-5.732,12.177-.3.584-.561,1.1-.809,1.576h-.246c-.071-.564-.153-1.182-.247-1.877-.449-3.254-1.152-7.892-2.25-13.411-.342-1.743-.744-3.6-1.173-5.5a47.611,47.611,0,0,0,5.054-2.376c1.89,2.047,6.737,4.445,7.365,4.749-.661,1.622-1.317,3.194-1.961,4.666" transform="translate(143.754 96.724)" fill="#263238"/>
            <path id="Path_41956" data-name="Path 41956" d="M349.317,227.369c.058.036,1.179-4.31,1.219-4.593.455-3.268-.587-9.85-3.915-11.458a4.372,4.372,0,0,0-5.95,2.635c-.892,2.451.24,5.458,1.579,7.528,1.572,2.429,7.063,5.885,7.067,5.888" transform="translate(163.799 101.499)" fill="#263238"/>
          </g>
        </g>
      </g>
    </g>
  </g>
</svg>
