<?xml version="1.0" encoding="iso-8859-1"?>
<!-- Generator: Adobe Illustrator 18.1.1, SVG Export Plug-In . SVG Version: 6.00 Build 0)  -->
<svg version="1.1" id="Layer_3" xmlns="http://www.w3.org/2000/svg" xmlns:xlink="http://www.w3.org/1999/xlink" x="0px" y="0px"
	 viewBox="0 0 204.349 204.349" xml:space="preserve">
<g>
	<path style="fill:#767676;" d="M102.173,0.005C45.841,0.005,0,45.836,0,102.174s45.841,102.169,102.173,102.169
		s102.176-45.831,102.176-102.169S158.507,0.005,102.173,0.005z M102.173,200.936c-54.452,0-98.755-44.306-98.755-98.762
		c0-54.449,44.303-98.751,98.755-98.751s98.755,44.303,98.755,98.751C200.935,156.63,156.628,200.936,102.173,200.936z"/>
	<path style="fill:#767676;" d="M102.173,18.744c-46.829,0-84.93,38.097-84.93,84.93c0,46.829,38.1,84.923,84.93,84.923
		c46.822,0,84.926-38.1,84.926-84.923C187.099,56.841,148.998,18.744,102.173,18.744z M102.173,22.155
		c34.944,0,64.809,22.11,76.376,53.064c-73.291,49.657-143.415,6.281-152.77,0.029C37.338,44.276,67.218,22.155,102.173,22.155z
		 M90.634,184.363c-39.507-5.626-69.977-39.661-69.977-80.689c0-0.633,0.061-1.249,0.075-1.875v2.734
		c24.336,0,42.735,7.043,54.703,20.936C94.26,147.329,91.193,179.649,90.634,184.363z M102.18,185.197
		c-2.759-0.011-5.472-0.147-8.156-0.412c0.676-5.293,3.947-38.365-15.99-61.535c-12.626-14.68-31.898-22.128-57.272-22.132
		c0.247-7.834,1.56-15.407,3.869-22.536c7.852,5.111,39.11,23.628,79.708,23.628c22.983,0,48.977-5.973,75.378-23.642
		c2.405,7.415,3.769,15.296,3.937,23.474c-24.501,0.344-43.218,7.73-55.547,22.067c-18.918,21.981-16.946,52.835-16.112,60.479
		C108.772,184.971,105.501,185.197,102.18,185.197z M115.382,184.105c-0.741-7.383-2.419-37.181,15.292-57.773
		c11.667-13.557,29.504-20.543,52.963-20.886C182.786,145.103,153.504,177.86,115.382,184.105z"/>
	<path style="fill:#767676;" d="M149.968,103.728l-1.349-3.139l25.829-11.069l1.342,3.135L149.968,103.728z M30.345,92.647
		l25.8,11.098l1.346-3.131l-25.8-11.098L30.345,92.647z"/>
	<path style="fill:#767676;" d="M116.266,119.256c0-7.773-6.327-14.094-14.09-14.094c-7.773,0-14.094,6.324-14.094,14.094
		c0,7.766,6.317,14.09,14.094,14.09C109.942,133.346,116.266,127.022,116.266,119.256z M102.176,129.928
		c-5.887,0-10.676-4.789-10.676-10.669c0-5.887,4.792-10.669,10.676-10.669c5.884,0,10.669,4.789,10.669,10.669
		S108.063,129.928,102.176,129.928z"/>
</g>
<g>
</g>
<g>
</g>
<g>
</g>
<g>
</g>
<g>
</g>
<g>
</g>
<g>
</g>
<g>
</g>
<g>
</g>
<g>
</g>
<g>
</g>
<g>
</g>
<g>
</g>
<g>
</g>
<g>
</g>
</svg>
