<svg xmlns="http://www.w3.org/2000/svg" xmlns:xlink="http://www.w3.org/1999/xlink" width="143" height="54" viewBox="0 0 143 54">
  <defs>
    <filter id="Ellipse_472" x="0" y="0" width="54" height="54" filterUnits="userSpaceOnUse">
      <feOffset dy="2" input="SourceAlpha"/>
      <feGaussianBlur stdDeviation="3" result="blur"/>
      <feFlood flood-opacity="0.078"/>
      <feComposite operator="in" in2="blur"/>
      <feComposite in="SourceGraphic"/>
    </filter>
  </defs>
  <g id="Group_39452" data-name="Group 39452" transform="translate(-1074 -4478)">
    <g id="Group_38655" data-name="Group 38655" transform="translate(135 4453.935)">
      <g id="Rectangle_2119" data-name="Rectangle 2119" transform="translate(943 27.065)" fill="none" stroke="#e9e9e9" stroke-width="1">
        <rect width="139" height="44" rx="22" stroke="none"/>
        <rect x="0.5" y="0.5" width="138" height="43" rx="21.5" fill="none"/>
      </g>
    </g>
    <g id="Page-1" transform="translate(765 4456)">
      <g id="Artboard-1" transform="translate(-461 -850)">
        <g id="App-Store" transform="translate(462 850)">
          <g transform="matrix(1, 0, 0, 1, 308, 22)" filter="url(#Ellipse_472)">
            <circle id="Ellipse_472-2" data-name="Ellipse 472" cx="18" cy="18" r="18" transform="translate(9 7)" fill="#fff"/>
          </g>
          <g id="icon" transform="translate(325.287 33.773)">
            <path id="Fill-2" d="M16.236,75.226a5.451,5.451,0,0,1,2.587-4.565,5.607,5.607,0,0,0-4.388-2.376c-1.843-.194-3.635,1.107-4.574,1.107-.955,0-2.409-1.082-3.965-1.057a5.83,5.83,0,0,0-4.912,3c-2.122,3.677-.541,9.088,1.5,12.064,1.023,1.454,2.206,3.086,3.77,3.027,1.522-.059,2.1-.972,3.931-.972s2.359.972,3.948.938c1.64-.025,2.663-1.463,3.652-2.934a11.925,11.925,0,0,0,1.665-3.4,5.273,5.273,0,0,1-3.212-4.836" transform="translate(0 -62.495)"/>
            <path id="Fill-3" d="M117.975,3.838A5.363,5.363,0,0,0,119.2,0a5.438,5.438,0,0,0-3.525,1.826,5.143,5.143,0,0,0-1.26,3.694,4.505,4.505,0,0,0,3.559-1.682" transform="translate(-104.741)"/>
          </g>
          <g id="Group_39449" data-name="Group 39449" transform="translate(3 -0.773)">
            <g id="Group_39448" data-name="Group 39448" transform="translate(360.174 46.276)">
              <path id="Fill-4" d="M9.217,13.944H7.332L6.3,10.7H2.711l-.98,3.245H-.1L3.452,2.9h2.2L9.217,13.944ZM5.994,9.338,5.059,6.459c-.1-.3-.284-.987-.553-2.079H4.469c-.112.471-.284,1.166-.523,2.079l-.92,2.879Z" transform="translate(0.1 -2.743)"/>
              <path id="Fill-5" d="M151.672,45.953a4.485,4.485,0,0,1-1.107,3.208,3.224,3.224,0,0,1-2.453,1.047,2.456,2.456,0,0,1-2.273-1.129v4.18h-1.772V44.682c0-.852-.022-1.72-.067-2.617h1.555l.1,1.264h.03a3.14,3.14,0,0,1,5.032-.314A4.332,4.332,0,0,1,151.672,45.953Zm-1.8.06a3.251,3.251,0,0,0-.523-1.914,1.812,1.812,0,0,0-1.54-.785,1.879,1.879,0,0,0-1.189.434,2,2,0,0,0-.7,1.137,2.421,2.421,0,0,0-.082.538v1.331a2.141,2.141,0,0,0,.531,1.466,1.767,1.767,0,0,0,1.383.6,1.825,1.825,0,0,0,1.555-.77A3.378,3.378,0,0,0,149.87,46.012Z" transform="translate(-133.225 -38.827)"/>
              <path id="Fill-6" d="M274.072,45.953a4.485,4.485,0,0,1-1.107,3.208,3.224,3.224,0,0,1-2.453,1.047,2.456,2.456,0,0,1-2.273-1.129v4.18h-1.772V44.682c0-.852-.022-1.72-.067-2.617h1.555l.1,1.264h.03a3.14,3.14,0,0,1,5.032-.314A4.332,4.332,0,0,1,274.072,45.953Zm-1.8.06a3.251,3.251,0,0,0-.523-1.914,1.812,1.812,0,0,0-1.54-.785,1.879,1.879,0,0,0-1.189.434,2.043,2.043,0,0,0-.7,1.137,2.421,2.421,0,0,0-.082.538v1.331a2.141,2.141,0,0,0,.531,1.466,1.767,1.767,0,0,0,1.383.6,1.816,1.816,0,0,0,1.555-.77A3.327,3.327,0,0,0,272.27,46.012Z" transform="translate(-246.473 -38.827)"/>
              <path id="Fill-7" d="M421.342,8.905a2.957,2.957,0,0,1-.98,2.3,4.348,4.348,0,0,1-3.006.965,5.26,5.26,0,0,1-2.856-.688L414.911,10a4.967,4.967,0,0,0,2.557.688,2.408,2.408,0,0,0,1.555-.449,1.465,1.465,0,0,0,.561-1.2,1.557,1.557,0,0,0-.456-1.129,4.27,4.27,0,0,0-1.525-.852c-1.952-.725-2.916-1.78-2.916-3.163a2.805,2.805,0,0,1,1.024-2.228A4.063,4.063,0,0,1,418.425.8a5.336,5.336,0,0,1,2.5.523l-.449,1.436a4.413,4.413,0,0,0-2.124-.508,2.2,2.2,0,0,0-1.466.456,1.327,1.327,0,0,0-.441,1,1.342,1.342,0,0,0,.508,1.077,5.7,5.7,0,0,0,1.608.852,5.39,5.39,0,0,1,2.094,1.346,2.8,2.8,0,0,1,.68,1.922" transform="translate(-383.5 -0.8)"/>
              <path id="Fill-8" d="M524.445,20.912h-1.952v3.866c0,.98.344,1.473,1.032,1.473a3.282,3.282,0,0,0,.785-.082l.052,1.346a4.1,4.1,0,0,1-1.376.194,2.118,2.118,0,0,1-1.638-.643,3.122,3.122,0,0,1-.591-2.146V20.9H519.6V19.581h1.159V18.123l1.735-.523v1.981h1.952v1.331" transform="translate(-480.741 -16.344)"/>
              <path id="Fill-9" d="M605.3,46.075a4.374,4.374,0,0,1-1.047,3.013,3.747,3.747,0,0,1-2.916,1.211,3.588,3.588,0,0,1-2.8-1.159A4.209,4.209,0,0,1,597.5,46.21a4.343,4.343,0,0,1,1.069-3.028A3.732,3.732,0,0,1,601.463,42a3.639,3.639,0,0,1,2.819,1.166A4.156,4.156,0,0,1,605.3,46.075Zm-1.832.037A3.569,3.569,0,0,0,603,44.236a1.836,1.836,0,0,0-3.215,0,4.049,4.049,0,0,0,0,3.791,1.816,1.816,0,0,0,3.2-.015A3.623,3.623,0,0,0,603.467,46.112Z" transform="translate(-552.816 -38.919)"/>
              <path id="Fill-10" d="M725.969,43.62a3.277,3.277,0,0,0-.561-.045,1.669,1.669,0,0,0-1.443.7,2.667,2.667,0,0,0-.441,1.57v4.18h-1.772V44.569c0-.92-.015-1.757-.052-2.5h1.54l.067,1.525h.052a2.715,2.715,0,0,1,.882-1.264,2.152,2.152,0,0,1,1.279-.426,3.722,3.722,0,0,1,.441.03l.008,1.69" transform="translate(-667.73 -38.827)"/>
              <path id="Fill-11" d="M796.981,45.391a4.045,4.045,0,0,1-.067.8H791.6a2.309,2.309,0,0,0,.77,1.8,2.651,2.651,0,0,0,1.735.553,5.957,5.957,0,0,0,2.146-.374l.277,1.226a6.644,6.644,0,0,1-2.669.493,3.868,3.868,0,0,1-2.909-1.092,4.031,4.031,0,0,1-1.054-2.924,4.569,4.569,0,0,1,.987-3,3.388,3.388,0,0,1,2.781-1.279,2.955,2.955,0,0,1,2.6,1.279,4.325,4.325,0,0,1,.71,2.512Zm-1.69-.456a2.384,2.384,0,0,0-.344-1.361,1.544,1.544,0,0,0-1.406-.74,1.68,1.68,0,0,0-1.406.718,2.658,2.658,0,0,0-.523,1.376Z" transform="translate(-730.83 -38.549)"/>
            </g>
            <g id="Available-on-the" transform="translate(360.832 36.773)">
              <path id="Fill-12" d="M4.284,9.928H3.356L2.848,8.336H1.083L.6,9.928H-.3L1.442,4.5H2.519ZM2.691,7.663,2.235,6.242C2.19,6.1,2.1,5.756,1.958,5.218H1.943c-.06.232-.135.568-.262,1.024L1.233,7.663Z" transform="translate(0.3 -4.216)"/>
              <path id="Fill-13" d="M72.861,24.7l-1.48,3.918h-.845L69.1,24.7h.935l.665,2.071c.112.344.209.673.284.987h.022c.067-.284.164-.613.284-.987l.658-2.071h.912" transform="translate(-63.911 -22.905)"/>
              <path id="Fill-14" d="M131.53,27.785l-.067-.449h-.022a1.346,1.346,0,0,1-1.144.538,1.136,1.136,0,0,1-1.2-1.151c0-.965.837-1.466,2.288-1.466v-.075c0-.516-.277-.77-.815-.77a1.826,1.826,0,0,0-1.024.292l-.179-.568a2.514,2.514,0,0,1,1.346-.336c1.024,0,1.54.538,1.54,1.623v1.443a5.212,5.212,0,0,0,.06.935Zm-.12-1.952c-.965,0-1.451.232-1.451.793a.554.554,0,0,0,.6.613.832.832,0,0,0,.852-.8Z" transform="translate(-119.425 -22.073)"/>
              <path id="Fill-15" d="M190.816,3.239a.52.52,0,1,1,.546-.523A.509.509,0,0,1,190.816,3.239Zm-.419.643h.867V7.793H190.4Z" transform="translate(-176.049 -2.088)"/>
              <path id="Fill-16" d="M223.9.7h.867V6.405H223.9Z" transform="translate(-207.136 -0.7)"/>
              <path id="Fill-17" d="M254.83,27.693l-.067-.449h-.022a1.346,1.346,0,0,1-1.144.538,1.136,1.136,0,0,1-1.2-1.151c0-.965.837-1.466,2.288-1.466v-.075c0-.516-.277-.77-.815-.77a1.826,1.826,0,0,0-1.024.292l-.179-.576a2.514,2.514,0,0,1,1.346-.336c1.024,0,1.54.538,1.54,1.623v1.443a6.184,6.184,0,0,0,.052.935h-.778v-.007Zm-.12-1.952c-.965,0-1.451.232-1.451.793a.554.554,0,0,0,.6.613.832.832,0,0,0,.852-.8Z" transform="translate(-233.505 -21.98)"/>
              <path id="Fill-18" d="M316.541,6.5a1.332,1.332,0,0,1-1.234-.7h-.015l-.052.606h-.74c.022-.314.03-.665.03-1.054V.7h.875V3.07h.015a1.345,1.345,0,0,1,1.249-.651c.942,0,1.6.808,1.6,1.981A1.884,1.884,0,0,1,316.541,6.5Zm-.179-3.4A1,1,0,0,0,315.4,4.14v.688a.956.956,0,0,0,.942.98c.651,0,1.039-.531,1.039-1.376,0-.793-.4-1.331-1.024-1.331Z" transform="translate(-290.962 -0.7)"/>
              <path id="Fill-19" d="M382.1.7h.867V6.405H382.1Z" transform="translate(-353.507 -0.7)"/>
              <path id="Fill-20" d="M414.347,25.758h-2.61a1.123,1.123,0,0,0,1.234,1.159,2.941,2.941,0,0,0,1.054-.187l.135.606a3.171,3.171,0,0,1-1.308.239A1.817,1.817,0,0,1,410.9,25.6a1.912,1.912,0,0,1,1.854-2.1,1.648,1.648,0,0,1,1.63,1.862A1.516,1.516,0,0,1,414.347,25.758Zm-.793-.621c0-.606-.307-1.032-.86-1.032a1.031,1.031,0,0,0-.95,1.032Z" transform="translate(-380.154 -21.795)"/>
              <path id="Fill-21" d="M504.184,27.783a1.861,1.861,0,0,1-1.884-2.011,1.905,1.905,0,0,1,1.952-2.071,1.847,1.847,0,0,1,1.884,2A1.92,1.92,0,0,1,504.184,27.783Zm.037-3.447c-.628,0-1.032.591-1.032,1.406s.411,1.391,1.024,1.391,1.024-.628,1.024-1.413S504.835,24.336,504.222,24.336Z" transform="translate(-464.72 -21.98)"/>
              <path id="Fill-22" d="M573.725,27.6h-.867V25.35c0-.7-.269-1.039-.793-1.039a.9.9,0,0,0-.867.957v2.325h-.867V24.8c0-.344-.007-.718-.03-1.122h.763l.037.606h.022a1.408,1.408,0,0,1,1.241-.688c.823,0,1.361.628,1.361,1.652V27.6" transform="translate(-527.635 -21.888)"/>
              <path id="Fill-23" d="M662.87,13.33h-.957v1.9c0,.486.172.725.508.725a1.9,1.9,0,0,0,.389-.037l.022.658a1.884,1.884,0,0,1-.673.1c-.688,0-1.092-.381-1.092-1.368V13.33H660.5V12.68h.568v-.718l.852-.262v.972h.957v.658" transform="translate(-611.091 -10.877)"/>
              <path id="Fill-24" d="M711.795,6.413h-.867V4.177c0-.7-.269-1.054-.793-1.054a.852.852,0,0,0-.867.927V6.405H708.4V.7h.867V3.048h.015a1.316,1.316,0,0,1,1.174-.636c.83,0,1.338.643,1.338,1.667V6.413" transform="translate(-655.409 -0.7)"/>
              <path id="Fill-25" d="M770.547,25.758h-2.609a1.123,1.123,0,0,0,1.234,1.159,2.941,2.941,0,0,0,1.054-.187l.135.606a3.171,3.171,0,0,1-1.309.239A1.817,1.817,0,0,1,767.1,25.6a1.912,1.912,0,0,1,1.854-2.1,1.648,1.648,0,0,1,1.63,1.862A1.516,1.516,0,0,1,770.547,25.758Zm-.793-.621c0-.606-.307-1.032-.86-1.032a1.026,1.026,0,0,0-.95,1.032Z" transform="translate(-709.72 -21.795)"/>
            </g>
          </g>
        </g>
      </g>
    </g>
  </g>
</svg>
