<?xml version="1.0" standalone="no"?>
<!DOCTYPE svg PUBLIC "-//W3C//DTD SVG 20010904//EN"
 "http://www.w3.org/TR/2001/REC-SVG-20010904/DTD/svg10.dtd">
<svg version="1.0" xmlns="http://www.w3.org/2000/svg"
 width="1880.000000pt" height="1129.000000pt" viewBox="0 0 1880.000000 1129.000000"
 preserveAspectRatio="xMidYMid meet">

<g transform="translate(0.000000,1129.000000) scale(0.100000,-0.100000)"
fill="#000000" stroke="none">
<path d="M0 9956 l0 -1335 42 -5 c24 -3 140 -11 258 -17 231 -12 233 -12 247
-69 4 -14 12 -31 20 -38 23 -23 15 -27 -55 -28 -37 -1 -78 -2 -92 -3 -31 -1
-162 8 -210 15 -19 2 -74 7 -123 10 l-87 5 0 -2946 0 -2945 28 -11 c31 -12 40
-15 137 -34 39 -8 83 -18 98 -24 15 -6 34 -8 42 -5 8 3 29 1 47 -6 18 -6 56
-16 83 -20 28 -5 70 -14 95 -19 25 -6 72 -15 105 -21 33 -6 83 -17 110 -25 28
-7 77 -17 110 -21 33 -3 65 -10 70 -14 6 -4 17 -7 25 -8 8 0 42 -5 75 -11 33
-6 74 -13 92 -15 17 -2 42 -8 55 -12 13 -4 30 -8 38 -9 41 -6 228 -47 250 -55
14 -6 88 -19 165 -30 77 -11 151 -25 165 -30 14 -5 45 -12 70 -15 73 -9 223
-34 237 -40 8 -2 44 -10 81 -15 93 -15 108 -20 91 -31 -9 -6 -3 -7 16 -3 17 3
50 -1 75 -10 25 -9 57 -16 72 -16 15 0 30 -4 33 -10 3 -5 24 -10 46 -10 22 0
52 -6 67 -13 15 -8 63 -19 107 -26 44 -7 85 -16 90 -21 10 -7 74 -18 155 -26
25 -3 61 -10 80 -16 19 -6 44 -12 55 -13 11 -2 65 -12 120 -24 55 -13 160 -33
233 -46 73 -13 137 -27 142 -30 5 -3 65 -15 132 -25 68 -11 134 -25 148 -30
14 -6 43 -12 65 -15 22 -2 63 -9 90 -15 28 -6 58 -12 67 -13 10 -2 21 -6 24
-10 4 -4 22 -7 39 -7 17 0 58 -9 91 -19 52 -17 95 -25 225 -46 38 -6 75 -34
48 -36 -8 0 -36 -3 -64 -5 -118 -10 -264 -2 -275 16 -7 11 -11 11 -23 1 -10
-7 -18 -8 -21 -2 -4 5 -31 13 -61 16 -31 4 -58 11 -61 16 -3 5 -18 9 -35 9
-16 0 -36 8 -46 19 -12 15 -24 18 -50 14 -24 -4 -38 -2 -43 7 -7 11 -12 11
-22 2 -11 -9 -41 -5 -134 19 -65 17 -137 32 -159 35 -101 10 -117 13 -128 22
-7 5 -25 9 -42 8 -16 -1 -34 4 -40 11 -5 7 -28 15 -50 17 -22 2 -71 9 -110 16
-38 7 -79 12 -90 11 -23 -1 -86 15 -132 34 -18 8 -47 12 -66 8 -24 -3 -38 0
-51 12 -12 13 -20 14 -30 6 -10 -8 -18 -6 -32 10 -15 16 -26 20 -53 15 -25 -4
-38 -1 -46 11 -8 11 -32 17 -75 20 -42 3 -68 10 -75 20 -10 13 -15 13 -32 2
-18 -11 -26 -11 -50 1 -15 8 -41 15 -57 17 -16 2 -35 8 -42 14 -7 6 -18 8 -25
4 -6 -4 -15 -2 -19 5 -4 6 -24 12 -44 13 -20 1 -36 5 -36 10 0 4 -5 5 -10 2
-6 -3 -10 -1 -10 5 0 7 -8 9 -19 5 -10 -3 -30 -1 -43 4 -14 5 -61 12 -104 16
-43 3 -89 13 -102 21 -12 8 -27 12 -32 9 -6 -3 -15 -3 -22 1 -7 4 -28 9 -48
11 -19 2 -40 10 -46 18 -8 10 -20 12 -47 5 -28 -6 -45 -4 -73 10 -20 10 -42
16 -50 13 -8 -3 -14 0 -14 7 0 6 -8 10 -17 9 -10 -1 -20 0 -23 1 -3 1 -16 4
-30 6 -68 8 -198 32 -208 38 -6 3 -14 2 -17 -4 -5 -8 -11 -7 -21 1 -7 6 -31
13 -51 16 -21 3 -43 9 -50 15 -7 5 -21 7 -31 4 -11 -4 -32 -2 -48 5 -16 6 -50
12 -76 14 -26 2 -62 11 -80 19 -18 9 -58 18 -88 21 -30 3 -98 14 -150 24 -52
10 -151 29 -220 42 -69 12 -132 29 -140 36 -10 8 -29 10 -51 7 -23 -4 -40 -1
-50 8 -8 7 -56 20 -107 29 l-92 15 0 -1258 0 -1258 6033 1 c5923 1 6031 1
5992 20 -22 10 -47 19 -56 19 -9 0 -22 7 -29 15 -12 14 -15 14 -31 -1 -12 -11
-25 -14 -36 -9 -10 5 -45 10 -77 11 -33 2 -66 10 -75 18 -9 8 -45 18 -81 22
-36 4 -74 13 -86 21 -11 7 -24 10 -27 6 -4 -3 -7 -1 -7 5 0 7 5 12 11 12 5 0
7 5 3 12 -5 8 -11 6 -19 -5 -13 -18 -50 -23 -59 -8 -3 5 -26 12 -51 16 -25 3
-60 12 -78 20 -21 9 -38 10 -49 4 -12 -6 -25 -6 -39 1 -11 6 -34 8 -50 5 -22
-5 -36 -2 -49 10 -10 9 -24 14 -30 10 -6 -4 -18 1 -26 11 -13 18 -15 18 -25 2
-12 -22 -33 -23 -52 -4 -8 9 -19 11 -27 6 -18 -11 -53 7 -44 22 5 7 -2 9 -22
4 -18 -4 -24 -3 -16 2 11 8 11 10 -2 15 -9 4 -16 2 -16 -3 0 -6 -7 -10 -15
-10 -8 0 -15 4 -15 10 0 5 -15 10 -32 9 -48 0 -133 9 -197 22 -31 6 -65 11
-76 11 -10 -1 -25 4 -31 9 -11 9 -163 39 -204 40 -13 0 -109 20 -240 51 -25 6
-58 12 -75 13 -61 6 -170 27 -180 36 -6 4 -35 12 -65 18 -30 5 -73 14 -95 20
-22 5 -58 12 -80 14 -22 3 -53 10 -68 16 -16 6 -43 11 -62 11 -19 0 -36 4 -40
9 -3 5 -24 8 -47 6 -28 -3 -45 1 -52 10 -6 8 -31 16 -56 19 -62 6 -179 34
-215 50 -16 8 -75 19 -129 25 -55 7 -102 14 -105 16 -13 14 30 21 153 29 23 1
47 5 53 9 13 8 97 2 113 -8 6 -3 8 -11 5 -16 -10 -15 12 -10 25 6 15 19 34 19
85 0 22 -8 57 -14 78 -15 21 0 51 -7 66 -14 15 -8 37 -15 47 -15 37 0 74 -8
89 -21 12 -10 15 -10 15 0 0 8 6 9 18 5 9 -4 31 -9 48 -11 17 -2 80 -14 140
-28 60 -14 143 -30 184 -36 41 -7 88 -18 104 -26 16 -8 42 -14 58 -14 39 0
199 -28 256 -45 31 -10 48 -11 50 -4 3 6 12 5 25 -4 19 -12 82 -27 139 -33 10
0 24 -6 32 -13 7 -6 21 -9 30 -5 9 3 16 2 16 -4 0 -11 40 -20 125 -28 33 -2
73 -9 89 -14 16 -6 48 -10 72 -10 24 0 45 -4 48 -9 3 -4 42 -12 86 -15 44 -4
82 -12 85 -17 4 -5 20 -9 36 -9 16 0 80 -11 142 -24 98 -21 148 -31 257 -50
59 -11 142 -28 235 -50 55 -13 124 -27 152 -31 29 -4 55 -10 58 -14 2 -4 26
-8 52 -9 28 0 51 -6 57 -15 7 -8 39 -17 76 -21 36 -4 79 -13 95 -21 17 -7 62
-16 100 -19 107 -9 123 -12 141 -27 15 -12 492 -14 3141 -17 l3123 -2 0 629
c0 590 -1 629 -17 636 -17 6 -17 7 0 16 16 10 17 217 17 4148 l0 4139 -555 3
c-351 3 -558 8 -564 14 -6 6 -6 43 0 100 13 131 13 129 29 137 8 4 257 7 553
7 l537 1 0 730 0 730 -2042 -2 -2043 -3 -19 -78 c-23 -98 -32 -95 -11 4 8 41
15 75 15 77 0 1 -1870 2 -4156 2 -2789 0 -4162 -3 -4174 -10 -11 -6 -96 -13
-191 -17 -159 -6 -172 -5 -182 12 -9 17 -11 17 -27 -5 -16 -22 -27 -24 -191
-32 -127 -7 -179 -7 -192 2 -14 8 -22 8 -33 -1 -8 -7 -57 -14 -112 -16 -53 -3
-131 -8 -173 -12 -86 -8 -99 -6 -99 15 0 22 -19 16 -31 -9 -10 -23 -14 -24
-167 -26 -86 -1 -167 -5 -179 -8 -18 -4 -23 -1 -23 16 0 26 -17 28 -25 2 -5
-16 -21 -19 -148 -25 -78 -4 -159 -9 -179 -12 -32 -5 -38 -3 -38 12 0 16 -1
16 -18 1 -14 -13 -48 -18 -158 -22 -76 -3 -151 -8 -167 -11 -19 -4 -29 -1 -33
11 -6 15 -8 15 -24 0 -14 -13 -47 -17 -152 -20 -73 -3 -150 -7 -170 -11 -31
-5 -38 -3 -38 10 0 21 -10 20 -26 -1 -13 -19 -16 -20 -207 -23 -76 -2 -123 2
-130 9 -8 8 -15 7 -26 -3 -22 -18 -325 -33 -336 -16 -5 8 -13 6 -27 -7 -16
-15 -41 -18 -136 -21 -65 -1 -134 -3 -154 -5 -25 -2 -39 2 -43 12 -5 11 -8 11
-23 -3 -13 -11 -39 -16 -88 -17 -38 0 -104 -4 -147 -8 -65 -5 -80 -4 -88 9 -8
13 -10 13 -21 0 -10 -12 -38 -15 -133 -14 -66 1 -129 -3 -139 -9 -15 -7 -23
-5 -36 10 -16 20 -17 20 -31 3 -12 -16 -34 -19 -159 -21 -80 -2 -151 1 -159 5
-9 6 -17 4 -22 -6 -6 -11 -31 -14 -113 -14 -58 1 -106 -3 -106 -8 0 -5 -6 -4
-13 3 -10 8 -17 7 -25 -1 -20 -20 -14 11 9 48 40 65 112 83 331 84 90 1 196 4
236 8 39 4 78 4 85 0 8 -4 29 -3 48 2 42 11 280 28 415 30 55 1 126 5 157 9
31 4 62 4 71 -1 8 -4 25 -4 38 1 13 4 118 14 233 21 116 7 260 15 320 19 61 4
118 4 128 -1 10 -5 24 -5 35 1 26 14 677 57 710 47 10 -4 30 -2 43 3 15 6
-711 10 -2033 10 l-2058 1 0 -1334z m14647 1032 c-3 -8 -6 -5 -6 6 -1 11 2 17
5 13 3 -3 4 -12 1 -19z m-14140 -410 c-3 -8 -6 -5 -6 6 -1 11 2 17 5 13 3 -3
4 -12 1 -19z m-11 -43 c13 -1 33 -9 46 -17 13 -8 76 -33 141 -57 64 -24 117
-48 117 -53 0 -9 -49 -98 -55 -98 -1 0 -22 7 -46 16 -24 9 -107 38 -183 64
-79 26 -144 54 -150 63 -23 36 44 104 87 91 11 -3 30 -7 43 -9z m-56 -255 c0
-5 -4 -10 -9 -10 -6 0 -13 5 -16 10 -3 6 1 10 9 10 9 0 16 -4 16 -10z m18180
-184 c0 -3 -4 -8 -10 -11 -5 -3 -10 -1 -10 4 0 6 5 11 10 11 6 0 10 -2 10 -4z
m-15505 -156 c3 -5 17 -10 31 -10 13 0 24 -3 25 -7 0 -5 2 -37 3 -73 2 -68 11
-94 27 -84 5 3 8 0 7 -7 -5 -20 49 -29 202 -34 80 -2 168 -6 195 -7 l50 -3 3
35 c4 43 14 54 41 45 17 -5 21 -15 21 -46 l0 -39 78 0 c64 0 82 -3 96 -19 21
-23 11 -58 -11 -39 -12 10 -18 9 -28 -5 -14 -20 -79 -23 -139 -6 -22 6 -71 12
-110 13 -39 2 -149 7 -243 11 -171 8 -173 8 -173 31 0 30 -11 36 -65 36 -25 0
-48 4 -51 10 -4 6 -6 44 -5 85 2 93 25 148 46 113z m-275 -140 c0 -5 -4 -10
-10 -10 -5 0 -10 5 -10 10 0 6 5 10 10 10 6 0 10 -4 10 -10z m438 -18 c2 -7
-6 -12 -17 -12 -21 0 -27 11 -14 24 9 9 26 2 31 -12z m6117 -12 c4 -6 1 -17
-5 -25 -15 -19 -10 -19 32 -1 76 31 95 34 112 18 14 -14 17 -14 33 0 14 12 31
15 70 11 52 -5 52 -6 30 -23 -12 -9 -30 -20 -41 -23 -10 -4 -16 -13 -13 -21 8
-20 1 -21 -188 -21 l-170 0 3 25 c5 34 15 42 52 45 18 2 37 8 43 14 14 14 34
14 42 1z m-1222 -46 c18 -18 34 -25 47 -21 24 6 25 1 6 -19 -16 -15 -97 -18
-131 -4 -13 5 -26 3 -37 -8 -11 -9 -18 -11 -18 -4 0 16 48 62 65 62 8 0 17 5
20 10 10 16 20 12 48 -16z m791 1 c-23 -35 -15 -38 32 -15 23 12 40 16 42 10
2 -5 10 -10 18 -10 8 0 14 -4 14 -10 0 -19 -30 -25 -102 -20 -66 5 -73 7 -76
28 -2 12 1 22 7 22 6 0 11 -9 11 -20 0 -11 5 -20 11 -20 7 0 9 9 5 24 -7 28 0
36 31 36 23 0 23 -1 7 -25z m-6304 5 c0 -5 -14 -10 -31 -10 -17 0 -28 4 -24
10 3 6 17 10 31 10 13 0 24 -4 24 -10z m5378 -9 c11 -7 10 -10 -3 -15 -20 -7
-38 1 -30 15 7 11 16 11 33 0z m-500 -28 c-3 -33 -14 -43 -50 -43 -33 0 -37
17 -5 22 12 2 23 10 23 18 3 28 4 30 19 30 10 0 14 -9 13 -27z m-3557 7 c21
-12 24 -36 9 -60 -9 -13 -13 -12 -30 9 -21 25 -27 61 -9 61 6 0 19 -5 30 -10z
m2594 -18 c-3 -3 0 -11 6 -18 7 -8 7 -14 -1 -19 -14 -9 -16 -7 -24 34 -5 29
-4 32 9 21 9 -7 13 -15 10 -18z m6282 18 c54 -5 168 -12 253 -15 85 -2 180 -6
210 -8 30 -2 89 -5 130 -7 58 -2 68 -4 45 -10 -16 -4 -49 -8 -72 -9 -46 -1
-53 -10 -27 -35 14 -15 13 -16 -7 -16 -12 0 -31 7 -41 16 -14 13 -21 14 -32 5
-8 -7 -33 -14 -56 -16 -23 -1 -44 -5 -47 -8 -3 -3 -12 0 -20 8 -14 15 -69 11
-87 -6 -17 -15 -34 -10 -41 11 -4 14 -15 20 -36 20 -17 0 -28 -4 -24 -9 3 -6
-4 -15 -16 -22 -17 -9 -23 -8 -30 2 -5 8 -9 17 -9 22 0 13 -60 8 -61 -5 0 -10
-2 -10 -6 0 -6 14 -33 16 -33 2 0 -18 -30 -11 -32 8 0 9 -2 22 -2 29 -1 7 -7
18 -14 25 -9 9 -15 9 -24 -1 -11 -10 -10 -15 4 -25 22 -16 13 -26 -25 -26 -17
0 -28 3 -24 6 12 12 -17 33 -31 22 -16 -14 -25 -5 -28 27 -2 23 0 25 41 25 24
0 88 -4 142 -10z m-6417 -15 c0 -22 -27 -30 -46 -14 -14 12 -14 14 3 20 29 12
43 10 43 -6z m229 6 c17 -11 5 -32 -14 -24 -9 3 -15 -1 -15 -11 0 -18 -15 -22
-25 -6 -3 6 -1 10 6 10 7 0 9 3 6 7 -7 6 11 33 22 33 3 0 12 -4 20 -9z m149
-9 c8 -7 18 -10 23 -7 5 4 9 2 9 -4 0 -12 -94 -33 -114 -25 -7 3 -16 17 -19
30 -4 24 -3 25 42 22 25 -2 52 -9 59 -16z m1171 -23 c-20 -13 -29 -11 -29 6 0
9 6 12 15 9 9 -4 15 0 16 7 0 12 1 12 6 0 3 -7 -1 -17 -8 -22z m-1749 -8 c0
-10 -7 -22 -16 -25 -22 -8 -24 -5 -17 22 7 27 33 29 33 3z m74 -12 c-3 -5 -14
-9 -25 -9 -21 0 -26 26 -6 33 15 5 39 -12 31 -24z m7729 24 c-24 -2 -62 -2
-85 0 -24 2 -5 4 42 4 47 0 66 -2 43 -4z m-7535 -15 c-6 -18 -28 -21 -28 -4 0
9 7 16 16 16 9 0 14 -5 12 -12z m2569 -1 c2 -2 1 -12 -3 -21 -8 -20 -32 -20
-74 0 -24 13 -29 19 -19 25 13 8 87 5 96 -4z m298 4 c18 -7 16 -9 -11 -15 -28
-6 -84 6 -84 19 0 8 72 5 95 -4z m-123 -13 c-9 -9 -15 -9 -24 0 -9 9 -7 12 12
12 19 0 21 -3 12 -12z m4731 -5 c-13 -2 -33 -2 -45 0 -13 2 -3 4 22 4 25 0 35
-2 23 -4z m-5803 -7 c0 -3 -4 -8 -10 -11 -5 -3 -10 -1 -10 4 0 6 5 11 10 11 6
0 10 -2 10 -4z m-154 -13 c-4 -4 -23 -8 -42 -9 -22 0 -30 2 -22 7 16 11 74 12
64 2z m109 -3 c7 -12 -12 -12 -40 0 -18 8 -17 9 7 9 15 1 30 -3 33 -9z m1135
6 c0 -11 -19 -15 -25 -6 -3 5 1 10 9 10 9 0 16 -2 16 -4z m4074 -18 c-3 -4
-12 -8 -20 -8 -8 0 -13 4 -10 8 3 5 12 9 20 9 8 0 13 -4 10 -9z m-12584 -53
c0 -8 -4 -15 -10 -15 -5 0 -10 7 -10 15 0 8 5 15 10 15 6 0 10 -7 10 -15z
m2940 -125 c0 -5 -4 -10 -10 -10 -5 0 -10 5 -10 10 0 6 5 10 10 10 6 0 10 -4
10 -10z m10 -280 c0 -5 -4 -10 -10 -10 -5 0 -10 5 -10 10 0 6 5 10 10 10 6 0
10 -4 10 -10z m-26 -75 c-10 -25 -34 -17 -34 10 0 22 3 24 20 15 11 -6 17 -16
14 -25z m16 -71 c0 -8 -5 -12 -10 -9 -6 4 -8 11 -5 16 9 14 15 11 15 -7z m-20
-68 c0 -7 -7 -19 -15 -26 -13 -11 -15 -8 -15 14 0 16 5 26 15 26 8 0 15 -6 15
-14z m-3026 -261 c-25 -19 -38 -19 -22 0 7 8 19 14 27 15 11 0 9 -4 -5 -15z
m846 -115 c0 -11 -4 -20 -9 -20 -13 0 -32 26 -24 33 13 14 33 6 33 -13z m4504
-35 c14 -11 16 -15 5 -15 -28 0 -59 12 -53 21 8 13 26 11 48 -6z m-4264 -50
c310 -34 444 -67 528 -132 30 -22 117 -141 109 -149 -1 -2 -36 8 -77 22 -41
13 -104 29 -140 35 -35 5 -69 14 -75 18 -14 12 -76 25 -99 22 -10 -2 -22 3
-27 11 -6 9 -31 13 -81 13 -40 0 -65 1 -55 3 25 5 21 22 -5 23 -13 0 -34 2
-48 5 -14 2 -54 8 -90 13 -118 16 -149 38 -150 105 l0 39 38 -7 c20 -4 98 -13
172 -21z m2015 -135 c-3 -5 -16 -10 -28 -10 -18 0 -19 2 -7 10 20 13 43 13 35
0z m1724 -24 l23 -24 -24 -15 c-22 -15 -51 -20 -95 -18 -28 1 -20 34 15 61 33
26 54 25 81 -4z m-4856 -167 c9 -12 17 -17 17 -11 0 16 31 23 47 11 7 -7 16
-9 19 -6 4 3 29 -3 56 -14 47 -18 52 -19 69 -3 26 24 44 13 20 -12 -20 -22
-12 -44 16 -44 7 0 13 -4 13 -10 0 -5 18 -10 40 -10 l40 0 0 -95 c0 -78 3 -95
15 -95 12 0 15 16 15 84 0 62 -4 87 -15 96 -18 15 -20 56 -2 63 6 3 -6 3 -28
0 -32 -3 -36 -2 -23 7 9 6 15 17 12 24 -4 10 5 16 26 21 17 4 34 4 37 1 4 -3
1 -6 -5 -6 -7 0 -12 -4 -12 -9 0 -5 27 -12 60 -16 33 -4 57 -11 54 -16 -3 -5
1 -9 8 -9 7 -1 38 -3 68 -7 30 -3 78 -6 107 -7 28 0 55 -4 59 -8 13 -13 43 -9
52 7 4 9 21 17 38 19 16 2 40 9 54 14 31 12 120 -7 120 -26 0 -9 5 -10 18 -3
13 7 22 7 29 0 5 -5 22 -12 36 -15 15 -2 39 -9 54 -16 16 -6 38 -10 50 -9 28
3 38 -31 30 -94 -5 -30 -2 -52 9 -72 15 -26 16 -27 10 -3 -3 13 -3 50 1 82 5
54 7 57 23 43 9 -8 21 -15 26 -15 5 0 26 -11 46 -25 20 -14 48 -25 62 -25 19
0 26 -5 26 -20 0 -17 3 -18 27 -9 15 5 29 6 32 1 3 -5 20 -14 36 -19 17 -6 29
-16 27 -22 -1 -6 11 -11 28 -11 16 0 30 3 30 6 0 3 -16 21 -36 40 -20 19 -34
34 -30 34 8 0 -34 83 -46 91 -5 3 -8 19 -6 35 3 33 12 34 123 20 105 -13 159
-29 189 -55 36 -33 104 -136 148 -226 19 -39 39 -79 45 -90 6 -11 15 -31 21
-45 5 -14 23 -54 40 -90 30 -64 86 -186 103 -225 5 -11 20 -50 34 -87 l24 -67
-37 6 c-45 6 -133 32 -148 44 -6 5 -25 9 -42 11 -18 1 -32 6 -32 11 0 5 -7 6
-15 3 -21 -8 -55 15 -55 37 0 13 -5 16 -24 11 -18 -4 -27 0 -36 16 -6 12 -27
28 -45 36 -19 7 -37 18 -40 24 -4 6 -10 8 -14 5 -5 -2 -21 8 -37 23 l-29 27
35 6 35 6 -42 2 c-24 0 -43 -3 -43 -9 0 -5 -18 -10 -40 -10 -28 0 -40 4 -40
14 0 8 -11 23 -25 33 -18 13 -27 31 -31 57 -8 69 -23 77 -24 14 l0 -58 -40 0
c-34 0 -40 -3 -40 -21 0 -21 0 -21 -19 2 l-20 24 -8 -23 c-5 -13 -6 -47 -2
-75 8 -64 -8 -91 -37 -63 -14 15 -15 19 -3 27 11 7 7 15 -21 41 -33 30 -34 32
-14 37 18 5 20 10 12 31 l-9 25 -24 -29 c-13 -16 -29 -26 -36 -23 -10 4 -9 6
4 6 12 1 17 9 17 31 0 21 -5 30 -17 31 -17 1 -17 2 0 6 35 9 19 33 -23 33 -29
0 -40 -4 -40 -15 0 -9 -9 -15 -25 -15 -22 0 -25 -4 -25 -40 0 -22 -5 -40 -11
-40 -6 0 -27 -15 -47 -34 -35 -33 -35 -36 -19 -54 9 -10 14 -22 10 -25 -3 -4
1 -7 10 -7 10 0 14 5 11 15 -4 8 -1 15 5 15 6 0 11 -6 11 -14 0 -8 16 -16 40
-20 25 -4 40 -12 40 -20 0 -8 6 -17 13 -20 6 -3 -22 -3 -63 0 -83 6 -119 19
-101 37 16 16 14 36 -6 55 -16 16 -16 16 -10 -2 6 -16 3 -18 -38 -14 -41 3
-45 1 -45 -19 0 -28 -8 -29 -26 -5 -13 16 -13 16 -14 0 0 -10 -5 -18 -11 -18
-6 0 -9 10 -7 23 2 12 10 22 18 22 15 0 28 34 13 36 -4 0 -20 2 -36 4 -15 2
-25 0 -22 -6 4 -5 1 -9 -5 -9 -6 0 -8 -4 -5 -10 3 -5 1 -10 -6 -10 -7 0 -10
-3 -7 -6 4 -3 15 -1 26 5 17 9 19 7 14 -14 -4 -21 -8 -23 -36 -18 -17 3 -37
11 -45 17 -11 8 -13 8 -7 -1 5 -9 0 -13 -14 -13 -15 0 -20 5 -18 18 3 19 -18
52 -32 52 -12 0 -19 -37 -8 -48 17 -17 -51 -31 -187 -37 -71 -3 -167 -11 -213
-16 -92 -12 -152 -6 -152 16 0 9 -6 12 -15 9 -20 -8 -19 6 3 22 16 13 16 13
-1 14 -10 0 -29 8 -43 17 l-26 16 23 13 c14 7 46 10 79 8 174 -14 290 -28 290
-37 0 -5 18 -7 40 -5 26 2 39 0 36 -7 -2 -7 7 -10 24 -7 27 4 28 6 17 29 -9
21 -8 27 7 35 10 6 27 19 39 31 l20 20 -32 27 c-24 21 -31 36 -31 64 0 20 -4
36 -10 36 -5 0 -10 -18 -10 -40 0 -22 5 -40 10 -40 6 0 10 -17 10 -38 0 -26
-6 -41 -20 -50 -12 -7 -20 -8 -20 -2 0 5 -11 10 -25 10 -23 0 -25 4 -25 48 -1
26 -7 61 -15 77 -13 30 -13 29 -14 -27 -1 -60 -9 -70 -32 -42 -10 13 -10 17 1
24 12 7 10 13 -8 33 -20 21 -30 24 -70 19 -26 -3 -49 -8 -52 -11 -3 -3 -13
-12 -22 -19 -15 -12 -19 -9 -39 33 -16 33 -20 57 -16 88 2 23 3 36 0 30 -3 -7
-14 -13 -25 -13 -20 0 -20 -4 -14 -65 7 -67 3 -77 -20 -47 -8 10 -13 12 -14 5
0 -7 -6 -13 -13 -13 -10 0 -13 18 -13 69 1 45 -4 75 -12 83 -10 10 -14 9 -18
-10 -4 -12 -10 -22 -15 -22 -5 0 -10 -26 -11 -57 l-1 -58 -7 60 c-19 152 -22
166 -37 153 -12 -10 -18 -9 -29 7 -16 21 -8 125 10 138 7 5 1 15 -16 28 -24
18 -28 28 -28 71 0 40 5 54 23 68 12 10 18 22 13 27 -5 4 -11 2 -13 -4 -6 -15
-48 10 -57 34 -10 25 94 9 117 -18z m7037 -42 c0 -2 -15 -19 -33 -38 -18 -19
-38 -41 -43 -49 -14 -23 -52 -41 -59 -29 -13 19 25 79 63 99 33 17 72 26 72
17z m83 -7 c19 -1 -55 -60 -74 -60 -15 0 -16 4 -6 30 11 29 30 41 55 34 8 -2
19 -4 25 -4z m-5183 -120 c6 -11 8 -20 6 -20 -3 0 -10 9 -16 20 -6 11 -8 20
-6 20 3 0 10 -9 16 -20z m5231 -20 c10 0 19 -4 19 -9 0 -15 -36 -19 -53 -6
-21 15 -22 29 -1 21 9 -3 24 -6 35 -6z m-5177 -76 c15 -31 25 -58 23 -61 -2
-2 -15 20 -28 49 -13 29 -25 56 -27 61 -2 4 -2 7 1 7 3 0 17 -25 31 -56z
m3467 -48 c16 -19 15 -21 -8 -39 -13 -11 -25 -18 -27 -16 -2 2 -6 23 -10 46
-5 38 -4 42 11 36 10 -4 25 -16 34 -27z m1789 -18 c0 -5 -4 -8 -10 -8 -5 0
-10 10 -10 23 0 18 2 19 10 7 5 -8 10 -18 10 -22z m-110 2 c0 -5 -4 -10 -10
-10 -5 0 -10 5 -10 10 0 6 5 10 10 10 6 0 10 -4 10 -10z m-230 -14 c0 -21 23
-26 132 -26 169 0 106 -7 -112 -13 -209 -5 -230 -3 -105 11 59 6 70 10 67 25
-2 9 2 17 8 17 5 0 10 -6 10 -14z m328 -33 c-16 -2 -40 -2 -55 0 -16 2 -3 4
27 4 30 0 43 -2 28 -4z m642 -3 c0 -5 -5 -10 -11 -10 -5 0 -7 5 -4 10 3 6 8
10 11 10 2 0 4 -4 4 -10z m317 -9 c13 -7 22 -6 34 5 11 10 23 11 47 5 30 -9
367 -28 405 -23 9 1 17 -2 17 -6 0 -16 -48 -37 -105 -47 -61 -11 -97 -7 -318
31 -49 9 -91 13 -95 10 -3 -3 4 -6 16 -6 11 0 23 -4 26 -9 4 -5 29 -12 56 -16
27 -4 52 -11 55 -15 6 -9 -38 -5 -115 10 -25 5 -67 12 -95 16 -27 4 -57 11
-65 16 -10 5 5 7 40 3 49 -6 53 -5 35 7 -20 14 -139 18 -152 5 -9 -10 -54 -7
-78 4 -16 7 -13 9 15 6 46 -5 68 2 49 15 -19 13 205 2 228 -11z m2083 -7 c0
-9 16 -32 36 -50 19 -19 29 -35 22 -35 -23 -2 46 -17 85 -18 26 -1 37 -5 34
-13 -2 -7 -8 -12 -13 -11 -5 0 -52 6 -104 13 -52 6 -98 16 -102 23 -9 14 0 77
15 95 13 17 27 15 27 -4z m-3623 0 c-3 -3 -12 -4 -19 -1 -8 3 -5 6 6 6 11 1
17 -2 13 -5z m2159 -33 c-26 -11 -35 -19 -25 -23 7 -3 88 -6 179 -7 145 -2
565 -31 675 -47 22 -3 65 -14 95 -24 40 -13 101 -20 225 -24 187 -7 496 -31
590 -46 33 -5 114 -17 180 -25 66 -9 152 -25 190 -35 39 -10 171 -41 295 -69
124 -28 247 -58 274 -66 26 -8 56 -15 66 -15 10 0 23 -7 30 -15 7 -8 23 -15
35 -15 71 0 355 -131 516 -238 109 -73 356 -257 474 -353 48 -40 732 -589 798
-641 40 -31 78 -57 85 -58 6 0 12 -5 12 -11 0 -6 -12 -10 -27 -9 -16 1 -53 1
-83 0 -47 -1 -52 -3 -30 -11 14 -6 41 -9 60 -8 42 2 72 -9 64 -23 -6 -10 23
-8 66 3 11 3 14 -3 12 -19 -5 -34 15 -52 51 -48 18 2 43 -2 57 -9 14 -7 42
-15 62 -19 23 -4 42 -15 48 -27 8 -13 17 -18 30 -14 10 3 21 1 25 -5 3 -5 15
-10 26 -10 12 0 19 -7 19 -19 0 -13 6 -19 19 -18 11 0 19 4 18 7 -1 3 3 5 8 5
5 0 9 -3 8 -7 -2 -5 2 -8 7 -8 6 0 10 4 10 10 0 5 7 7 15 4 8 -4 12 -10 9 -15
-3 -5 4 -9 16 -9 14 0 19 -4 14 -12 -5 -9 -2 -9 9 1 13 10 23 11 44 3 27 -11
147 -33 188 -35 11 -1 26 -7 33 -14 19 -18 32 -16 32 5 1 21 25 54 33 45 4 -3
7 -14 7 -22 0 -28 35 -48 101 -59 61 -10 280 -66 303 -77 6 -3 -15 -3 -46 -2
-32 2 -58 0 -58 -5 0 -9 54 -13 135 -10 28 1 44 -1 38 -4 -30 -13 -9 -23 40
-19 40 3 45 2 22 -4 -16 -5 -23 -9 -14 -10 24 -2 62 -35 66 -57 2 -10 4 -38 4
-61 0 -30 4 -43 13 -43 14 0 36 49 36 81 0 24 24 27 95 12 33 -7 61 -8 63 -4
2 5 12 7 22 4 11 -3 18 -9 15 -13 -3 -4 5 -10 18 -14 12 -3 24 -1 25 4 5 13
32 13 32 0 0 -5 10 -10 23 -10 44 1 87 -12 87 -26 0 -18 31 -30 96 -39 41 -5
154 -42 229 -75 11 -5 46 -14 78 -21 31 -7 57 -15 57 -18 0 -3 15 -12 33 -19
120 -49 172 -87 199 -150 11 -24 21 -61 23 -82 3 -36 2 -38 -22 -34 -15 3 -22
1 -18 -6 19 -30 65 -461 64 -589 l-2 -96 -13 145 c-8 80 -18 163 -24 185 -8
35 -9 33 -4 -20 20 -209 23 -495 4 -495 -5 0 -10 8 -13 18 -2 9 -7 -9 -11 -40
-10 -68 0 -152 16 -142 7 5 9 32 4 80 -3 46 -2 74 4 74 12 0 11 6 13 -108 1
-52 -1 -99 -5 -105 -13 -22 -136 -26 -953 -32 -862 -7 -870 -6 -883 33 -2 8 9
12 37 12 22 0 43 5 47 11 4 8 9 8 17 0 14 -14 60 -14 74 0 9 9 16 8 28 -5 20
-20 25 -20 53 0 20 14 23 14 28 0 6 -16 49 -13 68 5 5 5 15 1 22 -8 10 -15 15
-16 40 -3 16 8 32 16 37 18 4 2 7 -3 7 -12 0 -18 9 -20 42 -7 30 11 44 11 40
0 -3 -13 19 -11 50 5 23 12 29 12 38 0 10 -11 17 -11 46 1 30 12 34 12 34 -1
0 -17 2 -17 46 1 30 12 36 12 40 0 5 -13 10 -13 40 0 19 8 34 10 34 6 0 -13
-23 -29 -50 -34 -28 -6 544 1 715 9 61 3 123 9 139 14 15 6 32 7 37 4 12 -7
49 5 49 15 0 5 -12 11 -27 14 -33 7 -60 24 -52 31 3 3 20 2 37 -3 31 -9 32 -8
53 37 23 51 22 117 -2 385 -7 70 -8 146 -3 185 l8 67 18 -145 17 -145 -4 130
c-2 72 -11 170 -20 219 -18 98 -14 135 11 102 19 -26 18 -10 -6 89 -12 51 -15
85 -9 96 7 13 2 20 -24 32 -205 94 -797 162 -1187 135 -172 -12 -411 -42 -571
-74 -137 -26 -169 -37 -169 -56 0 -7 4 -7 13 0 53 44 880 148 901 113 5 -8 -8
-11 -43 -11 -49 0 -78 -15 -44 -23 13 -3 9 -6 -12 -12 -16 -4 -36 -14 -42 -23
-8 -10 -13 -11 -13 -4 0 21 -24 13 -65 -23 -22 -19 -44 -35 -48 -35 -5 0 -5
-4 -2 -10 3 -5 -9 -16 -27 -23 -18 -8 -42 -24 -52 -35 -19 -22 -19 -22 13 -35
17 -7 28 -16 24 -20 -3 -4 20 -7 53 -8 54 -1 56 -2 24 -9 -55 -14 -630 -12
-646 1 -11 9 -14 7 -14 -11 0 -15 4 -20 15 -16 9 3 19 -3 25 -14 13 -24 36
-235 50 -460 6 -91 12 -176 14 -190 2 -14 1 -43 -3 -65 -7 -39 -8 -39 -14 25
-4 36 -11 112 -16 170 -7 86 -8 70 -4 -91 3 -107 2 -234 -1 -281 l-8 -86 -36
-5 c-21 -2 -49 2 -66 10 -15 8 -37 13 -47 10 -13 -4 -21 3 -29 27 -6 17 -21
47 -34 66 -16 25 -25 56 -29 110 -4 41 -11 131 -17 200 -10 122 -51 385 -71
465 -63 248 -119 335 -263 409 -42 22 -76 45 -76 53 0 7 11 31 25 53 17 27 20
37 10 34 -8 -4 -15 -9 -15 -13 0 -3 -13 -21 -28 -38 l-27 -33 -80 25 c-83 26
-115 31 -115 17 0 -4 54 -25 120 -46 66 -21 120 -40 120 -42 0 -12 -502 41
-676 71 -107 19 -259 60 -296 80 -28 16 -80 29 -183 45 -66 10 -285 8 -325 -3
-16 -4 -63 6 -145 33 -223 72 -435 122 -915 215 -47 9 -116 23 -155 30 -115
24 -672 123 -785 140 -58 9 -193 29 -300 46 -107 16 -273 40 -368 53 -96 14
-176 27 -179 29 -9 10 21 88 43 110 l23 23 -71 120 c-38 65 -85 144 -102 174
-171 290 -212 360 -231 390 -12 19 -63 103 -115 185 -242 391 -330 484 -543
570 -217 89 -466 121 -1012 131 -346 7 -651 -4 -877 -31 -121 -14 -278 -42
-287 -51 -12 -12 10 -11 54 1 188 53 827 87 1255 66 509 -24 721 -62 929 -165
177 -86 277 -210 576 -711 253 -423 357 -616 341 -632 -2 -2 -14 1 -27 6 -13
4 -44 11 -68 15 -24 3 -49 12 -55 20 -11 15 -135 34 -323 51 -66 6 -87 16 -65
28 4 3 104 -8 222 -24 118 -15 218 -25 222 -21 9 9 -105 265 -129 289 -10 10
-34 31 -53 47 -19 15 -39 36 -45 46 -56 98 -150 254 -159 263 -6 7 -33 48 -60
92 -87 143 -188 278 -260 350 -83 82 -204 148 -351 190 -87 25 -285 57 -432
70 -64 6 -73 5 -90 -14 -10 -12 -31 -34 -46 -50 -15 -15 -32 -44 -37 -63 -11
-36 -48 -93 -57 -84 -7 6 66 177 85 199 14 16 13 17 -10 17 -20 0 -27 -6 -31
-29 -4 -16 -19 -44 -35 -63 -16 -18 -46 -68 -67 -111 -22 -43 -43 -81 -48 -84
-21 -13 -16 11 22 98 21 52 37 96 35 99 -3 2 -46 5 -97 7 -71 2 -101 -1 -129
-15 -44 -20 -47 -29 -13 -38 20 -5 23 -9 14 -20 -9 -11 -7 -14 10 -14 12 0 20
-4 17 -9 -3 -5 -43 -11 -88 -14 -46 -4 -103 -10 -128 -15 -305 -62 -353 -65
-650 -42 -278 21 -271 18 -206 96 26 32 51 64 55 72 10 17 59 27 245 48 102
12 263 18 581 21 242 2 441 7 443 12 4 10 -200 21 -407 21 -310 0 -732 -31
-891 -65 -35 -7 -67 -12 -71 -9 -7 4 -50 -12 -129 -48 -66 -30 -176 -110 -365
-268 -71 -58 -396 -393 -458 -472 -108 -135 -104 -125 -54 -131 23 -4 89 -8
147 -11 242 -13 324 -18 490 -31 301 -24 873 -74 1160 -100 151 -14 329 -30
395 -35 318 -24 717 -71 741 -86 36 -24 137 -43 234 -45 47 0 106 -4 132 -7
46 -7 46 -7 33 -32 -8 -14 -14 -20 -15 -13 0 8 -20 11 -65 9 -36 -1 -65 1 -65
4 0 3 -42 6 -93 8 -50 1 -101 4 -112 6 -11 3 -33 5 -48 5 -16 1 -26 5 -23 9 3
5 -8 6 -24 4 -38 -5 -83 6 -75 18 3 6 -1 10 -9 10 -9 0 -16 -4 -16 -10 0 -12
-51 -12 -105 0 -35 8 -32 9 25 6 107 -7 23 11 -135 28 -163 18 -352 44 -376
51 -13 4 -18 -1 -21 -16 -4 -29 -28 -38 -28 -11 0 19 -10 20 -147 28 -82 4
-155 7 -164 5 -30 -4 -454 39 -489 50 -19 5 -143 14 -275 19 -132 5 -295 14
-363 20 -67 5 -168 14 -225 19 -56 5 -105 7 -109 4 -5 -2 -8 6 -8 18 0 21 -1
21 -19 5 -18 -16 -37 -17 -258 -6 -131 6 -248 13 -260 15 -12 3 -23 -1 -26 -8
-2 -6 -8 -8 -13 -4 -10 10 18 59 43 72 10 6 93 91 185 190 283 307 525 526
754 683 16 10 15 10 -6 1 -120 -57 -433 -324 -695 -591 -164 -167 -213 -219
-300 -320 -9 -11 -21 -15 -31 -11 -12 4 -15 3 -10 -5 4 -7 13 -12 21 -12 8 0
16 -4 19 -8 3 -5 -56 -6 -132 -3 -75 3 -291 5 -480 5 -188 1 -342 4 -342 8 0
11 52 45 110 71 56 25 139 53 245 82 80 22 129 51 265 160 63 50 162 126 220
169 58 42 116 86 130 97 39 32 341 230 432 284 225 133 364 196 628 282 232
75 454 107 875 124 412 17 917 -10 1250 -67 166 -28 285 -38 285 -23 0 13 71
0 90 -17 18 -15 146 -38 161 -28 6 4 0 17 -16 34 -33 34 -21 44 37 30 24 -6
72 -10 108 -8 58 3 62 5 40 15 l-25 11 29 11 c16 7 43 25 59 41 27 26 38 30
86 29 l56 0 -39 -18z m-8844 -129 c-3 -9 -8 -10 -18 -1 -18 14 -18 93 -2 122
12 20 14 15 19 -43 3 -36 3 -71 1 -78z m5507 108 c9 0 22 -5 29 -12 6 -6 28
-12 49 -13 56 -2 69 -12 83 -61 15 -51 13 -53 -50 -78 -25 -10 -55 -23 -67
-29 -36 -17 -50 -3 -58 59 -4 32 -11 69 -17 83 -5 14 -6 37 -2 51 3 14 9 19
11 13 3 -7 12 -13 22 -13z m-603 -54 c18 -14 18 -15 1 -21 -20 -8 -87 2 -87
14 0 25 55 29 86 7z m-4936 -61 c0 -9 -6 -12 -15 -9 -8 4 -12 10 -9 15 8 14
24 10 24 -6z m10841 -9 c132 -21 229 -42 241 -54 6 -6 -30 -1 -78 10 -49 11
-127 26 -173 33 -46 8 -86 16 -89 19 -7 8 -8 8 99 -8z m-10441 -76 c0 -5 -7
-10 -15 -10 -8 0 -15 5 -15 10 0 6 7 10 15 10 8 0 15 -4 15 -10z m10777 4 c-3
-3 -12 -4 -19 -1 -8 3 -5 6 6 6 11 1 17 -2 13 -5z m93 -25 c18 -11 -34 -1 -65
13 -13 5 -9 6 15 2 19 -4 42 -10 50 -15z m-3648 -30 c-2 -8 -17 -53 -34 -101
-23 -68 -35 -88 -49 -88 -10 0 -24 -10 -30 -22 -7 -13 -14 -18 -16 -11 -5 15
65 204 85 226 18 20 49 18 44 -4z m-6382 3 c0 -10 -22 -32 -32 -32 -4 0 -8 9
-8 20 0 13 7 20 20 20 11 0 20 -4 20 -8z m202 -44 c2 -20 0 -34 -4 -32 -4 3
-8 24 -7 47 1 47 6 41 11 -15z m9928 42 c18 -12 2 -12 -25 0 -13 6 -15 9 -5 9
8 0 22 -4 30 -9z m-5296 -67 c-15 -21 -43 -58 -61 -82 -18 -24 -50 -57 -71
-72 -21 -15 -67 -62 -102 -104 -65 -78 -85 -95 -55 -47 35 54 214 287 237 309
20 18 41 28 72 32 4 0 -4 -16 -20 -36z m-151 -70 c-33 -43 -86 -113 -118 -155
-60 -82 -81 -102 -45 -43 12 19 19 36 16 36 -3 1 -10 3 -16 4 -5 1 -28 3 -50
4 -22 0 -40 4 -40 9 1 15 237 182 258 182 6 0 17 12 27 26 9 14 19 23 22 20 3
-3 -21 -41 -54 -83z m-6130 65 c13 -10 47 -85 47 -104 0 -2 -18 -4 -40 -4 -21
0 -51 -5 -65 -12 -54 -24 -175 34 -175 84 0 10 7 18 18 19 41 1 117 10 151 18
20 5 39 9 42 10 3 1 13 -5 22 -11z m1400 -5 c-7 -2 -19 -2 -25 0 -7 3 -2 5 12
5 14 0 19 -2 13 -5z m1388 -14 c10 -11 15 -27 12 -35 -6 -17 -3 -17 -56 1 -24
8 -61 18 -82 23 -68 14 -53 30 31 31 66 1 79 -2 95 -20z m-1544 -5 c-3 -3 -12
-4 -19 -1 -8 3 -5 6 6 6 11 1 17 -2 13 -5z m-47 -8 c0 -2 -7 -6 -15 -10 -8 -3
-15 -1 -15 4 0 6 7 10 15 10 8 0 15 -2 15 -4z m508 -66 c12 0 20 5 18 13 -1 6
-1 9 1 5 3 -5 12 -8 21 -9 11 0 8 -4 -8 -10 -14 -6 -40 -8 -57 -5 -18 2 -33 1
-33 -5 0 -5 -11 -9 -23 -9 -16 0 -28 -9 -36 -26 -13 -29 -36 -27 -36 4 0 11
-4 24 -8 28 -16 16 -5 21 42 18 38 -3 51 1 55 13 6 14 8 14 24 -1 10 -9 28
-16 40 -16z m872 -4 c0 -2 -3 -11 -6 -20 -9 -23 -24 -20 -24 4 0 11 7 20 15
20 8 0 15 -2 15 -4z m-2298 -138 c-28 -14 -23 -33 9 -34 49 -1 74 -6 61 -11
-6 -2 -10 -9 -6 -14 3 -5 -1 -10 -8 -10 -7 -1 5 -5 27 -9 22 -5 56 -13 75 -19
85 -24 218 -53 385 -81 204 -35 525 -92 820 -146 301 -55 317 -57 325 -45 8
13 144 -14 273 -54 43 -14 92 -25 110 -25 18 0 39 -5 47 -10 10 -7 -25 -10
-110 -11 -69 -1 -136 -3 -150 -4 -90 -10 -339 -8 -365 2 -16 6 -68 22 -115 34
-47 13 -87 26 -90 29 -3 3 -21 7 -40 9 -19 2 -42 7 -51 12 -9 4 -88 26 -175
49 -87 22 -168 45 -179 50 -11 5 -49 15 -85 21 -36 7 -70 16 -76 21 -6 4 -38
13 -70 18 -33 6 -99 19 -149 29 -166 35 -249 50 -415 77 -91 14 -172 28 -180
31 -22 9 -20 8 -80 17 -82 13 -103 22 -95 46 4 13 2 21 -7 22 -38 4 104 15
212 16 97 0 120 -2 102 -10z m1193 -8 c77 -6 158 -13 180 -16 22 -3 54 -5 70
-6 17 0 24 -3 16 -6 -11 -4 -11 -6 0 -13 19 -12 -193 -11 -378 1 -81 5 -210
11 -285 14 -76 2 -142 7 -147 11 -6 3 -7 13 -4 21 5 14 30 15 207 10 111 -3
264 -11 341 -16z m-676 -25 c-10 -9 -196 -17 -202 -8 -3 4 43 9 101 11 58 1
104 0 101 -3z m-356 -12 c-7 -2 -19 -2 -25 0 -7 3 -2 5 12 5 14 0 19 -2 13 -5z
m1644 -8 c186 -17 405 -44 412 -51 14 -14 -23 -13 -165 5 -88 11 -220 25 -294
32 -74 6 -148 15 -165 19 -30 8 -30 8 7 9 21 1 113 -6 205 -14z m-1690 -11
c-3 -3 -12 -4 -19 -1 -8 3 -5 6 6 6 11 1 17 -2 13 -5z m13090 -26 c-3 -8 -6
-5 -6 6 -1 11 2 17 5 13 3 -3 4 -12 1 -19z m283 19 c0 -3 -12 -13 -27 -22 -37
-25 -102 -28 -133 -7 l-25 17 35 5 c49 7 150 12 150 7z m-12962 -27 c13 0 20
-4 17 -10 -3 -5 1 -10 9 -10 9 0 16 5 16 11 0 15 472 3 481 -12 8 -13 250 -19
266 -7 7 6 27 8 45 4 132 -24 436 -55 571 -57 53 -1 97 -5 97 -10 0 -5 -17 -9
-37 -10 -413 -11 -474 -11 -588 1 -49 5 -205 12 -345 15 -257 6 -448 22 -595
50 -44 8 -86 15 -92 15 -7 0 -13 5 -13 11 0 7 12 10 33 7 17 -3 41 -2 52 3 11
4 29 6 40 4 11 -3 30 -5 43 -5z m-553 -301 c28 -5 77 -14 111 -19 33 -5 112
-23 175 -40 62 -18 143 -35 179 -39 99 -12 210 -34 210 -43 0 -7 -23 -12 -100
-22 -36 -4 -162 21 -239 48 -24 9 -54 16 -67 16 -14 0 -32 4 -42 9 -9 5 -71
22 -137 36 -131 30 -215 56 -215 67 0 7 38 3 125 -13z m7055 -40 c0 -4 -7 -6
-15 -3 -8 4 -15 10 -15 15 0 4 7 6 15 3 8 -4 15 -10 15 -15z m1492 -5 c26 -8
49 -22 52 -30 4 -10 2 -13 -6 -8 -28 18 -369 -5 -508 -34 -64 -13 -92 -24
-114 -45 -36 -34 -45 -28 -17 12 28 39 71 72 83 65 5 -3 17 1 27 10 43 39 393
61 483 30z m-5904 -67 c3 -21 -1 -27 -17 -27 -27 0 -34 15 -19 40 17 26 32 20
36 -13z m-1803 -28 c11 -17 -1 -21 -15 -4 -8 9 -8 15 -2 15 6 0 14 -5 17 -11z
m1284 -5 c2 -2 -6 -18 -18 -37 -11 -19 -21 -42 -21 -51 0 -20 1 -20 -46 1 -31
14 -66 17 -170 16 -144 -1 -176 -11 -188 -59 -6 -21 -25 -454 -26 -568 0 -19
-3 -27 -10 -20 -5 5 -10 143 -12 329 -4 409 -20 379 213 394 100 7 267 4 278
-5z m313 -24 c197 -34 214 -44 243 -144 31 -109 85 -481 85 -580 -1 -88 -15
-51 -30 74 -14 124 -83 468 -102 508 -21 43 -79 64 -194 70 -78 4 -108 1 -132
-10 l-30 -15 -11 39 c-7 21 -21 48 -32 59 -19 19 -18 19 35 19 30 0 105 -9
168 -20z m-1421 -27 c107 -39 140 -67 94 -79 -20 -5 -32 1 -57 25 -17 17 -37
31 -42 31 -20 1 -131 60 -113 60 10 0 64 -17 118 -37z m11948 -14 c45 -16 20
-29 -30 -16 -40 10 -53 27 -20 27 10 0 33 -5 50 -11z m-12317 -29 c-18 -11
-39 -20 -46 -20 -24 0 -65 -58 -71 -103 -8 -50 -4 -98 8 -97 11 1 37 -26 37
-38 0 -6 4 -12 8 -14 16 -6 53 -68 47 -78 -16 -26 -60 11 -103 89 -23 41 -27
126 -7 177 21 55 82 104 129 104 l31 0 -33 -20z m85 14 c-3 -3 -12 -4 -19 -1
-8 3 -5 6 6 6 11 1 17 -2 13 -5z m1483 -10 c0 -8 -4 -12 -10 -9 -5 3 -10 10
-10 16 0 5 5 9 10 9 6 0 10 -7 10 -16z m-1405 -25 c38 -34 60 -67 51 -77 -4
-3 -20 9 -37 26 -32 32 -49 40 -49 22 0 -5 4 -10 9 -10 12 0 31 -56 31 -91 0
-34 -22 -39 -43 -9 -18 27 -93 24 -120 -3 -22 -22 -34 -13 -39 28 -2 23 1 30
17 33 11 2 30 13 41 23 12 11 25 19 30 18 20 -3 54 14 54 28 0 8 -4 11 -10 8
-11 -7 -14 18 -3 28 13 14 33 6 68 -24z m-108 10 c14 -14 6 -39 -12 -39 -18 0
-26 15 -19 34 7 19 16 20 31 5z m2592 -19 c-8 -4 -30 -11 -49 -15 -19 -4 -54
-18 -78 -31 -23 -13 -49 -24 -57 -24 -8 0 -15 -4 -15 -10 0 -5 -4 -10 -10 -10
-5 0 -10 10 -10 23 0 19 8 24 58 36 31 7 62 17 68 22 14 11 87 27 98 21 5 -3
2 -8 -5 -12z m116 -10 c18 -20 18 -20 -73 6 -7 2 -11 8 -8 12 8 14 63 1 81
-18z m-497 -17 c34 -26 78 -32 124 -17 15 5 19 2 16 -13 -4 -24 -71 -31 -166
-17 -81 12 -77 10 -87 43 -6 21 -5 23 23 16 18 -3 33 -2 37 4 9 16 14 14 53
-16z m2048 -33 l39 -20 -40 6 c-48 8 -57 12 -50 25 8 12 5 12 51 -11z m-1541
-25 c44 -31 57 -44 53 -55 -2 -6 -32 -24 -68 -40 -58 -26 -90 -51 -90 -72 0
-4 24 2 53 13 46 19 134 36 362 70 39 5 157 12 264 15 107 3 198 7 202 10 9 5
225 7 634 5 176 -1 400 -9 570 -22 154 -11 415 -24 580 -29 165 -5 354 -11
420 -14 130 -5 130 7 0 18 -300 26 -589 62 -615 77 -10 6 -5 7 15 4 17 -2 64
-7 105 -10 72 -6 321 -29 655 -60 88 -9 205 -20 260 -25 185 -17 299 -30 303
-35 2 -2 -11 -17 -29 -32 -19 -15 -48 -42 -65 -59 l-31 -32 -74 9 c-71 8 -142
15 -659 59 -669 57 -980 80 -1075 80 -34 0 -64 3 -67 6 -3 3 -149 8 -325 11
-175 3 -321 10 -324 15 -3 5 -11 3 -18 -5 -12 -15 -80 -31 -117 -28 -11 1 -32
-7 -47 -19 -25 -20 -26 -20 -36 -1 -11 20 -65 44 -75 34 -3 -4 -6 1 -6 10 0
10 -4 17 -10 17 -5 0 -10 -5 -10 -10 0 -6 -14 -19 -30 -29 -24 -14 -53 -18
-141 -19 -61 -1 -114 -4 -118 -6 -4 -3 -47 -8 -96 -11 -50 -4 -112 -13 -140
-20 -95 -26 -161 -50 -188 -68 -15 -10 -32 -15 -37 -12 -6 3 -10 0 -10 -8 0
-9 -17 -19 -44 -26 -24 -6 -49 -17 -56 -26 -7 -8 -18 -15 -26 -15 -7 0 -18 -8
-23 -17 -10 -17 -10 -17 -11 -1 0 26 39 138 62 176 11 17 17 32 13 32 -13 0
-55 -33 -55 -44 0 -6 -11 -33 -24 -60 l-24 -49 -20 39 c-41 83 -36 169 16 233
37 47 79 61 146 49 28 -5 60 -16 71 -23z m1632 29 c-3 -3 -12 -4 -19 -1 -8 3
-5 6 6 6 11 1 17 -2 13 -5z m488 -24 c61 -6 129 -12 152 -13 71 -4 61 -17 -13
-16 -84 0 -291 23 -300 32 -10 10 32 9 161 -3z m3052 -6 c-3 -3 -12 -4 -19 -1
-8 3 -5 6 6 6 11 1 17 -2 13 -5z m-7963 -90 c21 -8 21 -53 0 -61 -22 -8 -33 8
-27 40 6 30 5 29 27 21z m8207 -61 c-10 -17 -10 -16 -11 3 0 23 13 41 18 25 2
-6 -1 -18 -7 -28z m-1446 -18 c278 -29 409 -43 669 -71 l258 -28 -5 -47 c-7
-56 0 -64 71 -80 29 -7 52 -16 52 -21 0 -11 -21 -10 -125 6 -49 8 -202 26
-340 41 -137 14 -329 34 -425 45 -96 10 -249 26 -340 35 -91 9 -168 17 -172
18 -11 3 34 50 87 90 42 32 55 37 85 33 19 -3 103 -13 185 -21z m223 8 c-10
-2 -28 -2 -40 0 -13 2 -5 4 17 4 22 1 32 -1 23 -4z m-3453 -53 c3 -5 26 -10
50 -10 25 0 50 -6 58 -15 13 -13 16 -13 21 0 3 9 18 15 37 15 26 0 30 -3 24
-17 -18 -43 -17 -55 6 -79 22 -23 22 -27 11 -72 -9 -33 -25 -59 -55 -88 -59
-57 -90 -71 -187 -83 -101 -13 -202 -58 -267 -120 -24 -22 -49 -38 -56 -35
-12 4 -97 -97 -97 -117 0 -15 -30 -10 -36 5 -3 8 1 30 10 48 17 36 63 168 73
208 3 13 10 29 14 35 5 5 31 38 58 73 58 75 123 127 168 135 60 11 158 87 148
115 -5 14 11 16 20 2z m4681 -126 c98 -14 186 -23 195 -21 8 2 49 -1 90 -8
l74 -12 -32 -14 c-44 -18 -42 -32 3 -23 l36 7 -26 -51 c-25 -49 -26 -50 -63
-45 -21 2 -85 10 -143 18 -58 7 -87 13 -65 14 22 1 47 5 55 11 18 11 22 10
-120 46 -142 36 -277 104 -207 104 13 0 105 -12 203 -26z m-2246 -60 c85 -8
201 -15 258 -15 59 -1 100 -5 96 -10 -3 -5 12 -9 33 -9 21 0 65 -4 98 -10 33
-5 137 -14 230 -20 199 -13 200 -13 185 -39 -9 -17 -14 -18 -39 -10 -21 7 -36
7 -50 -1 -17 -8 -21 -8 -21 4 0 20 -118 27 -137 8 -11 -11 -13 -11 -13 2 0 19
-55 22 -108 7 -20 -6 -32 -6 -32 0 0 5 8 9 18 10 51 3 -64 19 -129 17 -42 0
-80 2 -86 5 -17 11 -183 29 -228 25 -25 -2 -46 0 -47 3 -5 10 -182 19 -197 10
-11 -7 -10 -10 4 -18 13 -8 14 -12 5 -18 -21 -13 -43 49 -23 68 8 9 3 9 183
-9z m253 -180 c15 -3 27 -12 27 -20 0 -11 -14 -13 -72 -8 -84 7 -98 10 -98 23
0 20 55 21 143 5z m537 -43 c0 -23 -22 -40 -28 -23 -2 7 -26 12 -63 12 -32 0
-59 4 -59 9 0 15 20 19 88 20 55 1 62 -1 62 -18z m7559 -123 c5 -13 7 -25 5
-27 -7 -7 -34 21 -34 35 0 22 20 16 29 -8z m100 -2 c9 -11 8 -17 -4 -29 -21
-22 -19 -37 6 -37 11 0 18 -4 14 -9 -3 -6 3 -14 12 -20 24 -13 14 -21 -33 -24
l-39 -2 0 39 c0 22 -6 41 -13 44 -18 6 -15 29 6 41 24 14 38 13 51 -3z m-7991
-47 c3 -30 -29 -76 -46 -65 -15 9 -15 51 -1 77 14 27 43 20 47 -12z m8062 -89
c0 -5 -5 -10 -11 -10 -5 0 -7 5 -4 10 3 6 8 10 11 10 2 0 4 -4 4 -10z m25 -10
c3 -5 1 -10 -4 -10 -6 0 -11 5 -11 10 0 6 2 10 4 10 3 0 8 -4 11 -10z m-12396
-71 c-16 -10 -23 -4 -14 10 3 6 11 8 17 5 6 -4 5 -9 -3 -15z m889 -76 c-5 -25
-28 -28 -28 -4 0 12 6 21 16 21 9 0 14 -7 12 -17z m12279 -89 c-7 -7 -37 7
-37 17 0 6 9 5 21 -1 11 -7 19 -14 16 -16z m-3760 -136 c-3 -8 -6 -5 -6 6 -1
11 2 17 5 13 3 -3 4 -12 1 -19z m3047 -4 c15 -6 44 -88 66 -189 6 -27 13 -58
16 -67 4 -14 -1 -18 -21 -18 -22 0 -25 3 -20 20 5 17 2 20 -24 20 -17 0 -31 5
-31 11 0 7 10 9 25 7 14 -3 25 -4 25 -2 0 2 -13 53 -29 114 -16 60 -28 110
-26 110 2 0 10 -3 19 -6z m-3026 -74 c0 -9 -3 -7 -8 5 -5 11 -8 29 -8 40 0 16
2 15 8 -5 4 -14 8 -32 8 -40z m3319 49 c51 -8 84 -17 87 -25 7 -18 6 -18 -82
7 -43 12 -77 17 -81 12 -16 -24 -91 -17 -76 7 8 13 51 13 152 -1z m-520 -5
c-3 -3 -12 -4 -19 -1 -8 3 -5 6 6 6 11 1 17 -2 13 -5z m186 -6 c9 0 17 -3 17
-8 0 -5 -9 -7 -20 -5 -30 6 -33 -10 -14 -73 9 -31 18 -64 18 -72 1 -9 5 -21
10 -28 5 -8 0 -12 -14 -12 -16 0 -20 -5 -16 -15 5 -13 -11 -15 -107 -15 -77 0
-117 4 -126 13 -11 10 -14 10 -18 0 -8 -21 -22 -15 -16 7 3 10 8 19 12 18 3 0
8 0 11 1 19 7 70 7 70 0 0 -5 -11 -9 -25 -9 -14 0 -25 -4 -25 -10 0 -5 23 -10
50 -10 37 0 50 4 50 15 0 8 19 24 42 35 52 25 54 25 61 0 3 -11 11 -20 17 -20
9 0 9 4 2 13 -6 7 -17 41 -26 77 -9 36 -19 76 -22 89 -7 22 -5 23 22 16 16 -4
37 -7 47 -7z m569 -27 c15 -5 9 -11 -33 -30 -29 -12 -87 -49 -128 -81 -42 -32
-97 -68 -121 -79 -48 -22 -100 -28 -100 -11 0 6 10 10 23 10 26 0 62 23 109
70 20 19 61 50 92 68 57 34 70 56 39 66 -10 3 9 3 41 0 33 -3 68 -9 78 -13z
m-11633 -67 c9 -17 30 -60 46 -97 17 -39 36 -67 45 -67 9 0 7 -5 -8 -16 -35
-24 -57 -10 -80 54 -24 66 -42 131 -42 150 0 22 22 8 39 -24z m-33 -125 c22
-70 35 -123 30 -134 -12 -32 -28 -2 -48 92 -46 212 -41 223 18 42z m9015 81
c19 -4 25 -8 15 -9 -48 -3 1 -11 124 -21 152 -12 234 -32 269 -63 27 -25 85
-137 95 -183 14 -64 -48 -88 -185 -73 -102 12 -334 8 -364 -5 -15 -7 -14 -4 5
12 l25 22 -26 -9 c-14 -5 -41 -19 -60 -30 -30 -18 -52 -21 -169 -23 l-135 -1
147 -10 c146 -9 148 -9 166 13 l18 22 2 -33 3 -32 -168 7 c-178 7 -302 25
-327 46 -25 20 -58 78 -67 118 -33 138 -39 183 -29 202 6 11 8 20 4 20 -18 0
46 39 71 43 44 8 547 -4 586 -13z m1779 -25 c10 -12 10 -15 -3 -15 -8 0 -20
-7 -27 -15 -15 -18 -30 -11 -30 15 0 16 10 23 41 29 4 0 12 -6 19 -14z m1669
6 c7 -5 11 -13 7 -19 -3 -5 6 -13 20 -16 33 -9 51 -53 65 -157 14 -102 5 -164
-25 -184 -13 -9 -51 -16 -86 -18 -55 -2 -64 1 -77 21 -13 18 -25 22 -72 24
l-56 1 55 6 c30 3 51 9 45 12 -5 4 -41 2 -79 -3 -45 -7 -63 -13 -55 -19 11 -7
11 -9 -2 -9 -9 0 -24 9 -34 19 -15 18 -16 28 -6 102 9 70 9 85 -4 99 -18 20
-19 54 -2 72 7 7 16 20 19 29 5 12 25 19 70 24 35 4 70 11 78 16 20 11 121 11
139 0z m-1312 -77 c-3 -3 -12 -4 -19 -1 -8 3 -5 6 6 6 11 1 17 -2 13 -5z
m-5966 -22 c4 -4 1 -56 -6 -117 l-13 -110 -1 75 c-2 42 -6 67 -10 57 -6 -17
-8 -17 -26 2 -11 13 -25 19 -37 15 -15 -4 -17 -1 -14 28 3 27 8 34 32 39 l29
7 -28 1 c-18 1 -26 5 -21 12 7 12 83 4 95 -9z m-4906 -10 c6 -4 21 -22 34 -41
22 -31 22 -34 6 -50 -15 -15 -19 -13 -51 23 -37 43 -44 76 -16 76 9 0 22 -4
27 -8z m7662 -25 c39 -12 58 -38 69 -96 l7 -31 -54 0 c-56 0 -268 24 -314 36
-45 11 -83 82 -57 109 11 11 305 -3 349 -18z m2522 -117 c6 -47 13 -134 16
-195 4 -107 4 -105 -20 75 -26 205 -29 243 -16 220 5 -8 14 -53 20 -100z
m-285 73 c14 -65 26 -172 25 -223 -1 -42 -6 -23 -19 78 -11 73 -22 141 -25
152 -4 11 -2 20 4 20 5 0 12 -12 15 -27z m90 10 c6 -23 24 -178 30 -268 6 -92
-6 -35 -29 135 -10 68 -19 130 -22 137 -3 7 0 13 5 13 6 0 13 -8 16 -17z m104
-83 c11 -82 25 -326 16 -265 -8 54 -44 342 -44 355 0 9 3 10 9 5 4 -6 13 -48
19 -95z m180 -5 c6 -44 13 -136 16 -205 l6 -125 -25 200 c-13 110 -24 209 -24
220 -1 44 17 -12 27 -90z m91 -39 c11 -104 23 -306 16 -291 -6 14 -45 384 -44
415 1 24 1 24 9 -4 5 -16 13 -70 19 -120z m169 4 c6 -58 13 -159 16 -225 4
-115 4 -117 -5 -35 -5 47 -16 147 -24 223 -8 75 -15 147 -14 160 1 50 17 -19
27 -123z m81 31 c11 -87 25 -392 15 -326 -2 17 -11 102 -19 190 -9 88 -18 180
-21 205 -4 30 -3 42 4 35 5 -5 15 -52 21 -104z m-164 -37 c8 -71 14 -158 14
-194 -1 -50 -5 -29 -19 95 -19 163 -24 242 -15 233 3 -2 12 -63 20 -134z m244
59 c7 -43 14 -139 16 -213 4 -152 1 -141 -20 80 -9 85 -18 167 -20 183 -3 15
-1 27 4 27 5 0 14 -35 20 -77z m80 -6 c6 -46 13 -141 15 -213 5 -141 3 -133
-19 91 -9 83 -18 162 -21 178 -3 15 -1 27 4 27 5 0 14 -37 21 -83z m-12799 18
c96 -16 122 -27 105 -44 -9 -8 -92 2 -260 29 -102 17 -116 21 -109 32 8 13
142 4 264 -17z m1593 -25 c3 -11 22 -26 46 -36 39 -15 47 -34 15 -34 -19 0
-124 69 -124 81 0 5 13 9 29 9 20 0 30 -6 34 -20z m5236 -52 c1 -5 -3 -8 -9
-8 -5 0 -10 12 -9 28 0 24 1 25 9 7 5 -11 9 -23 9 -27z m58 20 c-3 -8 -6 -5
-6 6 -1 11 2 17 5 13 3 -3 4 -12 1 -19z m5090 -25 c-3 -10 -5 -4 -5 12 0 17 2
24 5 18 2 -7 2 -21 0 -30z m-10362 -67 c98 -68 131 -109 105 -127 -11 -8 -12
-12 -2 -16 18 -7 15 -44 -5 -59 -10 -7 -13 -14 -6 -14 6 0 15 5 18 10 3 6 13
10 21 10 8 0 12 -4 9 -10 -4 -6 5 -9 19 -8 15 1 26 9 27 18 0 8 9 -23 18 -70
26 -124 59 -182 117 -210 25 -13 42 -25 37 -29 -4 -3 -10 -15 -11 -26 -2 -10
-10 -24 -18 -30 -18 -14 -42 -132 -45 -227 -2 -43 -6 -78 -10 -78 -3 0 -9 42
-13 93 -11 152 -13 158 -57 175 -43 16 -47 23 -24 42 8 7 15 22 15 33 0 20 0
20 -22 1 -39 -34 -61 -21 -82 48 -11 34 -28 70 -39 81 -22 22 -16 30 46 49 20
6 37 14 37 17 -1 20 -28 82 -36 80 -5 -1 -13 8 -19 20 -5 11 -13 21 -17 21 -5
0 -8 5 -8 11 0 6 7 9 15 5 10 -4 15 1 15 14 0 11 -6 20 -14 20 -7 0 -16 14
-20 32 -4 22 -30 55 -81 105 -41 41 -75 76 -75 78 0 12 21 0 105 -59z m5255
-12 c22 -4 40 -11 40 -16 0 -6 -7 -7 -16 -4 -9 3 -31 6 -50 6 -31 0 -34 3 -34
28 1 23 2 24 11 10 5 -10 28 -21 49 -24z m5117 4 c-3 -7 -5 -2 -5 12 0 14 2
19 5 13 2 -7 2 -19 0 -25z m-9829 -3 c7 -14 12 -34 12 -45 0 -10 5 -22 10 -25
6 -4 7 -11 4 -17 -9 -13 15 -28 46 -28 35 0 59 -17 41 -29 -13 -9 -75 1 -122
20 -28 11 -39 44 -39 117 0 40 31 45 48 7z m10439 3 c-3 -8 -6 -5 -6 6 -1 11
2 17 5 13 3 -3 4 -12 1 -19z m-5719 -44 c9 -2 12 -17 10 -41 -3 -35 -6 -38
-33 -38 -37 0 -45 10 -45 58 0 36 1 37 28 31 15 -3 33 -8 40 -10z m7382 1 c0
-10 -10 -15 -29 -15 -16 0 -34 7 -41 15 -11 13 -7 15 29 15 30 0 41 -4 41 -15z
m-12241 -20 c24 -31 37 -83 23 -97 -6 -6 -12 6 -16 32 -4 24 -17 52 -31 66
-15 15 -19 24 -10 24 7 0 23 -11 34 -25z m10028 -87 c-3 -8 -6 -5 -6 6 -1 11
2 17 5 13 3 -3 4 -12 1 -19z m480 -55 c-2 -16 -4 -5 -4 22 0 28 2 40 4 28 2
-13 2 -35 0 -50z m-170 5 c-3 -7 -5 -2 -5 12 0 14 2 19 5 13 2 -7 2 -19 0 -25z
m-170 -30 c-2 -13 -4 -5 -4 17 -1 22 1 32 4 23 2 -10 2 -28 0 -40z m-3665 18
c91 -28 135 -55 116 -68 -9 -7 -7 -8 7 -4 16 5 34 -8 76 -52 30 -31 68 -74 83
-94 48 -67 105 -200 138 -323 31 -116 32 -126 31 -320 0 -110 -5 -213 -9 -228
-6 -18 -9 44 -9 177 0 239 -1 242 -70 208 -25 -12 -52 -22 -61 -22 -8 0 -31
-12 -50 -27 -37 -30 -44 -64 -19 -89 8 -9 15 -33 15 -56 0 -22 6 -52 14 -66 8
-15 17 -34 19 -43 3 -9 27 -30 54 -47 68 -44 89 -67 87 -92 -4 -54 -3 -53 -19
-40 -13 11 -13 14 2 26 17 13 17 13 -1 14 -22 0 -159 101 -181 134 -10 14 -15
47 -15 101 0 59 -3 76 -11 65 -11 -15 -10 -8 5 60 9 40 141 145 198 157 24 5
25 7 16 34 -10 28 -11 28 -38 14 -37 -19 -49 -19 -24 0 10 8 15 14 9 15 -16 0
-40 -18 -40 -31 0 -7 -7 -14 -15 -16 -13 -4 -13 -3 0 6 22 15 0 13 -58 -5 -28
-9 -57 -14 -64 -11 -19 7 -80 123 -76 145 3 16 8 17 36 10 17 -5 32 -13 32
-19 0 -6 9 -24 21 -40 11 -16 17 -29 13 -29 -4 0 1 -7 12 -15 27 -21 49 -19
115 11 33 15 59 27 59 28 -1 14 -34 105 -53 148 -39 88 -114 198 -134 198 -14
0 -25 -22 -47 -95 -16 -52 -33 -95 -38 -95 -5 0 -6 -4 -3 -10 3 -5 1 -18 -4
-27 -9 -16 -10 -14 -11 8 0 35 47 198 66 227 8 12 11 22 7 22 -5 0 -2 4 5 9
11 6 10 11 -3 25 -18 17 -45 22 -45 7 0 -15 -41 -103 -46 -98 -3 2 4 29 15 58
l21 53 -22 23 c-12 13 -17 23 -12 23 5 1 -8 7 -28 15 -21 8 -55 22 -75 30 -21
8 -62 14 -91 15 -33 0 -51 4 -47 10 10 17 68 11 147 -14z m4175 -8 c-3 -8 -6
-5 -6 6 -1 11 2 17 5 13 3 -3 4 -12 1 -19z m-10419 -5 c-3 -15 -17 -19 -85
-23 -44 -3 -80 -3 -79 0 2 3 6 13 9 23 5 14 19 17 82 17 67 0 76 -2 73 -17z
m9819 -15 c-3 -8 -6 -5 -6 6 -1 11 2 17 5 13 3 -3 4 -12 1 -19z m-3857 8 c0
-2 -23 -19 -52 -36 -52 -32 -137 -116 -159 -157 -13 -24 -15 -20 99 -148 41
-46 48 -50 88 -50 44 0 44 0 21 -17 -56 -44 -77 -34 -166 77 -71 88 -75 113
-32 171 56 76 201 191 201 160z m74 -53 c15 -111 -3 -153 -23 -53 -4 25 -9 50
-11 55 -1 6 -2 20 -1 32 2 40 28 14 35 -34z m3963 35 c-3 -8 -6 -5 -6 6 -1 11
2 17 5 13 3 -3 4 -12 1 -19z m-3899 -20 c6 -18 13 -51 16 -73 10 -70 35 -141
59 -167 28 -31 64 -51 76 -44 5 3 11 -3 14 -14 12 -45 -125 -13 -142 34 -14
35 -39 160 -47 234 -7 68 7 86 24 30z m-6818 -26 c0 -11 -71 -44 -79 -37 -9
10 38 45 60 45 10 0 19 -4 19 -8z m11267 -74 c-3 -7 -5 -2 -5 12 0 14 2 19 5
13 2 -7 2 -19 0 -25z m-10705 -65 c10 -9 18 -21 18 -27 0 -24 36 -96 48 -96
13 0 16 -28 6 -54 -13 -34 -36 -14 -70 61 -42 91 -52 133 -34 133 8 0 22 -7
32 -17z m8288 -15 c19 -9 62 -18 95 -22 33 -4 70 -13 82 -21 25 -17 46 -20 23
-4 -11 8 -3 9 30 5 25 -3 81 -8 125 -12 73 -7 76 -8 40 -15 -22 -4 -41 -3 -43
2 -2 5 -27 8 -55 8 -49 -2 -50 -2 -17 -9 19 -4 31 -8 25 -10 -5 -1 3 -5 19 -9
47 -10 40 -26 -12 -29 -111 -6 -352 43 -352 73 0 8 -6 18 -12 22 -7 4 -19 15
-25 24 -11 14 -9 15 15 14 15 -2 43 -9 62 -17z m-85 -8 c3 -5 2 -10 -4 -10 -5
0 -13 5 -16 10 -3 6 -2 10 4 10 5 0 13 -4 16 -10z m-8261 -34 c4 -18 26 -74
51 -124 49 -102 45 -134 -6 -45 -18 32 -48 79 -66 105 -38 55 -38 56 -16 80
23 26 30 23 37 -16z m6518 -14 c-9 -23 -20 -42 -24 -42 -4 0 2 20 14 45 27 55
34 53 10 -3z m-271 -40 c2 -23 0 -45 -4 -48 -4 -4 -7 17 -7 46 0 62 8 64 11 2z
m-6729 6 c41 -44 70 -112 62 -146 -8 -33 -31 -72 -44 -72 -22 0 -108 228 -92
244 14 15 47 3 74 -26z m6469 -80 c40 -51 75 -95 78 -98 3 -3 21 -22 39 -43
40 -47 43 -84 7 -93 -14 -3 -32 -16 -40 -27 -13 -19 -14 -18 -13 24 0 28 -8
60 -20 84 -37 71 -98 155 -107 148 -4 -5 -5 0 -1 11 5 14 2 17 -9 12 -10 -3
-13 -2 -10 5 4 5 0 21 -9 34 -20 30 -20 35 -2 35 8 0 47 -42 87 -92z m2765 62
c0 -11 -6 -20 -13 -20 -14 0 -18 22 -6 33 12 12 19 7 19 -13z m1144 -36 c0 -9
-7 -14 -17 -12 -25 5 -28 28 -4 28 12 0 21 -6 21 -16z m-4057 -79 c-15 -44
-28 -74 -31 -67 -2 8 3 32 12 55 8 23 20 55 26 71 6 16 12 27 15 25 2 -2 -8
-40 -22 -84z m-5941 -80 c3 -64 5 -70 26 -73 l23 -3 -22 -37 c-32 -54 -38 -59
-49 -42 -11 17 -14 199 -4 225 12 30 23 1 26 -70z m10528 5 c55 -6 -36 -8
-258 -5 -375 3 -405 0 -397 -44 2 -14 -2 -47 -10 -73 -8 -26 -11 -48 -8 -48 3
0 0 -6 -6 -14 -9 -11 -9 -15 1 -19 7 -2 10 -8 6 -12 -11 -12 -52 -12 -60 0
-12 17 -9 125 3 125 6 0 9 9 6 20 -3 11 -1 23 4 26 20 12 8 34 -18 34 -37 0
-73 10 -73 20 0 10 692 1 810 -10z m1337 4 c-3 -3 -12 -4 -19 -1 -8 3 -5 6 6
6 11 1 17 -2 13 -5z m-5968 -114 c-13 -88 -12 -91 9 -112 19 -19 32 -22 104
-21 73 1 78 0 43 -8 -22 -5 -69 -8 -105 -7 -63 3 -65 4 -70 33 -8 45 15 224
27 211 3 -2 -1 -45 -8 -96z m3839 -108 c-4 -13 -8 -35 -8 -49 0 -15 -3 -24 -6
-21 -3 4 -2 64 2 135 l9 128 6 -85 c3 -47 2 -95 -3 -108z m1881 159 c11 -7 13
-32 7 -127 -13 -239 -16 -254 -42 -254 -12 0 -26 5 -29 10 -9 15 -54 12 -71
-4 -17 -17 -159 -21 -794 -21 l-435 0 -3 70 c-4 102 15 307 30 316 6 4 300 8
652 8 352 1 642 3 644 6 8 8 25 6 41 -4z m-11819 -11 c0 -6 -7 -13 -15 -16
-28 -11 -15 -29 40 -58 81 -42 72 -62 -16 -31 -42 15 -89 50 -89 67 0 9 59 48
73 48 4 0 7 -5 7 -10z m6963 -47 c-7 -2 -21 -2 -30 0 -10 3 -4 5 12 5 17 0 24
-2 18 -5z m3127 -48 c0 -8 -4 -15 -10 -15 -5 0 -10 7 -10 15 0 8 5 15 10 15 6
0 10 -7 10 -15z m-3295 -36 c21 -19 39 -46 45 -70 11 -41 5 -123 -12 -149 -6
-10 -7 -1 -4 27 9 64 -12 142 -46 176 -25 25 -34 29 -66 24 -34 -6 -35 -5 -18
8 30 23 62 18 101 -16z m66 -26 c13 -16 12 -17 -3 -4 -10 7 -18 15 -18 17 0 8
8 3 21 -13z m-359 -50 c9 -10 19 -47 23 -83 19 -189 109 -325 215 -325 25 0
60 8 78 17 36 19 36 19 20 -19 -6 -15 -11 -31 -10 -35 1 -5 -3 -8 -9 -8 -25 0
6 -189 60 -370 19 -62 -5 -52 -27 12 -48 137 -98 252 -114 261 -11 7 -29 6
-62 -5 -25 -8 -46 -13 -46 -11 0 2 7 15 16 28 15 24 15 25 -3 25 -11 0 -25
-10 -31 -22 -25 -51 -60 -145 -66 -180 -14 -80 -26 -47 -23 67 l2 116 -47 45
c-40 38 -51 43 -67 34 -37 -19 -34 -10 10 32 35 34 41 43 27 46 -11 2 -18 13
-18 28 0 21 -5 24 -35 24 -32 0 -35 2 -35 30 0 56 -22 131 -47 160 l-25 30 36
0 c19 0 38 5 41 10 3 6 15 10 25 10 12 0 25 14 37 38 16 34 39 61 54 62 3 0
13 -8 21 -17z m237 -83 c4 0 13 6 20 13 10 10 11 9 6 -5 -7 -18 -35 -33 -35
-19 0 5 -10 12 -22 15 -22 7 -22 7 -3 15 14 6 21 4 23 -5 2 -8 7 -14 11 -14z
m3188 8 c-3 -8 -6 -5 -6 6 -1 11 2 17 5 13 3 -3 4 -12 1 -19z m-3255 -135 c18
-20 31 -24 61 -21 34 3 36 2 20 -10 -21 -15 -59 -8 -87 16 -22 19 -46 73 -46
99 1 10 7 1 15 -20 7 -22 24 -50 37 -64z m315 -86 c21 -18 63 -48 93 -67 30
-18 61 -40 68 -49 14 -17 16 -62 4 -76 -5 -6 -14 -30 -21 -55 -13 -47 -63
-144 -87 -168 -20 -19 -19 -17 36 91 31 60 50 111 50 132 0 18 5 35 11 37 15
5 -190 118 -213 118 -10 0 -18 2 -18 5 0 10 30 65 35 65 3 0 22 -15 42 -33z
m-806 -142 c28 0 33 -3 31 -20 -2 -11 -10 -27 -18 -36 -8 -8 -14 -23 -14 -32
0 -9 -5 -17 -11 -17 -13 0 -34 52 -43 105 -7 37 -6 38 7 20 10 -12 27 -19 48
-20z m2406 -29 c108 -34 403 -64 893 -91 168 -9 330 -19 360 -23 l55 -7 -70
-3 c-104 -5 -764 35 -970 59 -99 11 -208 27 -241 35 -59 15 -134 63 -134 86 0
5 13 -1 30 -15 16 -14 51 -32 77 -41z m-1699 -58 c5 -7 13 -29 17 -48 10 -55
37 -124 52 -136 16 -13 17 -48 3 -75 -16 -29 -29 -23 -47 19 -16 39 -63 215
-63 238 0 17 24 18 38 2z m-8748 -7 c0 -12 -25 -21 -56 -21 -22 0 -31 10 -19
22 9 9 75 8 75 -1z m50 -7 c0 -2 -7 -4 -15 -4 -8 0 -15 4 -15 10 0 5 7 7 15 4
8 -4 15 -8 15 -10z m60 -14 c0 -5 -4 -10 -9 -10 -6 0 -13 5 -16 10 -3 6 1 10
9 10 9 0 16 -4 16 -10z m8047 -170 c1 -48 -11 -51 -37 -8 -22 36 -18 48 13 48
19 0 22 -6 24 -40z m143 -171 c0 -4 -7 -6 -15 -3 -8 4 -15 10 -15 15 0 4 7 6
15 3 8 -4 15 -10 15 -15z m175 -19 c-21 -23 -35 -26 -35 -7 0 12 40 36 49 30
2 -2 -4 -12 -14 -23z m-4695 -428 c0 -9 29 -26 74 -42 44 -16 27 -20 -24 -6
-57 16 -82 27 -98 43 -11 11 -8 13 17 13 17 0 31 -4 31 -8z m1326 -69 c-8 -9
-133 -18 -125 -9 7 7 121 24 128 19 2 -2 1 -6 -3 -10z m184 7 c0 -6 -32 -10
-76 -10 -47 0 -73 4 -69 10 3 6 37 10 76 10 39 0 69 -4 69 -10z m-1277 -11
c-8 -8 -19 -8 -40 -1 -28 10 -28 10 12 11 28 1 36 -2 28 -10z m142 -15 c39 -4
75 -8 80 -9 6 -1 24 -3 40 -5 l30 -2 -35 -8 c-23 -6 -59 -4 -103 6 -38 8 -79
14 -92 14 -13 0 -27 5 -31 11 -5 8 0 10 17 6 13 -3 56 -9 94 -13z m350 -4 c4
-6 -6 -10 -22 -10 -22 0 -25 2 -13 10 19 12 27 12 35 0z m1522 4 c-3 -3 -12
-4 -19 -1 -8 3 -5 6 6 6 11 1 17 -2 13 -5z m-1617 -14 c0 -5 -7 -10 -15 -10
-8 0 -15 5 -15 10 0 6 7 10 15 10 8 0 15 -4 15 -10z m-53 -6 c-3 -3 -12 -4
-19 -1 -8 3 -5 6 6 6 11 1 17 -2 13 -5z m1368 -514 c15 -6 9 -9 -25 -9 -34 0
-40 3 -25 9 11 5 22 9 25 9 3 0 14 -4 25 -9z m9300 -110 c8 -13 -5 -13 -25 0
-13 8 -13 10 2 10 9 0 20 -4 23 -10z m170 -20 c3 -5 1 -10 -4 -10 -6 0 -11 5
-11 10 0 6 2 10 4 10 3 0 8 -4 11 -10z m79 -9 c12 -5 15 -10 9 -14 -6 -4 -24
0 -39 8 -23 12 -25 15 -9 14 11 0 29 -4 39 -8z m196 -31 c150 -20 217 -31 325
-51 133 -24 149 -29 139 -39 -5 -4 -79 3 -164 16 -85 13 -189 28 -230 34 -152
20 -220 33 -220 41 0 12 23 18 50 14 14 -3 59 -9 100 -15z m-5544 -263 c4 -4
-2 -7 -14 -7 -12 0 -22 4 -22 9 0 10 26 9 36 -2z m454 -97 c0 -5 -2 -10 -4
-10 -3 0 -8 5 -11 10 -3 6 -1 10 4 10 6 0 11 -4 11 -10z m-7710 -160 c0 -5 -2
-10 -4 -10 -3 0 -8 5 -11 10 -3 6 -1 10 4 10 6 0 11 -4 11 -10z m2970 -40 c12
-8 11 -10 -7 -10 -12 0 -25 5 -28 10 -8 13 15 13 35 0z m-1087 -97 c-7 -2 -21
-2 -30 0 -10 3 -4 5 12 5 17 0 24 -2 18 -5z m-1370 -15 c-6 -11 -63 -10 -63 0
0 5 15 8 34 8 19 -1 32 -4 29 -8z m214 -35 c-3 -3 -11 -2 -17 2 -9 6 -9 10 1
16 14 8 27 -7 16 -18z m-1937 13 c0 -11 -19 -15 -25 -6 -3 5 1 10 9 10 9 0 16
-2 16 -4z m3100 -86 c0 -5 -4 -10 -10 -10 -5 0 -10 5 -10 10 0 6 5 10 10 10 6
0 10 -4 10 -10z m3345 -50 c3 -5 -3 -10 -14 -10 -12 0 -21 5 -21 10 0 6 6 10
14 10 8 0 18 -4 21 -10z m-4882 -47 c-7 -2 -21 -2 -30 0 -10 3 -4 5 12 5 17 0
24 -2 18 -5z m2217 -103 c0 -5 -7 -10 -15 -10 -8 0 -15 5 -15 10 0 6 7 10 15
10 8 0 15 -4 15 -10z m7695 0 c3 -5 2 -10 -4 -10 -5 0 -13 5 -16 10 -3 6 -2
10 4 10 5 0 13 -4 16 -10z m252 -12 c-3 -8 -6 -5 -6 6 -1 11 2 17 5 13 3 -3 4
-12 1 -19z m225 -6 c14 -14 6 -15 -42 -6 -17 4 -27 10 -20 14 16 10 48 6 62
-8z m-77 -12 c17 -8 34 -20 38 -27 4 -7 16 -13 25 -13 16 -1 16 -1 0 -11 -22
-12 -58 5 -58 27 0 8 -13 17 -30 20 -16 4 -27 11 -24 16 3 5 9 8 12 6 4 -2 21
-10 37 -18z m-342 3 c-7 -2 -19 -2 -25 0 -7 3 -2 5 12 5 14 0 19 -2 13 -5z
m154 1 c-3 -3 -12 -4 -19 -1 -8 3 -5 6 6 6 11 1 17 -2 13 -5z m-15032 -14 c4
-6 -5 -10 -19 -10 -14 0 -26 5 -26 10 0 6 9 10 19 10 11 0 23 -4 26 -10z
m9005 -40 c0 -5 -4 -10 -10 -10 -5 0 -10 5 -10 10 0 6 5 10 10 10 6 0 10 -4
10 -10z m100 2 c0 -5 -14 -9 -30 -9 -20 0 -26 3 -18 9 17 10 48 10 48 0z m-80
-42 c0 -5 -6 -10 -14 -10 -8 0 -18 5 -21 10 -3 6 3 10 14 10 12 0 21 -4 21
-10z m-3100 -20 c0 -5 -6 -10 -14 -10 -8 0 -18 5 -21 10 -3 6 3 10 14 10 12 0
21 -4 21 -10z m5013 -17 c-7 -2 -19 -2 -25 0 -7 3 -2 5 12 5 14 0 19 -2 13 -5z
m2197 -63 c0 -5 -4 -10 -9 -10 -6 0 -13 5 -16 10 -3 6 1 10 9 10 9 0 16 -4 16
-10z m-2740 -10 c0 -5 -4 -10 -10 -10 -5 0 -10 5 -10 10 0 6 5 10 10 10 6 0
10 -4 10 -10z m-4890 -21 c0 -5 -4 -9 -10 -9 -5 0 -10 7 -10 16 0 8 5 12 10 9
6 -3 10 -10 10 -16z m680 -29 c0 -5 -5 -10 -11 -10 -5 0 -7 5 -4 10 3 6 8 10
11 10 2 0 4 -4 4 -10z m2880 -20 c0 -5 -10 -10 -22 -9 -22 0 -22 1 -3 9 11 5
21 9 23 9 1 1 2 -3 2 -9z m-1697 -7 c-7 -2 -19 -2 -25 0 -7 3 -2 5 12 5 14 0
19 -2 13 -5z m10402 -13 c3 -6 -5 -10 -19 -10 -14 0 -28 5 -31 10 -3 6 5 10
19 10 14 0 28 -4 31 -10z"/>
<path d="M13063 9653 c9 -2 23 -2 30 0 6 3 -1 5 -18 5 -16 0 -22 -2 -12 -5z"/>
<path d="M13328 9643 c7 -3 16 -2 19 1 4 3 -2 6 -13 5 -11 0 -14 -3 -6 -6z"/>
<path d="M1496 8091 c-3 -5 1 -14 9 -21 13 -10 15 -9 15 9 0 21 -14 28 -24 12z"/>
<path d="M600 8025 c0 -8 5 -15 10 -15 6 0 10 7 10 15 0 8 -4 15 -10 15 -5 0
-10 -7 -10 -15z"/>
<path d="M1040 7965 l0 -45 40 0 c29 0 40 4 40 15 0 8 6 12 13 10 8 -4 11 -21
9 -50 -3 -28 0 -45 7 -45 6 0 11 18 11 40 0 33 3 40 20 40 25 0 27 20 3 20
-21 1 -63 33 -63 49 0 6 -18 11 -40 11 l-40 0 0 -45z"/>
<path d="M1740 7970 c0 -22 5 -40 10 -40 6 0 10 18 10 40 0 22 -4 40 -10 40
-5 0 -10 -18 -10 -40z"/>
<path d="M1248 7933 c6 -2 18 -2 25 0 6 3 1 5 -13 5 -14 0 -19 -2 -12 -5z"/>
<path d="M1760 7870 c0 -14 7 -20 22 -20 20 0 21 1 3 20 -10 11 -20 20 -22 20
-1 0 -3 -9 -3 -20z"/>
<path d="M2238 7857 c-32 -12 -37 -43 -9 -52 10 -3 37 -26 59 -50 23 -25 46
-45 52 -45 13 0 28 -14 54 -50 l17 -25 -6 38 c-7 35 -6 37 18 37 13 0 40 -7
59 -15 38 -15 58 -6 58 27 0 21 -9 22 -33 4 -25 -19 -54 -9 -82 29 -30 39 -31
49 -5 75 l21 21 -53 -6 c-29 -4 -58 -8 -64 -10 -6 -2 -18 5 -27 16 -19 21 -21
21 -59 6z"/>
<path d="M602 7839 c2 -6 8 -10 13 -10 5 0 11 4 13 10 2 6 -4 11 -13 11 -9 0
-15 -5 -13 -11z"/>
<path d="M1020 7810 c0 -22 5 -40 10 -40 6 0 10 18 10 40 0 22 -4 40 -10 40
-5 0 -10 -18 -10 -40z"/>
<path d="M2020 7810 c0 -29 4 -40 15 -40 11 0 15 11 15 40 0 29 -4 40 -15 40
-11 0 -15 -11 -15 -40z"/>
<path d="M691 7784 c0 -11 3 -14 6 -6 3 7 2 16 -1 19 -3 4 -6 -2 -5 -13z"/>
<path d="M1400 7700 c0 -5 5 -10 10 -10 6 0 10 5 10 10 0 6 -4 10 -10 10 -5 0
-10 -4 -10 -10z"/>
<path d="M900 7680 c0 -5 5 -10 10 -10 6 0 10 5 10 10 0 6 -4 10 -10 10 -5 0
-10 -4 -10 -10z"/>
<path d="M1762 7670 c0 -14 2 -19 5 -12 2 6 2 18 0 25 -3 6 -5 1 -5 -13z"/>
<path d="M1862 7663 c-19 -20 -26 -22 -37 -13 -13 10 -15 8 -15 -14 0 -14 5
-26 12 -26 7 0 22 -12 34 -27 l22 -28 11 28 c16 41 40 34 47 -13 8 -48 19 -52
28 -9 9 45 8 49 -9 49 -11 0 -15 11 -15 40 0 37 -2 40 -27 39 -16 -1 -38 -12
-51 -26z"/>
<path d="M1981 7653 c1 -21 5 -49 9 -63 6 -19 8 -9 9 38 1 35 -3 62 -9 62 -5
0 -10 -17 -9 -37z"/>
<path d="M920 7620 c0 -5 5 -10 10 -10 6 0 10 5 10 10 0 6 -4 10 -10 10 -5 0
-10 -4 -10 -10z"/>
<path d="M2523 7623 c-19 -7 -16 -35 10 -84 19 -35 30 -45 53 -47 22 -2 25 0
14 7 -8 6 -15 14 -16 18 0 4 -8 25 -17 45 -10 21 -17 42 -17 47 0 13 -12 19
-27 14z"/>
<path d="M1101 7569 c-14 -40 -14 -39 4 -39 10 0 15 11 15 35 0 43 -5 44 -19
4z"/>
<path d="M1636 7563 c-12 -12 -6 -33 9 -33 8 0 15 6 15 14 0 17 -14 28 -24 19z"/>
<path d="M1428 7536 c-22 -16 -24 -56 -3 -56 8 0 15 7 15 15 0 22 35 37 62 26
37 -14 51 -36 43 -71 -4 -16 -3 -30 2 -30 12 0 53 56 53 72 0 11 -2 11 -8 0
-6 -9 -18 -3 -46 23 -40 38 -86 46 -118 21z"/>
<path d="M2200 7500 c0 -54 27 -62 32 -10 3 31 0 40 -14 43 -15 4 -18 -1 -18
-33z"/>
<path d="M1650 7512 l-25 -21 25 -9 c26 -10 35 0 28 34 -3 14 -6 14 -28 -4z"/>
<path d="M1260 7481 c0 -6 5 -13 10 -16 6 -3 10 1 10 9 0 9 -4 16 -10 16 -5 0
-10 -4 -10 -9z"/>
<path d="M1360 7460 c0 -5 -18 -10 -41 -10 -22 0 -47 -6 -54 -12 -29 -26 -40
-37 -55 -54 -13 -16 -13 -17 4 -11 10 4 26 7 37 7 14 0 19 7 19 25 0 29 4 31
83 40 31 4 55 11 52 16 -8 12 -45 12 -45 -1z"/>
<path d="M1360 7420 c0 -5 5 -10 11 -10 5 0 7 5 4 10 -3 6 -8 10 -11 10 -2 0
-4 -4 -4 -10z"/>
<path d="M1535 7380 c-3 -5 -1 -10 4 -10 6 0 11 5 11 10 0 6 -2 10 -4 10 -3 0
-8 -4 -11 -10z"/>
<path d="M833 7353 c9 -2 25 -2 35 0 9 3 1 5 -18 5 -19 0 -27 -2 -17 -5z"/>
<path d="M7923 7643 c26 -2 68 -2 95 0 26 2 4 3 -48 3 -52 0 -74 -1 -47 -3z"/>
<path d="M8113 7633 c15 -2 37 -2 50 0 12 2 0 4 -28 4 -27 0 -38 -2 -22 -4z"/>
<path d="M8268 7623 c12 -2 30 -2 40 0 9 3 -1 5 -23 4 -22 0 -30 -2 -17 -4z"/>
<path d="M8388 7613 c12 -2 30 -2 40 0 9 3 -1 5 -23 4 -22 0 -30 -2 -17 -4z"/>
<path d="M8473 7603 c9 -2 25 -2 35 0 9 3 1 5 -18 5 -19 0 -27 -2 -17 -5z"/>
<path d="M8531 7596 c2 -2 27 -6 54 -9 34 -4 42 -3 25 3 -25 8 -87 13 -79 6z"/>
<path d="M8735 7550 c118 -34 261 -104 329 -160 26 -22 49 -40 51 -40 1 0 5 9
8 20 3 11 1 18 -4 14 -5 -3 -38 16 -74 41 -36 26 -100 62 -143 80 -81 34 -220
75 -250 74 -9 0 28 -13 83 -29z"/>
<path d="M6359 7453 c-13 -16 -12 -17 4 -4 9 7 17 15 17 17 0 8 -8 3 -21 -13z"/>
<path d="M6510 7450 c-8 -5 -10 -10 -5 -10 6 0 17 5 25 10 8 5 11 10 5 10 -5
0 -17 -5 -25 -10z"/>
<path d="M6445 7420 c-3 -6 1 -7 9 -4 18 7 21 14 7 14 -6 0 -13 -4 -16 -10z"/>
<path d="M6240 7412 c0 -24 25 -30 49 -11 13 10 19 19 14 19 -5 0 -14 -5 -21
-12 -8 -8 -15 -8 -27 2 -8 7 -15 8 -15 2z"/>
<path d="M10064 7369 c-243 -11 -557 -36 -621 -49 -28 -6 -56 -17 -61 -23 -9
-11 39 -91 237 -397 16 -25 73 -115 127 -200 54 -85 102 -159 106 -165 4 -5
40 -59 80 -120 40 -60 100 -138 133 -171 53 -53 70 -65 135 -85 41 -13 77 -26
80 -29 3 -3 21 -3 40 0 33 5 31 6 -30 19 -87 19 -179 64 -222 109 -35 36 -104
131 -176 242 -19 30 -39 57 -44 58 -4 2 -8 9 -8 16 0 6 -7 21 -15 31 -9 11
-50 76 -93 145 -43 69 -99 157 -125 197 -26 40 -47 74 -47 77 0 3 -16 28 -35
55 -19 26 -35 53 -35 58 0 6 -7 16 -15 23 -8 7 -17 27 -21 46 -4 24 -12 34
-25 34 -25 0 -46 38 -24 46 8 4 23 0 33 -7 15 -13 16 -12 3 4 -7 9 -9 17 -4
17 5 0 62 7 128 15 757 92 2186 26 2806 -130 153 -39 209 -68 397 -207 90 -67
115 -96 70 -83 -15 5 -10 -2 15 -19 33 -24 54 -48 26 -30 -12 7 -121 30 -191
41 -21 3 -38 8 -38 12 0 4 -40 8 -89 10 -85 2 -90 1 -96 -20 -4 -12 -19 -33
-34 -46 -24 -23 -25 -26 -8 -37 9 -7 17 -19 18 -27 0 -8 8 -26 17 -40 9 -14
27 -40 39 -59 l22 -34 -35 -39 c-33 -36 -35 -42 -33 -100 2 -34 -1 -73 -5 -86
-6 -18 -5 -22 5 -16 9 6 11 3 6 -9 -4 -10 -7 -27 -7 -38 0 -31 -10 -16 -25 39
-12 43 -13 45 -14 16 -2 -59 51 -244 78 -275 3 -4 85 -14 181 -23 96 -9 222
-22 280 -30 109 -15 312 -30 555 -40 77 -4 158 -8 180 -10 22 -2 48 -4 58 -4
9 -1 17 -5 17 -9 0 -5 -36 -15 -80 -22 -106 -18 -95 -26 15 -10 47 7 146 15
221 19 l135 6 -77 65 c-42 36 -82 70 -88 75 -6 6 -74 63 -151 126 -464 380
-1036 794 -1210 875 -306 141 -1581 252 -2461 213z m3546 -1090 c0 -6 -4 -7
-10 -4 -5 3 -10 11 -10 16 0 6 5 7 10 4 6 -3 10 -11 10 -16z m164 -140 c42
-39 76 -75 76 -80 0 -15 -109 -10 -141 6 -16 9 -45 32 -64 53 l-34 37 32 7
c18 4 34 2 35 -3 2 -5 8 -7 12 -4 5 3 7 12 4 20 -4 8 -10 12 -15 9 -5 -3 -9 2
-9 11 0 8 -7 18 -15 21 -8 4 -15 13 -15 21 0 20 37 -7 134 -98z m-134 41 c0
-5 -4 -10 -10 -10 -5 0 -10 5 -10 10 0 6 5 10 10 10 6 0 10 -4 10 -10z"/>
<path d="M6176 7358 c-9 -5 -16 -14 -16 -20 0 -6 8 -4 18 5 20 18 37 23 28 8
-3 -5 -22 -16 -42 -26 -27 -13 -33 -19 -23 -26 9 -5 22 0 39 15 14 13 35 30
47 38 l23 15 -29 0 c-16 0 -37 -4 -45 -9z"/>
<path d="M9688 7303 c6 -2 18 -2 25 0 6 3 1 5 -13 5 -14 0 -19 -2 -12 -5z"/>
<path d="M9823 7303 c9 -2 23 -2 30 0 6 3 -1 5 -18 5 -16 0 -22 -2 -12 -5z"/>
<path d="M9748 7293 c6 -2 18 -2 25 0 6 3 1 5 -13 5 -14 0 -19 -2 -12 -5z"/>
<path d="M6048 7283 c7 -3 16 -2 19 1 4 3 -2 6 -13 5 -11 0 -14 -3 -6 -6z"/>
<path d="M6089 7280 c-1 -3 -1 -8 -1 -11 1 -3 -10 -4 -23 -1 -33 6 -110 -49
-93 -66 15 -15 7 -15 -27 -2 -14 5 -24 6 -21 2 3 -5 -12 -14 -32 -22 -38 -13
-109 -55 -127 -74 -5 -6 -27 -19 -48 -28 -41 -20 -80 -73 -73 -101 3 -12 -3
-21 -18 -27 -12 -4 -44 -30 -69 -57 -41 -42 -47 -45 -47 -25 0 12 -4 22 -10
22 -5 0 -38 -28 -72 -63 -48 -49 -87 -75 -168 -116 -125 -62 -266 -155 -294
-193 -20 -28 -20 -28 0 -43 12 -9 44 -15 89 -15 39 -1 100 -4 136 -8 36 -4 75
-5 86 -2 12 3 68 59 125 125 140 164 350 372 548 544 91 79 171 150 179 156
11 11 9 13 -13 12 -14 -1 -27 -4 -27 -7z m-34 -40 c-3 -5 -11 -10 -16 -10 -6
0 -7 5 -4 10 3 6 11 10 16 10 6 0 7 -4 4 -10z m-89 -77 c-6 -6 -36 9 -36 18 0
5 9 4 20 -3 10 -7 18 -14 16 -15z m-83 -45 c-2 -5 -10 -8 -18 -8 -7 0 -16 -8
-19 -18 -3 -10 -20 -26 -37 -36 -25 -15 -33 -16 -42 -6 -9 10 -9 11 1 6 15 -9
67 38 58 53 -7 11 5 16 38 16 13 0 22 -3 19 -7z m-101 -30 c-7 -7 -12 -8 -12
-2 0 14 12 26 19 19 2 -3 -1 -11 -7 -17z m-32 -48 c18 -12 2 -12 -25 0 -13 6
-15 9 -5 9 8 0 22 -4 30 -9z m-20 -25 c0 -2 -10 -10 -22 -16 -21 -11 -22 -11
-9 4 13 16 31 23 31 12z"/>
<path d="M9570 7280 c-12 -8 -11 -10 8 -10 12 0 22 5 22 10 0 13 -11 13 -30 0z"/>
<path d="M9468 7253 c7 -3 16 -2 19 1 4 3 -2 6 -13 5 -11 0 -14 -3 -6 -6z"/>
<path d="M6020 7059 c-22 -18 -22 -19 -3 -10 12 6 25 16 28 21 9 15 3 12 -25
-11z"/>
<path d="M5948 6999 c-20 -18 -25 -26 -13 -21 21 11 63 52 52 52 -4 0 -21 -14
-39 -31z"/>
<path d="M5536 6928 c-20 -48 -20 -51 4 -36 11 7 20 16 20 20 0 14 35 43 55
46 35 6 27 10 -18 8 -41 -1 -45 -3 -61 -38z"/>
<path d="M5513 6935 c-7 -8 -9 -16 -4 -19 5 -3 12 1 15 10 8 22 4 25 -11 9z"/>
<path d="M12768 6903 c7 -3 16 -2 19 1 4 3 -2 6 -13 5 -11 0 -14 -3 -6 -6z"/>
<path d="M5380 6860 c0 -5 5 -10 10 -10 6 0 10 5 10 10 0 6 -4 10 -10 10 -5 0
-10 -4 -10 -10z"/>
<path d="M9456 6525 c24 -39 24 -40 24 -28 0 6 -9 21 -21 34 l-20 24 17 -30z"/>
<path d="M9650 6541 c0 -6 4 -13 10 -16 6 -3 7 1 4 9 -7 18 -14 21 -14 7z"/>
<path d="M9685 6480 c9 -16 18 -30 21 -30 2 0 -2 14 -11 30 -9 17 -18 30 -21
30 -2 0 2 -13 11 -30z"/>
<path d="M9761 6353 c18 -32 75 -129 126 -215 51 -86 93 -159 93 -161 0 -3
-11 -8 -25 -11 -14 -4 -25 -11 -25 -16 0 -6 13 -4 30 5 16 8 51 15 77 15 35 0
44 3 33 10 -8 5 -24 10 -36 10 -11 0 -32 12 -46 28 -24 25 -135 199 -215 335
-19 31 -36 57 -39 57 -3 0 9 -26 27 -57z"/>
<path d="M12500 6110 c0 -6 6 -12 13 -15 18 -5 272 -17 267 -12 -3 3 -54 10
-115 16 -60 6 -122 14 -137 17 -17 3 -28 1 -28 -6z"/>
<path d="M10267 6068 c-4 -15 -4 -53 -1 -84 l7 -56 -114 7 c-63 4 -111 5 -108
1 6 -7 177 -32 279 -41 36 -3 121 -12 190 -21 69 -8 163 -19 210 -25 47 -5
297 -52 556 -104 465 -94 594 -116 399 -69 -113 27 -690 148 -835 175 -102 18
-488 69 -531 69 -21 0 -26 5 -28 28 -1 15 -5 54 -9 87 -6 50 -9 56 -15 33z"/>
<path d="M13751 5969 c-30 -5 -56 -11 -57 -12 -2 -2 30 -3 70 -2 47 0 79 -5
89 -14 10 -8 27 -11 42 -7 15 4 25 2 25 -4 0 -7 13 -9 35 -4 22 4 35 2 35 -4
0 -6 10 -9 22 -7 12 3 33 -3 46 -11 16 -11 27 -13 31 -6 4 6 18 15 31 20 24 9
23 10 -15 16 -22 4 -62 11 -90 16 -183 34 -176 33 -264 19z"/>
<path d="M14308 5703 c7 -3 16 -2 19 1 4 3 -2 6 -13 5 -11 0 -14 -3 -6 -6z"/>
<path d="M14388 5683 c7 -3 16 -2 19 1 4 3 -2 6 -13 5 -11 0 -14 -3 -6 -6z"/>
<path d="M14428 5673 c7 -3 16 -2 19 1 4 3 -2 6 -13 5 -11 0 -14 -3 -6 -6z"/>
<path d="M14468 5663 c7 -3 16 -2 19 1 4 3 -2 6 -13 5 -11 0 -14 -3 -6 -6z"/>
<path d="M14508 5653 c7 -3 16 -2 19 1 4 3 -2 6 -13 5 -11 0 -14 -3 -6 -6z"/>
<path d="M15040 5652 c0 -10 67 -30 120 -36 14 -2 16 -1 5 1 -11 3 -24 8 -30
13 -5 4 -22 10 -37 14 -14 3 -33 9 -42 12 -9 3 -16 2 -16 -4z"/>
<path d="M14588 5633 c7 -3 16 -2 19 1 4 3 -2 6 -13 5 -11 0 -14 -3 -6 -6z"/>
<path d="M14628 5623 c7 -3 16 -2 19 1 4 3 -2 6 -13 5 -11 0 -14 -3 -6 -6z"/>
<path d="M15155 5590 c3 -5 8 -10 11 -10 2 0 4 5 4 10 0 6 -5 10 -11 10 -5 0
-7 -4 -4 -10z"/>
<path d="M15345 5530 c3 -5 8 -10 11 -10 2 0 4 5 4 10 0 6 -5 10 -11 10 -5 0
-7 -4 -4 -10z"/>
<path d="M15345 5510 c-18 -8 -17 -9 7 -9 15 -1 30 4 33 9 7 12 -12 12 -40 0z"/>
<path d="M15428 5358 c13 -13 92 -21 92 -8 0 8 -49 20 -83 20 -16 0 -18 -3 -9
-12z"/>
<path d="M13075 5334 c35 -28 121 -62 181 -73 53 -8 94 -9 252 -3 61 3 52 18
-15 25 -32 3 -107 11 -168 17 -60 6 -143 19 -183 30 -86 24 -93 24 -67 4z"/>
<path d="M15630 5310 c0 -5 4 -11 10 -15 5 -3 7 -12 3 -20 -4 -12 3 -15 31
-15 37 0 45 10 23 28 -20 17 -67 33 -67 22z"/>
<path d="M14712 4880 c0 -14 2 -19 5 -12 2 6 2 18 0 25 -3 6 -5 1 -5 -13z"/>
<path d="M15218 4853 c12 -2 32 -2 45 0 12 2 2 4 -23 4 -25 0 -35 -2 -22 -4z"/>
<path d="M14732 4770 c0 -14 2 -19 5 -12 2 6 2 18 0 25 -3 6 -5 1 -5 -13z"/>
<path d="M16682 4720 c0 -14 2 -19 5 -12 2 6 2 18 0 25 -3 6 -5 1 -5 -13z"/>
<path d="M14772 4435 c0 -16 2 -22 5 -12 2 9 2 23 0 30 -3 6 -5 -1 -5 -18z"/>
<path d="M1098 7013 c7 -3 16 -2 19 1 4 3 -2 6 -13 5 -11 0 -14 -3 -6 -6z"/>
<path d="M3825 6334 c-27 -30 -38 -70 -33 -129 2 -31 8 -41 23 -43 30 -4 51
55 28 80 -15 17 -15 19 2 38 10 11 22 17 26 14 5 -3 14 7 19 22 12 30 13 29
-17 38 -17 6 -29 1 -48 -20z"/>
<path d="M7920 6190 c0 -8 109 -34 116 -27 3 2 -22 11 -56 20 -33 8 -60 11
-60 7z"/>
<path d="M8106 6165 c18 -8 63 -17 100 -19 38 -3 60 -3 49 0 -138 36 -207 44
-149 19z"/>
<path d="M9590 5985 c0 -11 9 -14 33 -11 17 2 39 4 47 5 29 2 -13 21 -47 21
-23 0 -33 -5 -33 -15z"/>
<path d="M7620 5585 c-9 -11 -9 -19 3 -35 14 -21 15 -20 19 10 5 35 -4 46 -22
25z"/>
<path d="M15700 4860 c0 -5 5 -10 11 -10 5 0 7 5 4 10 -3 6 -8 10 -11 10 -2 0
-4 -4 -4 -10z"/>
<path d="M13164 4804 c-10 -38 12 -99 40 -112 13 -6 45 -14 71 -18 41 -6 47
-5 42 9 -3 8 1 21 9 28 10 8 13 25 10 58 -3 25 -5 49 -5 54 -1 4 -7 7 -14 7
-7 0 -19 -21 -26 -47 -7 -27 -14 -54 -17 -60 -2 -7 -8 -13 -15 -13 -7 0 -8 7
-4 18 15 36 16 48 6 75 -9 23 -16 27 -51 27 -34 0 -40 -3 -46 -26z"/>
<path d="M13557 4800 c-14 -17 -15 -21 -3 -26 8 -3 24 -4 35 -2 19 3 19 4 3
26 l-17 22 -18 -20z"/>
<path d="M13658 4803 c-9 -2 -19 -11 -22 -20 -4 -10 -2 -14 8 -10 7 3 18 1 23
-4 8 -8 45 -13 181 -24 30 -2 62 -7 73 -10 23 -8 25 12 4 42 -12 17 -24 21
-63 20 -26 -1 -51 -5 -57 -8 -18 -10 -79 -2 -83 10 -3 9 -7 9 -18 0 -10 -8
-14 -8 -14 0 0 11 -3 12 -32 4z"/>
<path d="M16868 4769 c-17 -9 -25 -39 -12 -39 4 0 17 11 30 25 23 25 14 33
-18 14z"/>
<path d="M16936 4772 c-14 -23 5 -79 30 -91 36 -16 50 -14 66 10 8 13 24 22
41 22 28 0 35 18 18 45 -10 17 -146 29 -155 14z"/>
<path d="M17062 4678 c-18 -5 -30 -13 -27 -18 9 -14 27 -12 49 5 26 20 18 24
-22 13z"/>
<path d="M9825 4750 c-3 -5 -1 -10 4 -10 6 0 11 5 11 10 0 6 -2 10 -4 10 -3 0
-8 -4 -11 -10z"/>
<path d="M12300 4765 c-7 -9 -11 -16 -9 -18 53 -30 70 -26 49 13 -13 24 -23
25 -40 5z"/>
<path d="M13572 3994 c9 -9 21 -15 27 -13 6 2 -2 10 -17 17 -25 11 -25 11 -10
-4z"/>
<path d="M13498 3993 c7 -3 16 -2 19 1 4 3 -2 6 -13 5 -11 0 -14 -3 -6 -6z"/>
<path d="M16105 3670 c-2 -4 -9 -67 -15 -140 -8 -103 -8 -135 1 -141 26 -16
39 3 39 56 l0 54 38 3 c32 3 37 6 37 28 0 21 -5 26 -32 28 -29 3 -33 7 -33 32
0 27 3 29 43 32 37 3 42 6 42 28 0 24 -3 25 -58 26 -32 0 -60 -2 -62 -6z"/>
<path d="M16247 3673 c-15 -14 -6 -45 14 -50 21 -6 22 -9 15 -120 l-6 -113 25
0 c25 0 25 1 25 84 0 111 7 146 31 146 14 0 19 7 19 30 0 30 0 30 -58 30 -32
0 -62 -3 -65 -7z"/>
<path d="M15307 3573 c-12 -169 -10 -193 13 -193 11 0 20 3 21 8 2 12 6 65 8
90 1 19 6 23 28 20 27 -3 28 -5 28 -58 0 -43 4 -55 17 -58 22 -4 25 12 33 161
7 122 6 127 -13 127 -20 0 -32 -33 -32 -86 0 -20 -5 -24 -29 -24 l-29 0 5 55
c5 53 4 55 -20 55 -23 0 -24 -3 -30 -97z"/>
<path d="M15486 3598 c-3 -40 -7 -104 -9 -143 -2 -64 0 -70 18 -70 18 0 21 9
26 70 3 39 7 68 8 65 1 -3 10 -32 19 -64 17 -59 43 -90 61 -71 5 6 12 72 16
148 7 135 7 137 -14 137 -18 0 -21 -6 -22 -42 -1 -24 -4 -56 -8 -73 l-7 -30
-7 37 c-13 65 -36 108 -56 108 -17 0 -20 -10 -25 -72z"/>
<path d="M15656 3600 c-3 -38 -9 -101 -12 -140 -6 -60 -4 -71 10 -76 10 -4 21
-3 26 2 4 5 11 71 15 147 7 133 7 137 -13 137 -17 0 -20 -9 -26 -70z"/>
<path d="M15760 3593 c-23 -42 -43 -90 -44 -107 -1 -28 2 -31 32 -34 28 -3 32
-7 32 -33 0 -18 6 -32 16 -36 18 -7 34 12 34 43 0 12 7 24 15 28 20 7 19 45
-1 53 -13 5 -15 18 -9 84 7 75 6 79 -13 79 -15 0 -31 -20 -62 -77z m26 -80
c-10 -10 -19 5 -10 18 6 11 8 11 12 0 2 -7 1 -15 -2 -18z"/>
<path d="M15936 3563 c-4 -59 -9 -122 -12 -139 -4 -23 0 -33 11 -38 25 -9 35
2 35 37 0 51 11 77 31 77 15 0 18 -9 21 -57 2 -43 7 -58 18 -58 18 0 27 47 32
183 4 99 3 103 -17 100 -17 -3 -20 -12 -23 -55 -3 -49 -5 -53 -28 -53 -25 0
-26 2 -22 53 3 47 1 52 -18 55 -20 3 -22 -3 -28 -105z"/>
<path d="M15703 3343 c26 -2 67 -2 90 0 23 2 2 3 -48 3 -49 0 -68 -1 -42 -3z"/>
<path d="M15878 3343 c23 -2 59 -2 80 0 20 2 1 4 -43 4 -44 0 -61 -2 -37 -4z"/>
<path d="M16008 3343 c6 -2 18 -2 25 0 6 3 1 5 -13 5 -14 0 -19 -2 -12 -5z"/>
<path d="M17887 9751 c12 -10 19 -21 16 -25 -4 -3 8 -6 25 -6 35 0 42 13 15
26 -15 6 -13 8 12 14 23 6 17 8 -30 8 -60 1 -60 1 -38 -17z"/>
<path d="M17993 9744 c-11 -24 -11 -26 10 -20 12 3 34 6 50 6 15 0 27 4 27 9
0 9 -11 13 -60 27 -9 2 -20 -7 -27 -22z"/>
<path d="M18465 9764 c-5 -2 -37 -5 -70 -6 -48 -2 -60 -6 -63 -21 -3 -16 5
-17 95 -15 77 2 98 6 98 17 0 14 -41 31 -60 25z"/>
<path d="M18607 9748 c-4 -12 -4 -24 -2 -27 10 -9 79 -1 87 11 6 10 8 10 8 1
0 -17 45 -16 59 1 18 22 -7 33 -80 34 -61 2 -67 0 -72 -20z m37 -9 c-3 -5 -10
-7 -15 -3 -5 3 -7 10 -3 15 3 5 10 7 15 3 5 -3 7 -10 3 -15z"/>
<path d="M18097 9753 c-4 -3 -7 -12 -7 -20 0 -19 106 -18 113 1 3 8 -1 17 -9
20 -21 8 -89 8 -97 -1z"/>
<path d="M18228 9754 c-13 -12 13 -34 41 -34 29 0 59 15 49 25 -10 10 -82 18
-90 9z"/>
<path d="M18547 9753 c-4 -3 -7 -12 -7 -20 0 -21 37 -15 43 7 4 14 0 20 -12
20 -10 0 -21 -3 -24 -7z"/>
<path d="M18785 9747 c-4 -10 -5 -21 -1 -24 10 -10 18 4 13 24 -4 17 -4 17
-12 0z"/>
<path d="M10955 250 c3 -5 14 -10 23 -10 15 0 15 2 2 10 -20 13 -33 13 -25 0z"/>
<path d="M11380 180 c0 -5 5 -10 10 -10 6 0 10 5 10 10 0 6 -4 10 -10 10 -5 0
-10 -4 -10 -10z"/>
</g>
</svg>
