<svg xmlns="http://www.w3.org/2000/svg" width="17" height="14.672" viewBox="0 0 17 14.672">
  <g id="u" transform="translate(-2.25 -3.25)">
    <g id="Group_39766" data-name="Group 39766" transform="translate(2.25 3.25)">
      <path id="Path_31585" data-name="Path 31585" d="M15.981,3.25H5.519A3.27,3.27,0,0,0,2.25,6.519V11.75a3.27,3.27,0,0,0,3.269,3.269H6.827A1.982,1.982,0,0,1,8.4,15.8l1.133,1.508a1.491,1.491,0,0,0,1.221.61,1.515,1.515,0,0,0,1.221-.61L13.1,15.8a1.982,1.982,0,0,1,1.569-.785h1.308A3.27,3.27,0,0,0,19.25,11.75V6.519A3.27,3.27,0,0,0,15.981,3.25Zm1.962,8.5a1.964,1.964,0,0,1-1.962,1.962H14.673a3.283,3.283,0,0,0-2.615,1.308l-1.133,1.508c-.113.148-.235.148-.349,0L9.442,15.019a3.283,3.283,0,0,0-2.615-1.308H5.519A1.964,1.964,0,0,1,3.558,11.75V6.519A1.964,1.964,0,0,1,5.519,4.558H15.981a1.964,1.964,0,0,1,1.962,1.962Z" transform="translate(-2.25 -3.25)" fill="#1852d8"/>
      <path id="Path_31586" data-name="Path 31586" d="M15.681,6.92H6.824a.654.654,0,1,0,0,1.308h8.857a.654.654,0,0,0,0-1.308Z" transform="translate(-2.753 -3.721)" fill="#1852d8"/>
      <path id="Path_31587" data-name="Path 31587" d="M10.311,10.92H6.824a.654.654,0,0,0,0,1.308h3.487a.654.654,0,0,0,0-1.308Z" transform="translate(-2.753 -4.233)" fill="#1852d8"/>
    </g>
  </g>
</svg>
