<svg xmlns="http://www.w3.org/2000/svg" width="44" height="44" viewBox="0 0 44 44">
  <g id="Group_39869" data-name="Group 39869" transform="translate(-193 -476)">
    <circle id="Ellipse_494" data-name="Ellipse 494" cx="22" cy="22" r="22" transform="translate(193 476)" fill="#f0ffef"/>
    <g id="u" transform="translate(202.379 487.168)">
      <g id="Group_39766" data-name="Group 39766" transform="translate(2.25 3.25)">
        <path id="Path_31585" data-name="Path 31585" d="M19.811,3.25H6.431A4.183,4.183,0,0,0,2.25,7.431v6.69A4.183,4.183,0,0,0,6.431,18.3H8.1a2.535,2.535,0,0,1,2.007,1l1.449,1.929a1.907,1.907,0,0,0,1.561.78,1.938,1.938,0,0,0,1.561-.78l1.449-1.929a2.535,2.535,0,0,1,2.007-1h1.672a4.183,4.183,0,0,0,4.181-4.181V7.431A4.183,4.183,0,0,0,19.811,3.25ZM22.32,14.121a2.512,2.512,0,0,1-2.509,2.509H18.139A4.2,4.2,0,0,0,14.794,18.3l-1.449,1.929c-.145.19-.3.19-.446,0L11.449,18.3A4.2,4.2,0,0,0,8.1,16.63H6.431a2.512,2.512,0,0,1-2.509-2.509V7.431A2.512,2.512,0,0,1,6.431,4.922h13.38A2.512,2.512,0,0,1,22.32,7.431Z" transform="translate(-2.25 -3.25)" fill="#28dc1c"/>
        <path id="Path_31586" data-name="Path 31586" d="M18.334,6.92H7.006a.836.836,0,0,0,0,1.672H18.334a.836.836,0,0,0,0-1.672Z" transform="translate(-1.799 -2.828)" fill="#28dc1c"/>
        <path id="Path_31587" data-name="Path 31587" d="M11.466,10.92H7.006a.836.836,0,0,0,0,1.672h4.46a.836.836,0,0,0,0-1.672Z" transform="translate(-1.799 -2.368)" fill="#28dc1c"/>
      </g>
    </g>
  </g>
</svg>
