<svg xmlns="http://www.w3.org/2000/svg" xmlns:xlink="http://www.w3.org/1999/xlink" width="143" height="54" viewBox="0 0 143 54">
  <defs>
    <filter id="Ellipse_472" x="0" y="0" width="54" height="54" filterUnits="userSpaceOnUse">
      <feOffset dy="2" input="SourceAlpha"/>
      <feGaussianBlur stdDeviation="3" result="blur"/>
      <feFlood flood-opacity="0.078"/>
      <feComposite operator="in" in2="blur"/>
      <feComposite in="SourceGraphic"/>
    </filter>
    <linearGradient id="linear-gradient" x1="-0.423" y1="0.75" x2="0.529" y2="0.25" gradientUnits="objectBoundingBox">
      <stop offset="0" stop-color="#00e2ff"/>
      <stop offset="1" stop-color="#00c5ff"/>
    </linearGradient>
  </defs>
  <g id="Group_39453" data-name="Group 39453" transform="translate(-1074 -4533)">
    <g id="Group_39450" data-name="Group 39450" transform="translate(135 4508.935)">
      <g id="Rectangle_2119" data-name="Rectangle 2119" transform="translate(943 27.065)" fill="none" stroke="#e9e9e9" stroke-width="1">
        <rect width="139" height="44" rx="22" stroke="none"/>
        <rect x="0.5" y="0.5" width="138" height="43" rx="21.5" fill="none"/>
      </g>
    </g>
    <g id="Page-1" transform="translate(765 4511)">
      <g id="Artboard-1" transform="translate(-461 -850)">
        <g id="App-Store" transform="translate(462 850)">
          <g transform="matrix(1, 0, 0, 1, 308, 22)" filter="url(#Ellipse_472)">
            <circle id="Ellipse_472-2" data-name="Ellipse 472" cx="18" cy="18" r="18" transform="translate(9 7)" fill="#fff"/>
          </g>
          <g id="Group_39449" data-name="Group 39449" transform="translate(3 -0.773)">
            <g id="Available-on-the" transform="translate(360.832 36.773)">
              <path id="Fill-12" d="M4.284,9.928H3.356L2.848,8.336H1.083L.6,9.928H-.3L1.442,4.5H2.519ZM2.691,7.663,2.235,6.242C2.19,6.1,2.1,5.756,1.958,5.218H1.943c-.06.232-.135.568-.262,1.024L1.233,7.663Z" transform="translate(0.3 -4.216)"/>
              <path id="Fill-13" d="M72.861,24.7l-1.48,3.918h-.845L69.1,24.7h.935l.665,2.071c.112.344.209.673.284.987h.022c.067-.284.164-.613.284-.987l.658-2.071h.912" transform="translate(-63.911 -22.905)"/>
              <path id="Fill-14" d="M131.53,27.785l-.067-.449h-.022a1.346,1.346,0,0,1-1.144.538,1.136,1.136,0,0,1-1.2-1.151c0-.965.837-1.466,2.288-1.466v-.075c0-.516-.277-.77-.815-.77a1.826,1.826,0,0,0-1.024.292l-.179-.568a2.514,2.514,0,0,1,1.346-.336c1.024,0,1.54.538,1.54,1.623v1.443a5.212,5.212,0,0,0,.06.935Zm-.12-1.952c-.965,0-1.451.232-1.451.793a.554.554,0,0,0,.6.613.832.832,0,0,0,.852-.8Z" transform="translate(-119.425 -22.073)"/>
              <path id="Fill-15" d="M190.816,3.239a.52.52,0,1,1,.546-.523A.509.509,0,0,1,190.816,3.239Zm-.419.643h.867V7.793H190.4Z" transform="translate(-176.049 -2.088)"/>
              <path id="Fill-16" d="M223.9.7h.867V6.405H223.9Z" transform="translate(-207.136 -0.7)"/>
              <path id="Fill-17" d="M254.83,27.693l-.067-.449h-.022a1.346,1.346,0,0,1-1.144.538,1.136,1.136,0,0,1-1.2-1.151c0-.965.837-1.466,2.288-1.466v-.075c0-.516-.277-.77-.815-.77a1.826,1.826,0,0,0-1.024.292l-.179-.576a2.514,2.514,0,0,1,1.346-.336c1.024,0,1.54.538,1.54,1.623v1.443a6.184,6.184,0,0,0,.052.935h-.778v-.007Zm-.12-1.952c-.965,0-1.451.232-1.451.793a.554.554,0,0,0,.6.613.832.832,0,0,0,.852-.8Z" transform="translate(-233.505 -21.98)"/>
              <path id="Fill-18" d="M316.541,6.5a1.332,1.332,0,0,1-1.234-.7h-.015l-.052.606h-.74c.022-.314.03-.665.03-1.054V.7h.875V3.07h.015a1.345,1.345,0,0,1,1.249-.651c.942,0,1.6.808,1.6,1.981A1.884,1.884,0,0,1,316.541,6.5Zm-.179-3.4A1,1,0,0,0,315.4,4.14v.688a.956.956,0,0,0,.942.98c.651,0,1.039-.531,1.039-1.376,0-.793-.4-1.331-1.024-1.331Z" transform="translate(-290.962 -0.7)"/>
              <path id="Fill-19" d="M382.1.7h.867V6.405H382.1Z" transform="translate(-353.507 -0.7)"/>
              <path id="Fill-20" d="M414.347,25.758h-2.61a1.123,1.123,0,0,0,1.234,1.159,2.941,2.941,0,0,0,1.054-.187l.135.606a3.171,3.171,0,0,1-1.308.239A1.817,1.817,0,0,1,410.9,25.6a1.912,1.912,0,0,1,1.854-2.1,1.648,1.648,0,0,1,1.63,1.862A1.516,1.516,0,0,1,414.347,25.758Zm-.793-.621c0-.606-.307-1.032-.86-1.032a1.031,1.031,0,0,0-.95,1.032Z" transform="translate(-380.154 -21.795)"/>
              <path id="Fill-21" d="M504.184,27.783a1.861,1.861,0,0,1-1.884-2.011,1.905,1.905,0,0,1,1.952-2.071,1.847,1.847,0,0,1,1.884,2A1.92,1.92,0,0,1,504.184,27.783Zm.037-3.447c-.628,0-1.032.591-1.032,1.406s.411,1.391,1.024,1.391,1.024-.628,1.024-1.413S504.835,24.336,504.222,24.336Z" transform="translate(-464.72 -21.98)"/>
              <path id="Fill-22" d="M573.725,27.6h-.867V25.35c0-.7-.269-1.039-.793-1.039a.9.9,0,0,0-.867.957v2.325h-.867V24.8c0-.344-.007-.718-.03-1.122h.763l.037.606h.022a1.408,1.408,0,0,1,1.241-.688c.823,0,1.361.628,1.361,1.652V27.6" transform="translate(-527.635 -21.888)"/>
              <path id="Fill-23" d="M662.87,13.33h-.957v1.9c0,.486.172.725.508.725a1.9,1.9,0,0,0,.389-.037l.022.658a1.884,1.884,0,0,1-.673.1c-.688,0-1.092-.381-1.092-1.368V13.33H660.5V12.68h.568v-.718l.852-.262v.972h.957v.658" transform="translate(-611.091 -10.877)"/>
              <path id="Fill-24" d="M711.795,6.413h-.867V4.177c0-.7-.269-1.054-.793-1.054a.852.852,0,0,0-.867.927V6.405H708.4V.7h.867V3.048h.015a1.316,1.316,0,0,1,1.174-.636c.83,0,1.338.643,1.338,1.667V6.413" transform="translate(-655.409 -0.7)"/>
              <path id="Fill-25" d="M770.547,25.758h-2.609a1.123,1.123,0,0,0,1.234,1.159,2.941,2.941,0,0,0,1.054-.187l.135.606a3.171,3.171,0,0,1-1.309.239A1.817,1.817,0,0,1,767.1,25.6a1.912,1.912,0,0,1,1.854-2.1,1.648,1.648,0,0,1,1.63,1.862A1.516,1.516,0,0,1,770.547,25.758Zm-.793-.621c0-.606-.307-1.032-.86-1.032a1.026,1.026,0,0,0-.95,1.032Z" transform="translate(-709.72 -21.795)"/>
            </g>
            <g id="google-play-4" transform="translate(330.978 40.119)">
              <g id="Group_39451" data-name="Group 39451" transform="translate(29.854 6.158)">
                <path id="Path_31384" data-name="Path 31384" d="M2059.8,429.9a5.674,5.674,0,0,1,5.678-5.6,5.34,5.34,0,0,1,3.835,1.542l-1.078,1.078a3.9,3.9,0,0,0-2.758-1.091,4.068,4.068,0,0,0,0,8.135,3.737,3.737,0,0,0,2.825-1.121,3.2,3.2,0,0,0,.833-1.924h-3.656v-1.525h5.146a5.506,5.506,0,0,1-1.243,4.531,5.118,5.118,0,0,1-3.9,1.57,5.673,5.673,0,0,1-5.679-5.6Zm15.065-1.61a3.6,3.6,0,1,0,3.617,3.6A3.554,3.554,0,0,0,2074.867,428.286Zm0,5.788a2.19,2.19,0,1,1,2.033-2.184A2.085,2.085,0,0,1,2074.867,434.075Zm7.892-5.788a3.6,3.6,0,1,0,3.617,3.6A3.552,3.552,0,0,0,2082.759,428.286Zm0,5.788a2.19,2.19,0,1,1,2.034-2.184A2.085,2.085,0,0,1,2082.759,434.075Zm9.685-5.569v.586h-.054a2.489,2.489,0,0,0-1.9-.806,3.608,3.608,0,0,0,0,7.209,2.454,2.454,0,0,0,1.9-.818h.054v.518c0,1.378-.737,2.116-1.924,2.116a2,2,0,0,1-1.816-1.282l-1.379.573a3.436,3.436,0,0,0,3.194,2.129c1.855,0,3.425-1.093,3.425-3.755V428.5Zm-1.815,5.569a2.192,2.192,0,0,1,0-4.368,2.2,2.2,0,0,1,0,4.368Zm4.408-9.392h1.584v10.593h-1.584Zm5.926,9.392a1.83,1.83,0,0,1-1.745-1.091l4.819-1.995-.166-.41a3.349,3.349,0,0,0-3.085-2.293,3.425,3.425,0,0,0-3.4,3.6,3.527,3.527,0,0,0,3.577,3.6,3.58,3.58,0,0,0,3-1.6l-1.229-.818A2.058,2.058,0,0,1,2100.963,434.075Zm-.124-4.4a1.4,1.4,0,0,1,1.337.764l-3.223,1.338A1.978,1.978,0,0,1,2100.84,429.679Zm10.148-5H2107.2v10.593h1.581v-4.012h2.208a3.295,3.295,0,1,0,0-6.579Zm.041,5.106h-2.248v-3.632h2.248a1.816,1.816,0,1,1,0,3.632Zm5.887,5.487V424.683h-1.58v10.593Zm7.1-.019V431.2a2.907,2.907,0,0,0-3.219-2.93,2.968,2.968,0,0,0-2.819,1.622l1.4.585a1.5,1.5,0,0,1,1.445-.777,1.521,1.521,0,0,1,1.661,1.364v.109a3.49,3.49,0,0,0-1.649-.41c-1.513,0-3.052.831-3.052,2.385a2.447,2.447,0,0,0,2.631,2.33,2.228,2.228,0,0,0,2.016-1.035h.054v.818h1.528Zm-3.407-1.184c-.518,0-1.24-.259-1.24-.9,0-.818.9-1.133,1.677-1.133a2.816,2.816,0,0,1,1.445.354A1.92,1.92,0,0,1,2120.609,434.072Zm8.966-5.574-1.812,4.591h-.054l-1.881-4.591h-1.7l2.82,6.419-1.609,3.57h1.649l4.346-9.989Z" transform="translate(-2059.8 -424.3)" fill-rule="evenodd"/>
              </g>
            </g>
          </g>
          <g id="_x34_2.Google_PLay" transform="translate(314.068 27.193)">
            <path id="Path_31373" data-name="Path 31373" d="M61.244,38.1l-3.322-1.919-3.4,3.4,3.4,3.4,3.333-1.925a1.726,1.726,0,0,0-.011-2.958Z" transform="translate(-30.11 -19.759)" fill="#ffce00"/>
            <path id="Path_31374" data-name="Path 31374" d="M24.411,21.326,15.148,12a1.748,1.748,0,0,0-.518,1.243V29.384a1.749,1.749,0,0,0,.518,1.243Z" transform="translate(0 -1.507)" fill="url(#linear-gradient)"/>
            <path id="Path_31375" data-name="Path 31375" d="M26,19.819l3.4-3.4.005-.005-4.557-2.624-6.007-3.53a1.7,1.7,0,0,0-1.749-.035,2.6,2.6,0,0,0-.357.265Z" transform="translate(-1.594 0)" fill="#00f076"/>
            <path id="Path_31376" data-name="Path 31376" d="M16.742,59.348a2.6,2.6,0,0,0,.357.265,1.786,1.786,0,0,0,.852.23,1.753,1.753,0,0,0,.886-.253l6.018-3.513,4.557-2.623-.005-.005-3.4-3.4Z" transform="translate(-1.594 -30.228)" fill="#f63448"/>
          </g>
        </g>
      </g>
    </g>
  </g>
</svg>
