<svg xmlns="http://www.w3.org/2000/svg" width="36.156" height="36.156" viewBox="0 0 36.156 36.156">
  <g id="wishlist" transform="translate(-314.5 -942.5)">
    <circle id="Ellipse_342" data-name="Ellipse 342" cx="17.578" cy="17.578" r="17.578" transform="translate(315 943)" fill="#fff" stroke="#e0e0e0" stroke-width="1"/>
    <g id="share" transform="translate(323.078 950.265)">
      <path id="Path_31423" data-name="Path 31423" d="M194.347.627a.438.438,0,0,0-.746.31V3.272a5.977,5.977,0,0,0-3.728,1.237,6.635,6.635,0,0,0-2.3,3.856,6.794,6.794,0,0,0-.078,2.222v0l0,.02.093.535a.438.438,0,0,0,.806.15l.279-.464a6.148,6.148,0,0,1,3.171-2.8,4.6,4.6,0,0,1,1.756-.257v2.419a.438.438,0,0,0,.748.309l4.625-4.648a.438.438,0,0,0,0-.619Zm.129,8.5V7.375a.438.438,0,0,0-.368-.432,5.354,5.354,0,0,0-2.553.257,6.686,6.686,0,0,0-3.245,2.584,6.235,6.235,0,0,1,.118-1.248,5.693,5.693,0,0,1,2.008-3.357l.027-.024a5.355,5.355,0,0,1,3.571-1.014h0a.438.438,0,0,0,.438-.438V1.99l3.568,3.55Zm0,0" transform="translate(-180.101 2)" fill="#090b1e" stroke="#090b1e" stroke-width="0.5"/>
      <path id="Path_31424" data-name="Path 31424" d="M18.264,69.3a.438.438,0,0,0-.438.438v1.849A1.314,1.314,0,0,1,16.514,72.9H2.188A1.314,1.314,0,0,1,.875,71.587V61.161a1.314,1.314,0,0,1,1.313-1.313H5.215a.438.438,0,0,0,0-.875H2.188A2.191,2.191,0,0,0,0,61.161V71.587a2.191,2.191,0,0,0,2.188,2.188H16.514A2.191,2.191,0,0,0,18.7,71.587V69.737A.438.438,0,0,0,18.264,69.3Zm0,0" transform="translate(0 -55.65)" fill="#090b1e" stroke="#090b1e" stroke-width="0.5"/>
    </g>
  </g>
</svg>
