<svg xmlns="http://www.w3.org/2000/svg" xmlns:xlink="http://www.w3.org/1999/xlink" width="574.551" height="456.299" viewBox="0 0 574.551 456.299">
  <defs>
    <clipPath id="clip-path">
      <rect id="Rectangle_2782" data-name="Rectangle 2782" width="383.034" height="383.035" fill="none"/>
    </clipPath>
  </defs>
  <g id="Group_40226" data-name="Group 40226" transform="translate(-83 -1952.701)">
    <g id="Group_40222" data-name="Group 40222" transform="translate(83 1952.701)">
      <g id="Group_40221" data-name="Group 40221" clip-path="url(#clip-path)">
        <path id="Path_32723" data-name="Path 32723" d="M191.518,0h0C85.745,0,0,85.745,0,191.518V383.035H383.035V191.518C383.035,85.745,297.29,0,191.518,0" fill="#e7f6ff"/>
      </g>
    </g>
    <g id="Group_40223" data-name="Group 40223" transform="translate(274.518 2025.965)">
      <g id="Group_40221-2" data-name="Group 40221" clip-path="url(#clip-path)">
        <path id="Path_32723-2" data-name="Path 32723" d="M191.518,0h0C85.745,0,0,85.745,0,191.518V383.035H383.035V191.518C383.035,85.745,297.29,0,191.518,0" fill="#edffe7"/>
      </g>
    </g>
    <g id="Group_40214" data-name="Group 40214" transform="translate(284.899 2014.746)">
      <g id="Group_40225" data-name="Group 40225" transform="translate(34)">
        <path id="Path_32680" data-name="Path 32680" d="M376.1,651.524c-1.3-.254-2.88-1.19-2.435-2.786.364-1.308,2.352-1.777,3.477-2.112,3.6-1.07,7.535-1.169,11.249-1.565,1.837-.2,3.668-.172,5.508-.283,1.44-.086,2.87-.217,4.309-.25a29.243,29.243,0,0,1-.743-3.676c-.142-1.061-.355-2.383.314-3.322,1.628-2.282,3.919.732,4.734,2.119a38.285,38.285,0,0,1,5.229,15.6c.1.994-1.453.987-1.553,0a34.756,34.756,0,0,0-3.441-11.907c-.434-.877-.9-1.738-1.388-2.585-.363-.629-1.165-2.42-2.064-2.343-.823.07-.273,2.5-.181,3.047a29.506,29.506,0,0,0,.864,3.627.783.783,0,0,1-.749.983c-2.76-.045-5.558.217-8.316.339-3.189.141-6.435.561-9.6.963a21.949,21.949,0,0,0-4.484.984c-.635.222-2.584.832-.959,1.532a8.01,8.01,0,0,0,2.239.347c3.107.305,6.241.19,9.339.6.956.128,1.03,1.591,0,1.554-2.368-.087-4.706.337-7.068.417a18.966,18.966,0,0,0-3.779.265,15.066,15.066,0,0,0-1.586.4c-.819.288-.652.878,0,1.305,1.782,1.175,4.178.782,6.179.683a31.264,31.264,0,0,1,5.561.05c.958.125,1.028,1.6,0,1.553a28.99,28.99,0,0,0-4.836.226c-.43.055-5.012.664-4.449,1.621.259.441,1.823.339,2.3.362.994.046,1.991.02,2.985-.02,1.758-.07,3.517-.215,5.276-.114a.777.777,0,0,1,0,1.554c-1.326.064-2.642.373-3.967.5-.613.057-1.484.168-1.789.8-.451.933.585.978,1.228.963,2.781-.069,5.576-.369,8.352-.555a11.918,11.918,0,0,1,6.182.916,8.267,8.267,0,0,1,2.364,1.7,7.68,7.68,0,0,1,.978,1.247,12.607,12.607,0,0,0,.869,1.676c.646.756-.448,1.86-1.1,1.1a7.227,7.227,0,0,1-.925-1.65,5.577,5.577,0,0,0-1.362-1.691,7.69,7.69,0,0,0-3.441-1.641,16.577,16.577,0,0,0-4.6-.029l-5.173.346c-1.221.082-2.768.424-3.922-.156a2.042,2.042,0,0,1-1.009-2.569,2.516,2.516,0,0,1,.46-.8c-.223,0-.446.013-.669.01-1.492-.022-4.663.087-4.742-2.1a1.907,1.907,0,0,1,1.026-1.733c-1.7-.228-3.36-.855-3.874-2.394-.638-1.91,1.352-2.739,3.186-3.1" transform="translate(-268.481 -347.215)" fill="#231815"/>
        <path id="Path_32681" data-name="Path 32681" d="M90.564,521.589c-1.125,9.1-1.539,20.069,4.019,27.931,5.6,7.924,17.248,9.057,25.568,5.13a33.1,33.1,0,0,0,6.932-4.629,10.581,10.581,0,0,0,3.527-5.187.818.818,0,0,1,.749-.57c2.8-.37,5.905-2.106,6.93-4.874a2.944,2.944,0,0,0-.759-3.594,4.122,4.122,0,0,0-3.837-.126c-.928.37-1.332-1.132-.413-1.5,3.415-1.362,7.531.686,6.751,4.743-.766,3.989-4.942,6.409-8.673,6.9l.749-.57a11.548,11.548,0,0,1-3.132,5.186,36.261,36.261,0,0,1-5.957,4.453A25.3,25.3,0,0,1,108.2,558.3a20.37,20.37,0,0,1-12.934-5.56c-3.4-3.419-5.236-8.086-6.111-12.756a60.079,60.079,0,0,1-.147-18.394c.121-.979,1.676-.991,1.554,0" transform="translate(121.311 -281.124)" fill="#231815"/>
        <path id="Path_32682" data-name="Path 32682" d="M171.4,542.851a8.7,8.7,0,0,0,.908-5.252.8.8,0,0,1,.542-.955.782.782,0,0,1,.956.542,10.391,10.391,0,0,1-.5,5.172,11.07,11.07,0,0,1-.533,1.21c-.092.178-.192.351-.293.524-.034.059-.07.14-.111.2.108.053.28.152.311.166l.693.31,1.387.62a.782.782,0,0,1,.279,1.063.8.8,0,0,1-1.063.279l-1.463-.655a5.8,5.8,0,0,1-1.179-.592,1.354,1.354,0,0,1-.543-1.33,4.6,4.6,0,0,1,.606-1.308" transform="translate(50.899 -290.121)" fill="#231815"/>
        <path id="Path_32683" data-name="Path 32683" d="M150.523,550.379a1.478,1.478,0,0,1-.186-.988,3.889,3.889,0,0,1,.389-1.328,2.194,2.194,0,0,1,.372-.559,1.143,1.143,0,0,1,.877-.347c.04.005.074.018.112.024a.869.869,0,0,1,.095,0c.634.13.834.812.877,1.366a4.8,4.8,0,0,1-.1,1.247,1.556,1.556,0,0,1-.161.49,1.39,1.39,0,0,1-1.094.7,1.293,1.293,0,0,1-1.183-.6" transform="translate(81.763 -296.128)" fill="#231815"/>
        <path id="Path_32684" data-name="Path 32684" d="M190.329,542.1a1,1,0,0,1,1.033-.012,1.236,1.236,0,0,1,.537.858,3.392,3.392,0,0,1,.055.849,4.716,4.716,0,0,1-.136.847,1.851,1.851,0,0,1-.4.832,1.067,1.067,0,0,1-.526.3,1.193,1.193,0,0,1-.781-.106,1.257,1.257,0,0,1-.642-.855,3.4,3.4,0,0,1,.305-2.068,1.491,1.491,0,0,1,.559-.647" transform="translate(26.08 -293.16)" fill="#231815"/>
        <path id="Path_32685" data-name="Path 32685" d="M183.427,525.28a4.669,4.669,0,0,1,3.18-.338,5.754,5.754,0,0,1,2.752,1.356.7.7,0,0,1,.2.366.772.772,0,0,1,.1.617.79.79,0,0,1-.955.542l-5.093-1.123a.785.785,0,0,1-.186-1.42" transform="translate(31.085 -283.386)" fill="#231815"/>
        <path id="Path_32686" data-name="Path 32686" d="M140.859,533.038a.764.764,0,0,1-.556-.646.807.807,0,0,1,.371-.774,3.228,3.228,0,0,1,1.424-.487,11.159,11.159,0,0,1,2.034-.145c1.116.023,2.784.119,3.441,1.192a.93.93,0,0,1-.645,1.39,4.7,4.7,0,0,1-1.377.061c-1.2-.066-2.393-.237-3.578-.414-.372-.055-.743-.113-1.114-.176" transform="translate(91.417 -286.906)" fill="#231815"/>
        <path id="Path_32687" data-name="Path 32687" d="M155.316,569.9a9.946,9.946,0,0,1,1.064-.152c1.085-.133,2.173-.245,3.258-.379l.428-.054.149-.02.184-.025c.253-.036.507-.074.759-.118.179-.032.359-.064.535-.111l.011,0a.806.806,0,0,1,1.282.606,8.008,8.008,0,0,1-.6,2.786c-.013.031-.034.055-.049.084a1.044,1.044,0,0,1-.029.1,3.939,3.939,0,0,1-3.764,2.368,4.484,4.484,0,0,1-3.944-2.859,3.082,3.082,0,0,1-.238-1.2,1.133,1.133,0,0,1,.952-1.021m.6,1.149,0-.007c0,.01-.047-.24,0,.007m5.6-1.75a.434.434,0,0,0-.055.138.619.619,0,0,1,.055-.138m.255-.276c.049-.012.1-.027.106-.038.006-.027-.063.011-.106.038m-5.642,2.745a2.83,2.83,0,0,0,.576.826,2.989,2.989,0,0,0,1.684.824,2.437,2.437,0,0,0,1.429-.251,2.61,2.61,0,0,0,1.118-1.272,7.115,7.115,0,0,0,.363-1.2c-.319.051-.638.1-.957.138-1.233.165-2.471.292-3.706.439l-.387.047-.165.021-.017,0-.084.013,0,.008a2.6,2.6,0,0,0,.143.406m-.434-.362c-.119.021-.073.063,0,0" transform="translate(70.109 -308.529)" fill="#231815"/>
        <path id="Path_32688" data-name="Path 32688" d="M4.579,464.27a22.311,22.311,0,0,1,8.8-6.769,51.819,51.819,0,0,1,5.256-1.675c1.75-.517,3.172-1.64,4.822-2.4,5.691-2.61,12.236-2.859,18.308-1.624a31.35,31.35,0,0,1,16.371,8.583c11.391,11.844,7.474,29.441,12.8,43.716,2.592,6.953,9.1,12.152,9.945,19.794.448,4.074-1.294,7.907-1.42,11.937-.125,3.968,1.769,7.518,3.951,10.7,4,5.84,10.154,12.283,8.08,20.02C89.7,573.26,82.679,577.1,76.234,578a39.963,39.963,0,0,1-5.142.327h0l-.145,0a.76.76,0,0,1-.665-1.123c-.611-6.581-1.32-13.156-2.237-19.7-.766-5.458-1.458-11.135-3.073-16.423a9.618,9.618,0,0,0-5.752-6.516,38.408,38.408,0,0,0-8.694-2.063c-2.871-.448-5.7-1.024-8.559-1.537-1.914-.344-4.32-.494-5.958-1.651a9.787,9.787,0,0,1-3.647-5.949,33.632,33.632,0,0,1-.405-3.564c-.1-1.156-.317-2.3-.315-3.464a.8.8,0,0,1,.57-.749,30.071,30.071,0,0,0,8.251-5.007,11.134,11.134,0,0,0,3.971-5.548.817.817,0,0,1,.749-.57c2.8-.371,5.905-2.107,6.93-4.874A2.946,2.946,0,0,0,51.349,496a4.122,4.122,0,0,0-3.837-.126.718.718,0,0,1-.265.047.59.59,0,0,1-.61.262c-4.2-.536-7.686-2.986-10.42-6.122a75.252,75.252,0,0,1-7.8-11.494,40.122,40.122,0,0,1-2.2-4.329,11.306,11.306,0,0,0-2.289-3.987c-1.529-1.357-4.6.454-6.114,1.166a38.616,38.616,0,0,0-5.71,3.317,37.3,37.3,0,0,0-5.882,5.09c-1.356,1.456-2.231,3.585-3.956,4.648a.787.787,0,0,1-1.141-.464A20.971,20.971,0,0,1,4.579,464.27" transform="translate(207.492 -241.328)" fill="#231815"/>
        <path id="Path_32689" data-name="Path 32689" d="M42.608,648.352c1.379-3.6,2.838-7.178,4.338-10.733q.573-1.359,1.156-2.713a14.5,14.5,0,0,1,1.109-2.435c.883-1.3,2.041-.667,3.087.016q4.672,3.053,9.547,5.778t9.923,5.107q2.523,1.191,5.087,2.294c1.531.659,4.169,2.348,5.706,1.047a22.088,22.088,0,0,0,3.178-4.157c1.036-1.457,2.057-2.924,3.079-4.39,2.01-2.882,4.029-5.759,6.179-8.539a81.325,81.325,0,0,1,7-7.983,57.1,57.1,0,0,1,7.677-6.7,14.8,14.8,0,0,1,8.451-2.657c3.148-.067,6.284.448,9.431.3.864-.04.922-.039,1.279-.878a14.7,14.7,0,0,0,.757-2.67,53.171,53.171,0,0,0,.9-6.1c.055-.588.111-1.177.13-1.767.032-1,1.586-1,1.554,0a37.775,37.775,0,0,1-1.634,10.379,5.535,5.535,0,0,1-.928,1.9,1.843,1.843,0,0,1-.425.366,73.681,73.681,0,0,0,6.105,10.5,171.457,171.457,0,0,0,17.692-10.693c-.166-.165-.331-.342-.495-.536-2.628-3.106-2.326-6.848-2.9-10.638-.148-.978,1.349-1.4,1.5-.413.5,3.287.137,6.956,2.3,9.718a5.841,5.841,0,0,0,1.794,1.7,10.457,10.457,0,0,0,2.454.718c1.555.332,3.124.58,4.679.92,4.739,1.037,9.675,1.247,14.291,2.825a10.891,10.891,0,0,1,7.931,8.462c1.831,6.532,2.636,13.442,3.493,20.153.6,4.665,1.1,9.341,1.548,14.023a.791.791,0,0,1,.131,1.388q.38,4.066.707,8.135c.612,7.742,1.107,15.5,1.3,23.266a.777.777,0,0,1-1.554,0c-.359-14.6-1.572-29.231-3.3-43.73-.806-6.746-1.718-13.511-3.173-20.152a19.245,19.245,0,0,0-2.1-6.195,9.586,9.586,0,0,0-5.069-3.74c-4.564-1.644-9.488-1.865-14.2-2.85-1.826-.381-3.675-.68-5.492-1.1a8.643,8.643,0,0,1-2.545-.951A173.937,173.937,0,0,1,135.9,625.745c-2.171,17.681-3.506,35.466-4.654,53.239q-.464,7.174-.868,14.351c-.056.994-1.611,1-1.554,0,1.007-17.794,2.212-35.587,3.958-53.326q.7-7.152,1.567-14.289a.349.349,0,0,1,.013-.038,73.4,73.4,0,0,1-6.74-11.549c-2.995.149-5.986-.311-8.981-.3a15.722,15.722,0,0,0-4.672.6,14.527,14.527,0,0,0-4.1,2.274,62.956,62.956,0,0,0-7.522,6.792c-4.947,5-8.943,10.808-12.954,16.557-.986,1.413-1.974,2.824-2.979,4.223a19.162,19.162,0,0,1-2.876,3.639,3.916,3.916,0,0,1-3.976.537c-1.685-.567-3.327-1.361-4.952-2.079a162.054,162.054,0,0,1-19.053-9.985c-1.53-.937-3.036-1.911-4.542-2.885-.46-.3-.494-.188-.732.257-.2.367-.339.777-.5,1.159q-.586,1.353-1.162,2.711-2.3,5.435-4.434,10.942a3.364,3.364,0,0,0-.369,1.288c.018.576.4.79.819,1.149q1.144.98,2.291,1.956l4.418,3.771,9,7.683,8.837,7.543c2.71,2.313,5.354,4.771,8.255,6.846,2.688,1.923,5.722,3.424,9.095,3.411a16.5,16.5,0,0,0,9.022-3.1,25,25,0,0,0,3.773-3.17.734.734,0,0,1,.343-.2,230.066,230.066,0,0,1,5.209-22.723c.958-3.4,2.009-6.768,3.222-10.083.341-.931,1.842-.529,1.5.413-4.608,12.582-7.459,25.961-9.4,39.2-.525,3.578-.953,7.17-1.233,10.775-.076.991-1.631,1-1.553,0,.394-5.064,1.019-10.13,1.838-15.172-4.289,3.861-10.007,6.592-15.847,5.254a21.658,21.658,0,0,1-8.327-4.462c-2.958-2.325-5.766-4.853-8.626-7.295L48.115,656.015q-2.291-1.956-4.582-3.911a2.577,2.577,0,0,1-.926-3.752" transform="translate(89.561 -326.515)" fill="#231815"/>
        <path id="Path_32690" data-name="Path 32690" d="M99.9,710.005c.366,15.145,1.2,30.273,1.565,45.417a.777.777,0,0,1-1.553,0c-.366-15.145-1.2-30.273-1.565-45.417a.777.777,0,0,1,1.554,0" transform="translate(155.687 -388.603)" fill="#231815"/>
        <path id="Path_32691" data-name="Path 32691" d="M187.826,692.872a1.5,1.5,0,0,1-.069-.713,1.591,1.591,0,0,1,.045-.153,2.225,2.225,0,0,1,.978-1.669,2.082,2.082,0,0,1,2.527.213,1.957,1.957,0,0,1,.294,2.431,2.64,2.64,0,0,1-1.235.923,2.156,2.156,0,0,1-1.4.076,1.755,1.755,0,0,1-1.138-1.108" transform="translate(26.858 -377.623)" fill="#231815"/>
        <path id="Path_32692" data-name="Path 32692" d="M197.154,741.342a1.754,1.754,0,0,1-1.138-1.108,1.5,1.5,0,0,1-.069-.712,1.4,1.4,0,0,1,.045-.153,2.223,2.223,0,0,1,.977-1.669,2.081,2.081,0,0,1,2.527.213,1.956,1.956,0,0,1,.294,2.431,2.637,2.637,0,0,1-1.235.923,2.154,2.154,0,0,1-1.4.076" transform="translate(15.15 -404.641)" fill="#231815"/>
        <path id="Path_32693" data-name="Path 32693" d="M198,787.929a2.223,2.223,0,0,1,.978-1.669,2.081,2.081,0,0,1,2.527.213,1.956,1.956,0,0,1,.294,2.431,2.637,2.637,0,0,1-1.235.923,2.154,2.154,0,0,1-1.4.076,1.752,1.752,0,0,1-1.137-1.108,1.492,1.492,0,0,1-.069-.712,1.324,1.324,0,0,1,.045-.153" transform="translate(12.278 -432.343)" fill="#231815"/>
        <path id="Path_32709" data-name="Path 32709" d="M46.757,741.832a.777.777,0,0,1,0-1.553.777.777,0,0,1,0,1.553" transform="translate(232.132 -406.3)" fill="#231815"/>
        <path id="Path_32710" data-name="Path 32710" d="M42.46,497.653v67.893a15.278,15.278,0,0,1-2.2-7.873c.127-4.03,1.869-7.863,1.42-11.937-.841-7.643-7.353-12.841-9.945-19.794-4.333-11.621-2.544-25.444-7.874-36.572H34.177a8.282,8.282,0,0,1,8.282,8.282" transform="translate(246.689 -263.167)" fill="#8ff5da"/>
        <path id="Path_32711" data-name="Path 32711" d="M33.588,743.157V766.48a8.275,8.275,0,0,1-7.868,8.262c-.192-7.758-.686-15.51-1.3-23.245q-.26-3.285-.558-6.568a36.728,36.728,0,0,0,4.3-.312,23.293,23.293,0,0,0,5.422-1.46" transform="translate(255.561 -407.942)" fill="#8ff5da"/>
        <path id="Path_32712" data-name="Path 32712" d="M192.561,489.371H358.79a20.731,20.731,0,0,0-1.346,16.474.787.787,0,0,0,1.141.464c.1-.065.2-.145.3-.216a56.633,56.633,0,0,0,.418,15.933c.876,4.67,2.713,9.337,6.111,12.756a17.348,17.348,0,0,0,3.666,2.778.787.787,0,0,0-.061.26c-.019.59-.074,1.179-.13,1.767a53.081,53.081,0,0,1-.9,6.1,14.655,14.655,0,0,1-.756,2.67c-.358.839-.416.839-1.28.878-3.147.143-6.283-.371-9.43-.3a14.8,14.8,0,0,0-8.451,2.657,57.13,57.13,0,0,0-7.678,6.7,81.4,81.4,0,0,0-7,7.983c-2.15,2.78-4.169,5.657-6.179,8.539-1.023,1.466-2.043,2.934-3.079,4.39a22.075,22.075,0,0,1-3.178,4.157c-1.536,1.3-4.174-.388-5.706-1.047q-2.563-1.1-5.087-2.294-5.047-2.382-9.922-5.107t-9.547-5.778c-.977-.639-2.048-1.212-2.906-.227a38.768,38.768,0,0,0-4.916-13.31c-.814-1.386-3.106-4.4-4.734-2.119-.67.938-.456,2.261-.314,3.322a29.217,29.217,0,0,0,.743,3.676c-1.439.034-2.868.164-4.309.25-1.839.11-3.671.087-5.508.283-3.714.4-7.652.5-11.249,1.565-1.125.334-3.112.8-3.477,2.111-.445,1.6,1.14,2.531,2.435,2.786-1.835.365-3.824,1.193-3.186,3.1.514,1.539,2.173,2.166,3.874,2.394a1.907,1.907,0,0,0-1.026,1.733c.078,2.185,3.249,2.076,4.741,2.1.223,0,.446-.008.669-.01a2.507,2.507,0,0,0-.461.8,2.042,2.042,0,0,0,1.009,2.569c1.154.58,2.7.238,3.922.156l5.173-.346a16.575,16.575,0,0,1,4.6.029,7.69,7.69,0,0,1,3.441,1.641,5.568,5.568,0,0,1,1.361,1.691c.217.433.373.826.608,1.208-.06.155-.123.308-.183.463a2.578,2.578,0,0,0,.926,3.752q2.285,1.962,4.582,3.911l18.328,15.645c2.861,2.442,5.669,4.97,8.627,7.295a21.662,21.662,0,0,0,8.326,4.462c5.84,1.338,11.558-1.393,15.847-5.254-.82,5.042-1.445,10.107-1.838,15.171H267.21l-46.574,22.391a2.561,2.561,0,0,1-3.507-3.209l7.205-19.182H192.561a8.282,8.282,0,0,1-8.282-8.282V497.653a8.282,8.282,0,0,1,8.282-8.282" transform="translate(-148.831 -263.167)" fill="#8ff5da"/>
        <path id="Path_32713" data-name="Path 32713" d="M364.221,737.366h79.392l1.82,1.554H372.346c-2.6,0-5.2.055-7.794,0-.11,0-.221,0-.332,0a.777.777,0,0,1,0-1.554" transform="translate(-302.158 -404.639)" fill="#fff"/>
        <path id="Path_32714" data-name="Path 32714" d="M306.553,653.887H254.161q-.319-.783-.673-1.553h54.525q-.74.767-1.46,1.553" transform="translate(-117.495 -356.131)" fill="#fff"/>
        <path id="Path_32715" data-name="Path 32715" d="M395.754,652.333H463.16c.085.371.163.744.262,1.112-1.439.034-2.868.165-4.309.251-1.46.087-2.916.1-4.373.191H403.88c-2.6,0-5.2.056-7.794,0-.11,0-.221,0-.332,0a.777.777,0,0,1,0-1.553" transform="translate(-333.691 -356.13)" fill="#fff"/>
        <path id="Path_32716" data-name="Path 32716" d="M206.523,567.3H355.1q.166.78.369,1.554H214.648c-2.6,0-5.2.055-7.794,0-.11,0-.221,0-.332,0a.777.777,0,0,1,0-1.554" transform="translate(-144.46 -307.623)" fill="#fff"/>
      </g>
      <g id="Group_40224" data-name="Group 40224" transform="translate(-21 16)">
        <path id="Path_32694" data-name="Path 32694" d="M609.8,97.611a.783.783,0,0,1,.279-1.063l1.34-.6.71-.317c.057-.026.278-.164.4-.212-.029-.061-.058-.136-.074-.163-.1-.178-.206-.353-.3-.534a11.4,11.4,0,0,1-.579-1.3,10.62,10.62,0,0,1-.508-5.285.783.783,0,0,1,.956-.543.8.8,0,0,1,.542.955,8.924,8.924,0,0,0,.93,5.389A5.075,5.075,0,0,1,614.1,95.2a1.374,1.374,0,0,1-.46,1.351,4.743,4.743,0,0,1-1.2.629l-1.576.706a.8.8,0,0,1-1.063-.279" transform="translate(-676.62 -49.956)" fill="#231815"/>
        <path id="Path_32695" data-name="Path 32695" d="M635.384,98.383a1.118,1.118,0,0,1,.114-.006c.032-.006.059-.017.093-.021a1.146,1.146,0,0,1,.836.308,1.791,1.791,0,0,1,.369.5,3.67,3.67,0,0,1,.395,1.057,2.168,2.168,0,0,1,.006,1.107,1.3,1.3,0,0,1-.946.876,1.4,1.4,0,0,1-.9-.111,1.433,1.433,0,0,1-.534-.482,1.293,1.293,0,0,1-.193-.472,5.1,5.1,0,0,1-.128-1.237c.016-.594.2-1.377.891-1.518" transform="translate(-710.406 -56.104)" fill="#231815"/>
        <path id="Path_32696" data-name="Path 32696" d="M596.554,93.154a1.481,1.481,0,0,1,.608.679,3.643,3.643,0,0,1,.359,1.748,1.462,1.462,0,0,1-.443,1.041,1.146,1.146,0,0,1-1.328.171,2.2,2.2,0,0,1-.771-1.719,3.024,3.024,0,0,1-.009-.7,1.8,1.8,0,0,1,.37-1.027.991.991,0,0,1,1.215-.192" transform="translate(-653.685 -53.069)" fill="#231815"/>
        <path id="Path_32697" data-name="Path 32697" d="M592.067,77a5.878,5.878,0,0,1,2.809-1.384,4.758,4.758,0,0,1,3.241.344.785.785,0,0,1-.186,1.42l-5.212,1.15a.794.794,0,0,1-.956-.543.774.774,0,0,1,.1-.621.685.685,0,0,1,.2-.367" transform="translate(-653.265 -43.062)" fill="#231815"/>
        <path id="Path_32698" data-name="Path 32698" d="M637.265,81.8a11.444,11.444,0,0,1,2.077.148,3.289,3.289,0,0,1,1.453.5.8.8,0,0,1,.371.774.766.766,0,0,1-.557.646c-.929.159-1.863.291-2.8.408a11.4,11.4,0,0,1-3.3.154.946.946,0,0,1-.756-1.416c.669-1.091,2.372-1.187,3.507-1.211" transform="translate(-713.934 -46.665)" fill="#231815"/>
        <path id="Path_32699" data-name="Path 32699" d="M617.676,120.746c.153.038.306.073.462.1.207.038.414.071.622.1l.324.047.115.016.236.031c1.115.143,2.232.26,3.349.392.425.05.851.1,1.273.167a1.8,1.8,0,0,1,.572.178,1.254,1.254,0,0,1,.488,1.487,4.484,4.484,0,0,1-3.618,3.465,4.039,4.039,0,0,1-4.416-2.347.964.964,0,0,1-.027-.1c-.016-.03-.037-.055-.051-.087a8.19,8.19,0,0,1-.612-2.847.809.809,0,0,1,1.284-.606m6.174,2.394c.053.038.1.023,0,0m-5.394.525a2.715,2.715,0,0,0,1.112,1.288,2.479,2.479,0,0,0,1.517.281,3.1,3.1,0,0,0,1.693-.811,2.932,2.932,0,0,0,.608-.839,3.71,3.71,0,0,0,.187-.495l-.034-.006-.119-.017h0l-.339-.043c-.586-.071-1.174-.136-1.761-.2-1.08-.123-2.168-.241-3.242-.425a7.343,7.343,0,0,0,.38,1.27" transform="translate(-690.531 -68.796)" fill="#231815"/>
        <path id="Path_32700" data-name="Path 32700" d="M568.258,31.229a38.9,38.9,0,0,1,.4-8.423,26.739,26.739,0,0,1,2.068-7.487C575.592,4.62,589.049-.947,600.272.133a28.626,28.626,0,0,1,14.739,5.982A39.319,39.319,0,0,1,618.2,8.863c1.166,1.116,2.146,2.364,3.71,2.923a19.079,19.079,0,0,1,7,3.961,10.137,10.137,0,0,1,3.447,6.726,6.926,6.926,0,0,1-2.954,5.606,11.41,11.41,0,0,1-4.379,2.055,88.155,88.155,0,0,1,.735,17.055C625.4,52.165,624.4,57.441,621.3,61.5c-.6.785-1.948.012-1.341-.784,3.066-4.023,4-9.26,4.291-14.2a90.13,90.13,0,0,0-.747-16.106c-3.618.441-7.483-.43-11.013-1.268-5.781-1.371-11.9-2.175-17.714-.509a16.729,16.729,0,0,0-11.8,12.04,18.559,18.559,0,0,0-.562,4.461.715.715,0,0,1-.166.454.6.6,0,0,1-.817.294c-2.192-.893-6.293-.668-6.018,2.554.3,3.493,4.266,5.807,7.4,6.209a.821.821,0,0,1,.749.57,10.762,10.762,0,0,0,1.675,3.434,15.949,15.949,0,0,0,2.625,2.438c.78.625-.326,1.718-1.1,1.1a16.03,16.03,0,0,1-2.865-2.747,11.841,11.841,0,0,1-1.669-3.337c-3.883-.71-8.3-3.575-8.382-7.9a3.781,3.781,0,0,1,1.475-3.192c-3.768-3.763-6.614-8.369-7.071-13.786" transform="translate(-677.013 0)" fill="#231815"/>
        <path id="Path_32701" data-name="Path 32701" d="M590.336,138.064c-.769-1.837-1.262-5.051,1.6-5.086,2.425-.03,4.444,2.279,6.033,3.829a10.434,10.434,0,0,0,6.743,3.367,21.28,21.28,0,0,0,7.52-.855c2.835-.8,5.515-2.075,8.386-2.757,1.616-.384,4.94-1.042,5.53,1.286.3,1.163-.575,2.049-1.416,2.683a44.388,44.388,0,0,1-4.338,2.87,45.2,45.2,0,0,1-6.119,2.964c.167,3.048-.641,6.865-3.616,8.319a11.768,11.768,0,0,1-4.387.887c-.465.04-1.188.039-1.527.4a4.959,4.959,0,0,0-.64,1.4l-.688,1.638a.8.8,0,0,1-.955.543.78.78,0,0,1-.543-.955c.409-.974.792-1.965,1.23-2.926A2.372,2.372,0,0,1,604.6,154.3c1.256-.43,2.629-.193,3.9-.5a4.819,4.819,0,0,0,2.346-1.14,5.719,5.719,0,0,0,1.289-1.95,9.505,9.505,0,0,0,.607-3.768c-.425.153-.847.313-1.277.454-.953.311-1.361-1.188-.413-1.5a43.927,43.927,0,0,0,7.277-3.113q1.623-.879,3.17-1.888.78-.508,1.54-1.045c.349-.247,1.684-.969,1.613-1.563-.2-1.7-6.11.492-6.926.779a54.787,54.787,0,0,1-6.827,2.181c-3.873.813-8.555,1.024-11.9-1.456-1.87-1.387-3.266-3.355-5.247-4.6-1.026-.643-2.817-1.229-2.475.693a9.977,9.977,0,0,0,1.322,3.219c1.15,1.978,2.618,3.933,2.9,6.271a10.729,10.729,0,0,1-.877,4.468l-1.554,4.9c-.3.95-1.8.544-1.5-.413l1.554-4.9c.506-1.6,1.125-3.1.636-4.779-.7-2.4-2.472-4.3-3.43-6.589" transform="translate(-680.128 -75.859)" fill="#231815"/>
        <path id="Path_32702" data-name="Path 32702" d="M495.866,204.6c.8-6.637,1.946-13.341,4.836-19.426a31.993,31.993,0,0,1,5.563-8.2,15.669,15.669,0,0,1,8.4-4.842c1.562-.341,3.15-.548,4.728-.8.637-1.75,1.31-3.486,2.036-5.2a.786.786,0,0,1,.877-.357c3.844.718,7.208,2.771,10.727,4.363,1.942.879,3.908,1.7,5.831,2.624a2.873,2.873,0,0,1,1.518,1.136,2.908,2.908,0,0,1,.25,1.177l4.332,3.478c.322.258.859.9,1.239.994-.01.053-.019.107-.029.16l.248-.26c.175-.159.331-.348.5-.52l2.106-2.208L557,168.345c-.135-.113-.275-.218-.4-.346-1.679-1.7-2.259-4.214-2.548-6.5-.147-1.165-.209-2.337-.242-3.51a.777.777,0,0,1,1.553,0c.07,2.472.186,5.172,1.312,7.426,1.306,2.614,3.962,3.075,6.637,3.31a27.405,27.405,0,0,1,7.608,1.356,28.009,28.009,0,0,1,6.74,3.737c8.62,6.413,14.417,16.387,18.592,26.1a80.963,80.963,0,0,1,6.313,40.139c-.308,2.941-.812,6.024-2.636,8.446a12.534,12.534,0,0,1-5.742,4.11,27.226,27.226,0,0,1-8.013,1.451q.18,5.472-.129,10.947c-.057.994-1.611,1-1.553,0q.314-5.428.131-10.872c-1.834.073-3.669.1-5.47.228-3.376.232-6.728.647-10.112.808-3.728.177-7.456.318-11.183.544q-4.653.282-9.312.436c-3.135.107-6.245.5-9.367.777-1.529.136-3.059.243-4.594.265a.781.781,0,0,1-.777-.777l.184-2.073a11.293,11.293,0,0,1-4.805-.023,13.053,13.053,0,0,1-3.662,4,13.765,13.765,0,0,1-8.5,2.037A20.052,20.052,0,0,1,505,255.157q-.1,4.926-.21,9.853a.777.777,0,0,1-1.554,0q.111-5.374.229-10.747a.722.722,0,0,1,.185-.472,18.426,18.426,0,0,1-1.619-2.066,34.69,34.69,0,0,1-4.268-10.43,80.846,80.846,0,0,1-2.218-11.907,107.481,107.481,0,0,1,.32-24.786m48.081,50.31c3.022-.289,6.051-.347,9.083-.487,3.206-.147,6.407-.382,9.613-.53,3.693-.17,7.391-.268,11.077-.559,2.793-.22,5.554-.56,8.355-.663a64.155,64.155,0,0,0,7.694-.55,15.751,15.751,0,0,0,6.858-2.524,10.886,10.886,0,0,0,4.08-7.307,68.108,68.108,0,0,0,.06-20.178,80.976,80.976,0,0,0-5.189-19.792,86.411,86.411,0,0,0-7.42-14.426,49.39,49.39,0,0,0-10.609-12.219,27.045,27.045,0,0,0-6.774-4,26.424,26.424,0,0,0-7.624-1.42,14.373,14.373,0,0,1-4.819-1.065l-9.452,9.915c-.614.644-1.3,1.7-2.134,2.054s-1.469-.384-2.057-.856l-4.057-3.255c.1,8.118-.621,16.218-1.261,24.3-.673,8.49-1.531,16.954-2.742,25.387-.555,3.867-1.1,7.789-1.881,11.653h.591a.554.554,0,0,1,.106.024,2.587,2.587,0,0,1,1.385-2.053,25.14,25.14,0,0,1,4.8-1.385q2.72-.711,5.456-1.36,5.269-1.252,10.588-2.274,6.137-1.178,12.326-2.051c.978-.138,1.4,1.358.413,1.5a252.042,252.042,0,0,0-25.545,4.963c-2.088.519-4.172,1.061-6.245,1.64-.6.168-1.284.244-1.594.877a4.853,4.853,0,0,0-.2,1.582l-.283,3.185q-.558,6.283-1.117,12.567c2.847-.094,5.681-.428,8.515-.7m-9.985-2.133a.744.744,0,0,1,.169-.009q.338-3.8.676-7.6.231-2.609.464-5.218h-.687a.548.548,0,0,1-.162-.036,58.276,58.276,0,0,1-3.141,10.25c-.388.918-.814,1.842-1.286,2.744a9.619,9.619,0,0,0,3.968-.128m-33.6-8.2a22.324,22.324,0,0,0,4.971,8.751,19.02,19.02,0,0,0,7.309,4.571,15.459,15.459,0,0,0,8.456.6,10.888,10.888,0,0,0,7.156-5.655c3.631-6.362,4.906-13.9,6.044-21.038q1.9-11.908,2.981-23.925c.7-7.787,1.38-15.606,1.69-23.419.077-1.944.123-3.888.124-5.834q0-1.451-.034-2.9c0-.066,0-.143,0-.219a.615.615,0,0,1,0-.07,1.48,1.48,0,0,0-.191-.951,4.566,4.566,0,0,0-1.357-.661c-3.436-1.61-6.888-3.194-10.33-4.789a23.28,23.28,0,0,0-4.627-1.623,205.084,205.084,0,0,0-6.741,20.24q-3.159,10.609-5.928,21.328a.777.777,0,0,1-1.5-.413q2.825-10.921,6.049-21.733c1.386-4.641,2.765-9.291,4.364-13.863-2.691.4-5.459.773-7.857,2.1-2.826,1.563-5.087,4.441-6.815,7.112-3.433,5.3-5.063,11.5-6.06,17.674-2.372,14.7-2.512,30.471,2.29,44.716" transform="translate(-616.181 -89.696)" fill="#231815"/>
        <path id="Path_32703" data-name="Path 32703" d="M547.5,269.425a65.628,65.628,0,0,1,3.936,22.6.777.777,0,0,1-1.553,0A64.345,64.345,0,0,0,546,269.838c-.342-.941,1.158-1.347,1.5-.413" transform="translate(-586.542 -153.395)" fill="#231815"/>
        <path id="Path_32704" data-name="Path 32704" d="M673.146,82.079h8.771a24.524,24.524,0,0,0,6.264,9.759A3.778,3.778,0,0,0,686.7,95.03c.081,4.323,4.5,7.187,8.381,7.9a11.858,11.858,0,0,0,1.669,3.337,16.018,16.018,0,0,0,2.866,2.747.782.782,0,0,0,.523.172c.971,2.218,2.673,4.091,3.357,6.435.489,1.675-.129,3.182-.635,4.779l-1.382,4.359a23.823,23.823,0,0,0-5.5-1.859.786.786,0,0,0-.877.357c-.726,1.717-1.4,3.453-2.036,5.2-1.578.251-3.166.457-4.728.8a15.672,15.672,0,0,0-8.4,4.843,31.988,31.988,0,0,0-5.563,8.2c-2.889,6.086-4.039,12.79-4.836,19.427a107.5,107.5,0,0,0-.32,24.785,80.865,80.865,0,0,0,2.218,11.908,34.677,34.677,0,0,0,4.268,10.43,18.47,18.47,0,0,0,1.618,2.066.722.722,0,0,0-.185.472q-.111,5.374-.229,10.747a.7.7,0,0,0,.228.559h-4a8.283,8.283,0,0,1-8.282-8.283V90.361a8.282,8.282,0,0,1,8.282-8.282" transform="translate(-789.863 -46.823)" fill="#d9d4ff"/>
        <path id="Path_32705" data-name="Path 32705" d="M170.052,111.5c.841-.635,1.711-1.521,1.416-2.683a1.968,1.968,0,0,0-1.143-1.368c2.613-3.925,3.528-8.8,3.868-13.433a74.917,74.917,0,0,0-.2-11.933H345.863a8.283,8.283,0,0,1,8.282,8.283V214.413a8.283,8.283,0,0,1-8.282,8.283H314.415l6.881,18.319a2.562,2.562,0,0,1-3.508,3.209L273.009,222.7H195.031a.758.758,0,0,0,.274-.558c.211-3.644.249-7.3.129-10.947a27.226,27.226,0,0,0,8.013-1.451,12.532,12.532,0,0,0,5.742-4.11c1.824-2.422,2.328-5.505,2.636-8.446a80.959,80.959,0,0,0-6.312-40.139c-4.175-9.717-9.972-19.691-18.592-26.1a28.032,28.032,0,0,0-6.74-3.737,27.407,27.407,0,0,0-7.608-1.356c-2.675-.235-5.331-.7-6.637-3.31-1.126-2.253-1.242-4.954-1.312-7.425a.766.766,0,0,0-.03-.131c.374-.2.753-.4,1.121-.614a44.462,44.462,0,0,0,4.338-2.87" transform="translate(-225.444 -46.823)" fill="#d9d4ff"/>
        <path id="Path_32706" data-name="Path 32706" d="M224.81,330.041H331.992c2.6,0,5.2-.056,7.793,0,.11,0,.221,0,.332,0a.777.777,0,0,1,0,1.554H224.809c.006-.518.005-1.036,0-1.554" transform="translate(-238.031 -188.261)" fill="#fff"/>
        <path id="Path_32707" data-name="Path 32707" d="M224.81,245.009H340.986c2.6,0,5.2-.056,7.793,0,.11,0,.221,0,.332,0a.777.777,0,0,1,0,1.553H225.558c-.244-.518-.494-1.036-.748-1.553" transform="translate(-247.025 -139.754)" fill="#fff"/>
        <path id="Path_32708" data-name="Path 32708" d="M234.82,161.53h-9.941c-.033-.522-.054-1.041-.07-1.554H379.577c2.6,0,5.2-.055,7.793,0,.11,0,.221,0,.332,0a.777.777,0,0,1,0,1.554H234.82Z" transform="translate(-285.616 -91.246)" fill="#fff"/>
      </g>
    </g>
  </g>
</svg>
