<svg xmlns="http://www.w3.org/2000/svg" width="145.253" height="23" viewBox="0 0 145.253 23">
  <g id="Group_13135" data-name="Group 13135" transform="translate(-565.204 -1237)">
    <g id="Group_39844" data-name="Group 39844" transform="translate(-294 2)">
      <rect id="Rectangle_1669" data-name="Rectangle 1669" width="55" height="23" rx="3" transform="translate(949.457 1235)" fill="#202020"/>
      <g id="stripe" transform="translate(957.458 1088.52)">
        <path id="Path_22738" data-name="Path 22738" d="M414.281,199.318c0-2.734-1.324-4.892-3.856-4.892s-4.08,2.158-4.08,4.871c0,3.215,1.816,4.839,4.422,4.839a5.955,5.955,0,0,0,2.959-.694V201.3a5.672,5.672,0,0,1-2.617.587c-1.036,0-1.955-.363-2.072-1.624h5.223C414.26,200.13,414.281,199.574,414.281,199.318ZM409,198.3c0-1.207.737-1.709,1.41-1.709.652,0,1.346.5,1.346,1.709Z" transform="translate(-375.829 -41.57)" fill="#fff" fill-rule="evenodd"/>
        <path id="Path_22739" data-name="Path 22739" d="M295.011,194.425a3.018,3.018,0,0,0-2.094.833l-.139-.662h-2.35V207.05l2.67-.566.011-3.023a3.008,3.008,0,0,0,1.891.673c1.912,0,3.653-1.538,3.653-4.924C298.643,196.113,296.88,194.425,295.011,194.425Zm-.641,7.359a1.6,1.6,0,0,1-1.26-.5l-.011-3.963a1.59,1.59,0,0,1,1.271-.523c.972,0,1.645,1.089,1.645,2.489C296.015,200.716,295.353,201.784,294.37,201.784Z" transform="translate(-268.618 -41.569)" fill="#fff" fill-rule="evenodd"/>
        <path id="Path_22740" data-name="Path 22740" d="M241.5,152.226l2.681-.577v-2.168l-2.681.566Z" transform="translate(-223.366 0)" fill="#fff" fill-rule="evenodd"/>
        <rect id="Rectangle_1668" data-name="Rectangle 1668" width="2.681" height="9.346" transform="translate(18.137 153.038)" fill="#fff"/>
        <path id="Path_22741" data-name="Path 22741" d="M172.725,196.274l-.171-.79h-2.307v9.346h2.67V198.5a1.884,1.884,0,0,1,2.029-.555v-2.457A1.813,1.813,0,0,0,172.725,196.274Z" transform="translate(-157.462 -42.446)" fill="#fff" fill-rule="evenodd"/>
        <path id="Path_22742" data-name="Path 22742" d="M99.9,165.98l-2.606.555-.011,8.556a2.684,2.684,0,0,0,2.766,2.745,4.124,4.124,0,0,0,1.869-.353v-2.168c-.342.139-2.029.63-2.029-.951v-3.792h2.029V168.3H99.89Z" transform="translate(-89.978 -15.26)" fill="#fff" fill-rule="evenodd"/>
        <path id="Path_22743" data-name="Path 22743" d="M2.7,197.32c0-.417.342-.577.908-.577a5.957,5.957,0,0,1,2.649.684v-2.51a7.045,7.045,0,0,0-2.649-.491c-2.168,0-3.61,1.132-3.61,3.023,0,2.948,4.059,2.478,4.059,3.749,0,.491-.427.652-1.025.652a6.649,6.649,0,0,1-2.916-.854v2.542a7.4,7.4,0,0,0,2.916.609c2.222,0,3.749-1.1,3.749-3.012C6.772,197.95,2.7,198.516,2.7,197.32Z" transform="translate(0 -41.569)" fill="#fff" fill-rule="evenodd"/>
      </g>
    </g>
    <g id="Group_39845" data-name="Group 39845" transform="translate(0 0.5)">
      <text id="Powered_by" data-name="Powered by" transform="translate(575.844 1253.5)" fill="#282828" font-size="14" font-family="Outfit"><tspan x="0" y="0">Powered by</tspan></text>
      <path id="thunder" d="M120.019,5.1a.459.459,0,0,0-.376-.187H116.5V.407a.421.421,0,0,0-.359-.393.461.461,0,0,0-.5.233L112.043,7.62a.379.379,0,0,0,.034.389.462.462,0,0,0,.376.187H115.6V12.7a.42.42,0,0,0,.356.4.524.524,0,0,0,.093.009.451.451,0,0,0,.41-.249l3.594-7.372a.378.378,0,0,0-.036-.389Z" transform="translate(453.199 1241.945)" fill="#ffa207"/>
    </g>
  </g>
</svg>
