<svg xmlns="http://www.w3.org/2000/svg" width="11.456" height="13.362" viewBox="0 0 11.456 13.362">
  <g id="_36-Shield" data-name="36-Shield" transform="translate(-4 -2.005)">
    <path id="Path_22895" data-name="Path 22895" d="M14.978,3.912a9.075,9.075,0,0,1-4.955-1.8.477.477,0,0,0-.592,0,9.036,9.036,0,0,1-4.955,1.8A.477.477,0,0,0,4,4.389v4.3c0,3.2,1.294,4.773,5.532,6.64a.477.477,0,0,0,.391,0c4.239-1.866,5.532-3.437,5.532-6.64v-4.3A.477.477,0,0,0,14.978,3.912Zm-4.773,7.16v.477a.477.477,0,0,1-.955,0v-.477a1.432,1.432,0,0,1-1.236-.716.477.477,0,1,1,.821-.477.477.477,0,0,0,.415.239h.955a.477.477,0,0,0,0-.955H9.251a1.432,1.432,0,1,1,0-2.864V5.821a.477.477,0,0,1,.955,0V6.3a1.432,1.432,0,0,1,1.236.716.477.477,0,1,1-.821.477.477.477,0,0,0-.415-.239H9.251a.477.477,0,1,0,0,.955h.955a1.432,1.432,0,0,1,0,2.864Z" fill="#fff"/>
  </g>
</svg>
