<svg xmlns="http://www.w3.org/2000/svg" xmlns:xlink="http://www.w3.org/1999/xlink" width="157.153" height="136.089" viewBox="0 0 157.153 136.089">
  <defs>
    <linearGradient id="linear-gradient" x1="-0.066" y1="0.246" x2="0.834" y2="0.867" gradientUnits="objectBoundingBox">
      <stop offset="0" stop-color="#fedd09"/>
      <stop offset="0.191" stop-color="#fe8642"/>
      <stop offset="0.572" stop-color="#ff268b"/>
      <stop offset="0.956" stop-color="#a52cea"/>
      <stop offset="1" stop-color="#a52cea"/>
    </linearGradient>
    <filter id="Path_31391" x="45.493" y="44.006" width="66.165" height="66.8" filterUnits="userSpaceOnUse">
      <feOffset dy="3" input="SourceAlpha"/>
      <feGaussianBlur stdDeviation="3" result="blur"/>
      <feFlood flood-opacity="0.29"/>
      <feComposite operator="in" in2="blur"/>
      <feComposite in="SourceGraphic"/>
    </filter>
    <filter id="Path_31392" x="67.928" y="70.721" width="21.147" height="21.146" filterUnits="userSpaceOnUse">
      <feOffset dy="3" input="SourceAlpha"/>
      <feGaussianBlur stdDeviation="3" result="blur-2"/>
      <feFlood flood-opacity="0.161"/>
      <feComposite operator="in" in2="blur-2"/>
      <feComposite in="SourceGraphic"/>
    </filter>
    <filter id="Path_31393" x="75.101" y="70.721" width="21.147" height="21.146" filterUnits="userSpaceOnUse">
      <feOffset dy="3" input="SourceAlpha"/>
      <feGaussianBlur stdDeviation="3" result="blur-3"/>
      <feFlood flood-opacity="0.161"/>
      <feComposite operator="in" in2="blur-3"/>
      <feComposite in="SourceGraphic"/>
    </filter>
    <filter id="Path_31394" x="82.274" y="70.721" width="21.148" height="21.146" filterUnits="userSpaceOnUse">
      <feOffset dy="3" input="SourceAlpha"/>
      <feGaussianBlur stdDeviation="3" result="blur-4"/>
      <feFlood flood-opacity="0.161"/>
      <feComposite operator="in" in2="blur-4"/>
      <feComposite in="SourceGraphic"/>
    </filter>
  </defs>
  <g id="Group_40241" data-name="Group 40241" transform="translate(-927.666 -1412.593)">
    <g id="Group_40217" data-name="Group 40217" transform="matrix(0.995, -0.105, 0.105, 0.995, 648.705, 25.401)">
      <path id="Path_32718" data-name="Path 32718" d="M93.155,110.17c5.857-14.944,15.252-59.756-5.693-83.793S52.595-14.039,27,17.161-11.043,65.619,12.529,85.644s67.812,57.217,80.625,24.526" transform="translate(272.801 1445.887) rotate(100)" fill="url(#linear-gradient)"/>
      <path id="Path_32717" data-name="Path 32717" d="M93.155,110.17c5.857-14.944,15.252-59.756-5.693-83.793S52.595-14.039,27,17.161-11.043,65.619,12.529,85.644s67.812,57.217,80.625,24.526" transform="translate(272.801 1445.887) rotate(100)" fill="url(#linear-gradient)"/>
    </g>
    <g id="customer-support" transform="translate(981.91 1462.77)">
      <g transform="matrix(1, 0, 0, 1, -54.24, -50.18)" filter="url(#Path_31391)">
        <path id="Path_31391-2" data-name="Path 31391" d="M41.679,14.742H29.022V5.714A5.491,5.491,0,0,0,23.538.23H6.133A5.491,5.491,0,0,0,.649,5.714v11.6A5.491,5.491,0,0,0,6.133,22.8h.317V26.02A2.578,2.578,0,0,0,9.027,28.6a2.522,2.522,0,0,0,1.819-.769l3.685-3.665V34.953a6.344,6.344,0,0,0,6.336,6.336h9.209l6.106,6.073a2.85,2.85,0,0,0,4.894-2v-4.07h.6a6.344,6.344,0,0,0,6.336-6.336V21.078a6.343,6.343,0,0,0-6.336-6.336ZM14.536,20.97l-5.3,5.274a.27.27,0,0,1-.322.07.3.3,0,0,1-.193-.295V21.668a1.133,1.133,0,0,0-1.133-1.133H6.133a3.222,3.222,0,0,1-3.218-3.218V5.714A3.222,3.222,0,0,1,6.133,2.5h17.4a3.225,3.225,0,0,1,3.218,3.218v9.028H20.867a6.337,6.337,0,0,0-6.331,6.228ZM45.749,34.952a4.075,4.075,0,0,1-4.07,4.07H39.944a1.134,1.134,0,0,0-1.133,1.133v5.2a.579.579,0,0,1-.37.561.569.569,0,0,1-.645-.15l-6.452-6.417a1.135,1.135,0,0,0-.8-.33H20.867a4.075,4.075,0,0,1-4.07-4.07V21.078a4.079,4.079,0,0,1,4.07-4.07H41.679a4.075,4.075,0,0,1,4.07,4.07Z" transform="translate(54.24 50.18)" fill="#fff" stroke="#fff" stroke-width="0.8"/>
      </g>
      <g transform="matrix(1, 0, 0, 1, -54.24, -50.18)" filter="url(#Path_31392)">
        <path id="Path_31392-2" data-name="Path 31392" d="M30.862,34.822A1.173,1.173,0,1,0,32.036,36,1.175,1.175,0,0,0,30.862,34.822Z" transform="translate(47.64 42.3)" fill="#fff" stroke="#fff" stroke-width="0.8"/>
      </g>
      <g transform="matrix(1, 0, 0, 1, -54.24, -50.18)" filter="url(#Path_31393)">
        <path id="Path_31393-2" data-name="Path 31393" d="M40.147,34.822A1.173,1.173,0,1,0,41.321,36,1.175,1.175,0,0,0,40.147,34.822Z" transform="translate(45.53 42.3)" fill="#fff" stroke="#fff" stroke-width="0.8"/>
      </g>
      <g transform="matrix(1, 0, 0, 1, -54.24, -50.18)" filter="url(#Path_31394)">
        <path id="Path_31394-2" data-name="Path 31394" d="M49.433,34.822A1.173,1.173,0,1,0,50.607,36,1.175,1.175,0,0,0,49.433,34.822Z" transform="translate(43.41 42.3)" fill="#fff" stroke="#fff" stroke-width="0.8"/>
      </g>
    </g>
  </g>
</svg>
