<svg xmlns="http://www.w3.org/2000/svg" width="33.559" height="30.75" viewBox="0 0 33.559 30.75">
  <g id="image-gallery" transform="translate(0.308 -1.75)">
    <g id="Group_39987" data-name="Group 39987" transform="translate(0 12.589)">
      <path id="Path_32254" data-name="Path 32254" d="M24,29.362a2.743,2.743,0,0,1-.7-.091L2.035,23.577A2.775,2.775,0,0,1,.091,20.209l2.683-10a.687.687,0,0,1,1.328.355l-2.681,10A1.4,1.4,0,0,0,2.4,22.25L23.65,27.942a1.369,1.369,0,0,0,1.673-.968L26.4,22.994a.688.688,0,0,1,1.328.357l-1.072,3.974A2.746,2.746,0,0,1,24,29.362Z" transform="translate(0 -9.701)" fill="#090b1e" stroke="#090b1e" stroke-width="0.5"/>
    </g>
    <g id="Group_39988" data-name="Group 39988" transform="translate(5.5 2)">
      <path id="Path_32255" data-name="Path 32255" d="M28.75,24h-22A2.753,2.753,0,0,1,4,21.25V4.75A2.753,2.753,0,0,1,6.75,2h22A2.753,2.753,0,0,1,31.5,4.75v16.5A2.753,2.753,0,0,1,28.75,24ZM6.75,3.375A1.377,1.377,0,0,0,5.375,4.75v16.5A1.377,1.377,0,0,0,6.75,22.625h22a1.377,1.377,0,0,0,1.375-1.375V4.75A1.377,1.377,0,0,0,28.75,3.375Z" transform="translate(-4 -2)" fill="#090b1e" stroke="#090b1e" stroke-width="0.5"/>
    </g>
    <g id="Group_39989" data-name="Group 39989" transform="translate(9.625 6.125)">
      <path id="Path_32256" data-name="Path 32256" d="M9.75,10.5A2.75,2.75,0,1,1,12.5,7.75,2.753,2.753,0,0,1,9.75,10.5Zm0-4.125A1.375,1.375,0,1,0,11.125,7.75,1.377,1.377,0,0,0,9.75,6.375Z" transform="translate(-7 -5)" fill="#090b1e" stroke="#090b1e" stroke-width="0.5"/>
    </g>
    <g id="Group_39990" data-name="Group 39990" transform="translate(5.596 9.631)">
      <path id="Path_32257" data-name="Path 32257" d="M4.758,20.447a.687.687,0,0,1-.487-1.173l6.494-6.494a2.113,2.113,0,0,1,2.916,0l1.933,1.933,5.351-6.421a2.066,2.066,0,0,1,1.57-.742h.015a2.061,2.061,0,0,1,1.566.719l7.191,8.39a.687.687,0,0,1-1.044.9l-7.191-8.39a.68.68,0,0,0-.522-.239.73.73,0,0,0-.528.247l-5.834,7a.685.685,0,0,1-.5.246.662.662,0,0,1-.517-.2l-2.465-2.465a.706.706,0,0,0-.972,0L5.243,20.247a.685.685,0,0,1-.485.2Z" transform="translate(-4.07 -7.55)" fill="#090b1e" stroke="#090b1e" stroke-width="0.5"/>
    </g>
  </g>
</svg>
