<svg xmlns="http://www.w3.org/2000/svg" width="19.5" height="18.5" viewBox="0 0 19.5 18.5">
  <g id="Group_39536" data-name="Group 39536" transform="translate(-28.663 -2.479)">
    <g id="n" transform="translate(26.413 -0.771)">
      <g id="Group_39783" data-name="Group 39783">
        <path id="Path_32099" data-name="Path 32099" d="M17,4.25h-.25V4a.75.75,0,0,0-1.5,0v.25H8.75V4a.75.75,0,0,0-1.5,0v.25H7A4.754,4.754,0,0,0,2.25,9v8A4.754,4.754,0,0,0,7,21.75H17A4.754,4.754,0,0,0,21.75,17V9A4.754,4.754,0,0,0,17,4.25ZM20.25,17A3.256,3.256,0,0,1,17,20.25H7A3.256,3.256,0,0,1,3.75,17V9A3.256,3.256,0,0,1,7,5.75h.25V6a.75.75,0,0,0,1.5,0V5.75h6.5V6a.75.75,0,0,0,1.5,0V5.75H17A3.256,3.256,0,0,1,20.25,9Z" fill="#b4b4b4"/>
        <circle id="Ellipse_469" data-name="Ellipse 469" cx="1" cy="1" r="1" transform="translate(7.25 10.731)" fill="#b4b4b4"/>
        <circle id="Ellipse_474" data-name="Ellipse 474" cx="1" cy="1" r="1" transform="translate(7.25 14.731)" fill="#b4b4b4"/>
        <circle id="Ellipse_470" data-name="Ellipse 470" cx="1" cy="1" r="1" transform="translate(11.25 10.731)" fill="#b4b4b4"/>
        <circle id="Ellipse_473" data-name="Ellipse 473" cx="1" cy="1" r="1" transform="translate(11.25 14.731)" fill="#b4b4b4"/>
        <circle id="Ellipse_471" data-name="Ellipse 471" cx="1" cy="1" r="1" transform="translate(15.25 10.731)" fill="#b4b4b4"/>
        <circle id="Ellipse_472" data-name="Ellipse 472" cx="1" cy="1" r="1" transform="translate(15.25 14.731)" fill="#b4b4b4"/>
      </g>
    </g>
  </g>
</svg>
