<svg xmlns="http://www.w3.org/2000/svg" width="10.996" height="22.496" viewBox="0 0 10.996 22.496">
  <g id="Layer_x0020_1" transform="translate(0 0)">
    <path id="Path_31385" data-name="Path 31385" d="M194.4,147.2V137.153H192.98a.78.78,0,0,1-.78-.78v-3.18a.782.782,0,0,1,.78-.779H194.4v-2.557a4.378,4.378,0,0,1,4.378-4.377h3.64a.78.78,0,0,1,.78.78v3.179a.78.78,0,0,1-.78.78h-2.154a.451.451,0,0,0-.448.448v1.749l2.555,0a.781.781,0,0,1,.78.779c-.076,1.077-.181,2.166-.272,3.245a.782.782,0,0,1-.776.715h-2.286V147.2a.781.781,0,0,1-.779.779h-3.856A.781.781,0,0,1,194.4,147.2Zm1.019-.237H198.8V136.134h3.086l.228-2.7H198.8v-2.763a1.467,1.467,0,0,1,1.467-1.467h1.916v-2.7h-3.4a3.359,3.359,0,0,0-3.359,3.358v3.575h-2.2v2.7h2.2Z" transform="translate(-192.2 -125.48)" fill="#7d7d7d"/>
  </g>
</svg>
