<svg xmlns="http://www.w3.org/2000/svg" width="64" height="64" viewBox="0 0 64 64">
  <g id="Group_39930" data-name="Group 39930" transform="translate(0.246 -0.335)">
    <g id="Ellipse_500" data-name="Ellipse 500" transform="translate(-0.246 0.335)" fill="none" stroke="#e9e9e9" stroke-width="1">
      <circle cx="32" cy="32" r="32" stroke="none"/>
      <circle cx="32" cy="32" r="31.5" fill="none"/>
    </g>
    <path id="Icon_11_" d="M32.144,24.114H29.038c-.489,0-.663-.176-.663-.668q0-1.9,0-3.79c0-.486.185-.671.667-.671h3.1c0-.087,0-1.911,0-2.751A6.859,6.859,0,0,1,33,12.714,5.181,5.181,0,0,1,35.788,10.4a6.9,6.9,0,0,1,2.391-.4q1.537,0,3.073,0c.44,0,.636.2.637.639q0,1.783,0,3.565c0,.448-.188.628-.638.633-.84.009-1.68,0-2.519.037a1.141,1.141,0,0,0-1.293,1.291c-.02.928-.008,1.856-.008,2.817h3.617c.512,0,.687.176.687.691q0,1.885,0,3.77c0,.507-.165.669-.68.669H37.42v10.17c0,.542-.171.715-.706.715H32.8c-.473,0-.657-.184-.657-.657C32.144,31.031,32.144,24.23,32.144,24.114Z" transform="translate(-3.21 9.806)" fill="#3d6ad6"/>
  </g>
</svg>
