<svg id="information-button" xmlns="http://www.w3.org/2000/svg" width="17" height="17" viewBox="0 0 17 17">
  <path id="Path_22894" data-name="Path 22894" d="M8.5,0A8.5,8.5,0,1,0,17,8.5,8.5,8.5,0,0,0,8.5,0Zm1.769,13.173q-.656.259-1.047.394a2.762,2.762,0,0,1-.908.136,1.81,1.81,0,0,1-1.236-.388,1.252,1.252,0,0,1-.44-.984,3.573,3.573,0,0,1,.032-.474c.022-.161.058-.343.106-.546l.548-1.934c.048-.186.09-.362.123-.526A2.332,2.332,0,0,0,7.5,8.4a.7.7,0,0,0-.153-.516.867.867,0,0,0-.585-.145,1.535,1.535,0,0,0-.435.065c-.148.045-.276.086-.381.127l.145-.6q.538-.219,1.029-.375A3.04,3.04,0,0,1,8.045,6.8a1.776,1.776,0,0,1,1.218.381,1.267,1.267,0,0,1,.427.99q0,.126-.03.444a2.971,2.971,0,0,1-.109.584l-.545,1.928c-.045.155-.084.332-.12.53a2.8,2.8,0,0,0-.053.45.647.647,0,0,0,.172.524.963.963,0,0,0,.6.14,1.726,1.726,0,0,0,.45-.07,2.561,2.561,0,0,0,.364-.122Zm-.1-7.828a1.3,1.3,0,0,1-.917.354,1.314,1.314,0,0,1-.921-.354,1.13,1.13,0,0,1-.384-.858,1.142,1.142,0,0,1,.384-.861,1.3,1.3,0,0,1,.921-.358,1.29,1.29,0,0,1,.917.358,1.159,1.159,0,0,1,0,1.719Z" fill="#484848"/>
</svg>
