<svg xmlns="http://www.w3.org/2000/svg" width="17.273" height="17.273" viewBox="0 0 17.273 17.273">
  <g id="instagram" transform="translate(0.1 0.1)">
    <path id="Path_31387" data-name="Path 31387" d="M12.451,0H4.621A4.627,4.627,0,0,0,0,4.622v7.83a4.627,4.627,0,0,0,4.622,4.621h7.83a4.627,4.627,0,0,0,4.621-4.621V4.622A4.627,4.627,0,0,0,12.451,0Zm3.621,12.452a3.625,3.625,0,0,1-3.621,3.621H4.621A3.625,3.625,0,0,1,1,12.452V4.622A3.625,3.625,0,0,1,4.621,1h7.83a3.625,3.625,0,0,1,3.621,3.621Zm0,0" transform="translate(0.001 0)" fill="#7d7d7d" stroke="#7d7d7d" stroke-width="0.2"/>
    <path id="Path_31388" data-name="Path 31388" d="M120.672,116a4.668,4.668,0,1,0,4.668,4.668A4.674,4.674,0,0,0,120.672,116Zm0,8.336a3.667,3.667,0,1,1,3.667-3.667A3.672,3.672,0,0,1,120.672,124.34Zm0,0" transform="translate(-112.136 -112.136)" fill="#7d7d7d" stroke="#7d7d7d" stroke-width="0.2"/>
    <path id="Path_31389" data-name="Path 31389" d="M359.356,66.285a1.38,1.38,0,1,0,1.38,1.379A1.381,1.381,0,0,0,359.356,66.285Zm0,1.758a.379.379,0,1,1,.379-.379A.379.379,0,0,1,359.356,68.043Zm0,0" transform="translate(-346.04 -64.075)" fill="#7d7d7d"/>
  </g>
</svg>
