<svg xmlns="http://www.w3.org/2000/svg" width="24" height="24" viewBox="0 0 24 24">
  <g id="Group_12086" data-name="Group 12086" transform="translate(-643 -97)">
    <g id="Group_12121" data-name="Group 12121" transform="translate(643 97)">
      <g id="Rectangle_1354" data-name="Rectangle 1354" fill="rgba(233,233,233,0.34)" stroke="#e0e0e0" stroke-width="1">
        <rect width="24" height="24" rx="6" stroke="none"/>
        <rect x="0.5" y="0.5" width="23" height="23" rx="5.5" fill="none"/>
      </g>
      <g id="Group_12087" data-name="Group 12087" transform="translate(5.454 5.455)">
        <g id="Layer_2" data-name="Layer 2">
          <path id="Path_22047" data-name="Path 22047" d="M17.628,15.463a6.515,6.515,0,0,0,.962-3.417h0a6.515,6.515,0,0,0-.963-3.417l0-.006a6.546,6.546,0,0,0-11.159,0l0,.006a6.547,6.547,0,0,0,0,6.834l0,.006a6.546,6.546,0,0,0,11.159,0Zm-4.746,2.006a1.591,1.591,0,0,1-.425.294.959.959,0,0,1-.823,0,2,2,0,0,1-.743-.653,5.851,5.851,0,0,1-.845-1.834q1-.061,2-.063t2,.063a7.383,7.383,0,0,1-.359.987,3.8,3.8,0,0,1-.8,1.207ZM6.248,12.413h2.64a12.989,12.989,0,0,0,.239,2.194q-1.083.1-2.16.262a5.77,5.77,0,0,1-.719-2.455Zm.719-3.191q1.077.167,2.16.262a12.966,12.966,0,0,0-.239,2.194H6.248a5.77,5.77,0,0,1,.719-2.455Zm4.241-2.6a1.59,1.59,0,0,1,.425-.294.959.959,0,0,1,.823,0,2,2,0,0,1,.743.653,5.85,5.85,0,0,1,.845,1.834q-1,.061-2,.063t-2-.063a7.382,7.382,0,0,1,.359-.987,3.8,3.8,0,0,1,.8-1.207Zm6.634,5.056H15.2a12.989,12.989,0,0,0-.239-2.194q1.083-.1,2.16-.262A5.77,5.77,0,0,1,17.843,11.678ZM9.867,14.55a12.164,12.164,0,0,1-.243-2.137h4.843a12.161,12.161,0,0,1-.242,2.137q-1.088-.071-2.179-.073T9.867,14.55Zm4.357-5.009a12.164,12.164,0,0,1,.243,2.137H9.624a12.161,12.161,0,0,1,.242-2.137q1.088.071,2.179.073T14.224,9.541Zm.978,2.872h2.64a5.77,5.77,0,0,1-.719,2.455q-1.077-.167-2.16-.262a12.965,12.965,0,0,0,.239-2.194Zm1.48-3.868q-.941.136-1.888.215a8.387,8.387,0,0,0-.438-1.235,5.219,5.219,0,0,0-.609-1.036A5.809,5.809,0,0,1,16.682,8.545ZM7.937,7.937a5.808,5.808,0,0,1,2.406-1.448l-.042.053a6.714,6.714,0,0,0-1,2.218q-.947-.08-1.89-.215a5.858,5.858,0,0,1,.529-.608Zm-.529,7.608Q8.35,15.41,9.3,15.33a8.387,8.387,0,0,0,.438,1.235,5.219,5.219,0,0,0,.609,1.036,5.809,5.809,0,0,1-2.935-2.056Zm8.745.608A5.808,5.808,0,0,1,13.748,17.6l.042-.053a6.714,6.714,0,0,0,1-2.218q.947.08,1.89.215a5.858,5.858,0,0,1-.529.608Z" transform="translate(-5.5 -5.5)" fill="#090b1e"/>
        </g>
      </g>
    </g>
  </g>
</svg>
