<svg xmlns="http://www.w3.org/2000/svg" width="64" height="64" viewBox="0 0 64 64">
  <g id="Group_40109" data-name="Group 40109" transform="translate(0.084 -0.335)">
    <g id="Ellipse_500" data-name="Ellipse 500" transform="translate(-0.084 0.335)" fill="#fff" stroke="#e9e9e9" stroke-width="1">
      <circle cx="32" cy="32" r="32" stroke="none"/>
      <circle cx="32" cy="32" r="31.5" fill="none"/>
    </g>
    <g id="email" transform="translate(19.488 19.986)">
      <g id="Group_12395" data-name="Group 12395" transform="translate(0 0)">
        <path id="Path_22515" data-name="Path 22515" d="M23.974,24.7H.724A.724.724,0,0,1,0,23.974v-13.6a.723.723,0,0,1,.261-.557L11.887.167a.724.724,0,0,1,.924,0L24.436,9.814a.723.723,0,0,1,.261.557v13.6A.724.724,0,0,1,23.974,24.7Z" transform="translate(0 0)" fill="#ffcd14"/>
        <path id="Path_22516" data-name="Path 22516" d="M267.414,9.814,256.436.167A.659.659,0,0,0,256,0V24.7h10.977a.7.7,0,0,0,.683-.724v-13.6A.741.741,0,0,0,267.414,9.814Z" transform="translate(-242.963 0)" fill="#ffb400"/>
      </g>
      <path id="Path_22517" data-name="Path 22517" d="M88.49,74.576H71.739A.713.713,0,0,1,71,73.892V60.683A.713.713,0,0,1,71.739,60H88.49a.713.713,0,0,1,.739.683V73.892A.713.713,0,0,1,88.49,74.576Z" transform="translate(-67.766 -57.267)" fill="#dcf5fa"/>
      <path id="Path_22518" data-name="Path 22518" d="M263.743,60H256V74.576h7.743a.683.683,0,0,0,.683-.683V60.683A.683.683,0,0,0,263.743,60Z" transform="translate(-242.963 -57.267)" fill="#bedce6"/>
      <g id="Group_12397" data-name="Group 12397" transform="translate(8.048 5.728)">
        <path id="Path_22519" data-name="Path 22519" d="M170.064,118.065l0-.014a4.327,4.327,0,1,0-6.8,4.662,4.362,4.362,0,0,0,2.542.915h.013a.455.455,0,0,0,.012-.911,3.417,3.417,0,0,1-.942-6.67,3.416,3.416,0,0,1,4.306,2.26A2.989,2.989,0,0,1,169,120.3a1.008,1.008,0,0,1-.925.687.35.35,0,0,1-.238-.111.557.557,0,0,1-.156-.389l.006-1.141c0-.031,0-.062,0-.094s0-.039,0-.059l.01-2.1a.455.455,0,0,0-.453-.458h0a.456.456,0,0,0-.455.453v.157a1.774,1.774,0,0,0-1.05-.335,2.2,2.2,0,0,0-2.076,2.356A2.266,2.266,0,0,0,165.7,121.7a1.775,1.775,0,0,0,1.246-.525,1.427,1.427,0,0,0,.25.341,1.244,1.244,0,0,0,.883.379,1.914,1.914,0,0,0,1.772-1.261A3.878,3.878,0,0,0,170.064,118.065Zm-4.368,2.721c-.54,0-1.123-.584-1.123-1.527a1.307,1.307,0,0,1,1.165-1.445c.6,0,1.017.558,1.04,1.364v.156C166.744,120.143,166.271,120.787,165.7,120.787Z" transform="translate(-161.59 -114.972)" fill="#696969"/>
        <g id="Group_12396" data-name="Group 12396" transform="translate(4.3 0)">
          <path id="Path_22520" data-name="Path 22520" d="M256.374,285.63a.455.455,0,0,0-.374-.46v.9A.455.455,0,0,0,256.374,285.63Z" transform="translate(-256 -277.418)" fill="#555"/>
          <path id="Path_22521" data-name="Path 22521" d="M260.168,118.055A4.334,4.334,0,0,0,256,114.976v.911a3.421,3.421,0,0,1,3.295,2.423,2.989,2.989,0,0,1-.186,1.988,1.007,1.007,0,0,1-.926.687.349.349,0,0,1-.238-.111.557.557,0,0,1-.156-.389l.006-1.141c0-.031,0-.062,0-.094s0-.039,0-.059l.01-2.1a.455.455,0,0,0-.453-.458h0a.455.455,0,0,0-.455.453v.157a1.763,1.763,0,0,0-.9-.328v.918c.514.088.865.616.886,1.351v.156a1.462,1.462,0,0,1-.885,1.426v.925a1.8,1.8,0,0,0,1.05-.513,1.427,1.427,0,0,0,.25.341,1.244,1.244,0,0,0,.883.379,1.914,1.914,0,0,0,1.772-1.261,3.879,3.879,0,0,0,.217-2.567Z" transform="translate(-255.999 -114.976)" fill="#555"/>
        </g>
      </g>
      <path id="Path_22522" data-name="Path 22522" d="M23.974,214.211H.724A.7.7,0,0,1,0,213.528V200.683a.678.678,0,0,1,.372-.6.76.76,0,0,1,.734.017l11.243,6.608L23.591,200.1a.76.76,0,0,1,.734-.017.678.678,0,0,1,.372.6v12.845A.7.7,0,0,1,23.974,214.211Z" transform="translate(0 -189.514)" fill="#f7ad1a"/>
      <path id="Path_22523" data-name="Path 22523" d="M267.309,200.086a.683.683,0,0,0-.693.017L256,206.711v7.5h10.977a.683.683,0,0,0,.683-.683V200.683A.683.683,0,0,0,267.309,200.086Z" transform="translate(-242.963 -189.514)" fill="#ffcd14"/>
    </g>
  </g>
</svg>
