<svg xmlns="http://www.w3.org/2000/svg" width="49.668" height="46.294" viewBox="0 0 49.668 46.294">
  <g id="gallery_1_" data-name="gallery (1)" transform="translate(-0.25 -0.08)">
    <path id="Path_32266" data-name="Path 32266" d="M10.125,9.454a2.67,2.67,0,1,0,2.67,2.67A2.67,2.67,0,0,0,10.125,9.454ZM4.25,12.125A5.875,5.875,0,1,1,10.125,18,5.875,5.875,0,0,1,4.25,12.125Z" transform="translate(4.545 7.011)" fill-rule="evenodd"/>
    <path id="Path_32267" data-name="Path 32267" d="M16.208,20.56a70.826,70.826,0,0,0-8.4,12.312A1.6,1.6,0,1,1,5.017,31.3a73.925,73.925,0,0,1,8.8-12.875c2.874-3.218,5.793-5.45,8.828-6.5a11.906,11.906,0,0,1,9.226.549c2.991,1.394,5.89,3.938,8.768,7.47a1.6,1.6,0,1,1-2.484,2.024c-2.719-3.336-5.255-5.479-7.638-6.59a8.709,8.709,0,0,0-6.824-.425C21.369,15.758,18.885,17.562,16.208,20.56Z" transform="translate(5.182 12.685)" fill-rule="evenodd"/>
    <path id="Path_32268" data-name="Path 32268" d="M3.222,5.222A10.147,10.147,0,0,1,10.4,2.25H25.95a1.6,1.6,0,1,1,0,3.2H10.4A6.943,6.943,0,0,0,3.454,12.4V33.76A6.943,6.943,0,0,0,10.4,40.7H36.033a6.943,6.943,0,0,0,6.943-6.943V23.079a1.6,1.6,0,1,1,3.2,0V33.76A10.147,10.147,0,0,1,36.033,43.908H10.4A10.148,10.148,0,0,1,.25,33.76V12.4A10.148,10.148,0,0,1,3.222,5.222Z" transform="translate(0 2.466)" fill-rule="evenodd"/>
    <path id="Path_32269" data-name="Path 32269" d="M19.6.08a1.6,1.6,0,0,1,1.6,1.6v17.09a1.6,1.6,0,1,1-3.2,0V1.682A1.6,1.6,0,0,1,19.6.08Z" transform="translate(20.169 0)" fill-rule="evenodd"/>
    <path id="Path_32271" data-name="Path 32271" d="M19.6.08a1.6,1.6,0,0,1,1.6,1.6v17.09a1.6,1.6,0,1,1-3.2,0V1.682A1.6,1.6,0,0,1,19.6.08Z" transform="translate(49.998 -9.375) rotate(90)" fill-rule="evenodd"/>
  </g>
</svg>
