<svg xmlns="http://www.w3.org/2000/svg" xmlns:xlink="http://www.w3.org/1999/xlink" width="60" height="60" viewBox="0 0 60 60">
  <defs>
    <filter id="Path_22658" x="0" y="0" width="60" height="60" filterUnits="userSpaceOnUse">
      <feOffset dy="3" input="SourceAlpha"/>
      <feGaussianBlur stdDeviation="3" result="blur"/>
      <feFlood flood-opacity="0.11"/>
      <feComposite operator="in" in2="blur"/>
      <feComposite in="SourceGraphic"/>
    </filter>
  </defs>
  <g id="Group_38666" data-name="Group 38666" transform="translate(-53 -1319)">
    <g transform="matrix(1, 0, 0, 1, 53, 1319)" filter="url(#Path_22658)">
      <path id="Path_22658-2" data-name="Path 22658" d="M21,0A21,21,0,1,1,0,21,21,21,0,0,1,21,0Z" transform="translate(9 6)" fill="#fff"/>
    </g>
    <path id="Path_22098" data-name="Path 22098" d="M17.078,23.166A1.3,1.3,0,0,0,18,20.948l-6.877-6.864L18,7.22a1.3,1.3,0,0,0-1.842-1.842L8.371,13.163a1.3,1.3,0,0,0,0,1.829l7.785,7.785a1.3,1.3,0,0,0,.921.389Z" transform="translate(69.812 1331.92)"/>
  </g>
</svg>
