<svg xmlns="http://www.w3.org/2000/svg" width="14" height="14" viewBox="0 0 14 14">
  <path id="Path_29836" data-name="Path 29836" d="M7,0a7,7,0,1,0,7,7A7,7,0,0,0,7,0ZM8.456,10.848q-.541.214-.862.325a2.274,2.274,0,0,1-.748.112,1.491,1.491,0,0,1-1.013-.319,1.031,1.031,0,0,1-.363-.81A2.943,2.943,0,0,1,5.5,9.765c.018-.133.048-.283.087-.45l.451-1.593c.039-.153.074-.3.1-.433a1.924,1.924,0,0,0,.041-.375.577.577,0,0,0-.126-.425.709.709,0,0,0-.482-.119,1.265,1.265,0,0,0-.358.054c-.122.037-.227.071-.314.1l.119-.491q.442-.18.848-.3a2.5,2.5,0,0,1,.765-.13,1.462,1.462,0,0,1,1,.314,1.043,1.043,0,0,1,.352.815q0,.1-.024.366a2.446,2.446,0,0,1-.09.481L7.416,9.163c-.036.128-.069.273-.1.436a2.306,2.306,0,0,0-.044.371.533.533,0,0,0,.142.431.793.793,0,0,0,.49.115,1.418,1.418,0,0,0,.371-.058,2.109,2.109,0,0,0,.3-.1ZM8.377,4.4a1.07,1.07,0,0,1-.755.292A1.081,1.081,0,0,1,6.863,4.4a.953.953,0,0,1,0-1.418,1.074,1.074,0,0,1,.758-.295,1.062,1.062,0,0,1,.755.295.955.955,0,0,1,0,1.418Z" transform="translate(0.001)" fill="#090b1e"/>
</svg>
