<svg xmlns="http://www.w3.org/2000/svg" width="21.302" height="12.564" viewBox="0 0 21.302 12.564">
  <g id="visibility" transform="translate(-0.896 -65.301)">
    <g id="Group_9331" data-name="Group 9331" transform="translate(1.054 65.45)">
      <path id="Path_21595" data-name="Path 21595" d="M392.646,1112.239c-.221.258-.431.528-.666.773a19.666,19.666,0,0,1-5.432,4.109,9.63,9.63,0,0,1-4.832,1.115,9.8,9.8,0,0,1-3.563-.929,19.16,19.16,0,0,1-5.652-4.111c-.245-.248-.48-.506-.711-.767a.425.425,0,0,1,0-.626,19.886,19.886,0,0,1,6.287-4.846,9.757,9.757,0,0,1,8.363-.067,15.116,15.116,0,0,1,6.023,4.834c.066.086.122.179.182.269Zm-19.977-.17a1.223,1.223,0,0,0,.071.107,19.555,19.555,0,0,0,5.474,4.183,9.077,9.077,0,0,0,3.663,1.007,8.529,8.529,0,0,0,3.939-.875,18.49,18.49,0,0,0,5.033-3.583c.271-.26.55-.51.85-.787-.409-.452-.759-.863-1.134-1.248a13.822,13.822,0,0,0-4.674-3.254,8.8,8.8,0,0,0-7.194.025,16.342,16.342,0,0,0-4.017,2.583C373.992,1110.819,373.339,1111.452,372.668,1112.07Z" transform="translate(-371.652 -1105.981)" fill="#838383" stroke="#838383" stroke-width="0.3"/>
      <path id="Path_21596" data-name="Path 21596" d="M503.062,1161.071a3.5,3.5,0,1,1,3.5-3.491A3.492,3.492,0,0,1,503.062,1161.071Zm.014-6.129a2.629,2.629,0,1,0,2.615,2.632A2.634,2.634,0,0,0,503.077,1154.942Z" transform="translate(-492.569 -1151.436)" fill="#838383" stroke="#838383" stroke-width="0.3"/>
    </g>
  </g>
</svg>
