<?xml version="1.0" encoding="utf-8"?>
<!-- Generator: Adobe Illustrator 27.0.1, SVG Export Plug-In . SVG Version: 6.00 Build 0)  -->
<svg version="1.1" id="Layer_1" xmlns="http://www.w3.org/2000/svg" xmlns:xlink="http://www.w3.org/1999/xlink" x="0px" y="0px"
	 viewBox="0 0 50 50" style="enable-background:new 0 0 50 50;" xml:space="preserve">
<style type="text/css">
	.st0{fill:#1852D8;}
</style>
<g>
	<path class="st0" d="M2.8,30.2c0.6,0,1.1-0.2,1.5-0.7l0.8-1c1.2,7.2,6.2,13.3,13.3,15.7c2.2,0.8,4.4,1.1,6.7,1.1
		c6.6,0,13-3.3,16.9-9c0.6-0.9,0.3-2-0.5-2.6c-0.9-0.6-2-0.3-2.6,0.5c-4.2,6.3-12.1,8.9-19.2,6.5c-5.9-2.1-10.1-7.2-10.9-13.2
		l1.6,1.2c0.8,0.6,2,0.5,2.6-0.3s0.5-2-0.3-2.6l-4.4-3.4c-0.9-0.7-2.2-1.1-3.1,0l-3.7,4.9c-0.6,0.8-0.5,2,0.3,2.6
		C2,30,2.4,30.2,2.8,30.2L2.8,30.2z"/>
	<path class="st0" d="M8.6,16.3c0.9,0.6,2,0.3,2.6-0.5c4.2-6.3,12.1-8.9,19.2-6.5c5.9,2.1,10.1,7.2,10.9,13.2l-1.6-1.2
		c-0.8-0.6-2-0.5-2.6,0.3s-0.5,2,0.3,2.6l4.4,3.4c0.9,0.7,2.2,1.1,3.1,0l3.7-4.9c0.6-0.8,0.5-2-0.3-2.6s-2-0.5-2.6,0.3l-0.8,1
		c-1.2-7.2-6.2-13.3-13.3-15.7c-8.7-3-18.4,0.2-23.5,7.9C7.6,14.6,7.8,15.8,8.6,16.3z"/>
</g>
</svg>
