<svg xmlns="http://www.w3.org/2000/svg" width="22" height="22" viewBox="0 0 22 22">
  <g id="Line" transform="translate(-76 -74)">
    <path id="Path_22636" data-name="Path 22636" d="M3,12a1,1,0,1,1-2,0A11,11,0,0,1,12,1a10.86,10.86,0,0,1,7,2.55V3.17a1,1,0,1,1,2,0V6a1,1,0,0,1-1,1H17.17a1,1,0,1,1,0-2h.47A8.83,8.83,0,0,0,12,3a9,9,0,0,0-9,9Zm19-1a1,1,0,0,0-1,1,9,9,0,0,1-9,9,8.85,8.85,0,0,1-5.62-2h.45a1,1,0,1,0,0-2H4a1,1,0,0,0-1,1v2.83a1,1,0,0,0,2,0v-.38A10.86,10.86,0,0,0,12,23,11,11,0,0,0,23,12,1,1,0,0,0,22,11ZM15.37,9l-4.06,4L9.63,11.29a1,1,0,0,0-1.41,1.42l2.38,2.33a1.015,1.015,0,0,0,1.4,0l4.76-4.67A1,1,0,0,0,15.37,9Z" transform="translate(75 73)" fill="#06ac00"/>
  </g>
</svg>
