<svg xmlns="http://www.w3.org/2000/svg" width="17.684" height="17.668" viewBox="0 0 17.684 17.668">
  <g id="_02_User" data-name="02 User" transform="translate(0.316 0.369)">
    <path id="Path_31414" data-name="Path 31414" d="M.824,17a.83.83,0,0,1-.587-1.417L15.577.24a.83.83,0,1,1,1.174,1.174L1.411,16.753A.828.828,0,0,1,.824,17Z" transform="translate(0.006 0.003)" fill="#090b1e" stroke="#090b1e" stroke-width="0.6"/>
    <path id="Path_31415" data-name="Path 31415" d="M16.166,17a.828.828,0,0,1-.587-.243L.24,1.414A.83.83,0,1,1,1.414.24l15.34,15.34A.83.83,0,0,1,16.166,17Z" transform="translate(0.003 0.003)" fill="#090b1e" stroke="#090b1e" stroke-width="0.6"/>
  </g>
</svg>
