<svg xmlns="http://www.w3.org/2000/svg" width="14.46" height="14.46" viewBox="0 0 14.46 14.46">
  <g id="steering-wheel" transform="translate(0.05 0.05)">
    <path id="Path_41302" data-name="Path 41302" d="M54.3,46.779a14.04,14.04,0,0,1,9.736,0,.365.365,0,0,0,.143.029.359.359,0,0,0,.334-.49,5.738,5.738,0,0,0-10.689,0,.359.359,0,0,0,.477.461Zm4.868-3.393a4.989,4.989,0,0,1,4.29,2.412,15.245,15.245,0,0,0-8.58,0A4.989,4.989,0,0,1,59.163,43.386Zm0,0" transform="translate(-51.983 -41.232)" fill="#090b1e" stroke="#090b1e" stroke-width="0.1"/>
    <path id="Path_41303" data-name="Path 41303" d="M7.18,0a7.18,7.18,0,1,0,7.18,7.18A7.18,7.18,0,0,0,7.18,0Zm0,13.642A6.462,6.462,0,1,1,13.642,7.18,6.462,6.462,0,0,1,7.18,13.642Zm0,0" fill="#090b1e" stroke="#090b1e" stroke-width="0.1"/>
    <path id="Path_41304" data-name="Path 41304" d="M240.484,214.512a.364.364,0,0,0-.285-.1c-2.816.263-4.357,2.014-4.581,5.207a.359.359,0,0,0,.358.384.355.355,0,0,0,.074-.008,5.76,5.76,0,0,0,4.54-5.2A.358.358,0,0,0,240.484,214.512Zm-4.1,4.653c.29-2.337,1.42-3.645,3.44-3.982A5.047,5.047,0,0,1,236.383,219.165Zm0,0" transform="translate(-227.688 -207.193)" fill="#090b1e" stroke="#090b1e" stroke-width="0.1"/>
    <path id="Path_41305" data-name="Path 41305" d="M43.656,214.42a.374.374,0,0,0-.285.1.358.358,0,0,0-.106.282A5.759,5.759,0,0,0,47.8,220a.353.353,0,0,0,.073.008.359.359,0,0,0,.358-.384c-.224-3.192-1.765-4.944-4.581-5.207Zm.377.772c2.019.337,3.149,1.646,3.439,3.982a5.047,5.047,0,0,1-3.439-3.982Zm0,0" transform="translate(-41.807 -207.202)" fill="#090b1e" stroke="#090b1e" stroke-width="0.1"/>
    <path id="Path_41306" data-name="Path 41306" d="M173.54,172.1a1.436,1.436,0,1,0-1.436,1.436A1.436,1.436,0,0,0,173.54,172.1Zm-1.436.718a.718.718,0,1,1,.718-.718A.718.718,0,0,1,172.1,172.822Zm0,0" transform="translate(-164.924 -164.924)" fill="#090b1e" stroke="#090b1e" stroke-width="0.1"/>
  </g>
</svg>
