<svg xmlns="http://www.w3.org/2000/svg" width="64" height="64" viewBox="0 0 64 64">
  <g id="Group_39923" data-name="Group 39923" transform="translate(0.084 -0.335)">
    <g id="Ellipse_500" data-name="Ellipse 500" transform="translate(-0.084 0.335)" fill="#fff" stroke="#e9e9e9" stroke-width="1">
      <circle cx="32" cy="32" r="32" stroke="none"/>
      <circle cx="32" cy="32" r="31.5" fill="none"/>
    </g>
    <path id="twitter" d="M29.918,50.878a12.788,12.788,0,0,1-3.534.969,6.1,6.1,0,0,0,2.7-3.39,12.258,12.258,0,0,1-3.889,1.485,6.133,6.133,0,0,0-10.61,4.194,6.316,6.316,0,0,0,.142,1.4A17.361,17.361,0,0,1,2.083,49.118a6.135,6.135,0,0,0,1.885,8.2A6.057,6.057,0,0,1,1.2,56.56v.067a6.162,6.162,0,0,0,4.914,6.027,6.122,6.122,0,0,1-1.608.2,5.423,5.423,0,0,1-1.161-.1,6.192,6.192,0,0,0,5.731,4.273,12.324,12.324,0,0,1-7.6,2.616A11.488,11.488,0,0,1,0,69.556a17.267,17.267,0,0,0,9.409,2.752c11.287,0,17.457-9.349,17.457-17.454,0-.271-.009-.533-.022-.793A12.236,12.236,0,0,0,29.918,50.878Z" transform="translate(16.957 -26.819)" fill="#03a9f4"/>
  </g>
</svg>
