<svg xmlns="http://www.w3.org/2000/svg" width="36.156" height="36.156" viewBox="0 0 36.156 36.156">
  <g id="wishlist" transform="translate(-314.5 -942.5)">
    <circle id="Ellipse_342" data-name="Ellipse 342" cx="17.578" cy="17.578" r="17.578" transform="translate(315 943)" fill="#fff" stroke="#e0e0e0" stroke-width="1"/>
    <path id="heart" d="M9.857,51.643a.576.576,0,0,1-.291-.078,34.488,34.488,0,0,1-4.738-3.411A19.554,19.554,0,0,1,1.54,44.632,7.432,7.432,0,0,1,0,40.4a6.1,6.1,0,0,1,1.552-4.088,5.1,5.1,0,0,1,3.8-1.722,5.272,5.272,0,0,1,4.5,2.669,5.272,5.272,0,0,1,4.5-2.669,5.132,5.132,0,0,1,3.652,1.552,6.016,6.016,0,0,1,1.7,4.263,7.576,7.576,0,0,1-1.568,4.221,19.808,19.808,0,0,1-3.283,3.522,34.6,34.6,0,0,1-4.715,3.411.582.582,0,0,1-.291.079Z" transform="translate(323 918.406)" fill="#f71137" stroke="#f71137" stroke-width="1"/>
  </g>
</svg>
